<?xml version="1.0" encoding="utf-8" standalone="no"?>
<!DOCTYPE svg PUBLIC "-//W3C//DTD SVG 1.1//EN"
  "http://www.w3.org/Graphics/SVG/1.1/DTD/svg11.dtd">
<!-- Created with matplotlib (https://matplotlib.org/) -->
<svg height="288pt" version="1.1" viewBox="0 0 576 288" width="576pt" xmlns="http://www.w3.org/2000/svg" xmlns:xlink="http://www.w3.org/1999/xlink">
 <defs>
  <style type="text/css">
*{stroke-linecap:butt;stroke-linejoin:round;}
  </style>
 </defs>
 <g id="figure_1">
  <g id="patch_1">
   <path d="M 0 288 
L 576 288 
L 576 0 
L 0 0 
z
" style="fill:#ffffff;"/>
  </g>
  <g id="axes_1">
   <g id="patch_2">
    <path d="M 43.8 65.4 
L 280.36579 65.4 
L 280.36579 26.8 
L 43.8 26.8 
z
" style="fill:#ffffff;"/>
   </g>
   <g id="matplotlib.axis_1">
    <g id="xtick_1">
     <g id="line2d_1">
      <defs>
       <path d="M 0 0 
L 0 3.5 
" id="m6a6e72e092" style="stroke:#000000;stroke-width:0.8;"/>
      </defs>
      <g>
       <use style="stroke:#000000;stroke-width:0.8;" x="43.800004" xlink:href="#m6a6e72e092" y="75.4"/>
      </g>
     </g>
     <g id="text_1">
      <!-- 0 -->
      <defs>
       <path d="M 31.78125 66.40625 
Q 24.171875 66.40625 20.328125 58.90625 
Q 16.5 51.421875 16.5 36.375 
Q 16.5 21.390625 20.328125 13.890625 
Q 24.171875 6.390625 31.78125 6.390625 
Q 39.453125 6.390625 43.28125 13.890625 
Q 47.125 21.390625 47.125 36.375 
Q 47.125 51.421875 43.28125 58.90625 
Q 39.453125 66.40625 31.78125 66.40625 
z
M 31.78125 74.21875 
Q 44.046875 74.21875 50.515625 64.515625 
Q 56.984375 54.828125 56.984375 36.375 
Q 56.984375 17.96875 50.515625 8.265625 
Q 44.046875 -1.421875 31.78125 -1.421875 
Q 19.53125 -1.421875 13.0625 8.265625 
Q 6.59375 17.96875 6.59375 36.375 
Q 6.59375 54.828125 13.0625 64.515625 
Q 19.53125 74.21875 31.78125 74.21875 
z
" id="DejaVuSans-48"/>
      </defs>
      <g transform="translate(40.618754 89.998437)scale(0.1 -0.1)">
       <use xlink:href="#DejaVuSans-48"/>
      </g>
     </g>
    </g>
    <g id="xtick_2">
     <g id="line2d_2">
      <g>
       <use style="stroke:#000000;stroke-width:0.8;" x="63.018899" xlink:href="#m6a6e72e092" y="75.4"/>
      </g>
     </g>
     <g id="text_2">
      <!-- 5 -->
      <defs>
       <path d="M 10.796875 72.90625 
L 49.515625 72.90625 
L 49.515625 64.59375 
L 19.828125 64.59375 
L 19.828125 46.734375 
Q 21.96875 47.46875 24.109375 47.828125 
Q 26.265625 48.1875 28.421875 48.1875 
Q 40.625 48.1875 47.75 41.5 
Q 54.890625 34.8125 54.890625 23.390625 
Q 54.890625 11.625 47.5625 5.09375 
Q 40.234375 -1.421875 26.90625 -1.421875 
Q 22.3125 -1.421875 17.546875 -0.640625 
Q 12.796875 0.140625 7.71875 1.703125 
L 7.71875 11.625 
Q 12.109375 9.234375 16.796875 8.0625 
Q 21.484375 6.890625 26.703125 6.890625 
Q 35.15625 6.890625 40.078125 11.328125 
Q 45.015625 15.765625 45.015625 23.390625 
Q 45.015625 31 40.078125 35.4375 
Q 35.15625 39.890625 26.703125 39.890625 
Q 22.75 39.890625 18.8125 39.015625 
Q 14.890625 38.140625 10.796875 36.28125 
z
" id="DejaVuSans-53"/>
      </defs>
      <g transform="translate(59.837649 89.998437)scale(0.1 -0.1)">
       <use xlink:href="#DejaVuSans-53"/>
      </g>
     </g>
    </g>
    <g id="xtick_3">
     <g id="line2d_3">
      <g>
       <use style="stroke:#000000;stroke-width:0.8;" x="82.237795" xlink:href="#m6a6e72e092" y="75.4"/>
      </g>
     </g>
     <g id="text_3">
      <!-- 10 -->
      <defs>
       <path d="M 12.40625 8.296875 
L 28.515625 8.296875 
L 28.515625 63.921875 
L 10.984375 60.40625 
L 10.984375 69.390625 
L 28.421875 72.90625 
L 38.28125 72.90625 
L 38.28125 8.296875 
L 54.390625 8.296875 
L 54.390625 0 
L 12.40625 0 
z
" id="DejaVuSans-49"/>
      </defs>
      <g transform="translate(75.875295 89.998437)scale(0.1 -0.1)">
       <use xlink:href="#DejaVuSans-49"/>
       <use x="63.623047" xlink:href="#DejaVuSans-48"/>
      </g>
     </g>
    </g>
    <g id="xtick_4">
     <g id="line2d_4">
      <g>
       <use style="stroke:#000000;stroke-width:0.8;" x="101.456691" xlink:href="#m6a6e72e092" y="75.4"/>
      </g>
     </g>
     <g id="text_4">
      <!-- 15 -->
      <g transform="translate(95.094191 89.998437)scale(0.1 -0.1)">
       <use xlink:href="#DejaVuSans-49"/>
       <use x="63.623047" xlink:href="#DejaVuSans-53"/>
      </g>
     </g>
    </g>
    <g id="xtick_5">
     <g id="line2d_5">
      <g>
       <use style="stroke:#000000;stroke-width:0.8;" x="120.675586" xlink:href="#m6a6e72e092" y="75.4"/>
      </g>
     </g>
     <g id="text_5">
      <!-- 20 -->
      <defs>
       <path d="M 19.1875 8.296875 
L 53.609375 8.296875 
L 53.609375 0 
L 7.328125 0 
L 7.328125 8.296875 
Q 12.9375 14.109375 22.625 23.890625 
Q 32.328125 33.6875 34.8125 36.53125 
Q 39.546875 41.84375 41.421875 45.53125 
Q 43.3125 49.21875 43.3125 52.78125 
Q 43.3125 58.59375 39.234375 62.25 
Q 35.15625 65.921875 28.609375 65.921875 
Q 23.96875 65.921875 18.8125 64.3125 
Q 13.671875 62.703125 7.8125 59.421875 
L 7.8125 69.390625 
Q 13.765625 71.78125 18.9375 73 
Q 24.125 74.21875 28.421875 74.21875 
Q 39.75 74.21875 46.484375 68.546875 
Q 53.21875 62.890625 53.21875 53.421875 
Q 53.21875 48.921875 51.53125 44.890625 
Q 49.859375 40.875 45.40625 35.40625 
Q 44.1875 33.984375 37.640625 27.21875 
Q 31.109375 20.453125 19.1875 8.296875 
z
" id="DejaVuSans-50"/>
      </defs>
      <g transform="translate(114.313086 89.998437)scale(0.1 -0.1)">
       <use xlink:href="#DejaVuSans-50"/>
       <use x="63.623047" xlink:href="#DejaVuSans-48"/>
      </g>
     </g>
    </g>
    <g id="xtick_6">
     <g id="line2d_6">
      <g>
       <use style="stroke:#000000;stroke-width:0.8;" x="139.894482" xlink:href="#m6a6e72e092" y="75.4"/>
      </g>
     </g>
     <g id="text_6">
      <!-- 25 -->
      <g transform="translate(133.531982 89.998437)scale(0.1 -0.1)">
       <use xlink:href="#DejaVuSans-50"/>
       <use x="63.623047" xlink:href="#DejaVuSans-53"/>
      </g>
     </g>
    </g>
    <g id="xtick_7">
     <g id="line2d_7">
      <g>
       <use style="stroke:#000000;stroke-width:0.8;" x="159.113378" xlink:href="#m6a6e72e092" y="75.4"/>
      </g>
     </g>
     <g id="text_7">
      <!-- 30 -->
      <defs>
       <path d="M 40.578125 39.3125 
Q 47.65625 37.796875 51.625 33 
Q 55.609375 28.21875 55.609375 21.1875 
Q 55.609375 10.40625 48.1875 4.484375 
Q 40.765625 -1.421875 27.09375 -1.421875 
Q 22.515625 -1.421875 17.65625 -0.515625 
Q 12.796875 0.390625 7.625 2.203125 
L 7.625 11.71875 
Q 11.71875 9.328125 16.59375 8.109375 
Q 21.484375 6.890625 26.8125 6.890625 
Q 36.078125 6.890625 40.9375 10.546875 
Q 45.796875 14.203125 45.796875 21.1875 
Q 45.796875 27.640625 41.28125 31.265625 
Q 36.765625 34.90625 28.71875 34.90625 
L 20.21875 34.90625 
L 20.21875 43.015625 
L 29.109375 43.015625 
Q 36.375 43.015625 40.234375 45.921875 
Q 44.09375 48.828125 44.09375 54.296875 
Q 44.09375 59.90625 40.109375 62.90625 
Q 36.140625 65.921875 28.71875 65.921875 
Q 24.65625 65.921875 20.015625 65.03125 
Q 15.375 64.15625 9.8125 62.3125 
L 9.8125 71.09375 
Q 15.4375 72.65625 20.34375 73.4375 
Q 25.25 74.21875 29.59375 74.21875 
Q 40.828125 74.21875 47.359375 69.109375 
Q 53.90625 64.015625 53.90625 55.328125 
Q 53.90625 49.265625 50.4375 45.09375 
Q 46.96875 40.921875 40.578125 39.3125 
z
" id="DejaVuSans-51"/>
      </defs>
      <g transform="translate(152.750878 89.998437)scale(0.1 -0.1)">
       <use xlink:href="#DejaVuSans-51"/>
       <use x="63.623047" xlink:href="#DejaVuSans-48"/>
      </g>
     </g>
    </g>
    <g id="xtick_8">
     <g id="line2d_8">
      <g>
       <use style="stroke:#000000;stroke-width:0.8;" x="178.332273" xlink:href="#m6a6e72e092" y="75.4"/>
      </g>
     </g>
     <g id="text_8">
      <!-- 35 -->
      <g transform="translate(171.969773 89.998437)scale(0.1 -0.1)">
       <use xlink:href="#DejaVuSans-51"/>
       <use x="63.623047" xlink:href="#DejaVuSans-53"/>
      </g>
     </g>
    </g>
    <g id="xtick_9">
     <g id="line2d_9">
      <g>
       <use style="stroke:#000000;stroke-width:0.8;" x="197.551169" xlink:href="#m6a6e72e092" y="75.4"/>
      </g>
     </g>
     <g id="text_9">
      <!-- 40 -->
      <defs>
       <path d="M 37.796875 64.3125 
L 12.890625 25.390625 
L 37.796875 25.390625 
z
M 35.203125 72.90625 
L 47.609375 72.90625 
L 47.609375 25.390625 
L 58.015625 25.390625 
L 58.015625 17.1875 
L 47.609375 17.1875 
L 47.609375 0 
L 37.796875 0 
L 37.796875 17.1875 
L 4.890625 17.1875 
L 4.890625 26.703125 
z
" id="DejaVuSans-52"/>
      </defs>
      <g transform="translate(191.188669 89.998437)scale(0.1 -0.1)">
       <use xlink:href="#DejaVuSans-52"/>
       <use x="63.623047" xlink:href="#DejaVuSans-48"/>
      </g>
     </g>
    </g>
    <g id="xtick_10">
     <g id="line2d_10">
      <g>
       <use style="stroke:#000000;stroke-width:0.8;" x="216.770064" xlink:href="#m6a6e72e092" y="75.4"/>
      </g>
     </g>
     <g id="text_10">
      <!-- 45 -->
      <g transform="translate(210.407564 89.998437)scale(0.1 -0.1)">
       <use xlink:href="#DejaVuSans-52"/>
       <use x="63.623047" xlink:href="#DejaVuSans-53"/>
      </g>
     </g>
    </g>
    <g id="xtick_11">
     <g id="line2d_11">
      <g>
       <use style="stroke:#000000;stroke-width:0.8;" x="235.98896" xlink:href="#m6a6e72e092" y="75.4"/>
      </g>
     </g>
     <g id="text_11">
      <!-- 50 -->
      <g transform="translate(229.62646 89.998437)scale(0.1 -0.1)">
       <use xlink:href="#DejaVuSans-53"/>
       <use x="63.623047" xlink:href="#DejaVuSans-48"/>
      </g>
     </g>
    </g>
    <g id="xtick_12">
     <g id="line2d_12">
      <g>
       <use style="stroke:#000000;stroke-width:0.8;" x="255.207856" xlink:href="#m6a6e72e092" y="75.4"/>
      </g>
     </g>
     <g id="text_12">
      <!-- 55 -->
      <g transform="translate(248.845356 89.998437)scale(0.1 -0.1)">
       <use xlink:href="#DejaVuSans-53"/>
       <use x="63.623047" xlink:href="#DejaVuSans-53"/>
      </g>
     </g>
    </g>
    <g id="xtick_13">
     <g id="line2d_13">
      <g>
       <use style="stroke:#000000;stroke-width:0.8;" x="274.426751" xlink:href="#m6a6e72e092" y="75.4"/>
      </g>
     </g>
     <g id="text_13">
      <!-- 60 -->
      <defs>
       <path d="M 33.015625 40.375 
Q 26.375 40.375 22.484375 35.828125 
Q 18.609375 31.296875 18.609375 23.390625 
Q 18.609375 15.53125 22.484375 10.953125 
Q 26.375 6.390625 33.015625 6.390625 
Q 39.65625 6.390625 43.53125 10.953125 
Q 47.40625 15.53125 47.40625 23.390625 
Q 47.40625 31.296875 43.53125 35.828125 
Q 39.65625 40.375 33.015625 40.375 
z
M 52.59375 71.296875 
L 52.59375 62.3125 
Q 48.875 64.0625 45.09375 64.984375 
Q 41.3125 65.921875 37.59375 65.921875 
Q 27.828125 65.921875 22.671875 59.328125 
Q 17.53125 52.734375 16.796875 39.40625 
Q 19.671875 43.65625 24.015625 45.921875 
Q 28.375 48.1875 33.59375 48.1875 
Q 44.578125 48.1875 50.953125 41.515625 
Q 57.328125 34.859375 57.328125 23.390625 
Q 57.328125 12.15625 50.6875 5.359375 
Q 44.046875 -1.421875 33.015625 -1.421875 
Q 20.359375 -1.421875 13.671875 8.265625 
Q 6.984375 17.96875 6.984375 36.375 
Q 6.984375 53.65625 15.1875 63.9375 
Q 23.390625 74.21875 37.203125 74.21875 
Q 40.921875 74.21875 44.703125 73.484375 
Q 48.484375 72.75 52.59375 71.296875 
z
" id="DejaVuSans-54"/>
      </defs>
      <g transform="translate(268.064251 89.998437)scale(0.1 -0.1)">
       <use xlink:href="#DejaVuSans-54"/>
       <use x="63.623047" xlink:href="#DejaVuSans-48"/>
      </g>
     </g>
    </g>
   </g>
   <g id="matplotlib.axis_2">
    <g id="ytick_1">
     <g id="line2d_14">
      <defs>
       <path d="M 0 0 
L -3.5 0 
" id="mf6d099ee67" style="stroke:#000000;stroke-width:0.8;"/>
      </defs>
      <g>
       <use style="stroke:#000000;stroke-width:0.8;" x="33.8" xlink:href="#mf6d099ee67" y="65.4"/>
      </g>
     </g>
     <g id="text_14">
      <!-- 0.0 -->
      <defs>
       <path d="M 10.6875 12.40625 
L 21 12.40625 
L 21 0 
L 10.6875 0 
z
" id="DejaVuSans-46"/>
      </defs>
      <g transform="translate(10.896875 69.199219)scale(0.1 -0.1)">
       <use xlink:href="#DejaVuSans-48"/>
       <use x="63.623047" xlink:href="#DejaVuSans-46"/>
       <use x="95.410156" xlink:href="#DejaVuSans-48"/>
      </g>
     </g>
    </g>
    <g id="ytick_2">
     <g id="line2d_15">
      <g>
       <use style="stroke:#000000;stroke-width:0.8;" x="33.8" xlink:href="#mf6d099ee67" y="46.1"/>
      </g>
     </g>
     <g id="text_15">
      <!-- 0.5 -->
      <g transform="translate(10.896875 49.899219)scale(0.1 -0.1)">
       <use xlink:href="#DejaVuSans-48"/>
       <use x="63.623047" xlink:href="#DejaVuSans-46"/>
       <use x="95.410156" xlink:href="#DejaVuSans-53"/>
      </g>
     </g>
    </g>
    <g id="ytick_3">
     <g id="line2d_16">
      <g>
       <use style="stroke:#000000;stroke-width:0.8;" x="33.8" xlink:href="#mf6d099ee67" y="26.8"/>
      </g>
     </g>
     <g id="text_16">
      <!-- 1.0 -->
      <g transform="translate(10.896875 30.599219)scale(0.1 -0.1)">
       <use xlink:href="#DejaVuSans-49"/>
       <use x="63.623047" xlink:href="#DejaVuSans-46"/>
       <use x="95.410156" xlink:href="#DejaVuSans-48"/>
      </g>
     </g>
    </g>
    <g id="ytick_4">
     <g id="line2d_17">
      <defs>
       <path d="M 0 0 
L -2 0 
" id="m2fa3fd479c" style="stroke:#000000;stroke-width:0.6;"/>
      </defs>
      <g>
       <use style="stroke:#000000;stroke-width:0.6;" x="33.8" xlink:href="#m2fa3fd479c" y="55.75"/>
      </g>
     </g>
    </g>
    <g id="ytick_5">
     <g id="line2d_18">
      <g>
       <use style="stroke:#000000;stroke-width:0.6;" x="33.8" xlink:href="#m2fa3fd479c" y="36.45"/>
      </g>
     </g>
    </g>
   </g>
   <g id="line2d_19">
    <path clip-path="url(#pfdcdee15fd)" d="M 43.800008 35.010606 
L 44.184386 31.079196 
L 44.568764 30.28365 
L 44.953141 35.69537 
L 45.337519 29.155372 
L 45.721897 29.173128 
L 46.106275 30.268982 
L 46.490653 34.461714 
L 46.875031 34.860452 
L 47.259409 29.989132 
L 47.643787 30.612522 
L 48.028165 30.608662 
L 48.412543 33.30603 
L 48.796921 31.818 
L 49.181298 29.734372 
L 49.565676 30.585502 
L 49.950054 33.93328 
L 50.334432 33.402144 
L 50.71881 31.088846 
L 51.103188 35.458366 
L 51.487566 31.005084 
L 51.871944 33.150086 
L 52.256322 30.697442 
L 52.6407 29.857892 
L 53.025078 29.827012 
L 53.409455 29.64482 
L 53.793833 30.68123 
L 54.562589 33.364702 
L 54.946967 31.18303 
L 55.331345 33.14198 
L 55.715723 31.587558 
L 56.100101 48.19791 
L 56.484479 32.158066 
L 56.868857 31.424666 
L 57.253235 31.826878 
L 57.637613 31.361362 
L 58.02199 30.057068 
L 58.406368 31.506498 
L 58.790746 29.578042 
L 59.175124 32.906134 
L 59.559502 32.706186 
L 59.94388 31.554748 
L 60.328258 31.315042 
L 60.712636 33.071728 
L 61.097014 31.321218 
L 61.481392 32.53789 
L 61.86577 31.10583 
L 62.250147 33.54728 
L 62.634525 40.86584 
L 63.018903 45.552652 
L 63.403281 33.751474 
L 63.787659 33.1883 
L 64.172037 31.306164 
L 64.556415 32.63246 
L 64.940793 33.492082 
L 65.325171 30.895846 
L 65.709549 32.590386 
L 66.093927 32.220212 
L 66.478305 31.148676 
L 66.862682 30.74106 
L 67.24706 33.236164 
L 67.631438 33.027338 
L 68.015816 32.580736 
L 68.400194 34.661662 
L 68.784572 35.628206 
L 69.16895 37.552416 
L 69.937706 31.689848 
L 70.322084 37.705272 
L 70.706462 33.598618 
L 71.090839 32.471112 
L 71.475217 32.585368 
L 71.859595 35.832014 
L 72.243973 30.737586 
L 72.628351 34.63773 
L 73.012729 33.260482 
L 73.781485 31.266406 
L 74.165863 32.363804 
L 74.550241 31.924536 
L 74.934619 30.334602 
L 75.318996 31.92415 
L 75.703374 31.916816 
L 76.087752 30.950658 
L 76.47213 30.607118 
L 76.856508 36.159728 
L 77.240886 31.026314 
L 77.625264 33.372808 
L 78.009642 33.218408 
L 78.778398 35.691124 
L 79.162776 34.355178 
L 79.547154 34.079188 
L 79.931531 34.351704 
L 80.315909 37.516132 
L 80.700287 36.14699 
L 81.084665 56.011708 
L 81.469043 63.49702 
L 81.853421 63.92355 
L 82.237799 63.671492 
L 82.622177 54.693904 
L 83.006555 39.555756 
L 83.390933 41.466456 
L 83.775311 38.17928 
L 84.159688 32.667586 
L 84.544066 32.422476 
L 84.928444 31.779014 
L 85.312822 37.811808 
L 86.081578 32.117536 
L 86.850334 38.493098 
L 87.234712 36.507514 
L 87.61909 36.44614 
L 88.003468 34.928388 
L 88.387846 32.7058 
L 88.772223 33.707856 
L 89.156601 36.208364 
L 89.540979 32.99144 
L 89.925357 35.415906 
L 90.309735 34.67633 
L 90.694113 35.355304 
L 91.078491 33.823656 
L 91.462869 34.999412 
L 91.847247 36.781188 
L 92.231625 35.599256 
L 92.616003 36.006486 
L 93.00038 39.19639 
L 93.384758 33.587038 
L 93.769136 34.181478 
L 94.153514 33.055902 
L 94.537892 32.743242 
L 94.92227 31.228578 
L 95.691026 33.036988 
L 96.075404 35.009834 
L 96.459782 39.226112 
L 96.84416 36.81863 
L 97.228537 39.29868 
L 98.381671 34.245168 
L 98.766049 37.563996 
L 99.150427 38.09436 
L 99.534805 34.066836 
L 99.919183 31.803718 
L 100.303561 32.403176 
L 100.687939 35.472262 
L 101.072317 35.917706 
L 101.841072 33.861484 
L 102.22545 34.543932 
L 102.609828 36.554992 
L 102.994206 35.586518 
L 103.378584 33.311048 
L 103.762962 38.940858 
L 104.14734 32.923504 
L 104.531718 33.632972 
L 104.916096 35.51588 
L 105.300474 33.219566 
L 105.684852 33.360456 
L 106.069229 35.828926 
L 106.453607 33.889276 
L 106.837985 32.700782 
L 107.222363 35.505072 
L 107.606741 35.383868 
L 107.991119 38.811934 
L 108.375497 37.071846 
L 108.759875 32.90459 
L 109.144253 31.662056 
L 109.528631 33.21918 
L 109.913009 32.686886 
L 110.297387 31.386066 
L 110.681764 39.081748 
L 111.066142 39.2871 
L 111.45052 32.307062 
L 111.834898 31.987068 
L 112.219276 37.560522 
L 112.603654 32.199368 
L 112.988032 31.513832 
L 113.37241 35.439838 
L 113.756788 34.63001 
L 114.141166 35.092824 
L 114.525544 39.62871 
L 114.909921 34.52579 
L 115.294299 33.286344 
L 115.678677 34.042518 
L 116.063055 35.864052 
L 116.447433 35.747094 
L 116.831811 43.126642 
L 117.216189 31.817614 
L 117.600567 31.53429 
L 117.984945 33.91012 
L 118.753701 39.767284 
L 119.138078 39.158948 
L 119.522456 38.336382 
L 119.906834 35.747866 
L 120.291212 36.653808 
L 121.059968 32.44718 
L 121.444346 36.451544 
L 121.828724 36.474318 
L 122.213102 35.559884 
L 122.59748 33.139664 
L 122.981858 34.777462 
L 123.366236 37.82609 
L 123.750613 33.30796 
L 124.134991 31.165274 
L 124.519369 32.430196 
L 124.903747 31.059124 
L 125.288125 33.788144 
L 125.672503 33.937912 
L 126.056881 35.727794 
L 126.441259 35.279648 
L 126.825637 35.33832 
L 127.594393 30.985398 
L 127.97877 31.325078 
L 128.747526 36.536464 
L 129.131904 33.953738 
L 129.516282 38.796494 
L 129.90066 33.63992 
L 130.285038 33.507136 
L 130.669416 33.226128 
L 131.053794 32.667972 
L 131.438172 32.637478 
L 131.82255 33.053972 
L 132.206927 32.102868 
L 132.591305 31.567486 
L 132.975683 34.418868 
L 133.360061 36.236156 
L 133.744439 32.705414 
L 134.128817 31.994402 
L 134.513195 33.851834 
L 134.897573 34.804868 
L 135.666329 32.261514 
L 136.050707 32.854024 
L 136.435085 33.70554 
L 136.819462 35.308212 
L 137.20384 33.138506 
L 137.588218 34.129754 
L 137.972596 32.373454 
L 138.356974 33.666554 
L 138.741352 33.7287 
L 139.12573 36.006486 
L 139.510108 35.544058 
L 139.894486 32.48192 
L 140.278864 34.799078 
L 140.663242 32.204772 
L 141.047619 35.942796 
L 141.816375 34.357108 
L 142.200753 30.998522 
L 142.969509 34.026692 
L 143.353887 34.936108 
L 143.738265 38.533628 
L 144.122643 37.125886 
L 144.507021 33.522962 
L 144.891399 35.601958 
L 145.275777 32.872938 
L 145.660154 32.884132 
L 146.044532 34.36174 
L 146.42891 38.674518 
L 146.813288 32.219826 
L 147.197666 31.074564 
L 147.966422 30.82791 
L 148.3508 31.81993 
L 148.735178 42.130762 
L 149.119556 44.117504 
L 149.503934 42.167818 
L 149.888311 35.789554 
L 150.272689 31.906394 
L 151.041445 32.226388 
L 151.425823 31.693322 
L 151.810201 37.657408 
L 152.194579 32.050372 
L 152.578957 31.481022 
L 152.963335 31.178398 
L 153.347713 35.079314 
L 153.732091 31.701042 
L 154.116468 33.940228 
L 154.500846 31.333184 
L 154.885224 33.114188 
L 155.269602 31.9338 
L 155.65398 32.327134 
L 156.038358 33.867274 
L 156.422736 33.307574 
L 156.807114 31.826492 
L 157.57587 34.393006 
L 157.960248 31.975874 
L 158.344626 34.038658 
L 159.113381 33.912436 
L 159.497759 34.891718 
L 159.882137 34.514596 
L 160.266515 39.169756 
L 160.650893 33.663852 
L 161.035271 34.885928 
L 161.419649 33.525664 
L 161.804027 39.921298 
L 162.188405 43.916784 
L 162.572783 36.525656 
L 162.95716 49.239338 
L 163.341538 31.992858 
L 163.725916 31.330482 
L 164.110294 36.302934 
L 164.87905 51.656084 
L 165.647806 34.927616 
L 166.032184 40.853874 
L 166.416562 39.461572 
L 166.80094 35.63168 
L 167.185318 44.882556 
L 167.569695 37.128974 
L 167.954073 40.93532 
L 168.338451 37.43044 
L 168.722829 46.858876 
L 169.107207 48.530256 
L 169.491585 48.219526 
L 169.875963 42.943292 
L 170.260341 42.80163 
L 170.644719 40.737688 
L 171.029097 40.75583 
L 171.413475 44.98639 
L 171.797852 37.039422 
L 172.18223 36.914744 
L 172.566608 39.507892 
L 172.950986 37.716852 
L 173.335364 45.361196 
L 173.719742 36.807822 
L 174.10412 33.12847 
L 174.488498 32.180454 
L 174.872876 32.664884 
L 175.257254 36.292512 
L 175.641632 38.275394 
L 176.026009 33.795478 
L 176.410387 44.128698 
L 176.794765 44.769844 
L 177.179143 38.664096 
L 177.563521 48.60128 
L 177.947899 35.625118 
L 178.332277 39.012654 
L 178.716655 31.87011 
L 179.101033 33.290976 
L 179.485411 40.148266 
L 179.869789 35.41359 
L 180.254167 38.039162 
L 180.638544 42.161642 
L 181.022922 37.817598 
L 181.4073 38.54791 
L 181.791678 35.854788 
L 182.176056 40.060258 
L 182.560434 39.126138 
L 182.944812 45.907 
L 183.713568 34.040588 
L 184.097946 39.662292 
L 184.482324 36.972644 
L 184.866701 40.763936 
L 185.635457 32.41244 
L 186.019835 44.477256 
L 186.404213 44.774476 
L 186.788591 48.064354 
L 187.172969 38.457972 
L 187.557347 43.384104 
L 187.941725 42.134622 
L 188.326103 44.662536 
L 188.710481 39.769214 
L 189.094859 44.913822 
L 189.479236 47.467598 
L 189.863614 46.903266 
L 190.63237 40.976622 
L 191.016748 38.684168 
L 191.401126 42.399804 
L 191.785504 38.674132 
L 192.169882 43.706414 
L 192.55426 40.683262 
L 192.938638 41.496178 
L 193.323016 36.524112 
L 193.707393 39.338052 
L 194.476149 31.951556 
L 194.860527 33.424146 
L 195.244905 32.36226 
L 195.629283 32.292008 
L 196.013661 35.49658 
L 196.398039 36.076738 
L 196.782417 31.851968 
L 197.166795 36.412172 
L 197.93555 33.287116 
L 198.319928 34.849644 
L 198.704306 31.723816 
L 199.088684 33.873836 
L 199.473062 34.654714 
L 199.85744 34.115858 
L 200.241818 36.368168 
L 200.626196 39.693944 
L 201.394952 43.859656 
L 201.77933 40.535038 
L 202.163708 44.555614 
L 202.548085 46.681702 
L 202.932463 41.005186 
L 203.316841 55.397196 
L 203.701219 54.513642 
L 204.085597 40.976622 
L 204.469975 47.504268 
L 204.854353 38.127942 
L 205.238731 47.153394 
L 205.623109 48.793894 
L 206.007487 32.204772 
L 206.391865 49.59523 
L 206.776242 38.510468 
L 207.16062 40.544302 
L 207.544998 38.508152 
L 207.929376 33.187528 
L 208.313754 31.10583 
L 208.698132 31.21005 
L 209.08251 36.628332 
L 209.466888 32.088586 
L 210.235644 44.64864 
L 210.620022 40.898264 
L 211.0044 46.492562 
L 211.388777 46.85077 
L 211.773155 37.399174 
L 212.157533 35.326354 
L 212.541911 42.106444 
L 212.926289 42.898516 
L 213.310667 48.827862 
L 214.079423 36.41333 
L 214.463801 35.224836 
L 214.848179 40.79443 
L 215.232557 37.74889 
L 215.616934 37.966208 
L 216.001312 35.473034 
L 216.38569 36.678898 
L 216.770068 32.812722 
L 217.154446 47.560238 
L 217.538824 47.005942 
L 217.923202 40.694456 
L 218.30758 39.909332 
L 218.691958 47.59189 
L 219.076336 38.911136 
L 219.460714 36.875758 
L 219.845091 63.0068 
L 220.229469 63.630576 
L 220.613847 61.248956 
L 220.998225 31.073792 
L 221.382603 35.34797 
L 221.766981 34.760478 
L 222.151359 36.099126 
L 222.535737 35.371516 
L 222.920115 33.863028 
L 223.304493 31.145202 
L 224.457626 38.689186 
L 224.842004 35.121002 
L 225.226382 35.583044 
L 225.61076 37.831494 
L 225.995138 35.259962 
L 226.379516 43.262514 
L 226.763894 40.915248 
L 227.148272 33.220724 
L 227.53265 37.246704 
L 227.917028 39.984602 
L 228.301406 37.948066 
L 228.685783 41.717356 
L 229.070161 39.963758 
L 229.454539 34.735774 
L 229.838917 38.293536 
L 230.223295 33.50868 
L 230.607673 37.403806 
L 230.992051 35.185464 
L 231.376429 35.123318 
L 232.145185 40.254416 
L 232.529563 29.560286 
L 232.91394 32.495044 
L 233.298318 31.940748 
L 234.067074 45.799692 
L 234.451452 42.913184 
L 234.83583 36.206048 
L 235.220208 36.121514 
L 235.604586 42.615964 
L 235.988964 37.354012 
L 236.373342 37.601824 
L 236.75772 40.22122 
L 237.142098 46.946112 
L 237.526475 44.550982 
L 237.910853 41.088176 
L 238.295231 41.406626 
L 238.679609 34.248256 
L 239.063987 30.310284 
L 239.448365 36.385538 
L 239.832743 38.020248 
L 240.217121 34.421184 
L 240.601499 41.853228 
L 240.985877 38.90882 
L 241.370255 51.657242 
L 241.754632 39.84487 
L 242.13901 51.52909 
L 242.523388 40.227396 
L 242.907766 34.089996 
L 243.292144 40.909072 
L 243.676522 35.369586 
L 244.0609 35.510476 
L 244.445278 33.654202 
L 244.829656 39.421042 
L 245.214034 50.492294 
L 245.598412 36.851826 
L 245.98279 35.855174 
L 246.367167 48.590858 
L 246.751545 55.326172 
L 247.135923 33.908576 
L 247.520301 40.331616 
L 247.904679 35.053452 
L 248.289057 35.669508 
L 248.673435 41.729708 
L 249.057813 35.77836 
L 249.442191 41.528602 
L 249.826569 45.130754 
L 250.210947 32.72703 
L 250.595324 55.231988 
L 250.979702 43.69522 
L 251.36408 44.058832 
L 251.748458 52.355516 
L 252.132836 38.58844 
L 252.517214 45.993464 
L 252.901592 42.03735 
L 253.28597 60.135346 
L 254.054726 35.32481 
L 254.439104 33.350034 
L 254.823481 34.627694 
L 255.207859 42.042754 
L 255.592237 35.657156 
L 255.976615 37.36675 
L 256.360993 35.691124 
L 256.745371 44.301626 
L 257.129749 46.668192 
L 257.514127 44.448692 
L 257.898505 34.034412 
L 258.282883 37.254038 
L 258.667261 54.055846 
L 259.051639 38.556016 
L 259.436016 41.256086 
L 259.820394 31.978576 
L 260.204772 40.743864 
L 260.58915 41.716198 
L 260.973528 37.632318 
L 261.357906 42.248106 
L 261.742284 37.983964 
L 262.126662 38.814636 
L 262.51104 31.932642 
L 263.279796 40.728038 
L 263.664173 46.931058 
L 264.048551 48.444564 
L 264.432929 35.821592 
L 264.817307 32.147644 
L 265.201685 32.58807 
L 265.586063 48.297498 
L 265.970441 44.78181 
L 266.354819 51.308684 
L 266.739197 50.25915 
L 267.123575 40.600658 
L 267.507953 38.222512 
L 267.892331 40.049836 
L 268.276708 39.379354 
L 268.661086 34.55088 
L 269.045464 38.610828 
L 269.429842 40.50107 
L 269.81422 47.394644 
L 270.198598 45.39941 
L 270.582976 53.210892 
L 270.967354 53.49962 
L 271.351732 50.783338 
L 271.73611 44.111328 
L 272.504865 54.581192 
L 272.889243 60.072814 
L 273.273621 38.701924 
L 273.657999 35.35955 
L 274.042377 38.404704 
L 274.426755 54.694676 
L 274.811133 34.564776 
L 275.195511 37.9361 
L 275.579889 38.693432 
L 275.964267 48.371224 
L 276.348645 63.240716 
L 277.501778 51.857576 
L 277.886156 61.150526 
L 278.270534 51.273558 
L 278.654912 54.52252 
L 279.03929 55.403758 
L 279.423668 55.241638 
L 279.808046 60.231846 
L 280.192424 61.942645 
L 280.192424 61.942645 
" style="fill:none;stroke:#1f77b4;stroke-linecap:square;stroke-width:1.5;"/>
   </g>
   <g id="patch_3">
    <path d="M 33.8 65.4 
L 33.8 26.8 
" style="fill:none;stroke:#000000;stroke-linecap:square;stroke-linejoin:miter;stroke-width:0.8;"/>
   </g>
   <g id="patch_4">
    <path d="M 43.8 75.4 
L 280.36579 75.4 
" style="fill:none;stroke:#000000;stroke-linecap:square;stroke-linejoin:miter;stroke-width:0.8;"/>
   </g>
   <g id="text_17">
    <!-- 2R -->
    <defs>
     <path d="M 28.8125 13.8125 
L 60.890625 13.8125 
L 60.890625 0 
L 7.90625 0 
L 7.90625 13.8125 
L 34.515625 37.3125 
Q 38.09375 40.53125 39.796875 43.609375 
Q 41.5 46.6875 41.5 50 
Q 41.5 55.125 38.0625 58.25 
Q 34.625 61.375 28.90625 61.375 
Q 24.515625 61.375 19.28125 59.5 
Q 14.0625 57.625 8.109375 53.90625 
L 8.109375 69.921875 
Q 14.453125 72.015625 20.65625 73.109375 
Q 26.859375 74.21875 32.8125 74.21875 
Q 45.90625 74.21875 53.15625 68.453125 
Q 60.40625 62.703125 60.40625 52.390625 
Q 60.40625 46.4375 57.328125 41.28125 
Q 54.25 36.140625 44.390625 27.484375 
z
" id="DejaVuSans-Bold-50"/>
     <path d="M 35.890625 40.578125 
Q 41.796875 40.578125 44.359375 42.765625 
Q 46.921875 44.96875 46.921875 50 
Q 46.921875 54.984375 44.359375 57.125 
Q 41.796875 59.28125 35.890625 59.28125 
L 27.984375 59.28125 
L 27.984375 40.578125 
z
M 27.984375 27.59375 
L 27.984375 0 
L 9.1875 0 
L 9.1875 72.90625 
L 37.890625 72.90625 
Q 52.296875 72.90625 59 68.0625 
Q 65.71875 63.234375 65.71875 52.78125 
Q 65.71875 45.5625 62.21875 40.921875 
Q 58.734375 36.28125 51.703125 34.078125 
Q 55.5625 33.203125 58.609375 30.09375 
Q 61.671875 27 64.796875 20.703125 
L 75 0 
L 54.984375 0 
L 46.09375 18.109375 
Q 43.40625 23.578125 40.640625 25.578125 
Q 37.890625 27.59375 33.296875 27.59375 
z
" id="DejaVuSans-Bold-82"/>
    </defs>
    <g transform="translate(153.288207 20.8)scale(0.12 -0.12)">
     <use xlink:href="#DejaVuSans-Bold-50"/>
     <use x="69.580078" xlink:href="#DejaVuSans-Bold-82"/>
    </g>
   </g>
  </g>
  <g id="axes_2">
   <g id="patch_5">
    <path d="M 295.63421 65.4 
L 532.2 65.4 
L 532.2 26.8 
L 295.63421 26.8 
z
" style="fill:#ffffff;"/>
   </g>
   <g id="matplotlib.axis_3">
    <g id="xtick_14">
     <g id="line2d_20">
      <g>
       <use style="stroke:#000000;stroke-width:0.8;" x="295.63421" xlink:href="#m6a6e72e092" y="75.4"/>
      </g>
     </g>
     <g id="text_18">
      <!-- 0 -->
      <g transform="translate(292.45296 89.998437)scale(0.1 -0.1)">
       <use xlink:href="#DejaVuSans-48"/>
      </g>
     </g>
    </g>
    <g id="xtick_15">
     <g id="line2d_21">
      <g>
       <use style="stroke:#000000;stroke-width:0.8;" x="314.853106" xlink:href="#m6a6e72e092" y="75.4"/>
      </g>
     </g>
     <g id="text_19">
      <!-- 5 -->
      <g transform="translate(311.671856 89.998437)scale(0.1 -0.1)">
       <use xlink:href="#DejaVuSans-53"/>
      </g>
     </g>
    </g>
    <g id="xtick_16">
     <g id="line2d_22">
      <g>
       <use style="stroke:#000000;stroke-width:0.8;" x="334.072002" xlink:href="#m6a6e72e092" y="75.4"/>
      </g>
     </g>
     <g id="text_20">
      <!-- 10 -->
      <g transform="translate(327.709502 89.998437)scale(0.1 -0.1)">
       <use xlink:href="#DejaVuSans-49"/>
       <use x="63.623047" xlink:href="#DejaVuSans-48"/>
      </g>
     </g>
    </g>
    <g id="xtick_17">
     <g id="line2d_23">
      <g>
       <use style="stroke:#000000;stroke-width:0.8;" x="353.290897" xlink:href="#m6a6e72e092" y="75.4"/>
      </g>
     </g>
     <g id="text_21">
      <!-- 15 -->
      <g transform="translate(346.928397 89.998437)scale(0.1 -0.1)">
       <use xlink:href="#DejaVuSans-49"/>
       <use x="63.623047" xlink:href="#DejaVuSans-53"/>
      </g>
     </g>
    </g>
    <g id="xtick_18">
     <g id="line2d_24">
      <g>
       <use style="stroke:#000000;stroke-width:0.8;" x="372.509793" xlink:href="#m6a6e72e092" y="75.4"/>
      </g>
     </g>
     <g id="text_22">
      <!-- 20 -->
      <g transform="translate(366.147293 89.998437)scale(0.1 -0.1)">
       <use xlink:href="#DejaVuSans-50"/>
       <use x="63.623047" xlink:href="#DejaVuSans-48"/>
      </g>
     </g>
    </g>
    <g id="xtick_19">
     <g id="line2d_25">
      <g>
       <use style="stroke:#000000;stroke-width:0.8;" x="391.728688" xlink:href="#m6a6e72e092" y="75.4"/>
      </g>
     </g>
     <g id="text_23">
      <!-- 25 -->
      <g transform="translate(385.366188 89.998437)scale(0.1 -0.1)">
       <use xlink:href="#DejaVuSans-50"/>
       <use x="63.623047" xlink:href="#DejaVuSans-53"/>
      </g>
     </g>
    </g>
    <g id="xtick_20">
     <g id="line2d_26">
      <g>
       <use style="stroke:#000000;stroke-width:0.8;" x="410.947584" xlink:href="#m6a6e72e092" y="75.4"/>
      </g>
     </g>
     <g id="text_24">
      <!-- 30 -->
      <g transform="translate(404.585084 89.998437)scale(0.1 -0.1)">
       <use xlink:href="#DejaVuSans-51"/>
       <use x="63.623047" xlink:href="#DejaVuSans-48"/>
      </g>
     </g>
    </g>
    <g id="xtick_21">
     <g id="line2d_27">
      <g>
       <use style="stroke:#000000;stroke-width:0.8;" x="430.16648" xlink:href="#m6a6e72e092" y="75.4"/>
      </g>
     </g>
     <g id="text_25">
      <!-- 35 -->
      <g transform="translate(423.80398 89.998437)scale(0.1 -0.1)">
       <use xlink:href="#DejaVuSans-51"/>
       <use x="63.623047" xlink:href="#DejaVuSans-53"/>
      </g>
     </g>
    </g>
    <g id="xtick_22">
     <g id="line2d_28">
      <g>
       <use style="stroke:#000000;stroke-width:0.8;" x="449.385375" xlink:href="#m6a6e72e092" y="75.4"/>
      </g>
     </g>
     <g id="text_26">
      <!-- 40 -->
      <g transform="translate(443.022875 89.998437)scale(0.1 -0.1)">
       <use xlink:href="#DejaVuSans-52"/>
       <use x="63.623047" xlink:href="#DejaVuSans-48"/>
      </g>
     </g>
    </g>
    <g id="xtick_23">
     <g id="line2d_29">
      <g>
       <use style="stroke:#000000;stroke-width:0.8;" x="468.604271" xlink:href="#m6a6e72e092" y="75.4"/>
      </g>
     </g>
     <g id="text_27">
      <!-- 45 -->
      <g transform="translate(462.241771 89.998437)scale(0.1 -0.1)">
       <use xlink:href="#DejaVuSans-52"/>
       <use x="63.623047" xlink:href="#DejaVuSans-53"/>
      </g>
     </g>
    </g>
   </g>
   <g id="matplotlib.axis_4">
    <g id="ytick_6">
     <g id="line2d_30">
      <defs>
       <path d="M 0 0 
L 3.5 0 
" id="m252d124202" style="stroke:#000000;stroke-width:0.8;"/>
      </defs>
      <g>
       <use style="stroke:#000000;stroke-width:0.8;" x="542.2" xlink:href="#m252d124202" y="65.4"/>
      </g>
     </g>
     <g id="text_28">
      <!-- 0.0 -->
      <g transform="translate(549.2 69.199219)scale(0.1 -0.1)">
       <use xlink:href="#DejaVuSans-48"/>
       <use x="63.623047" xlink:href="#DejaVuSans-46"/>
       <use x="95.410156" xlink:href="#DejaVuSans-48"/>
      </g>
     </g>
    </g>
    <g id="ytick_7">
     <g id="line2d_31">
      <g>
       <use style="stroke:#000000;stroke-width:0.8;" x="542.2" xlink:href="#m252d124202" y="46.1"/>
      </g>
     </g>
     <g id="text_29">
      <!-- 0.5 -->
      <g transform="translate(549.2 49.899219)scale(0.1 -0.1)">
       <use xlink:href="#DejaVuSans-48"/>
       <use x="63.623047" xlink:href="#DejaVuSans-46"/>
       <use x="95.410156" xlink:href="#DejaVuSans-53"/>
      </g>
     </g>
    </g>
    <g id="ytick_8">
     <g id="line2d_32">
      <g>
       <use style="stroke:#000000;stroke-width:0.8;" x="542.2" xlink:href="#m252d124202" y="26.8"/>
      </g>
     </g>
     <g id="text_30">
      <!-- 1.0 -->
      <g transform="translate(549.2 30.599219)scale(0.1 -0.1)">
       <use xlink:href="#DejaVuSans-49"/>
       <use x="63.623047" xlink:href="#DejaVuSans-46"/>
       <use x="95.410156" xlink:href="#DejaVuSans-48"/>
      </g>
     </g>
    </g>
    <g id="ytick_9">
     <g id="line2d_33">
      <defs>
       <path d="M 0 0 
L 2 0 
" id="m4d93033263" style="stroke:#000000;stroke-width:0.6;"/>
      </defs>
      <g>
       <use style="stroke:#000000;stroke-width:0.6;" x="542.2" xlink:href="#m4d93033263" y="55.75"/>
      </g>
     </g>
    </g>
    <g id="ytick_10">
     <g id="line2d_34">
      <g>
       <use style="stroke:#000000;stroke-width:0.6;" x="542.2" xlink:href="#m4d93033263" y="36.45"/>
      </g>
     </g>
    </g>
   </g>
   <g id="line2d_35">
    <path clip-path="url(#p801a7dc475)" d="M 295.634214 62.31586 
L 296.018592 60.366946 
L 296.40297 57.828996 
L 296.787348 59.128658 
L 297.171726 55.524962 
L 297.556104 57.761446 
L 297.940482 61.684364 
L 298.32486 51.74525 
L 298.709237 59.958172 
L 299.093615 51.59664 
L 299.477993 57.41173 
L 299.862371 57.7765 
L 300.246749 54.686956 
L 301.015505 57.81124 
L 301.399883 42.524482 
L 301.784261 53.854354 
L 302.168639 55.301468 
L 302.553017 58.107688 
L 302.937395 50.372248 
L 303.321772 46.621872 
L 304.090528 56.345984 
L 304.474906 53.1059 
L 304.859284 47.69997 
L 305.243662 45.123806 
L 305.62804 45.950232 
L 306.012418 48.824388 
L 306.781174 41.645946 
L 307.165552 37.624212 
L 307.549929 41.931972 
L 307.934307 36.67581 
L 308.318685 43.198052 
L 308.703063 35.002114 
L 309.087441 40.392604 
L 309.471819 37.616878 
L 309.856197 36.866494 
L 310.240575 39.870732 
L 310.624953 40.0784 
L 311.009331 62.427414 
L 311.393709 39.206426 
L 311.778086 38.59809 
L 312.162464 37.531186 
L 312.546842 31.678654 
L 313.315598 48.340344 
L 313.699976 38.652902 
L 314.084354 37.13515 
L 314.468732 39.604778 
L 315.237488 64.279056 
L 315.621866 61.531508 
L 316.006244 62.790254 
L 316.390621 59.088128 
L 317.159377 40.140546 
L 317.543755 32.170804 
L 317.928133 40.480612 
L 318.312511 42.46195 
L 318.696889 42.710148 
L 319.081267 35.607362 
L 319.465645 39.980742 
L 319.850023 50.180406 
L 320.234401 35.56027 
L 320.618778 43.3401 
L 321.003156 33.82134 
L 321.387534 34.436624 
L 321.771912 31.992858 
L 322.15629 33.255464 
L 322.540668 36.858002 
L 322.925046 43.479446 
L 323.309424 42.634492 
L 324.07818 54.704712 
L 324.846936 29.381568 
L 325.231313 40.225852 
L 325.615691 33.702452 
L 326.000069 30.458122 
L 326.384447 33.890048 
L 326.768825 35.330214 
L 327.153203 39.784654 
L 327.537581 48.644126 
L 327.921959 62.883666 
L 328.306337 54.795808 
L 328.690715 37.108902 
L 329.075093 42.24193 
L 329.843848 37.188032 
L 330.228226 37.26639 
L 330.612604 48.38319 
L 330.996982 43.682096 
L 331.38136 35.24375 
L 331.765738 37.383734 
L 332.534494 35.715056 
L 332.918872 41.679914 
L 333.30325 32.410124 
L 333.687627 34.609552 
L 334.072005 33.052814 
L 334.456383 41.738586 
L 334.840761 32.33138 
L 335.225139 36.700514 
L 335.993895 38.750174 
L 336.378273 33.87538 
L 336.762651 35.194728 
L 337.147029 33.621392 
L 337.531407 38.60388 
L 337.915785 37.886692 
L 338.300162 33.62834 
L 338.68454 36.562712 
L 339.068918 37.570558 
L 339.453296 43.794422 
L 340.222052 35.41359 
L 340.60643 34.211972 
L 340.990808 30.88774 
L 341.375186 32.590772 
L 341.759564 35.944726 
L 342.143942 34.838064 
L 342.528319 34.90021 
L 342.912697 37.39763 
L 343.297075 37.95733 
L 343.681453 36.98268 
L 344.065831 34.221622 
L 344.450209 34.310402 
L 344.834587 38.073516 
L 345.218965 32.581894 
L 345.603343 42.161256 
L 345.987721 38.380386 
L 346.372099 36.961836 
L 346.756476 40.148652 
L 347.140854 55.669326 
L 347.525232 39.409076 
L 347.90961 37.673234 
L 348.293988 37.299972 
L 348.678366 37.467496 
L 349.062744 39.154316 
L 349.447122 34.181864 
L 349.8315 35.035696 
L 350.215878 38.26034 
L 350.600256 34.596814 
L 350.984634 35.350286 
L 351.369011 38.904574 
L 351.753389 33.694346 
L 352.137767 35.354532 
L 352.906523 40.325054 
L 353.290901 34.933792 
L 353.675279 38.996056 
L 354.059657 30.582414 
L 354.444035 33.395582 
L 354.828413 34.53158 
L 355.212791 32.966736 
L 355.597168 35.601958 
L 355.981546 36.080598 
L 356.365924 42.323376 
L 356.750302 35.651752 
L 357.13468 36.126918 
L 357.519058 43.439688 
L 357.903436 41.55485 
L 358.287814 35.142232 
L 358.672192 38.269604 
L 359.05657 33.536086 
L 359.440948 32.433284 
L 359.825326 34.837678 
L 360.209703 35.909986 
L 360.594081 34.982814 
L 360.978459 41.498494 
L 361.362837 31.558222 
L 361.747215 32.79844 
L 362.131593 34.920668 
L 362.515971 36.26086 
L 362.900349 39.70012 
L 363.284727 35.607362 
L 364.053483 40.299192 
L 364.43786 35.650594 
L 364.822238 40.42966 
L 365.206616 37.667444 
L 365.590994 37.513044 
L 365.975372 40.691754 
L 366.35975 39.19639 
L 366.744128 43.083024 
L 367.128506 40.19999 
L 367.512884 40.67863 
L 367.897262 37.526554 
L 368.28164 40.851558 
L 368.666017 39.995024 
L 369.050395 46.429258 
L 369.434773 34.140562 
L 369.819151 40.8311 
L 370.587907 35.32481 
L 370.972285 35.836646 
L 371.356663 39.247342 
L 371.741041 33.992338 
L 372.125419 35.682632 
L 372.509797 34.72651 
L 372.894175 34.528106 
L 373.278552 34.202708 
L 373.66293 39.787742 
L 374.047308 35.50044 
L 374.431686 42.109532 
L 375.200442 46.560884 
L 375.58482 41.042242 
L 375.969198 37.652004 
L 376.353576 36.404452 
L 376.737954 37.299586 
L 377.122332 36.65072 
L 377.506709 37.32043 
L 378.659843 36.400978 
L 379.044221 35.349128 
L 379.428599 38.340242 
L 379.812977 35.344496 
L 380.197355 38.224056 
L 380.581733 34.628852 
L 380.966111 33.42569 
L 381.350489 34.374864 
L 381.734867 34.920668 
L 382.119244 40.927986 
L 382.503622 33.08794 
L 382.888 37.750434 
L 383.656756 34.528878 
L 384.425512 36.475476 
L 384.80989 35.341408 
L 385.194268 37.034018 
L 385.578646 37.286076 
L 385.963024 38.752104 
L 386.347401 33.486292 
L 387.500535 37.315798 
L 387.884913 34.306928 
L 388.269291 34.525404 
L 388.653669 36.34771 
L 389.038047 33.279782 
L 389.422425 35.458752 
L 389.806803 32.164242 
L 390.191181 35.117528 
L 390.959936 36.532604 
L 391.344314 39.174002 
L 391.728692 35.592694 
L 392.497448 41.451402 
L 392.881826 41.28851 
L 393.266204 34.96004 
L 393.650582 34.926844 
L 394.03496 34.223166 
L 394.419338 34.20155 
L 394.803716 37.585612 
L 395.188093 35.417064 
L 395.572471 36.534534 
L 395.956849 41.87523 
L 396.341227 34.646994 
L 396.725605 36.240402 
L 397.109983 31.7987 
L 397.494361 38.266902 
L 397.878739 37.290322 
L 398.263117 34.34244 
L 398.647495 36.432244 
L 399.031873 33.285186 
L 399.41625 34.594498 
L 399.800628 34.97934 
L 400.185006 36.68932 
L 400.569384 39.116874 
L 400.953762 36.067474 
L 401.33814 35.385026 
L 401.722518 35.333688 
L 402.106896 31.987454 
L 402.491274 36.666932 
L 402.875652 34.07803 
L 403.26003 32.760998 
L 403.644408 35.228696 
L 404.028785 40.986658 
L 404.413163 39.658432 
L 405.181919 31.980506 
L 405.566297 32.896098 
L 405.950675 35.418222 
L 406.335053 33.925174 
L 406.719431 34.90986 
L 407.103809 42.018822 
L 407.488187 35.671438 
L 407.872565 39.390934 
L 408.256942 36.632578 
L 408.64132 36.718656 
L 409.025698 39.03041 
L 409.410076 36.936746 
L 409.794454 37.526554 
L 410.178832 35.933146 
L 410.56321 41.974046 
L 410.947588 65.343258 
L 411.331966 46.493334 
L 411.716344 35.73397 
L 412.100722 40.568234 
L 412.485099 40.385656 
L 413.253855 33.47973 
L 413.638233 34.847714 
L 414.022611 33.62448 
L 414.406989 31.635036 
L 415.175745 38.392352 
L 415.560123 36.376274 
L 415.944501 37.152906 
L 416.328879 40.184936 
L 416.713257 41.164218 
L 417.097634 40.54932 
L 417.482012 38.903802 
L 417.86639 39.431078 
L 418.250768 31.6057 
L 418.635146 35.165006 
L 419.019524 37.305376 
L 419.403902 33.896224 
L 419.78828 38.908048 
L 420.557036 36.73178 
L 420.941414 34.767426 
L 421.325791 37.571716 
L 421.710169 36.74915 
L 422.094547 38.004808 
L 422.478925 37.473286 
L 422.863303 35.655226 
L 423.247681 37.556662 
L 423.632059 37.345906 
L 424.016437 38.511626 
L 424.400815 35.632452 
L 424.785193 34.103506 
L 425.169571 37.574418 
L 425.553949 37.657408 
L 425.938326 34.578672 
L 426.322704 34.700648 
L 426.707082 38.801898 
L 427.09146 38.865974 
L 427.475838 36.799716 
L 427.860216 35.551392 
L 428.244594 33.429164 
L 428.628972 35.171182 
L 429.01335 32.904976 
L 429.397728 33.669256 
L 429.782106 33.610584 
L 430.166483 32.510484 
L 430.550861 33.418742 
L 430.935239 35.886826 
L 431.319617 35.291614 
L 431.703995 32.414756 
L 432.088373 31.734624 
L 432.472751 34.377952 
L 432.857129 34.546634 
L 433.241507 33.657676 
L 433.625885 35.47728 
L 434.010263 33.74221 
L 434.39464 35.246452 
L 434.779018 32.777596 
L 435.163396 32.750962 
L 435.932152 35.796888 
L 436.31653 33.926718 
L 436.700908 33.32533 
L 437.085286 35.574552 
L 437.469664 33.099134 
L 437.854042 44.056902 
L 438.23842 36.9711 
L 438.622798 35.159602 
L 439.007175 60.202896 
L 439.391553 39.915894 
L 439.775931 37.013946 
L 440.160309 36.7974 
L 440.544687 36.726376 
L 440.929065 35.733584 
L 441.313443 33.140822 
L 441.697821 34.523088 
L 442.082199 33.83292 
L 442.466577 34.959654 
L 442.850955 34.287628 
L 443.235332 32.862516 
L 443.61971 36.522182 
L 444.004088 34.702964 
L 444.388466 33.945632 
L 444.772844 34.816062 
L 445.157222 32.339872 
L 445.5416 35.460682 
L 445.925978 39.920912 
L 446.310356 37.043282 
L 446.694734 33.317996 
L 447.079112 34.920668 
L 447.463489 35.626276 
L 447.847867 36.912042 
L 448.232245 35.74169 
L 448.616623 33.54149 
L 449.001001 39.433394 
L 449.385379 39.471994 
L 449.769757 34.629624 
L 450.154135 34.501086 
L 450.538513 40.577884 
L 450.922891 36.151622 
L 451.307269 37.138624 
L 451.691647 33.629498 
L 452.076024 36.727534 
L 452.460402 35.39043 
L 452.84478 35.37113 
L 453.229158 41.638226 
L 453.613536 37.958488 
L 453.997914 36.40368 
L 454.382292 34.320824 
L 454.76667 36.478564 
L 455.151048 35.89609 
L 455.535426 37.392998 
L 455.919804 40.262522 
L 456.304181 35.42324 
L 456.688559 40.49914 
L 457.072937 33.282098 
L 457.457315 40.032852 
L 457.841693 33.745298 
L 458.226071 31.283776 
L 458.610449 33.086782 
L 458.994827 31.348624 
L 459.379205 31.497234 
L 459.763583 31.874356 
L 460.147961 34.039816 
L 460.532339 34.326228 
L 460.916716 33.436884 
L 461.301094 33.905102 
L 461.685472 31.482566 
L 462.06985 32.681096 
L 462.454228 35.06426 
L 462.838606 33.295608 
L 463.222984 32.104798 
L 463.607362 33.240024 
L 463.99174 33.221882 
L 464.760496 32.32559 
L 465.144873 38.139522 
L 465.913629 32.622038 
L 466.298007 40.03015 
L 466.682385 30.630664 
L 467.066763 31.88169 
L 467.451141 34.138246 
L 467.835519 42.612104 
L 468.219897 34.999026 
L 468.604275 42.196382 
L 468.988653 32.544838 
L 469.37303 31.663214 
L 469.757408 33.43727 
L 470.141786 31.381434 
L 470.526164 31.760486 
L 470.910542 34.983972 
L 471.29492 32.200912 
L 471.679298 31.975874 
L 472.063676 35.364954 
L 472.448054 31.432386 
L 472.832432 31.159098 
L 473.21681 30.649578 
L 473.601188 37.485252 
L 473.985565 35.8903 
L 474.369943 32.59965 
L 474.754321 32.52245 
L 475.138699 34.179162 
L 475.523077 31.481022 
L 475.907455 31.303848 
L 476.291833 32.788404 
L 476.676211 30.738744 
L 477.060589 32.425564 
L 477.444967 31.889024 
L 477.829345 31.664758 
L 478.213722 31.793682 
L 478.5981 35.089736 
L 478.982478 32.262286 
L 479.366856 31.13478 
L 479.751234 31.542396 
L 480.135612 31.230508 
L 480.51999 32.888378 
L 480.904368 31.636194 
L 481.288746 30.888126 
L 481.673124 31.159484 
L 482.057502 32.334854 
L 482.44188 30.615996 
L 482.826257 30.615224 
L 483.210635 30.94371 
L 483.595013 31.83923 
L 483.979391 32.073532 
L 484.363769 29.54446 
L 484.748147 30.014994 
L 485.132525 33.242435 
L 485.132525 33.242435 
" style="fill:none;stroke:#1f77b4;stroke-linecap:square;stroke-width:1.5;"/>
   </g>
   <g id="patch_6">
    <path d="M 542.2 65.4 
L 542.2 26.8 
" style="fill:none;stroke:#000000;stroke-linecap:square;stroke-linejoin:miter;stroke-width:0.8;"/>
   </g>
   <g id="patch_7">
    <path d="M 295.63421 75.4 
L 532.2 75.4 
" style="fill:none;stroke:#000000;stroke-linecap:square;stroke-linejoin:miter;stroke-width:0.8;"/>
   </g>
   <g id="text_31">
    <!-- 2L -->
    <defs>
     <path d="M 9.1875 72.90625 
L 27.984375 72.90625 
L 27.984375 14.203125 
L 60.984375 14.203125 
L 60.984375 0 
L 9.1875 0 
z
" id="DejaVuSans-Bold-76"/>
    </defs>
    <g transform="translate(405.919293 20.8)scale(0.12 -0.12)">
     <use xlink:href="#DejaVuSans-Bold-50"/>
     <use x="69.580078" xlink:href="#DejaVuSans-Bold-76"/>
    </g>
   </g>
  </g>
  <g id="axes_3">
   <g id="patch_8">
    <path d="M 43.8 157.8 
L 280.36579 157.8 
L 280.36579 119.2 
L 43.8 119.2 
z
" style="fill:#ffffff;"/>
   </g>
   <g id="matplotlib.axis_5">
    <g id="xtick_24">
     <g id="line2d_36">
      <g>
       <use style="stroke:#000000;stroke-width:0.8;" x="75.874115" xlink:href="#m6a6e72e092" y="167.8"/>
      </g>
     </g>
     <g id="text_32">
      <!-- 0 -->
      <g transform="translate(72.692865 182.398438)scale(0.1 -0.1)">
       <use xlink:href="#DejaVuSans-48"/>
      </g>
     </g>
    </g>
    <g id="xtick_25">
     <g id="line2d_37">
      <g>
       <use style="stroke:#000000;stroke-width:0.8;" x="95.093011" xlink:href="#m6a6e72e092" y="167.8"/>
      </g>
     </g>
     <g id="text_33">
      <!-- 5 -->
      <g transform="translate(91.911761 182.398438)scale(0.1 -0.1)">
       <use xlink:href="#DejaVuSans-53"/>
      </g>
     </g>
    </g>
    <g id="xtick_26">
     <g id="line2d_38">
      <g>
       <use style="stroke:#000000;stroke-width:0.8;" x="114.311906" xlink:href="#m6a6e72e092" y="167.8"/>
      </g>
     </g>
     <g id="text_34">
      <!-- 10 -->
      <g transform="translate(107.949406 182.398438)scale(0.1 -0.1)">
       <use xlink:href="#DejaVuSans-49"/>
       <use x="63.623047" xlink:href="#DejaVuSans-48"/>
      </g>
     </g>
    </g>
    <g id="xtick_27">
     <g id="line2d_39">
      <g>
       <use style="stroke:#000000;stroke-width:0.8;" x="133.530802" xlink:href="#m6a6e72e092" y="167.8"/>
      </g>
     </g>
     <g id="text_35">
      <!-- 15 -->
      <g transform="translate(127.168302 182.398438)scale(0.1 -0.1)">
       <use xlink:href="#DejaVuSans-49"/>
       <use x="63.623047" xlink:href="#DejaVuSans-53"/>
      </g>
     </g>
    </g>
    <g id="xtick_28">
     <g id="line2d_40">
      <g>
       <use style="stroke:#000000;stroke-width:0.8;" x="152.749698" xlink:href="#m6a6e72e092" y="167.8"/>
      </g>
     </g>
     <g id="text_36">
      <!-- 20 -->
      <g transform="translate(146.387198 182.398438)scale(0.1 -0.1)">
       <use xlink:href="#DejaVuSans-50"/>
       <use x="63.623047" xlink:href="#DejaVuSans-48"/>
      </g>
     </g>
    </g>
    <g id="xtick_29">
     <g id="line2d_41">
      <g>
       <use style="stroke:#000000;stroke-width:0.8;" x="171.968593" xlink:href="#m6a6e72e092" y="167.8"/>
      </g>
     </g>
     <g id="text_37">
      <!-- 25 -->
      <g transform="translate(165.606093 182.398438)scale(0.1 -0.1)">
       <use xlink:href="#DejaVuSans-50"/>
       <use x="63.623047" xlink:href="#DejaVuSans-53"/>
      </g>
     </g>
    </g>
    <g id="xtick_30">
     <g id="line2d_42">
      <g>
       <use style="stroke:#000000;stroke-width:0.8;" x="191.187489" xlink:href="#m6a6e72e092" y="167.8"/>
      </g>
     </g>
     <g id="text_38">
      <!-- 30 -->
      <g transform="translate(184.824989 182.398438)scale(0.1 -0.1)">
       <use xlink:href="#DejaVuSans-51"/>
       <use x="63.623047" xlink:href="#DejaVuSans-48"/>
      </g>
     </g>
    </g>
    <g id="xtick_31">
     <g id="line2d_43">
      <g>
       <use style="stroke:#000000;stroke-width:0.8;" x="210.406384" xlink:href="#m6a6e72e092" y="167.8"/>
      </g>
     </g>
     <g id="text_39">
      <!-- 35 -->
      <g transform="translate(204.043884 182.398438)scale(0.1 -0.1)">
       <use xlink:href="#DejaVuSans-51"/>
       <use x="63.623047" xlink:href="#DejaVuSans-53"/>
      </g>
     </g>
    </g>
    <g id="xtick_32">
     <g id="line2d_44">
      <g>
       <use style="stroke:#000000;stroke-width:0.8;" x="229.62528" xlink:href="#m6a6e72e092" y="167.8"/>
      </g>
     </g>
     <g id="text_40">
      <!-- 40 -->
      <g transform="translate(223.26278 182.398438)scale(0.1 -0.1)">
       <use xlink:href="#DejaVuSans-52"/>
       <use x="63.623047" xlink:href="#DejaVuSans-48"/>
      </g>
     </g>
    </g>
    <g id="xtick_33">
     <g id="line2d_45">
      <g>
       <use style="stroke:#000000;stroke-width:0.8;" x="248.844176" xlink:href="#m6a6e72e092" y="167.8"/>
      </g>
     </g>
     <g id="text_41">
      <!-- 45 -->
      <g transform="translate(242.481676 182.398438)scale(0.1 -0.1)">
       <use xlink:href="#DejaVuSans-52"/>
       <use x="63.623047" xlink:href="#DejaVuSans-53"/>
      </g>
     </g>
    </g>
    <g id="xtick_34">
     <g id="line2d_46">
      <g>
       <use style="stroke:#000000;stroke-width:0.8;" x="268.063071" xlink:href="#m6a6e72e092" y="167.8"/>
      </g>
     </g>
     <g id="text_42">
      <!-- 50 -->
      <g transform="translate(261.700571 182.398438)scale(0.1 -0.1)">
       <use xlink:href="#DejaVuSans-53"/>
       <use x="63.623047" xlink:href="#DejaVuSans-48"/>
      </g>
     </g>
    </g>
   </g>
   <g id="matplotlib.axis_6">
    <g id="ytick_11">
     <g id="line2d_47">
      <g>
       <use style="stroke:#000000;stroke-width:0.8;" x="33.8" xlink:href="#mf6d099ee67" y="157.8"/>
      </g>
     </g>
     <g id="text_43">
      <!-- 0.0 -->
      <g transform="translate(10.896875 161.599219)scale(0.1 -0.1)">
       <use xlink:href="#DejaVuSans-48"/>
       <use x="63.623047" xlink:href="#DejaVuSans-46"/>
       <use x="95.410156" xlink:href="#DejaVuSans-48"/>
      </g>
     </g>
    </g>
    <g id="ytick_12">
     <g id="line2d_48">
      <g>
       <use style="stroke:#000000;stroke-width:0.8;" x="33.8" xlink:href="#mf6d099ee67" y="138.5"/>
      </g>
     </g>
     <g id="text_44">
      <!-- 0.5 -->
      <g transform="translate(10.896875 142.299219)scale(0.1 -0.1)">
       <use xlink:href="#DejaVuSans-48"/>
       <use x="63.623047" xlink:href="#DejaVuSans-46"/>
       <use x="95.410156" xlink:href="#DejaVuSans-53"/>
      </g>
     </g>
    </g>
    <g id="ytick_13">
     <g id="line2d_49">
      <g>
       <use style="stroke:#000000;stroke-width:0.8;" x="33.8" xlink:href="#mf6d099ee67" y="119.2"/>
      </g>
     </g>
     <g id="text_45">
      <!-- 1.0 -->
      <g transform="translate(10.896875 122.999219)scale(0.1 -0.1)">
       <use xlink:href="#DejaVuSans-49"/>
       <use x="63.623047" xlink:href="#DejaVuSans-46"/>
       <use x="95.410156" xlink:href="#DejaVuSans-48"/>
      </g>
     </g>
    </g>
    <g id="ytick_14">
     <g id="line2d_50">
      <g>
       <use style="stroke:#000000;stroke-width:0.6;" x="33.8" xlink:href="#m2fa3fd479c" y="148.15"/>
      </g>
     </g>
    </g>
    <g id="ytick_15">
     <g id="line2d_51">
      <g>
       <use style="stroke:#000000;stroke-width:0.6;" x="33.8" xlink:href="#m2fa3fd479c" y="128.85"/>
      </g>
     </g>
    </g>
   </g>
   <g id="line2d_52">
    <path clip-path="url(#pc5c097fa6f)" d="M 75.874119 126.118664 
L 76.258497 125.031688 
L 76.642875 122.575956 
L 77.027253 124.954488 
L 77.411631 124.058196 
L 77.796008 122.076858 
L 78.180386 124.115324 
L 78.564764 122.655472 
L 78.949142 122.584834 
L 79.33352 126.56102 
L 79.717898 122.883212 
L 80.102276 124.388226 
L 80.486654 125.36249 
L 80.871032 125.15019 
L 81.25541 126.148772 
L 81.639788 123.062316 
L 82.024166 123.153798 
L 82.408543 124.060898 
L 82.792921 126.091644 
L 83.177299 122.54662 
L 83.561677 123.085476 
L 83.946055 129.509674 
L 84.330433 130.9344 
L 84.714811 126.15572 
L 85.099189 123.912674 
L 85.483567 123.252614 
L 85.867945 123.09088 
L 86.252323 124.93017 
L 86.6367 123.339078 
L 87.021078 123.844738 
L 87.405456 132.848188 
L 87.789834 125.100396 
L 88.174212 125.420004 
L 88.55859 123.91692 
L 88.942968 131.180668 
L 89.327346 122.883598 
L 89.711724 123.388486 
L 90.096102 122.916022 
L 90.48048 123.288126 
L 90.864857 123.341008 
L 91.249235 122.840752 
L 91.633613 123.28388 
L 92.017991 125.053304 
L 92.402369 124.898132 
L 92.786747 126.67296 
L 93.171125 123.267282 
L 93.555503 123.564502 
L 93.939881 125.376386 
L 94.324259 123.476494 
L 94.708637 126.112102 
L 95.093015 124.002226 
L 95.477392 124.861848 
L 95.86177 124.163188 
L 96.246148 123.095512 
L 97.014904 123.222506 
L 97.399282 124.54803 
L 97.78366 122.731514 
L 98.168038 129.982524 
L 98.552416 130.670762 
L 98.936794 125.625742 
L 99.321172 126.735106 
L 99.705549 124.82595 
L 100.089927 128.33083 
L 100.474305 129.48883 
L 100.858683 126.670644 
L 101.627439 123.584188 
L 102.011817 124.33766 
L 102.780573 133.722478 
L 103.164951 124.96298 
L 103.549329 123.454106 
L 103.933707 122.851174 
L 104.318084 129.1009 
L 104.702462 126.73665 
L 105.08684 125.386036 
L 105.471218 131.716822 
L 105.855596 147.069972 
L 106.239974 134.181818 
L 106.624352 127.748356 
L 107.00873 123.271528 
L 107.393108 122.569008 
L 107.777486 125.220442 
L 108.161864 125.94728 
L 108.546241 123.409716 
L 108.930619 124.415246 
L 109.314997 125.997074 
L 109.699375 123.933904 
L 110.083753 125.291852 
L 110.852509 130.814354 
L 111.236887 125.965808 
L 111.621265 123.39582 
L 112.005643 124.128834 
L 112.390021 124.527958 
L 112.774398 127.318352 
L 113.158776 131.875468 
L 113.543154 139.418294 
L 113.927532 127.94676 
L 114.31191 124.248494 
L 114.696288 124.006086 
L 115.080666 124.05974 
L 115.465044 124.689306 
L 115.849422 127.173988 
L 116.2338 123.29353 
L 117.002556 131.047498 
L 117.386933 129.705376 
L 117.771311 127.53953 
L 118.155689 145.055052 
L 118.540067 126.832378 
L 118.924445 123.786452 
L 119.308823 126.63629 
L 119.693201 134.32348 
L 120.077579 128.941096 
L 120.461957 130.312168 
L 121.230713 135.740486 
L 121.61509 131.362088 
L 121.999468 133.241522 
L 122.383846 137.925246 
L 122.768224 139.567676 
L 123.152602 132.356038 
L 123.53698 143.452766 
L 123.921358 131.091502 
L 124.305736 127.127668 
L 124.690114 127.83868 
L 125.074492 129.928098 
L 125.45887 127.487034 
L 125.843248 128.327742 
L 126.227625 130.811652 
L 126.612003 131.221198 
L 126.996381 129.409314 
L 127.380759 129.655196 
L 127.765137 128.724164 
L 128.149515 128.304968 
L 128.533893 126.617376 
L 128.918271 131.109644 
L 129.302649 129.076196 
L 129.687027 133.726724 
L 130.071405 132.298138 
L 130.455782 136.182456 
L 130.84016 135.720028 
L 131.224538 133.16162 
L 131.608916 134.20768 
L 131.993294 130.967596 
L 132.377672 133.05354 
L 132.76205 130.68929 
L 133.146428 132.422044 
L 133.530806 131.565896 
L 133.915184 129.557538 
L 134.299562 136.067428 
L 134.683939 133.007606 
L 135.068317 128.95615 
L 135.452695 132.900298 
L 135.837073 127.386674 
L 136.605829 130.67192 
L 136.990207 133.536426 
L 137.374585 127.433766 
L 138.143341 131.758124 
L 138.527719 129.153396 
L 138.912097 134.673196 
L 139.680852 128.200362 
L 140.06523 128.179904 
L 140.449608 137.843028 
L 140.833986 140.475548 
L 141.218364 132.697648 
L 141.602742 130.178998 
L 141.98712 132.632414 
L 142.371498 130.630232 
L 143.140254 129.384996 
L 143.524631 130.77614 
L 143.909009 127.761094 
L 144.293387 128.924498 
L 144.677765 128.38487 
L 145.062143 127.214132 
L 145.446521 127.841382 
L 145.830899 126.90456 
L 146.215277 129.23214 
L 146.599655 124.29134 
L 146.984033 125.71182 
L 147.368411 136.29401 
L 147.752788 157.679182 
L 148.137166 156.547816 
L 148.521544 135.898746 
L 148.905922 127.726354 
L 149.2903 125.82376 
L 149.674678 138.113228 
L 150.059056 126.82543 
L 150.443434 130.078638 
L 150.827812 134.858862 
L 151.21219 130.354628 
L 151.596568 129.660214 
L 151.980946 130.978018 
L 152.365323 127.480858 
L 152.749701 134.678986 
L 153.134079 129.07774 
L 153.518457 129.725448 
L 153.902835 132.400042 
L 154.287213 132.92616 
L 154.671591 129.58147 
L 155.055969 128.954992 
L 155.440347 131.316154 
L 155.824725 127.22108 
L 156.209103 129.776014 
L 156.59348 134.463984 
L 156.977858 129.37496 
L 157.746614 133.10179 
L 158.130992 131.178352 
L 158.899748 124.451916 
L 159.284126 125.409968 
L 159.668504 135.26146 
L 160.052882 127.44303 
L 160.43726 127.579288 
L 160.821638 128.9658 
L 161.206015 126.214778 
L 161.590393 127.79236 
L 161.974771 127.695088 
L 162.359149 126.925404 
L 162.743527 126.97211 
L 163.127905 129.57568 
L 163.512283 125.423478 
L 163.896661 129.929256 
L 164.281039 127.228028 
L 164.665417 127.05896 
L 165.049795 131.330822 
L 165.434172 129.668706 
L 165.81855 130.80895 
L 166.202928 130.855656 
L 166.587306 147.96279 
L 167.356062 126.139894 
L 167.74044 134.408014 
L 168.124818 133.974922 
L 168.509196 129.782576 
L 168.893574 132.274978 
L 169.277952 131.814866 
L 169.662329 126.794164 
L 170.046707 127.884228 
L 170.431085 124.909326 
L 170.815463 127.590482 
L 171.199841 141.122098 
L 171.584219 129.522026 
L 171.968597 125.14247 
L 172.352975 129.093566 
L 172.737353 140.551204 
L 173.121731 130.19328 
L 173.506109 123.84744 
L 173.890487 124.709378 
L 174.274864 127.830574 
L 174.659242 129.743204 
L 175.04362 125.036706 
L 175.427998 126.378828 
L 175.812376 126.40662 
L 176.196754 127.515212 
L 176.581132 127.507106 
L 176.96551 126.602322 
L 177.349888 127.930162 
L 177.734266 127.623678 
L 178.118644 132.71 
L 178.503021 127.69393 
L 178.887399 130.302132 
L 179.271777 129.465284 
L 179.656155 129.652494 
L 180.040533 128.504916 
L 180.809289 131.577862 
L 181.193667 127.377796 
L 181.578045 127.608238 
L 181.962423 124.753768 
L 182.346801 126.251834 
L 182.731179 123.175028 
L 183.115556 125.704486 
L 183.499934 124.095252 
L 183.884312 130.383578 
L 184.26869 134.635368 
L 184.653068 128.378308 
L 185.421824 130.84176 
L 186.19058 125.315012 
L 186.574958 130.835198 
L 186.959336 127.532582 
L 187.343713 126.290434 
L 187.728091 136.678466 
L 188.112469 128.38101 
L 188.496847 129.8729 
L 188.881225 144.522758 
L 189.265603 153.072658 
L 189.649981 150.669422 
L 190.034359 151.103286 
L 190.418737 153.983232 
L 191.187493 127.14002 
L 191.57187 128.113126 
L 191.956248 127.563462 
L 192.340626 126.366476 
L 192.725004 125.807162 
L 193.109382 125.512644 
L 193.878138 124.32415 
L 194.262516 128.386414 
L 194.646894 125.775896 
L 195.031272 130.946752 
L 195.41565 138.39771 
L 195.800028 133.193272 
L 196.184405 136.559578 
L 196.568783 128.790556 
L 196.953161 127.665752 
L 197.337539 131.031286 
L 197.721917 138.526248 
L 198.106295 143.073714 
L 198.875051 124.958734 
L 199.259429 147.238268 
L 199.643807 130.859902 
L 200.028185 140.766978 
L 200.412562 157.32136 
L 200.79694 157.513974 
L 201.181318 157.410526 
L 201.565696 144.15683 
L 201.950074 124.535292 
L 202.334452 125.25441 
L 202.71883 135.011718 
L 203.103208 130.429512 
L 203.487586 131.547368 
L 203.871964 137.047096 
L 204.256342 130.533732 
L 204.64072 126.134104 
L 205.409475 125.58444 
L 205.793853 139.530234 
L 206.178231 133.096 
L 206.562609 131.390266 
L 206.946987 137.739194 
L 207.331365 132.465276 
L 207.715743 131.06757 
L 208.100121 127.47584 
L 208.484499 126.79648 
L 208.868877 139.079 
L 209.253254 127.403658 
L 209.637632 127.375094 
L 210.02201 129.982138 
L 210.406388 126.546738 
L 210.790766 127.916652 
L 211.175144 127.138476 
L 211.9439 130.570016 
L 212.328278 124.478936 
L 212.712656 134.359764 
L 213.097034 136.182456 
L 213.481411 133.668824 
L 213.865789 136.26699 
L 214.250167 127.47198 
L 214.634545 128.613768 
L 215.018923 131.411882 
L 215.403301 125.573632 
L 215.787679 133.625978 
L 216.556435 145.959836 
L 216.940813 134.903638 
L 217.325191 129.950486 
L 217.709569 128.945728 
L 218.093946 129.325552 
L 218.862702 134.011206 
L 219.24708 128.279878 
L 219.631458 132.015972 
L 220.015836 131.353596 
L 220.400214 128.138602 
L 220.784592 132.596516 
L 221.16897 126.106312 
L 221.937726 138.35911 
L 222.322103 138.748198 
L 222.706481 126.40662 
L 223.090859 126.064624 
L 223.475237 131.7643 
L 223.859615 126.381144 
L 224.243993 131.944948 
L 224.628371 131.500662 
L 225.012749 125.243602 
L 225.397127 127.883456 
L 225.781505 128.156744 
L 226.165883 134.505286 
L 226.550261 138.60422 
L 226.934638 148.161966 
L 227.319016 149.671612 
L 227.703394 156.086932 
L 228.856528 153.105082 
L 229.240906 146.284076 
L 229.625284 148.520946 
L 230.009662 150.093124 
L 230.39404 146.179084 
L 231.162795 148.4202 
L 231.547173 144.74548 
L 231.931551 145.373116 
L 232.315929 142.16314 
L 232.700307 144.188482 
L 233.084685 140.585944 
L 233.469063 142.160438 
L 233.853441 145.724376 
L 234.237819 134.18066 
L 234.622197 129.893358 
L 235.77533 123.956292 
L 236.159708 126.112488 
L 236.544086 130.78193 
L 236.928464 123.487688 
L 237.312842 123.837018 
L 237.69722 128.213872 
L 238.081598 122.99438 
L 238.465976 125.651604 
L 238.850354 125.343576 
L 239.234732 127.369304 
L 239.61911 128.032838 
L 240.003487 128.453578 
L 240.387865 129.844336 
L 240.772243 124.929784 
L 241.540999 152.129274 
L 241.925377 132.214376 
L 242.309755 131.638464 
L 242.694133 128.680546 
L 243.078511 127.428362 
L 243.462889 130.31487 
L 243.847267 129.221332 
L 244.616022 136.540278 
L 245.0004 127.659962 
L 245.384778 124.154696 
L 245.769156 122.843068 
L 246.153534 124.758786 
L 246.537912 124.973788 
L 246.92229 128.584432 
L 247.306668 139.76415 
L 247.691046 135.821932 
L 248.075424 139.853702 
L 248.459801 132.869418 
L 248.844179 122.740392 
L 249.228557 131.628428 
L 249.612935 131.761212 
L 249.997313 127.947146 
L 250.381691 137.497944 
L 250.766069 125.21195 
L 251.150447 128.350902 
L 251.534825 138.117474 
L 251.919203 133.55148 
L 252.303581 141.203544 
L 253.072336 133.221836 
L 253.456714 131.762756 
L 253.841092 136.98495 
L 254.22547 125.236268 
L 254.609848 133.355006 
L 254.994226 131.670502 
L 255.378604 138.49228 
L 255.762982 136.19172 
L 256.14736 140.220788 
L 256.531738 129.63358 
L 256.916116 126.290048 
L 257.300493 132.391164 
L 257.684871 127.941356 
L 258.069249 134.015838 
L 258.453627 131.978144 
L 258.838005 146.417246 
L 259.222383 129.935046 
L 259.606761 128.019714 
L 259.991139 138.492666 
L 260.375517 132.74474 
L 260.759895 132.43594 
L 261.144273 137.880084 
L 261.528651 130.87071 
L 261.913028 129.583014 
L 262.297406 137.966162 
L 262.681784 135.404666 
L 263.066162 148.506278 
L 263.45054 126.594602 
L 263.834918 130.753752 
L 264.219296 137.586724 
L 264.603674 140.916746 
L 265.37243 135.481094 
L 265.756808 130.229564 
L 266.141185 140.714868 
L 266.525563 130.92089 
L 266.909941 137.439272 
L 267.678697 130.724802 
L 268.063075 123.018312 
L 268.447453 128.473264 
L 268.831831 126.496558 
L 269.216209 136.820514 
L 269.600587 126.738966 
L 269.984965 134.77703 
L 270.369342 124.13308 
L 270.75372 135.343292 
L 271.522476 132.790288 
L 271.906854 134.850756 
L 272.291232 134.100758 
L 272.67561 133.987274 
L 273.059988 132.24294 
L 273.444366 135.563698 
L 273.828744 130.19328 
L 274.213122 130.990756 
L 274.5975 133.075542 
L 274.981877 131.570142 
L 275.366255 134.10153 
L 275.750633 143.694402 
L 276.135011 146.779314 
L 276.519389 141.801458 
L 276.903767 149.517598 
L 277.288145 144.225152 
L 277.672523 156.471388 
L 278.056901 151.581926 
L 278.441279 149.269786 
L 278.825657 148.033428 
L 279.210034 152.332696 
L 279.594412 152.149346 
L 280.363168 157.8 
L 280.363168 157.8 
" style="fill:none;stroke:#1f77b4;stroke-linecap:square;stroke-width:1.5;"/>
   </g>
   <g id="patch_9">
    <path d="M 33.8 157.8 
L 33.8 119.2 
" style="fill:none;stroke:#000000;stroke-linecap:square;stroke-linejoin:miter;stroke-width:0.8;"/>
   </g>
   <g id="patch_10">
    <path d="M 43.8 167.8 
L 280.36579 167.8 
" style="fill:none;stroke:#000000;stroke-linecap:square;stroke-linejoin:miter;stroke-width:0.8;"/>
   </g>
   <g id="text_46">
    <!-- 3R -->
    <defs>
     <path d="M 46.578125 39.3125 
Q 53.953125 37.40625 57.78125 32.6875 
Q 61.625 27.984375 61.625 20.703125 
Q 61.625 9.859375 53.3125 4.21875 
Q 45.015625 -1.421875 29.109375 -1.421875 
Q 23.484375 -1.421875 17.84375 -0.515625 
Q 12.203125 0.390625 6.6875 2.203125 
L 6.6875 16.703125 
Q 11.96875 14.0625 17.15625 12.71875 
Q 22.359375 11.375 27.390625 11.375 
Q 34.859375 11.375 38.84375 13.953125 
Q 42.828125 16.546875 42.828125 21.390625 
Q 42.828125 26.375 38.75 28.9375 
Q 34.671875 31.5 26.703125 31.5 
L 19.1875 31.5 
L 19.1875 43.609375 
L 27.09375 43.609375 
Q 34.1875 43.609375 37.640625 45.828125 
Q 41.109375 48.046875 41.109375 52.59375 
Q 41.109375 56.78125 37.734375 59.078125 
Q 34.375 61.375 28.21875 61.375 
Q 23.6875 61.375 19.046875 60.34375 
Q 14.40625 59.328125 9.8125 57.328125 
L 9.8125 71.09375 
Q 15.375 72.65625 20.84375 73.4375 
Q 26.3125 74.21875 31.59375 74.21875 
Q 45.796875 74.21875 52.84375 69.546875 
Q 59.90625 64.890625 59.90625 55.515625 
Q 59.90625 49.125 56.53125 45.046875 
Q 53.171875 40.96875 46.578125 39.3125 
z
" id="DejaVuSans-Bold-51"/>
    </defs>
    <g transform="translate(153.288207 113.2)scale(0.12 -0.12)">
     <use xlink:href="#DejaVuSans-Bold-51"/>
     <use x="69.580078" xlink:href="#DejaVuSans-Bold-82"/>
    </g>
   </g>
  </g>
  <g id="axes_4">
   <g id="patch_11">
    <path d="M 295.63421 157.8 
L 532.2 157.8 
L 532.2 119.2 
L 295.63421 119.2 
z
" style="fill:#ffffff;"/>
   </g>
   <g id="matplotlib.axis_7">
    <g id="xtick_35">
     <g id="line2d_53">
      <g>
       <use style="stroke:#000000;stroke-width:0.8;" x="295.63421" xlink:href="#m6a6e72e092" y="167.8"/>
      </g>
     </g>
     <g id="text_47">
      <!-- 0 -->
      <g transform="translate(292.45296 182.398438)scale(0.1 -0.1)">
       <use xlink:href="#DejaVuSans-48"/>
      </g>
     </g>
    </g>
    <g id="xtick_36">
     <g id="line2d_54">
      <g>
       <use style="stroke:#000000;stroke-width:0.8;" x="314.853106" xlink:href="#m6a6e72e092" y="167.8"/>
      </g>
     </g>
     <g id="text_48">
      <!-- 5 -->
      <g transform="translate(311.671856 182.398438)scale(0.1 -0.1)">
       <use xlink:href="#DejaVuSans-53"/>
      </g>
     </g>
    </g>
    <g id="xtick_37">
     <g id="line2d_55">
      <g>
       <use style="stroke:#000000;stroke-width:0.8;" x="334.072002" xlink:href="#m6a6e72e092" y="167.8"/>
      </g>
     </g>
     <g id="text_49">
      <!-- 10 -->
      <g transform="translate(327.709502 182.398438)scale(0.1 -0.1)">
       <use xlink:href="#DejaVuSans-49"/>
       <use x="63.623047" xlink:href="#DejaVuSans-48"/>
      </g>
     </g>
    </g>
    <g id="xtick_38">
     <g id="line2d_56">
      <g>
       <use style="stroke:#000000;stroke-width:0.8;" x="353.290897" xlink:href="#m6a6e72e092" y="167.8"/>
      </g>
     </g>
     <g id="text_50">
      <!-- 15 -->
      <g transform="translate(346.928397 182.398438)scale(0.1 -0.1)">
       <use xlink:href="#DejaVuSans-49"/>
       <use x="63.623047" xlink:href="#DejaVuSans-53"/>
      </g>
     </g>
    </g>
    <g id="xtick_39">
     <g id="line2d_57">
      <g>
       <use style="stroke:#000000;stroke-width:0.8;" x="372.509793" xlink:href="#m6a6e72e092" y="167.8"/>
      </g>
     </g>
     <g id="text_51">
      <!-- 20 -->
      <g transform="translate(366.147293 182.398438)scale(0.1 -0.1)">
       <use xlink:href="#DejaVuSans-50"/>
       <use x="63.623047" xlink:href="#DejaVuSans-48"/>
      </g>
     </g>
    </g>
    <g id="xtick_40">
     <g id="line2d_58">
      <g>
       <use style="stroke:#000000;stroke-width:0.8;" x="391.728688" xlink:href="#m6a6e72e092" y="167.8"/>
      </g>
     </g>
     <g id="text_52">
      <!-- 25 -->
      <g transform="translate(385.366188 182.398438)scale(0.1 -0.1)">
       <use xlink:href="#DejaVuSans-50"/>
       <use x="63.623047" xlink:href="#DejaVuSans-53"/>
      </g>
     </g>
    </g>
    <g id="xtick_41">
     <g id="line2d_59">
      <g>
       <use style="stroke:#000000;stroke-width:0.8;" x="410.947584" xlink:href="#m6a6e72e092" y="167.8"/>
      </g>
     </g>
     <g id="text_53">
      <!-- 30 -->
      <g transform="translate(404.585084 182.398438)scale(0.1 -0.1)">
       <use xlink:href="#DejaVuSans-51"/>
       <use x="63.623047" xlink:href="#DejaVuSans-48"/>
      </g>
     </g>
    </g>
    <g id="xtick_42">
     <g id="line2d_60">
      <g>
       <use style="stroke:#000000;stroke-width:0.8;" x="430.16648" xlink:href="#m6a6e72e092" y="167.8"/>
      </g>
     </g>
     <g id="text_54">
      <!-- 35 -->
      <g transform="translate(423.80398 182.398438)scale(0.1 -0.1)">
       <use xlink:href="#DejaVuSans-51"/>
       <use x="63.623047" xlink:href="#DejaVuSans-53"/>
      </g>
     </g>
    </g>
    <g id="xtick_43">
     <g id="line2d_61">
      <g>
       <use style="stroke:#000000;stroke-width:0.8;" x="449.385375" xlink:href="#m6a6e72e092" y="167.8"/>
      </g>
     </g>
     <g id="text_55">
      <!-- 40 -->
      <g transform="translate(443.022875 182.398438)scale(0.1 -0.1)">
       <use xlink:href="#DejaVuSans-52"/>
       <use x="63.623047" xlink:href="#DejaVuSans-48"/>
      </g>
     </g>
    </g>
   </g>
   <g id="matplotlib.axis_8">
    <g id="ytick_16">
     <g id="line2d_62">
      <g>
       <use style="stroke:#000000;stroke-width:0.8;" x="542.2" xlink:href="#m252d124202" y="157.8"/>
      </g>
     </g>
     <g id="text_56">
      <!-- 0.0 -->
      <g transform="translate(549.2 161.599219)scale(0.1 -0.1)">
       <use xlink:href="#DejaVuSans-48"/>
       <use x="63.623047" xlink:href="#DejaVuSans-46"/>
       <use x="95.410156" xlink:href="#DejaVuSans-48"/>
      </g>
     </g>
    </g>
    <g id="ytick_17">
     <g id="line2d_63">
      <g>
       <use style="stroke:#000000;stroke-width:0.8;" x="542.2" xlink:href="#m252d124202" y="138.5"/>
      </g>
     </g>
     <g id="text_57">
      <!-- 0.5 -->
      <g transform="translate(549.2 142.299219)scale(0.1 -0.1)">
       <use xlink:href="#DejaVuSans-48"/>
       <use x="63.623047" xlink:href="#DejaVuSans-46"/>
       <use x="95.410156" xlink:href="#DejaVuSans-53"/>
      </g>
     </g>
    </g>
    <g id="ytick_18">
     <g id="line2d_64">
      <g>
       <use style="stroke:#000000;stroke-width:0.8;" x="542.2" xlink:href="#m252d124202" y="119.2"/>
      </g>
     </g>
     <g id="text_58">
      <!-- 1.0 -->
      <g transform="translate(549.2 122.999219)scale(0.1 -0.1)">
       <use xlink:href="#DejaVuSans-49"/>
       <use x="63.623047" xlink:href="#DejaVuSans-46"/>
       <use x="95.410156" xlink:href="#DejaVuSans-48"/>
      </g>
     </g>
    </g>
    <g id="ytick_19">
     <g id="line2d_65">
      <g>
       <use style="stroke:#000000;stroke-width:0.6;" x="542.2" xlink:href="#m4d93033263" y="148.15"/>
      </g>
     </g>
    </g>
    <g id="ytick_20">
     <g id="line2d_66">
      <g>
       <use style="stroke:#000000;stroke-width:0.6;" x="542.2" xlink:href="#m4d93033263" y="128.85"/>
      </g>
     </g>
    </g>
   </g>
   <g id="line2d_67">
    <path clip-path="url(#p1c84653b48)" d="M 295.634214 152.145486 
L 296.018592 145.598926 
L 296.40297 154.256906 
L 296.787348 147.528154 
L 297.171726 154.974866 
L 297.556104 154.850188 
L 297.940482 152.463164 
L 298.32486 148.91042 
L 298.709237 142.793478 
L 299.093615 154.891876 
L 299.477993 152.278656 
L 299.862371 153.960458 
L 300.246749 142.748702 
L 300.631127 151.39626 
L 301.015505 152.77042 
L 301.784261 138.919968 
L 302.168639 138.908002 
L 303.321772 124.712852 
L 303.70615 128.27486 
L 304.090528 128.19766 
L 304.474906 139.737516 
L 304.859284 129.41935 
L 305.243662 138.128668 
L 305.62804 133.155058 
L 306.012418 137.204584 
L 306.396796 131.120066 
L 306.781174 130.53875 
L 307.165552 133.193272 
L 307.549929 131.510312 
L 307.934307 134.776258 
L 308.318685 127.520616 
L 308.703063 123.607348 
L 309.087441 123.437508 
L 309.471819 128.472106 
L 310.240575 131.225444 
L 310.624953 131.016618 
L 311.009331 130.978018 
L 311.393709 133.94713 
L 311.778086 145.700058 
L 312.162464 153.566352 
L 312.546842 155.637628 
L 312.93122 153.190388 
L 313.315598 155.13467 
L 313.699976 153.357526 
L 314.084354 133.508634 
L 314.468732 146.089918 
L 314.85311 130.223774 
L 315.237488 126.876382 
L 315.621866 133.28128 
L 316.006244 124.314886 
L 316.390621 127.459628 
L 316.774999 133.990748 
L 317.159377 123.219804 
L 317.543755 126.662538 
L 317.928133 133.41059 
L 318.312511 129.59498 
L 318.696889 132.720808 
L 319.081267 139.246138 
L 319.465645 129.401594 
L 319.850023 133.398624 
L 320.234401 129.370714 
L 321.003156 125.887064 
L 321.387534 125.46864 
L 321.771912 135.158012 
L 322.15629 132.215534 
L 322.540668 133.592396 
L 323.309424 152.508326 
L 323.693802 141.957016 
L 324.07818 149.271716 
L 324.462558 147.187316 
L 324.846936 132.364916 
L 325.231313 155.625662 
L 325.615691 130.319116 
L 326.000069 134.150552 
L 326.384447 132.997184 
L 326.768825 141.999476 
L 327.153203 132.737792 
L 327.537581 130.34575 
L 327.921959 133.3855 
L 328.306337 130.814354 
L 328.690715 130.255812 
L 329.075093 129.978278 
L 329.45947 133.029608 
L 329.843848 134.244736 
L 330.228226 133.35462 
L 330.996982 145.31676 
L 331.38136 128.09151 
L 331.765738 141.368366 
L 332.150116 143.988534 
L 332.534494 133.153514 
L 332.918872 132.03643 
L 333.30325 138.13137 
L 333.687627 151.128762 
L 334.072005 131.474028 
L 334.456383 142.053516 
L 334.840761 129.9501 
L 335.225139 134.215014 
L 335.609517 126.11326 
L 335.993895 132.061906 
L 336.378273 132.164196 
L 336.762651 133.435294 
L 337.147029 141.138696 
L 337.531407 140.201488 
L 337.915785 133.709354 
L 338.300162 142.009898 
L 338.68454 137.34007 
L 339.068918 126.814622 
L 339.453296 132.742424 
L 339.837674 142.536016 
L 340.222052 138.046836 
L 340.60643 127.514826 
L 340.990808 126.318998 
L 341.375186 128.13783 
L 341.759564 131.560492 
L 342.143942 127.217606 
L 342.528319 132.821168 
L 342.912697 134.10925 
L 343.297075 125.663184 
L 343.681453 124.954488 
L 344.065831 131.836482 
L 344.450209 128.609136 
L 344.834587 130.631004 
L 345.218965 133.976852 
L 345.603343 127.392078 
L 345.987721 132.002462 
L 346.372099 128.972362 
L 346.756476 128.019714 
L 347.140854 126.390022 
L 347.525232 133.43182 
L 347.90961 129.847038 
L 348.293988 146.115394 
L 349.062744 140.201488 
L 349.447122 128.657 
L 349.8315 125.261744 
L 350.215878 126.707314 
L 350.984634 131.896312 
L 351.369011 132.072714 
L 351.753389 133.2697 
L 352.137767 128.57787 
L 352.522145 132.694174 
L 352.906523 129.366854 
L 353.290901 128.651982 
L 353.675279 129.25723 
L 354.059657 132.155318 
L 354.444035 126.67875 
L 354.828413 130.109518 
L 355.212791 140.558152 
L 355.597168 139.063174 
L 355.981546 134.063702 
L 356.365924 131.112346 
L 356.750302 145.858318 
L 357.13468 139.371588 
L 357.519058 150.234786 
L 358.287814 123.834702 
L 359.05657 130.192122 
L 359.440948 125.438146 
L 359.825326 125.607214 
L 360.209703 125.021266 
L 360.594081 123.542114 
L 360.978459 125.663956 
L 361.362837 126.587268 
L 361.747215 123.1372 
L 362.131593 126.233692 
L 362.515971 128.187238 
L 362.900349 127.585078 
L 363.284727 130.047372 
L 363.669105 130.794282 
L 364.053483 132.417026 
L 364.43786 142.236866 
L 364.822238 124.698956 
L 365.206616 128.685178 
L 365.590994 126.494242 
L 365.975372 125.895942 
L 366.35975 125.741928 
L 366.744128 125.042882 
L 367.128506 129.276916 
L 367.512884 127.866858 
L 367.897262 127.507492 
L 368.28164 129.836616 
L 368.666017 126.647098 
L 369.050395 130.900818 
L 369.434773 127.501316 
L 369.819151 126.06115 
L 370.203529 126.530526 
L 370.587907 128.020486 
L 370.972285 128.325812 
L 371.356663 125.353998 
L 371.741041 130.033476 
L 372.125419 130.080568 
L 372.509797 131.707558 
L 372.894175 126.179652 
L 373.278552 135.142186 
L 373.66293 154.998798 
L 374.047308 127.869174 
L 374.816064 127.45075 
L 375.200442 128.728024 
L 375.58482 133.7329 
L 375.969198 130.58507 
L 376.737954 127.390534 
L 377.122332 127.675788 
L 377.506709 127.594342 
L 377.891087 129.719272 
L 378.275465 130.16626 
L 378.659843 131.16986 
L 379.044221 126.29854 
L 379.428599 144.974378 
L 379.812977 130.127274 
L 380.197355 127.998484 
L 380.581733 129.937748 
L 380.966111 130.2782 
L 381.350489 127.79622 
L 381.734867 133.415994 
L 382.119244 125.605284 
L 382.503622 127.452294 
L 382.888 131.781284 
L 383.272378 125.65971 
L 383.656756 127.119948 
L 384.041134 132.188128 
L 384.425512 129.655968 
L 384.80989 133.790414 
L 385.194268 154.130298 
L 385.578646 137.433868 
L 385.963024 137.296838 
L 386.347401 124.795456 
L 386.731779 130.829794 
L 387.116157 140.326166 
L 387.884913 128.751184 
L 388.269291 130.420248 
L 388.653669 127.25775 
L 389.038047 130.359646 
L 389.806803 141.085042 
L 390.191181 145.19903 
L 390.575558 129.015208 
L 390.959936 126.405076 
L 391.728692 125.320416 
L 392.11307 129.937362 
L 392.497448 128.710268 
L 392.881826 131.327348 
L 393.266204 134.828368 
L 393.650582 136.66843 
L 394.03496 132.760952 
L 394.419338 133.292474 
L 394.803716 129.937748 
L 395.188093 128.051752 
L 395.572471 126.8235 
L 395.956849 126.942002 
L 396.341227 132.98985 
L 396.725605 127.319896 
L 397.109983 132.627396 
L 397.494361 135.22479 
L 398.263117 129.658284 
L 398.647495 132.03257 
L 399.031873 140.245106 
L 399.41625 128.651596 
L 399.800628 125.94728 
L 400.185006 128.773186 
L 400.569384 124.147748 
L 400.953762 124.579296 
L 401.33814 124.74489 
L 401.722518 129.96361 
L 402.106896 129.49269 
L 402.491274 126.699594 
L 402.875652 126.218252 
L 403.26003 126.084696 
L 403.644408 131.183756 
L 404.028785 127.628696 
L 404.413163 127.278594 
L 404.797541 134.631508 
L 405.181919 128.856176 
L 405.566297 131.52305 
L 405.950675 128.681318 
L 406.335053 127.826328 
L 406.719431 126.527052 
L 407.103809 137.408006 
L 407.488187 129.449458 
L 407.872565 131.269834 
L 408.256942 127.288244 
L 408.64132 126.505822 
L 409.025698 125.00544 
L 409.410076 127.573498 
L 409.794454 124.431844 
L 410.178832 126.406234 
L 410.56321 130.00607 
L 410.947588 129.227508 
L 411.331966 129.738572 
L 411.716344 126.27924 
L 412.100722 126.068098 
L 412.485099 126.556002 
L 412.869477 126.400058 
L 413.253855 126.855538 
L 413.638233 127.128054 
L 414.406989 128.055998 
L 414.791367 133.242294 
L 415.175745 135.291568 
L 415.944501 124.587402 
L 416.328879 126.718122 
L 417.097634 126.13256 
L 417.482012 127.932864 
L 418.250768 126.23485 
L 418.635146 130.356172 
L 419.019524 130.097166 
L 419.403902 127.39478 
L 419.78828 126.22906 
L 420.172658 127.901212 
L 420.557036 126.456414 
L 420.941414 127.658804 
L 421.325791 125.006598 
L 421.710169 132.25645 
L 422.094547 128.766238 
L 422.478925 127.144266 
L 422.863303 130.907766 
L 423.247681 126.964004 
L 423.632059 128.540428 
L 424.016437 126.176564 
L 424.400815 128.882038 
L 424.785193 127.098718 
L 425.169571 127.060504 
L 425.553949 125.375228 
L 425.938326 127.515598 
L 426.322704 127.299438 
L 426.707082 129.203962 
L 427.09146 127.021904 
L 427.475838 127.314878 
L 427.860216 125.292624 
L 428.244594 124.936732 
L 428.628972 127.040046 
L 429.01335 125.51882 
L 429.397728 130.292096 
L 429.782106 127.927074 
L 430.166483 127.281682 
L 430.550861 129.747064 
L 430.935239 128.210784 
L 431.319617 126.068484 
L 432.088373 125.415372 
L 432.472751 129.804578 
L 432.857129 123.84937 
L 433.241507 133.632926 
L 433.625885 124.041212 
L 434.010263 127.330318 
L 434.39464 127.690456 
L 434.779018 136.520978 
L 435.163396 141.293482 
L 435.547774 152.31687 
L 435.932152 138.33209 
L 436.31653 132.870962 
L 436.700908 125.27371 
L 437.085286 130.722486 
L 437.469664 125.414214 
L 437.854042 125.133592 
L 438.23842 127.025764 
L 439.007175 141.679482 
L 439.391553 130.904678 
L 439.775931 135.21707 
L 440.160309 127.217992 
L 440.544687 127.675788 
L 440.929065 131.028198 
L 441.313443 129.339062 
L 441.697821 127.056644 
L 442.082199 129.650178 
L 442.850955 124.88578 
L 443.235332 129.322464 
L 443.61971 124.805878 
L 444.004088 145.922008 
L 444.388466 128.462456 
L 444.772844 124.31643 
L 445.157222 125.134364 
L 445.5416 129.24951 
L 445.925978 128.63191 
L 446.310356 123.66795 
L 446.694734 123.599242 
L 447.079112 123.101688 
L 447.463489 127.414466 
L 447.847867 129.207436 
L 448.616623 126.802656 
L 449.001001 126.02062 
L 449.385379 123.338692 
L 449.769757 124.918204 
L 450.154135 123.891058 
L 450.538513 128.211942 
L 450.922891 123.483442 
L 451.307269 123.770626 
L 451.691647 123.536324 
L 452.076024 124.814756 
L 452.460402 128.281808 
L 452.84478 123.43056 
L 453.229158 137.835308 
L 453.613536 126.179266 
L 453.997914 121.993482 
L 454.382292 121.969164 
L 454.76667 121.77269 
L 455.151048 123.251456 
L 455.535426 122.165252 
L 455.919804 126.241026 
L 456.304181 133.633698 
L 456.688559 134.134948 
L 456.688559 134.134948 
" style="fill:none;stroke:#1f77b4;stroke-linecap:square;stroke-width:1.5;"/>
   </g>
   <g id="patch_12">
    <path d="M 542.2 157.8 
L 542.2 119.2 
" style="fill:none;stroke:#000000;stroke-linecap:square;stroke-linejoin:miter;stroke-width:0.8;"/>
   </g>
   <g id="patch_13">
    <path d="M 295.63421 167.8 
L 532.2 167.8 
" style="fill:none;stroke:#000000;stroke-linecap:square;stroke-linejoin:miter;stroke-width:0.8;"/>
   </g>
   <g id="text_59">
    <!-- 3L -->
    <g transform="translate(405.919293 113.2)scale(0.12 -0.12)">
     <use xlink:href="#DejaVuSans-Bold-51"/>
     <use x="69.580078" xlink:href="#DejaVuSans-Bold-76"/>
    </g>
   </g>
  </g>
  <g id="axes_5">
   <g id="patch_14">
    <path d="M 43.8 250.2 
L 280.36579 250.2 
L 280.36579 211.6 
L 43.8 211.6 
z
" style="fill:#ffffff;"/>
   </g>
   <g id="matplotlib.axis_9">
    <g id="xtick_44">
     <g id="line2d_68">
      <g>
       <use style="stroke:#000000;stroke-width:0.8;" x="186.604074" xlink:href="#m6a6e72e092" y="260.2"/>
      </g>
     </g>
     <g id="text_60">
      <!-- 0 -->
      <g transform="translate(183.422824 274.798437)scale(0.1 -0.1)">
       <use xlink:href="#DejaVuSans-48"/>
      </g>
     </g>
    </g>
    <g id="xtick_45">
     <g id="line2d_69">
      <g>
       <use style="stroke:#000000;stroke-width:0.8;" x="205.82297" xlink:href="#m6a6e72e092" y="260.2"/>
      </g>
     </g>
     <g id="text_61">
      <!-- 5 -->
      <g transform="translate(202.64172 274.798437)scale(0.1 -0.1)">
       <use xlink:href="#DejaVuSans-53"/>
      </g>
     </g>
    </g>
    <g id="xtick_46">
     <g id="line2d_70">
      <g>
       <use style="stroke:#000000;stroke-width:0.8;" x="225.041865" xlink:href="#m6a6e72e092" y="260.2"/>
      </g>
     </g>
     <g id="text_62">
      <!-- 10 -->
      <g transform="translate(218.679365 274.798437)scale(0.1 -0.1)">
       <use xlink:href="#DejaVuSans-49"/>
       <use x="63.623047" xlink:href="#DejaVuSans-48"/>
      </g>
     </g>
    </g>
    <g id="xtick_47">
     <g id="line2d_71">
      <g>
       <use style="stroke:#000000;stroke-width:0.8;" x="244.260761" xlink:href="#m6a6e72e092" y="260.2"/>
      </g>
     </g>
     <g id="text_63">
      <!-- 15 -->
      <g transform="translate(237.898261 274.798437)scale(0.1 -0.1)">
       <use xlink:href="#DejaVuSans-49"/>
       <use x="63.623047" xlink:href="#DejaVuSans-53"/>
      </g>
     </g>
    </g>
    <g id="xtick_48">
     <g id="line2d_72">
      <g>
       <use style="stroke:#000000;stroke-width:0.8;" x="263.479657" xlink:href="#m6a6e72e092" y="260.2"/>
      </g>
     </g>
     <g id="text_64">
      <!-- 20 -->
      <g transform="translate(257.117157 274.798437)scale(0.1 -0.1)">
       <use xlink:href="#DejaVuSans-50"/>
       <use x="63.623047" xlink:href="#DejaVuSans-48"/>
      </g>
     </g>
    </g>
   </g>
   <g id="matplotlib.axis_10">
    <g id="ytick_21">
     <g id="line2d_73">
      <g>
       <use style="stroke:#000000;stroke-width:0.8;" x="33.8" xlink:href="#mf6d099ee67" y="250.2"/>
      </g>
     </g>
     <g id="text_65">
      <!-- 0.0 -->
      <g transform="translate(10.896875 253.999219)scale(0.1 -0.1)">
       <use xlink:href="#DejaVuSans-48"/>
       <use x="63.623047" xlink:href="#DejaVuSans-46"/>
       <use x="95.410156" xlink:href="#DejaVuSans-48"/>
      </g>
     </g>
    </g>
    <g id="ytick_22">
     <g id="line2d_74">
      <g>
       <use style="stroke:#000000;stroke-width:0.8;" x="33.8" xlink:href="#mf6d099ee67" y="230.9"/>
      </g>
     </g>
     <g id="text_66">
      <!-- 0.5 -->
      <g transform="translate(10.896875 234.699219)scale(0.1 -0.1)">
       <use xlink:href="#DejaVuSans-48"/>
       <use x="63.623047" xlink:href="#DejaVuSans-46"/>
       <use x="95.410156" xlink:href="#DejaVuSans-53"/>
      </g>
     </g>
    </g>
    <g id="ytick_23">
     <g id="line2d_75">
      <g>
       <use style="stroke:#000000;stroke-width:0.8;" x="33.8" xlink:href="#mf6d099ee67" y="211.6"/>
      </g>
     </g>
     <g id="text_67">
      <!-- 1.0 -->
      <g transform="translate(10.896875 215.399219)scale(0.1 -0.1)">
       <use xlink:href="#DejaVuSans-49"/>
       <use x="63.623047" xlink:href="#DejaVuSans-46"/>
       <use x="95.410156" xlink:href="#DejaVuSans-48"/>
      </g>
     </g>
    </g>
    <g id="ytick_24">
     <g id="line2d_76">
      <g>
       <use style="stroke:#000000;stroke-width:0.6;" x="33.8" xlink:href="#m2fa3fd479c" y="240.55"/>
      </g>
     </g>
    </g>
    <g id="ytick_25">
     <g id="line2d_77">
      <g>
       <use style="stroke:#000000;stroke-width:0.6;" x="33.8" xlink:href="#m2fa3fd479c" y="221.25"/>
      </g>
     </g>
    </g>
   </g>
   <g id="line2d_78">
    <path clip-path="url(#p3b99723e13)" d="M 186.604078 232.586048 
L 186.988456 224.154264 
L 187.372834 221.28667 
L 187.757212 225.761568 
L 188.14159 222.939908 
L 188.525968 228.494062 
L 188.910346 230.232992 
L 189.294723 225.908634 
L 189.679101 224.71821 
L 190.447857 228.7191 
L 190.832235 228.770824 
L 191.216613 227.519412 
L 191.600991 231.22231 
L 191.985369 224.946336 
L 192.369747 228.329626 
L 192.754125 226.355622 
L 193.138503 225.059434 
L 193.522881 232.31469 
L 193.907258 225.31844 
L 194.291636 225.441574 
L 194.676014 221.843668 
L 195.060392 229.178826 
L 195.829148 222.052108 
L 196.213526 224.091346 
L 196.597904 222.69171 
L 196.982282 222.418422 
L 197.36666 223.272254 
L 197.751038 226.404258 
L 198.135415 227.042316 
L 198.519793 221.443772 
L 198.904171 226.5382 
L 199.288549 237.822524 
L 199.672927 224.776882 
L 200.057305 225.54425 
L 200.441683 232.599944 
L 200.826061 228.277902 
L 201.210439 231.024678 
L 201.594817 230.632116 
L 201.979195 230.44838 
L 202.363573 223.57565 
L 202.74795 222.661988 
L 203.132328 224.024182 
L 203.516706 228.325766 
L 203.901084 225.10228 
L 204.285462 232.240964 
L 204.66984 229.51233 
L 205.054218 229.545526 
L 205.438596 225.543864 
L 205.822974 223.964352 
L 206.207352 225.672016 
L 206.59173 227.961768 
L 206.976107 225.37441 
L 207.360485 229.216268 
L 207.744863 227.225666 
L 208.129241 226.97052 
L 208.513619 225.818696 
L 208.897997 225.704054 
L 209.282375 225.350092 
L 209.666753 227.64023 
L 210.051131 230.839012 
L 210.435509 228.819846 
L 210.819887 231.519916 
L 211.204264 229.000108 
L 211.588642 232.442842 
L 211.97302 228.711766 
L 212.357398 229.515804 
L 212.741776 229.822288 
L 213.126154 228.924838 
L 213.510532 226.587608 
L 213.89491 225.048626 
L 214.279288 229.269536 
L 214.663666 229.06457 
L 215.048044 227.155414 
L 215.432422 230.359986 
L 215.816799 226.861282 
L 216.201177 227.892288 
L 216.585555 226.75822 
L 216.969933 229.73814 
L 217.354311 229.899102 
L 217.738689 228.881992 
L 218.123067 227.44144 
L 218.507445 229.594934 
L 218.891823 227.710868 
L 219.276201 226.759764 
L 219.660579 230.547196 
L 220.044956 226.237506 
L 220.429334 226.004362 
L 220.813712 231.831418 
L 221.19809 226.409662 
L 221.582468 228.551576 
L 221.966846 229.974758 
L 222.351224 232.334376 
L 222.735602 226.029066 
L 223.11998 226.711514 
L 223.504358 229.128646 
L 223.888736 223.830796 
L 224.273114 227.459968 
L 224.657491 226.109354 
L 225.041869 229.371054 
L 225.426247 225.323458 
L 225.810625 226.851246 
L 226.195003 230.798868 
L 226.579381 227.187066 
L 226.963759 228.301834 
L 227.348137 227.834774 
L 227.732515 228.411844 
L 228.116893 231.341198 
L 228.501271 228.434618 
L 228.885648 232.091196 
L 229.270026 231.194518 
L 229.654404 229.943106 
L 230.038782 231.63147 
L 230.42316 225.406448 
L 230.807538 227.397822 
L 231.191916 235.262958 
L 231.576294 226.58452 
L 231.960672 227.65181 
L 232.34505 224.668416 
L 232.729428 227.798876 
L 233.113805 229.628516 
L 233.498183 229.233252 
L 233.882561 232.413892 
L 234.266939 225.076032 
L 234.651317 225.668156 
L 235.035695 235.316226 
L 235.420073 234.51682 
L 235.804451 234.42225 
L 236.188829 229.725402 
L 236.957585 228.488272 
L 237.341963 231.54076 
L 237.72634 226.33362 
L 238.110718 236.75369 
L 238.495096 227.820106 
L 238.879474 225.468594 
L 239.263852 227.356906 
L 239.64823 227.121446 
L 240.032608 228.84069 
L 240.416986 229.704558 
L 240.801364 227.04579 
L 241.185742 230.841714 
L 241.57012 228.0822 
L 241.954497 230.245344 
L 242.338875 227.790384 
L 242.723253 232.861266 
L 243.107631 231.212274 
L 243.492009 231.599432 
L 243.876387 237.287142 
L 244.260765 248.300494 
L 244.645143 247.118948 
L 245.029521 230.10098 
L 245.798277 226.483774 
L 246.182654 224.635992 
L 246.567032 221.096372 
L 246.95141 227.715114 
L 247.335788 224.17202 
L 247.720166 223.34598 
L 248.104544 225.801326 
L 248.488922 226.581432 
L 248.8733 223.490344 
L 249.257678 218.757984 
L 249.642056 220.467964 
L 250.026434 220.764798 
L 250.410812 218.566528 
L 250.795189 225.164426 
L 251.179567 220.403116 
L 251.563945 225.17948 
L 251.948323 222.37133 
L 252.332701 230.411324 
L 252.717079 230.764128 
L 253.101457 233.033422 
L 254.254591 223.506556 
L 254.638969 230.1859 
L 255.023346 226.22361 
L 255.792102 229.796426 
L 256.17648 225.874666 
L 256.560858 224.744458 
L 256.945236 226.88174 
L 257.329614 222.462812 
L 257.713992 221.640246 
L 258.09837 222.613738 
L 258.482748 224.328736 
L 258.867126 221.930904 
L 259.251504 225.654646 
L 259.635881 224.161598 
L 260.020259 219.072188 
L 260.404637 220.294264 
L 260.789015 218.65801 
L 261.173393 222.924082 
L 261.557771 224.141526 
L 261.942149 221.664178 
L 262.326527 227.324482 
L 262.710905 224.796954 
L 263.095283 234.195668 
L 263.479661 239.869482 
L 263.864038 233.671094 
L 264.248416 246.09296 
L 264.632794 244.95233 
L 265.017172 244.523098 
L 265.40155 246.780426 
L 265.785928 244.901764 
L 266.554684 244.374102 
L 266.939062 243.751098 
L 267.32344 245.285834 
L 267.707818 244.863936 
L 268.092195 245.893784 
L 268.476573 240.935614 
L 268.860951 245.730892 
L 269.245329 241.456328 
L 269.629707 246.614446 
L 270.014085 241.36639 
L 270.398463 245.149962 
L 270.782841 245.84399 
L 271.167219 248.535954 
L 271.551597 241.315824 
L 271.935975 244.074952 
L 272.320353 241.83538 
L 272.70473 242.427118 
L 273.089108 242.71546 
L 273.473486 248.506618 
L 273.857864 242.15769 
L 274.242242 243.860336 
L 274.62662 242.439084 
L 275.010998 247.098104 
L 275.395376 249.22342 
L 275.779754 242.327144 
L 276.164132 242.637488 
L 276.54851 241.6887 
L 277.317265 246.325332 
L 277.701643 246.780812 
L 278.086021 241.463276 
L 278.470399 241.735406 
L 278.854777 247.26833 
L 279.623533 240.092204 
L 280.007911 241.087286 
L 280.007911 241.087286 
" style="fill:none;stroke:#1f77b4;stroke-linecap:square;stroke-width:1.5;"/>
   </g>
   <g id="patch_15">
    <path d="M 33.8 250.2 
L 33.8 211.6 
" style="fill:none;stroke:#000000;stroke-linecap:square;stroke-linejoin:miter;stroke-width:0.8;"/>
   </g>
   <g id="patch_16">
    <path d="M 43.8 260.2 
L 280.36579 260.2 
" style="fill:none;stroke:#000000;stroke-linecap:square;stroke-linejoin:miter;stroke-width:0.8;"/>
   </g>
   <g id="text_68">
    <!-- X -->
    <defs>
     <path d="M 49.8125 37.203125 
L 75.09375 0 
L 55.515625 0 
L 38.484375 24.90625 
L 21.578125 0 
L 1.90625 0 
L 27.203125 37.203125 
L 2.875 72.90625 
L 22.515625 72.90625 
L 38.484375 49.421875 
L 54.390625 72.90625 
L 74.125 72.90625 
z
" id="DejaVuSans-Bold-88"/>
    </defs>
    <g transform="translate(157.45727 205.6)scale(0.12 -0.12)">
     <use xlink:href="#DejaVuSans-Bold-88"/>
    </g>
   </g>
  </g>
 </g>
 <defs>
  <clipPath id="pfdcdee15fd">
   <rect height="38.6" width="236.56579" x="43.8" y="26.8"/>
  </clipPath>
  <clipPath id="p801a7dc475">
   <rect height="38.6" width="236.56579" x="295.63421" y="26.8"/>
  </clipPath>
  <clipPath id="pc5c097fa6f">
   <rect height="38.6" width="236.56579" x="43.8" y="119.2"/>
  </clipPath>
  <clipPath id="p1c84653b48">
   <rect height="38.6" width="236.56579" x="295.63421" y="119.2"/>
  </clipPath>
  <clipPath id="p3b99723e13">
   <rect height="38.6" width="236.56579" x="43.8" y="211.6"/>
  </clipPath>
 </defs>
</svg>
