<?xml version="1.0" encoding="utf-8" standalone="no"?>
<!DOCTYPE svg PUBLIC "-//W3C//DTD SVG 1.1//EN"
  "http://www.w3.org/Graphics/SVG/1.1/DTD/svg11.dtd">
<!-- Created with matplotlib (https://matplotlib.org/) -->
<svg height="288pt" version="1.1" viewBox="0 0 576 288" width="576pt" xmlns="http://www.w3.org/2000/svg" xmlns:xlink="http://www.w3.org/1999/xlink">
 <defs>
  <style type="text/css">
*{stroke-linecap:butt;stroke-linejoin:round;}
  </style>
 </defs>
 <g id="figure_1">
  <g id="patch_1">
   <path d="M 0 288 
L 576 288 
L 576 0 
L 0 0 
z
" style="fill:#ffffff;"/>
  </g>
  <g id="axes_1">
   <g id="patch_2">
    <path d="M 43.8 65.4 
L 280.36579 65.4 
L 280.36579 26.8 
L 43.8 26.8 
z
" style="fill:#ffffff;"/>
   </g>
   <g id="matplotlib.axis_1">
    <g id="xtick_1">
     <g id="line2d_1">
      <defs>
       <path d="M 0 0 
L 0 3.5 
" id="m57d30ec1c2" style="stroke:#000000;stroke-width:0.8;"/>
      </defs>
      <g>
       <use style="stroke:#000000;stroke-width:0.8;" x="43.800004" xlink:href="#m57d30ec1c2" y="75.4"/>
      </g>
     </g>
     <g id="text_1">
      <!-- 0 -->
      <defs>
       <path d="M 31.78125 66.40625 
Q 24.171875 66.40625 20.328125 58.90625 
Q 16.5 51.421875 16.5 36.375 
Q 16.5 21.390625 20.328125 13.890625 
Q 24.171875 6.390625 31.78125 6.390625 
Q 39.453125 6.390625 43.28125 13.890625 
Q 47.125 21.390625 47.125 36.375 
Q 47.125 51.421875 43.28125 58.90625 
Q 39.453125 66.40625 31.78125 66.40625 
z
M 31.78125 74.21875 
Q 44.046875 74.21875 50.515625 64.515625 
Q 56.984375 54.828125 56.984375 36.375 
Q 56.984375 17.96875 50.515625 8.265625 
Q 44.046875 -1.421875 31.78125 -1.421875 
Q 19.53125 -1.421875 13.0625 8.265625 
Q 6.59375 17.96875 6.59375 36.375 
Q 6.59375 54.828125 13.0625 64.515625 
Q 19.53125 74.21875 31.78125 74.21875 
z
" id="DejaVuSans-48"/>
      </defs>
      <g transform="translate(40.618754 89.998437)scale(0.1 -0.1)">
       <use xlink:href="#DejaVuSans-48"/>
      </g>
     </g>
    </g>
    <g id="xtick_2">
     <g id="line2d_2">
      <g>
       <use style="stroke:#000000;stroke-width:0.8;" x="63.018899" xlink:href="#m57d30ec1c2" y="75.4"/>
      </g>
     </g>
     <g id="text_2">
      <!-- 5 -->
      <defs>
       <path d="M 10.796875 72.90625 
L 49.515625 72.90625 
L 49.515625 64.59375 
L 19.828125 64.59375 
L 19.828125 46.734375 
Q 21.96875 47.46875 24.109375 47.828125 
Q 26.265625 48.1875 28.421875 48.1875 
Q 40.625 48.1875 47.75 41.5 
Q 54.890625 34.8125 54.890625 23.390625 
Q 54.890625 11.625 47.5625 5.09375 
Q 40.234375 -1.421875 26.90625 -1.421875 
Q 22.3125 -1.421875 17.546875 -0.640625 
Q 12.796875 0.140625 7.71875 1.703125 
L 7.71875 11.625 
Q 12.109375 9.234375 16.796875 8.0625 
Q 21.484375 6.890625 26.703125 6.890625 
Q 35.15625 6.890625 40.078125 11.328125 
Q 45.015625 15.765625 45.015625 23.390625 
Q 45.015625 31 40.078125 35.4375 
Q 35.15625 39.890625 26.703125 39.890625 
Q 22.75 39.890625 18.8125 39.015625 
Q 14.890625 38.140625 10.796875 36.28125 
z
" id="DejaVuSans-53"/>
      </defs>
      <g transform="translate(59.837649 89.998437)scale(0.1 -0.1)">
       <use xlink:href="#DejaVuSans-53"/>
      </g>
     </g>
    </g>
    <g id="xtick_3">
     <g id="line2d_3">
      <g>
       <use style="stroke:#000000;stroke-width:0.8;" x="82.237795" xlink:href="#m57d30ec1c2" y="75.4"/>
      </g>
     </g>
     <g id="text_3">
      <!-- 10 -->
      <defs>
       <path d="M 12.40625 8.296875 
L 28.515625 8.296875 
L 28.515625 63.921875 
L 10.984375 60.40625 
L 10.984375 69.390625 
L 28.421875 72.90625 
L 38.28125 72.90625 
L 38.28125 8.296875 
L 54.390625 8.296875 
L 54.390625 0 
L 12.40625 0 
z
" id="DejaVuSans-49"/>
      </defs>
      <g transform="translate(75.875295 89.998437)scale(0.1 -0.1)">
       <use xlink:href="#DejaVuSans-49"/>
       <use x="63.623047" xlink:href="#DejaVuSans-48"/>
      </g>
     </g>
    </g>
    <g id="xtick_4">
     <g id="line2d_4">
      <g>
       <use style="stroke:#000000;stroke-width:0.8;" x="101.456691" xlink:href="#m57d30ec1c2" y="75.4"/>
      </g>
     </g>
     <g id="text_4">
      <!-- 15 -->
      <g transform="translate(95.094191 89.998437)scale(0.1 -0.1)">
       <use xlink:href="#DejaVuSans-49"/>
       <use x="63.623047" xlink:href="#DejaVuSans-53"/>
      </g>
     </g>
    </g>
    <g id="xtick_5">
     <g id="line2d_5">
      <g>
       <use style="stroke:#000000;stroke-width:0.8;" x="120.675586" xlink:href="#m57d30ec1c2" y="75.4"/>
      </g>
     </g>
     <g id="text_5">
      <!-- 20 -->
      <defs>
       <path d="M 19.1875 8.296875 
L 53.609375 8.296875 
L 53.609375 0 
L 7.328125 0 
L 7.328125 8.296875 
Q 12.9375 14.109375 22.625 23.890625 
Q 32.328125 33.6875 34.8125 36.53125 
Q 39.546875 41.84375 41.421875 45.53125 
Q 43.3125 49.21875 43.3125 52.78125 
Q 43.3125 58.59375 39.234375 62.25 
Q 35.15625 65.921875 28.609375 65.921875 
Q 23.96875 65.921875 18.8125 64.3125 
Q 13.671875 62.703125 7.8125 59.421875 
L 7.8125 69.390625 
Q 13.765625 71.78125 18.9375 73 
Q 24.125 74.21875 28.421875 74.21875 
Q 39.75 74.21875 46.484375 68.546875 
Q 53.21875 62.890625 53.21875 53.421875 
Q 53.21875 48.921875 51.53125 44.890625 
Q 49.859375 40.875 45.40625 35.40625 
Q 44.1875 33.984375 37.640625 27.21875 
Q 31.109375 20.453125 19.1875 8.296875 
z
" id="DejaVuSans-50"/>
      </defs>
      <g transform="translate(114.313086 89.998437)scale(0.1 -0.1)">
       <use xlink:href="#DejaVuSans-50"/>
       <use x="63.623047" xlink:href="#DejaVuSans-48"/>
      </g>
     </g>
    </g>
    <g id="xtick_6">
     <g id="line2d_6">
      <g>
       <use style="stroke:#000000;stroke-width:0.8;" x="139.894482" xlink:href="#m57d30ec1c2" y="75.4"/>
      </g>
     </g>
     <g id="text_6">
      <!-- 25 -->
      <g transform="translate(133.531982 89.998437)scale(0.1 -0.1)">
       <use xlink:href="#DejaVuSans-50"/>
       <use x="63.623047" xlink:href="#DejaVuSans-53"/>
      </g>
     </g>
    </g>
    <g id="xtick_7">
     <g id="line2d_7">
      <g>
       <use style="stroke:#000000;stroke-width:0.8;" x="159.113378" xlink:href="#m57d30ec1c2" y="75.4"/>
      </g>
     </g>
     <g id="text_7">
      <!-- 30 -->
      <defs>
       <path d="M 40.578125 39.3125 
Q 47.65625 37.796875 51.625 33 
Q 55.609375 28.21875 55.609375 21.1875 
Q 55.609375 10.40625 48.1875 4.484375 
Q 40.765625 -1.421875 27.09375 -1.421875 
Q 22.515625 -1.421875 17.65625 -0.515625 
Q 12.796875 0.390625 7.625 2.203125 
L 7.625 11.71875 
Q 11.71875 9.328125 16.59375 8.109375 
Q 21.484375 6.890625 26.8125 6.890625 
Q 36.078125 6.890625 40.9375 10.546875 
Q 45.796875 14.203125 45.796875 21.1875 
Q 45.796875 27.640625 41.28125 31.265625 
Q 36.765625 34.90625 28.71875 34.90625 
L 20.21875 34.90625 
L 20.21875 43.015625 
L 29.109375 43.015625 
Q 36.375 43.015625 40.234375 45.921875 
Q 44.09375 48.828125 44.09375 54.296875 
Q 44.09375 59.90625 40.109375 62.90625 
Q 36.140625 65.921875 28.71875 65.921875 
Q 24.65625 65.921875 20.015625 65.03125 
Q 15.375 64.15625 9.8125 62.3125 
L 9.8125 71.09375 
Q 15.4375 72.65625 20.34375 73.4375 
Q 25.25 74.21875 29.59375 74.21875 
Q 40.828125 74.21875 47.359375 69.109375 
Q 53.90625 64.015625 53.90625 55.328125 
Q 53.90625 49.265625 50.4375 45.09375 
Q 46.96875 40.921875 40.578125 39.3125 
z
" id="DejaVuSans-51"/>
      </defs>
      <g transform="translate(152.750878 89.998437)scale(0.1 -0.1)">
       <use xlink:href="#DejaVuSans-51"/>
       <use x="63.623047" xlink:href="#DejaVuSans-48"/>
      </g>
     </g>
    </g>
    <g id="xtick_8">
     <g id="line2d_8">
      <g>
       <use style="stroke:#000000;stroke-width:0.8;" x="178.332273" xlink:href="#m57d30ec1c2" y="75.4"/>
      </g>
     </g>
     <g id="text_8">
      <!-- 35 -->
      <g transform="translate(171.969773 89.998437)scale(0.1 -0.1)">
       <use xlink:href="#DejaVuSans-51"/>
       <use x="63.623047" xlink:href="#DejaVuSans-53"/>
      </g>
     </g>
    </g>
    <g id="xtick_9">
     <g id="line2d_9">
      <g>
       <use style="stroke:#000000;stroke-width:0.8;" x="197.551169" xlink:href="#m57d30ec1c2" y="75.4"/>
      </g>
     </g>
     <g id="text_9">
      <!-- 40 -->
      <defs>
       <path d="M 37.796875 64.3125 
L 12.890625 25.390625 
L 37.796875 25.390625 
z
M 35.203125 72.90625 
L 47.609375 72.90625 
L 47.609375 25.390625 
L 58.015625 25.390625 
L 58.015625 17.1875 
L 47.609375 17.1875 
L 47.609375 0 
L 37.796875 0 
L 37.796875 17.1875 
L 4.890625 17.1875 
L 4.890625 26.703125 
z
" id="DejaVuSans-52"/>
      </defs>
      <g transform="translate(191.188669 89.998437)scale(0.1 -0.1)">
       <use xlink:href="#DejaVuSans-52"/>
       <use x="63.623047" xlink:href="#DejaVuSans-48"/>
      </g>
     </g>
    </g>
    <g id="xtick_10">
     <g id="line2d_10">
      <g>
       <use style="stroke:#000000;stroke-width:0.8;" x="216.770064" xlink:href="#m57d30ec1c2" y="75.4"/>
      </g>
     </g>
     <g id="text_10">
      <!-- 45 -->
      <g transform="translate(210.407564 89.998437)scale(0.1 -0.1)">
       <use xlink:href="#DejaVuSans-52"/>
       <use x="63.623047" xlink:href="#DejaVuSans-53"/>
      </g>
     </g>
    </g>
    <g id="xtick_11">
     <g id="line2d_11">
      <g>
       <use style="stroke:#000000;stroke-width:0.8;" x="235.98896" xlink:href="#m57d30ec1c2" y="75.4"/>
      </g>
     </g>
     <g id="text_11">
      <!-- 50 -->
      <g transform="translate(229.62646 89.998437)scale(0.1 -0.1)">
       <use xlink:href="#DejaVuSans-53"/>
       <use x="63.623047" xlink:href="#DejaVuSans-48"/>
      </g>
     </g>
    </g>
    <g id="xtick_12">
     <g id="line2d_12">
      <g>
       <use style="stroke:#000000;stroke-width:0.8;" x="255.207856" xlink:href="#m57d30ec1c2" y="75.4"/>
      </g>
     </g>
     <g id="text_12">
      <!-- 55 -->
      <g transform="translate(248.845356 89.998437)scale(0.1 -0.1)">
       <use xlink:href="#DejaVuSans-53"/>
       <use x="63.623047" xlink:href="#DejaVuSans-53"/>
      </g>
     </g>
    </g>
    <g id="xtick_13">
     <g id="line2d_13">
      <g>
       <use style="stroke:#000000;stroke-width:0.8;" x="274.426751" xlink:href="#m57d30ec1c2" y="75.4"/>
      </g>
     </g>
     <g id="text_13">
      <!-- 60 -->
      <defs>
       <path d="M 33.015625 40.375 
Q 26.375 40.375 22.484375 35.828125 
Q 18.609375 31.296875 18.609375 23.390625 
Q 18.609375 15.53125 22.484375 10.953125 
Q 26.375 6.390625 33.015625 6.390625 
Q 39.65625 6.390625 43.53125 10.953125 
Q 47.40625 15.53125 47.40625 23.390625 
Q 47.40625 31.296875 43.53125 35.828125 
Q 39.65625 40.375 33.015625 40.375 
z
M 52.59375 71.296875 
L 52.59375 62.3125 
Q 48.875 64.0625 45.09375 64.984375 
Q 41.3125 65.921875 37.59375 65.921875 
Q 27.828125 65.921875 22.671875 59.328125 
Q 17.53125 52.734375 16.796875 39.40625 
Q 19.671875 43.65625 24.015625 45.921875 
Q 28.375 48.1875 33.59375 48.1875 
Q 44.578125 48.1875 50.953125 41.515625 
Q 57.328125 34.859375 57.328125 23.390625 
Q 57.328125 12.15625 50.6875 5.359375 
Q 44.046875 -1.421875 33.015625 -1.421875 
Q 20.359375 -1.421875 13.671875 8.265625 
Q 6.984375 17.96875 6.984375 36.375 
Q 6.984375 53.65625 15.1875 63.9375 
Q 23.390625 74.21875 37.203125 74.21875 
Q 40.921875 74.21875 44.703125 73.484375 
Q 48.484375 72.75 52.59375 71.296875 
z
" id="DejaVuSans-54"/>
      </defs>
      <g transform="translate(268.064251 89.998437)scale(0.1 -0.1)">
       <use xlink:href="#DejaVuSans-54"/>
       <use x="63.623047" xlink:href="#DejaVuSans-48"/>
      </g>
     </g>
    </g>
   </g>
   <g id="matplotlib.axis_2">
    <g id="ytick_1">
     <g id="line2d_14">
      <defs>
       <path d="M 0 0 
L -3.5 0 
" id="m0f3d645ab4" style="stroke:#000000;stroke-width:0.8;"/>
      </defs>
      <g>
       <use style="stroke:#000000;stroke-width:0.8;" x="33.8" xlink:href="#m0f3d645ab4" y="65.4"/>
      </g>
     </g>
     <g id="text_14">
      <!-- 0.0 -->
      <defs>
       <path d="M 10.6875 12.40625 
L 21 12.40625 
L 21 0 
L 10.6875 0 
z
" id="DejaVuSans-46"/>
      </defs>
      <g transform="translate(10.896875 69.199219)scale(0.1 -0.1)">
       <use xlink:href="#DejaVuSans-48"/>
       <use x="63.623047" xlink:href="#DejaVuSans-46"/>
       <use x="95.410156" xlink:href="#DejaVuSans-48"/>
      </g>
     </g>
    </g>
    <g id="ytick_2">
     <g id="line2d_15">
      <g>
       <use style="stroke:#000000;stroke-width:0.8;" x="33.8" xlink:href="#m0f3d645ab4" y="46.1"/>
      </g>
     </g>
     <g id="text_15">
      <!-- 0.5 -->
      <g transform="translate(10.896875 49.899219)scale(0.1 -0.1)">
       <use xlink:href="#DejaVuSans-48"/>
       <use x="63.623047" xlink:href="#DejaVuSans-46"/>
       <use x="95.410156" xlink:href="#DejaVuSans-53"/>
      </g>
     </g>
    </g>
    <g id="ytick_3">
     <g id="line2d_16">
      <g>
       <use style="stroke:#000000;stroke-width:0.8;" x="33.8" xlink:href="#m0f3d645ab4" y="26.8"/>
      </g>
     </g>
     <g id="text_16">
      <!-- 1.0 -->
      <g transform="translate(10.896875 30.599219)scale(0.1 -0.1)">
       <use xlink:href="#DejaVuSans-49"/>
       <use x="63.623047" xlink:href="#DejaVuSans-46"/>
       <use x="95.410156" xlink:href="#DejaVuSans-48"/>
      </g>
     </g>
    </g>
    <g id="ytick_4">
     <g id="line2d_17">
      <defs>
       <path d="M 0 0 
L -2 0 
" id="m0ca40c8257" style="stroke:#000000;stroke-width:0.6;"/>
      </defs>
      <g>
       <use style="stroke:#000000;stroke-width:0.6;" x="33.8" xlink:href="#m0ca40c8257" y="55.75"/>
      </g>
     </g>
    </g>
    <g id="ytick_5">
     <g id="line2d_18">
      <g>
       <use style="stroke:#000000;stroke-width:0.6;" x="33.8" xlink:href="#m0ca40c8257" y="36.45"/>
      </g>
     </g>
    </g>
   </g>
   <g id="line2d_19">
    <path clip-path="url(#p96d50ef8d1)" d="M 43.800008 41.798416 
L 44.184386 34.328544 
L 44.568764 32.193964 
L 44.953141 37.342432 
L 45.337519 30.819032 
L 45.721897 32.307448 
L 46.106275 35.574938 
L 46.490653 36.294442 
L 46.875031 35.640558 
L 47.259409 31.858144 
L 47.643787 32.915012 
L 48.028165 35.269998 
L 48.412543 36.258544 
L 49.181298 31.515762 
L 49.565676 33.440744 
L 49.950054 37.695236 
L 50.71881 34.217376 
L 51.103188 39.861854 
L 51.487566 35.174656 
L 51.871944 37.133606 
L 52.6407 32.228704 
L 53.025078 32.718152 
L 53.409455 31.716482 
L 53.793833 36.951414 
L 54.178211 35.023344 
L 54.562589 35.995678 
L 54.946967 34.670154 
L 55.331345 37.052932 
L 55.715723 34.038272 
L 56.100101 47.89104 
L 56.484479 35.352602 
L 56.868857 35.273086 
L 57.253235 35.045732 
L 57.637613 34.407674 
L 58.02199 32.68457 
L 58.406368 34.380654 
L 58.790746 31.432772 
L 59.175124 36.551904 
L 59.559502 37.591788 
L 59.94388 34.693314 
L 60.328258 34.05873 
L 60.712636 36.646088 
L 61.097014 34.46982 
L 61.481392 37.067214 
L 61.86577 36.201802 
L 62.250147 37.776296 
L 63.018903 51.155828 
L 63.403281 37.124728 
L 64.172037 35.18971 
L 64.556415 36.954888 
L 64.940793 37.696394 
L 65.325171 34.482558 
L 65.709549 37.86276 
L 66.093927 38.963632 
L 66.862682 33.90819 
L 67.24706 37.467496 
L 67.631438 36.64879 
L 68.015816 37.448196 
L 68.400194 39.843326 
L 69.16895 42.151606 
L 69.553328 40.002358 
L 69.937706 35.061944 
L 70.322084 41.144146 
L 70.706462 37.39377 
L 71.090839 39.711314 
L 71.475217 36.631806 
L 71.859595 41.032978 
L 72.243973 33.12268 
L 72.628351 37.845776 
L 73.012729 38.029898 
L 73.397107 36.914358 
L 73.781485 33.629498 
L 74.165863 35.061172 
L 74.550241 35.21673 
L 74.934619 32.500834 
L 75.318996 34.694858 
L 75.703374 34.447432 
L 76.087752 34.672084 
L 76.47213 32.453742 
L 76.856508 38.252234 
L 77.240886 35.464928 
L 77.625264 38.765614 
L 78.009642 38.110572 
L 78.778398 40.708352 
L 79.162776 39.181336 
L 79.547154 37.062196 
L 79.931531 40.973534 
L 80.315909 42.136552 
L 80.700287 41.759044 
L 81.084665 58.689776 
L 81.469043 64.863074 
L 81.853421 63.872212 
L 82.237799 64.700954 
L 82.622177 59.275338 
L 83.006555 47.684916 
L 83.390933 49.395668 
L 83.775311 45.743722 
L 84.159688 38.34912 
L 84.544066 35.074682 
L 84.928444 34.832274 
L 85.312822 44.749772 
L 86.081578 35.910758 
L 86.465956 42.008014 
L 86.850334 43.795966 
L 87.234712 42.121884 
L 87.61909 42.617122 
L 88.003468 37.665514 
L 88.772223 37.703342 
L 89.156601 40.164864 
L 89.540979 40.949988 
L 89.925357 40.536968 
L 90.309735 39.3257 
L 90.694113 39.652256 
L 91.078491 37.788648 
L 91.462869 38.688028 
L 91.847247 41.630506 
L 92.616003 41.819646 
L 93.00038 43.5524 
L 93.384758 38.25455 
L 93.769136 38.054216 
L 94.153514 37.342818 
L 94.537892 38.27192 
L 94.92227 36.369326 
L 95.306648 37.087286 
L 95.691026 36.7781 
L 96.459782 43.156364 
L 96.84416 40.443556 
L 97.228537 47.826192 
L 97.612915 43.277954 
L 97.997293 45.177846 
L 98.381671 38.6309 
L 98.766049 41.239102 
L 99.150427 41.409328 
L 99.919183 35.501212 
L 100.303561 36.495934 
L 100.687939 40.140932 
L 101.072317 40.707194 
L 101.456695 38.819268 
L 101.841072 37.8975 
L 102.22545 39.627552 
L 102.609828 41.91962 
L 103.378584 36.564256 
L 103.762962 42.507112 
L 104.14734 37.392998 
L 104.531718 36.166676 
L 104.916096 40.501456 
L 105.300474 38.050356 
L 105.684852 37.01356 
L 106.069229 39.11726 
L 106.453607 37.391454 
L 106.837985 37.183014 
L 107.222363 40.056012 
L 107.606741 41.582256 
L 107.991119 44.587652 
L 108.759875 37.214666 
L 109.144253 34.675172 
L 109.528631 38.085868 
L 109.913009 38.26806 
L 110.297387 35.499282 
L 110.681764 43.068742 
L 111.066142 45.571566 
L 111.45052 37.102726 
L 111.834898 35.514336 
L 112.219276 42.001838 
L 112.603654 35.659472 
L 112.988032 36.430314 
L 113.37241 38.637076 
L 114.141166 41.092422 
L 114.525544 42.768048 
L 114.909921 39.291346 
L 115.294299 38.352594 
L 115.678677 37.801386 
L 116.063055 40.357092 
L 116.447433 40.97585 
L 116.831811 49.55663 
L 117.216189 34.827256 
L 117.600567 34.886314 
L 117.984945 36.756484 
L 118.369323 41.918076 
L 118.753701 45.444186 
L 119.522456 43.015474 
L 119.906834 40.107736 
L 120.291212 41.826594 
L 121.059968 35.810012 
L 121.444346 41.854 
L 121.828724 39.731 
L 122.213102 39.592426 
L 122.59748 37.70643 
L 122.981858 38.634374 
L 123.366236 40.854646 
L 123.750613 39.450378 
L 124.134991 35.751726 
L 124.519369 36.61984 
L 124.903747 33.772318 
L 125.288125 37.658952 
L 125.672503 37.468268 
L 126.056881 39.783496 
L 126.441259 39.533754 
L 126.825637 38.840884 
L 127.210015 36.601312 
L 127.594393 37.224702 
L 127.97877 34.951162 
L 128.363148 39.262782 
L 128.747526 41.542498 
L 129.131904 38.261498 
L 129.516282 44.265728 
L 129.90066 38.329434 
L 130.285038 37.117008 
L 130.669416 36.308338 
L 131.053794 36.669634 
L 131.438172 35.73397 
L 131.82255 36.659598 
L 132.206927 35.278876 
L 132.591305 34.6937 
L 132.975683 41.14376 
L 133.360061 39.56888 
L 133.744439 35.85942 
L 134.128817 35.118686 
L 134.897573 39.53993 
L 135.666329 35.42131 
L 136.050707 36.205662 
L 136.435085 37.91487 
L 136.819462 41.130636 
L 137.20384 37.75661 
L 137.588218 36.043156 
L 137.972596 35.776816 
L 138.356974 36.565414 
L 138.741352 36.453474 
L 139.12573 40.35825 
L 139.894486 37.491814 
L 140.278864 38.883344 
L 140.663242 37.637722 
L 141.047619 40.904054 
L 141.431997 40.705264 
L 141.816375 38.864044 
L 142.200753 36.353886 
L 142.969509 36.74722 
L 143.353887 38.522434 
L 143.738265 42.67618 
L 144.122643 41.489616 
L 144.507021 37.331238 
L 144.891399 43.626126 
L 145.660154 36.946396 
L 146.044532 37.992456 
L 146.42891 45.778076 
L 146.813288 36.664616 
L 147.197666 33.951036 
L 147.582044 34.692156 
L 147.966422 33.235392 
L 148.3508 35.259576 
L 148.735178 48.491656 
L 149.119556 51.011464 
L 149.503934 49.560104 
L 149.888311 40.54739 
L 150.272689 36.35929 
L 151.041445 35.46184 
L 151.425823 35.095912 
L 151.810201 40.553566 
L 152.194579 37.13322 
L 152.578957 36.353886 
L 152.963335 35.881422 
L 153.347713 40.900966 
L 153.732091 35.397378 
L 154.116468 36.09681 
L 154.500846 34.49298 
L 154.885224 36.688162 
L 155.269602 35.603502 
L 155.65398 36.230752 
L 156.038358 38.483448 
L 156.422736 37.223158 
L 156.807114 34.377952 
L 157.57587 36.84372 
L 157.960248 34.561302 
L 158.344626 39.056658 
L 158.729003 35.817346 
L 159.497759 41.625488 
L 159.882137 41.905724 
L 160.266515 42.960662 
L 160.650893 37.094234 
L 161.035271 42.2786 
L 161.419649 36.955274 
L 161.804027 44.681064 
L 162.188405 48.032702 
L 162.572783 40.68249 
L 162.95716 52.545814 
L 163.341538 35.407414 
L 163.725916 37.195752 
L 164.110294 40.41422 
L 164.494672 48.87534 
L 164.87905 53.740098 
L 165.263428 46.970816 
L 165.647806 37.767804 
L 166.032184 43.84962 
L 166.416562 43.958472 
L 166.80094 38.620092 
L 167.185318 49.516872 
L 167.569695 41.478808 
L 167.954073 45.883454 
L 168.338451 41.453718 
L 168.722829 50.682978 
L 169.107207 55.390634 
L 169.491585 52.83763 
L 169.875963 48.681568 
L 170.260341 46.863508 
L 170.644719 45.9842 
L 171.029097 49.003878 
L 171.413475 50.40969 
L 171.797852 42.277056 
L 172.566608 44.94586 
L 172.950986 41.86558 
L 173.335364 52.130478 
L 173.719742 43.451654 
L 174.10412 38.64634 
L 174.488498 41.613908 
L 174.872876 38.610056 
L 175.257254 43.236266 
L 175.641632 43.583666 
L 176.026009 40.482542 
L 176.410387 50.346772 
L 176.794765 50.713086 
L 177.179143 46.621872 
L 177.563521 52.562026 
L 177.947899 40.433134 
L 178.332277 45.623676 
L 178.716655 36.020382 
L 179.101033 38.757122 
L 179.485411 43.666656 
L 179.869789 38.377684 
L 180.254167 42.456546 
L 180.638544 45.338808 
L 181.022922 41.924638 
L 181.4073 42.2979 
L 181.791678 40.82917 
L 182.176056 48.573102 
L 182.560434 46.279104 
L 182.944812 49.80174 
L 183.32919 44.666782 
L 183.713568 37.595262 
L 184.097946 42.813982 
L 184.482324 40.419238 
L 184.866701 44.498486 
L 185.251079 41.411258 
L 185.635457 36.228822 
L 186.019835 48.16703 
L 186.404213 49.204598 
L 186.788591 52.65814 
L 187.172969 42.519078 
L 187.557347 48.944434 
L 187.941725 47.125602 
L 188.326103 49.866974 
L 188.710481 43.62188 
L 189.094859 50.875978 
L 189.479236 52.994346 
L 189.863614 53.334412 
L 190.247992 47.940448 
L 190.63237 45.989218 
L 191.016748 42.83251 
L 191.401126 47.635894 
L 191.785504 43.032072 
L 192.169882 51.79543 
L 192.55426 45.956408 
L 192.938638 45.619816 
L 193.323016 40.278734 
L 193.707393 44.603478 
L 194.091771 39.182494 
L 194.476149 35.777202 
L 194.860527 36.560396 
L 195.244905 35.781062 
L 195.629283 35.862894 
L 196.398039 39.821324 
L 196.782417 35.662946 
L 197.166795 40.45089 
L 197.93555 37.684042 
L 198.319928 37.310394 
L 198.704306 36.494776 
L 199.088684 38.082394 
L 199.473062 38.98023 
L 199.85744 37.174908 
L 200.241818 41.473018 
L 200.626196 42.00068 
L 201.010574 48.42372 
L 201.394952 48.466566 
L 201.77933 45.002602 
L 202.163708 48.79428 
L 202.548085 50.040674 
L 202.932463 45.415622 
L 203.316841 58.822946 
L 203.701219 57.376218 
L 204.085597 44.54442 
L 204.469975 52.300318 
L 204.854353 44.50775 
L 205.238731 51.922038 
L 205.623109 53.641668 
L 206.007487 35.083946 
L 206.391865 52.873142 
L 206.776242 45.04429 
L 207.16062 44.540174 
L 207.544998 42.711692 
L 207.929376 36.617524 
L 208.698132 33.468536 
L 209.08251 40.955006 
L 209.466888 37.175294 
L 209.851266 41.29237 
L 210.235644 48.4353 
L 210.620022 45.356564 
L 211.0044 50.248342 
L 211.388777 50.480714 
L 211.773155 41.914602 
L 212.157533 39.465046 
L 212.541911 46.299948 
L 212.926289 46.66163 
L 213.310667 51.552636 
L 214.463801 37.944206 
L 214.848179 45.327614 
L 215.616934 40.78478 
L 216.001312 40.18262 
L 216.38569 39.295978 
L 216.770068 35.256102 
L 217.154446 52.387554 
L 217.538824 53.088144 
L 217.923202 47.884864 
L 218.30758 45.00762 
L 218.691958 51.299806 
L 219.076336 43.501448 
L 219.460714 40.95655 
L 219.845091 63.612434 
L 220.229469 64.195294 
L 220.613847 62.374146 
L 220.998225 33.769616 
L 221.382603 39.448448 
L 221.766981 38.52861 
L 222.151359 40.055626 
L 222.920115 38.516258 
L 223.304493 33.34656 
L 224.457626 43.817582 
L 224.842004 37.872796 
L 225.226382 42.128446 
L 225.61076 41.287352 
L 225.995138 40.02629 
L 226.379516 46.399922 
L 226.763894 45.574268 
L 227.148272 36.37087 
L 227.53265 42.468898 
L 227.917028 43.995528 
L 228.301406 41.240646 
L 228.685783 44.568352 
L 229.070161 45.31063 
L 229.454539 37.960032 
L 229.838917 42.72057 
L 230.223295 37.238598 
L 230.607673 41.30781 
L 230.992051 38.433654 
L 231.376429 36.991944 
L 232.145185 44.277308 
L 232.529563 31.596436 
L 232.91394 35.804608 
L 233.298318 34.71879 
L 233.682696 44.068096 
L 234.067074 48.650302 
L 234.451452 48.579664 
L 234.83583 42.05279 
L 235.220208 38.823128 
L 235.604586 47.838544 
L 235.988964 41.390414 
L 236.75772 44.448306 
L 237.142098 53.141798 
L 237.526475 47.515076 
L 237.910853 43.800212 
L 238.295231 45.570022 
L 238.679609 40.55511 
L 239.063987 32.27348 
L 239.448365 38.967492 
L 239.832743 41.322864 
L 240.217121 37.899044 
L 240.601499 45.41485 
L 240.985877 42.991156 
L 241.370255 55.592512 
L 241.754632 44.2858 
L 242.13901 55.694802 
L 242.523388 43.966964 
L 242.907766 37.036334 
L 243.292144 43.871622 
L 243.676522 39.426832 
L 244.0609 38.734348 
L 244.445278 36.651492 
L 244.829656 41.409328 
L 245.214034 53.95896 
L 245.598412 39.82364 
L 245.98279 39.47624 
L 246.367167 52.183746 
L 246.751545 57.906582 
L 247.135923 37.510728 
L 247.520301 43.210404 
L 247.904679 38.602336 
L 248.289057 38.041864 
L 248.673435 45.439554 
L 249.057813 40.865454 
L 249.442191 46.48793 
L 249.826569 49.045566 
L 250.210947 36.38824 
L 250.595324 55.66894 
L 250.979702 49.017388 
L 251.36408 47.3931 
L 251.748458 55.1324 
L 252.132836 43.05446 
L 252.517214 49.593686 
L 252.901592 46.908284 
L 253.28597 63.719742 
L 254.054726 39.0169 
L 254.439104 36.929798 
L 254.823481 39.781952 
L 255.207859 46.006588 
L 255.592237 37.877814 
L 255.976615 40.22315 
L 256.360993 38.956298 
L 256.745371 47.422436 
L 257.129749 50.375336 
L 257.514127 48.18633 
L 257.898505 36.961836 
L 258.282883 41.475334 
L 258.667261 55.326944 
L 259.051639 42.256598 
L 259.436016 44.529752 
L 259.820394 34.76897 
L 260.204772 44.694188 
L 260.58915 45.027692 
L 260.973528 41.459508 
L 261.357906 46.068348 
L 261.742284 41.644016 
L 262.126662 42.893112 
L 262.51104 35.424012 
L 262.895418 39.16937 
L 263.664173 50.719648 
L 264.048551 51.884596 
L 264.432929 39.216462 
L 265.201685 35.010992 
L 265.586063 51.157758 
L 265.970441 48.309464 
L 266.354819 55.812532 
L 266.739197 57.408642 
L 267.123575 46.021642 
L 267.507953 43.001192 
L 267.892331 42.909324 
L 268.276708 43.159452 
L 268.661086 37.330466 
L 269.045464 43.579806 
L 269.429842 44.614672 
L 269.81422 51.397078 
L 270.198598 51.578884 
L 270.582976 56.496524 
L 270.967354 58.50025 
L 271.351732 54.587368 
L 271.73611 48.050072 
L 272.120488 54.888834 
L 272.504865 57.545672 
L 272.889243 63.274298 
L 273.273621 45.675786 
L 273.657999 43.739996 
L 274.042377 46.456278 
L 274.426755 59.286918 
L 274.811133 44.43441 
L 275.195511 44.548666 
L 275.579889 46.641944 
L 275.964267 51.664962 
L 276.348645 63.5086 
L 276.733022 61.60755 
L 277.501778 54.182068 
L 277.886156 62.041414 
L 278.270534 54.825916 
L 278.654912 57.511704 
L 279.03929 57.446084 
L 279.808046 61.948774 
L 280.192424 62.864321 
L 280.192424 62.864321 
" style="fill:none;stroke:#1f77b4;stroke-linecap:square;stroke-width:1.5;"/>
   </g>
   <g id="patch_3">
    <path d="M 33.8 65.4 
L 33.8 26.8 
" style="fill:none;stroke:#000000;stroke-linecap:square;stroke-linejoin:miter;stroke-width:0.8;"/>
   </g>
   <g id="patch_4">
    <path d="M 43.8 75.4 
L 280.36579 75.4 
" style="fill:none;stroke:#000000;stroke-linecap:square;stroke-linejoin:miter;stroke-width:0.8;"/>
   </g>
   <g id="text_17">
    <!-- 2R -->
    <defs>
     <path d="M 28.8125 13.8125 
L 60.890625 13.8125 
L 60.890625 0 
L 7.90625 0 
L 7.90625 13.8125 
L 34.515625 37.3125 
Q 38.09375 40.53125 39.796875 43.609375 
Q 41.5 46.6875 41.5 50 
Q 41.5 55.125 38.0625 58.25 
Q 34.625 61.375 28.90625 61.375 
Q 24.515625 61.375 19.28125 59.5 
Q 14.0625 57.625 8.109375 53.90625 
L 8.109375 69.921875 
Q 14.453125 72.015625 20.65625 73.109375 
Q 26.859375 74.21875 32.8125 74.21875 
Q 45.90625 74.21875 53.15625 68.453125 
Q 60.40625 62.703125 60.40625 52.390625 
Q 60.40625 46.4375 57.328125 41.28125 
Q 54.25 36.140625 44.390625 27.484375 
z
" id="DejaVuSans-Bold-50"/>
     <path d="M 35.890625 40.578125 
Q 41.796875 40.578125 44.359375 42.765625 
Q 46.921875 44.96875 46.921875 50 
Q 46.921875 54.984375 44.359375 57.125 
Q 41.796875 59.28125 35.890625 59.28125 
L 27.984375 59.28125 
L 27.984375 40.578125 
z
M 27.984375 27.59375 
L 27.984375 0 
L 9.1875 0 
L 9.1875 72.90625 
L 37.890625 72.90625 
Q 52.296875 72.90625 59 68.0625 
Q 65.71875 63.234375 65.71875 52.78125 
Q 65.71875 45.5625 62.21875 40.921875 
Q 58.734375 36.28125 51.703125 34.078125 
Q 55.5625 33.203125 58.609375 30.09375 
Q 61.671875 27 64.796875 20.703125 
L 75 0 
L 54.984375 0 
L 46.09375 18.109375 
Q 43.40625 23.578125 40.640625 25.578125 
Q 37.890625 27.59375 33.296875 27.59375 
z
" id="DejaVuSans-Bold-82"/>
    </defs>
    <g transform="translate(153.288207 20.8)scale(0.12 -0.12)">
     <use xlink:href="#DejaVuSans-Bold-50"/>
     <use x="69.580078" xlink:href="#DejaVuSans-Bold-82"/>
    </g>
   </g>
  </g>
  <g id="axes_2">
   <g id="patch_5">
    <path d="M 295.63421 65.4 
L 532.2 65.4 
L 532.2 26.8 
L 295.63421 26.8 
z
" style="fill:#ffffff;"/>
   </g>
   <g id="matplotlib.axis_3">
    <g id="xtick_14">
     <g id="line2d_20">
      <g>
       <use style="stroke:#000000;stroke-width:0.8;" x="295.63421" xlink:href="#m57d30ec1c2" y="75.4"/>
      </g>
     </g>
     <g id="text_18">
      <!-- 0 -->
      <g transform="translate(292.45296 89.998437)scale(0.1 -0.1)">
       <use xlink:href="#DejaVuSans-48"/>
      </g>
     </g>
    </g>
    <g id="xtick_15">
     <g id="line2d_21">
      <g>
       <use style="stroke:#000000;stroke-width:0.8;" x="314.853106" xlink:href="#m57d30ec1c2" y="75.4"/>
      </g>
     </g>
     <g id="text_19">
      <!-- 5 -->
      <g transform="translate(311.671856 89.998437)scale(0.1 -0.1)">
       <use xlink:href="#DejaVuSans-53"/>
      </g>
     </g>
    </g>
    <g id="xtick_16">
     <g id="line2d_22">
      <g>
       <use style="stroke:#000000;stroke-width:0.8;" x="334.072002" xlink:href="#m57d30ec1c2" y="75.4"/>
      </g>
     </g>
     <g id="text_20">
      <!-- 10 -->
      <g transform="translate(327.709502 89.998437)scale(0.1 -0.1)">
       <use xlink:href="#DejaVuSans-49"/>
       <use x="63.623047" xlink:href="#DejaVuSans-48"/>
      </g>
     </g>
    </g>
    <g id="xtick_17">
     <g id="line2d_23">
      <g>
       <use style="stroke:#000000;stroke-width:0.8;" x="353.290897" xlink:href="#m57d30ec1c2" y="75.4"/>
      </g>
     </g>
     <g id="text_21">
      <!-- 15 -->
      <g transform="translate(346.928397 89.998437)scale(0.1 -0.1)">
       <use xlink:href="#DejaVuSans-49"/>
       <use x="63.623047" xlink:href="#DejaVuSans-53"/>
      </g>
     </g>
    </g>
    <g id="xtick_18">
     <g id="line2d_24">
      <g>
       <use style="stroke:#000000;stroke-width:0.8;" x="372.509793" xlink:href="#m57d30ec1c2" y="75.4"/>
      </g>
     </g>
     <g id="text_22">
      <!-- 20 -->
      <g transform="translate(366.147293 89.998437)scale(0.1 -0.1)">
       <use xlink:href="#DejaVuSans-50"/>
       <use x="63.623047" xlink:href="#DejaVuSans-48"/>
      </g>
     </g>
    </g>
    <g id="xtick_19">
     <g id="line2d_25">
      <g>
       <use style="stroke:#000000;stroke-width:0.8;" x="391.728688" xlink:href="#m57d30ec1c2" y="75.4"/>
      </g>
     </g>
     <g id="text_23">
      <!-- 25 -->
      <g transform="translate(385.366188 89.998437)scale(0.1 -0.1)">
       <use xlink:href="#DejaVuSans-50"/>
       <use x="63.623047" xlink:href="#DejaVuSans-53"/>
      </g>
     </g>
    </g>
    <g id="xtick_20">
     <g id="line2d_26">
      <g>
       <use style="stroke:#000000;stroke-width:0.8;" x="410.947584" xlink:href="#m57d30ec1c2" y="75.4"/>
      </g>
     </g>
     <g id="text_24">
      <!-- 30 -->
      <g transform="translate(404.585084 89.998437)scale(0.1 -0.1)">
       <use xlink:href="#DejaVuSans-51"/>
       <use x="63.623047" xlink:href="#DejaVuSans-48"/>
      </g>
     </g>
    </g>
    <g id="xtick_21">
     <g id="line2d_27">
      <g>
       <use style="stroke:#000000;stroke-width:0.8;" x="430.16648" xlink:href="#m57d30ec1c2" y="75.4"/>
      </g>
     </g>
     <g id="text_25">
      <!-- 35 -->
      <g transform="translate(423.80398 89.998437)scale(0.1 -0.1)">
       <use xlink:href="#DejaVuSans-51"/>
       <use x="63.623047" xlink:href="#DejaVuSans-53"/>
      </g>
     </g>
    </g>
    <g id="xtick_22">
     <g id="line2d_28">
      <g>
       <use style="stroke:#000000;stroke-width:0.8;" x="449.385375" xlink:href="#m57d30ec1c2" y="75.4"/>
      </g>
     </g>
     <g id="text_26">
      <!-- 40 -->
      <g transform="translate(443.022875 89.998437)scale(0.1 -0.1)">
       <use xlink:href="#DejaVuSans-52"/>
       <use x="63.623047" xlink:href="#DejaVuSans-48"/>
      </g>
     </g>
    </g>
    <g id="xtick_23">
     <g id="line2d_29">
      <g>
       <use style="stroke:#000000;stroke-width:0.8;" x="468.604271" xlink:href="#m57d30ec1c2" y="75.4"/>
      </g>
     </g>
     <g id="text_27">
      <!-- 45 -->
      <g transform="translate(462.241771 89.998437)scale(0.1 -0.1)">
       <use xlink:href="#DejaVuSans-52"/>
       <use x="63.623047" xlink:href="#DejaVuSans-53"/>
      </g>
     </g>
    </g>
   </g>
   <g id="matplotlib.axis_4">
    <g id="ytick_6">
     <g id="line2d_30">
      <defs>
       <path d="M 0 0 
L 3.5 0 
" id="ma18501f333" style="stroke:#000000;stroke-width:0.8;"/>
      </defs>
      <g>
       <use style="stroke:#000000;stroke-width:0.8;" x="542.2" xlink:href="#ma18501f333" y="65.4"/>
      </g>
     </g>
     <g id="text_28">
      <!-- 0.0 -->
      <g transform="translate(549.2 69.199219)scale(0.1 -0.1)">
       <use xlink:href="#DejaVuSans-48"/>
       <use x="63.623047" xlink:href="#DejaVuSans-46"/>
       <use x="95.410156" xlink:href="#DejaVuSans-48"/>
      </g>
     </g>
    </g>
    <g id="ytick_7">
     <g id="line2d_31">
      <g>
       <use style="stroke:#000000;stroke-width:0.8;" x="542.2" xlink:href="#ma18501f333" y="46.1"/>
      </g>
     </g>
     <g id="text_29">
      <!-- 0.5 -->
      <g transform="translate(549.2 49.899219)scale(0.1 -0.1)">
       <use xlink:href="#DejaVuSans-48"/>
       <use x="63.623047" xlink:href="#DejaVuSans-46"/>
       <use x="95.410156" xlink:href="#DejaVuSans-53"/>
      </g>
     </g>
    </g>
    <g id="ytick_8">
     <g id="line2d_32">
      <g>
       <use style="stroke:#000000;stroke-width:0.8;" x="542.2" xlink:href="#ma18501f333" y="26.8"/>
      </g>
     </g>
     <g id="text_30">
      <!-- 1.0 -->
      <g transform="translate(549.2 30.599219)scale(0.1 -0.1)">
       <use xlink:href="#DejaVuSans-49"/>
       <use x="63.623047" xlink:href="#DejaVuSans-46"/>
       <use x="95.410156" xlink:href="#DejaVuSans-48"/>
      </g>
     </g>
    </g>
    <g id="ytick_9">
     <g id="line2d_33">
      <defs>
       <path d="M 0 0 
L 2 0 
" id="m33dfedbdd8" style="stroke:#000000;stroke-width:0.6;"/>
      </defs>
      <g>
       <use style="stroke:#000000;stroke-width:0.6;" x="542.2" xlink:href="#m33dfedbdd8" y="55.75"/>
      </g>
     </g>
    </g>
    <g id="ytick_10">
     <g id="line2d_34">
      <g>
       <use style="stroke:#000000;stroke-width:0.6;" x="542.2" xlink:href="#m33dfedbdd8" y="36.45"/>
      </g>
     </g>
    </g>
   </g>
   <g id="line2d_35">
    <path clip-path="url(#pbdde41bb71)" d="M 295.634214 63.182044 
L 296.40297 60.392422 
L 296.787348 61.242394 
L 297.171726 58.184888 
L 297.556104 61.046692 
L 297.940482 60.518258 
L 298.32486 53.87597 
L 298.709237 61.545018 
L 299.093615 54.632916 
L 299.477993 60.16391 
L 299.862371 60.552612 
L 300.246749 57.065102 
L 300.631127 56.439782 
L 301.015505 59.537046 
L 301.399883 47.366852 
L 301.784261 57.84405 
L 302.168639 58.952642 
L 302.553017 60.686554 
L 302.937395 54.127642 
L 303.321772 51.54453 
L 303.70615 55.664694 
L 304.090528 57.728636 
L 304.474906 56.804938 
L 304.859284 51.324124 
L 305.243662 49.467078 
L 305.62804 51.119544 
L 306.012418 53.483408 
L 307.165552 41.800346 
L 307.549929 44.530138 
L 307.934307 40.251714 
L 308.318685 47.207048 
L 308.703063 40.39685 
L 309.087441 46.68093 
L 309.471819 41.297388 
L 309.856197 40.465558 
L 310.240575 45.045834 
L 310.624953 44.025636 
L 311.009331 63.872984 
L 311.393709 43.020492 
L 311.778086 42.138482 
L 312.162464 40.90444 
L 312.546842 34.360582 
L 312.93122 43.898256 
L 313.315598 50.490364 
L 313.699976 41.756342 
L 314.084354 40.131668 
L 314.468732 43.001964 
L 314.85311 56.029078 
L 315.237488 63.589274 
L 315.621866 62.612308 
L 316.006244 64.238912 
L 316.390621 61.283696 
L 316.774999 56.85975 
L 317.159377 44.48459 
L 317.543755 37.32815 
L 317.928133 45.31063 
L 318.312511 45.774602 
L 318.696889 49.12238 
L 319.081267 40.067592 
L 319.465645 43.514958 
L 319.850023 51.16432 
L 320.234401 39.198706 
L 320.618778 47.235998 
L 321.003156 36.31683 
L 321.387534 37.128202 
L 321.771912 33.93907 
L 322.15629 35.211326 
L 322.925046 47.71734 
L 323.309424 45.79313 
L 324.07818 57.81124 
L 324.462558 48.007612 
L 324.846936 31.506498 
L 325.231313 43.418458 
L 325.615691 36.79354 
L 326.000069 32.48771 
L 326.384447 36.186362 
L 326.768825 37.163714 
L 327.537581 51.141546 
L 327.921959 63.606644 
L 328.306337 58.64114 
L 328.690715 42.829036 
L 329.075093 47.130234 
L 329.843848 40.53388 
L 330.228226 42.117638 
L 330.612604 53.097408 
L 330.996982 50.595742 
L 331.38136 39.087924 
L 331.765738 42.467354 
L 332.150116 40.480998 
L 332.534494 39.353492 
L 332.918872 44.80497 
L 333.30325 35.873316 
L 333.687627 37.995544 
L 334.072005 37.254038 
L 334.456383 45.974164 
L 334.840761 36.275914 
L 335.225139 40.35053 
L 335.609517 42.01033 
L 335.993895 41.35606 
L 336.378273 37.554346 
L 336.762651 38.56142 
L 337.147029 35.9482 
L 337.531407 41.82312 
L 337.915785 41.644402 
L 338.300162 37.56747 
L 338.68454 39.60362 
L 339.068918 42.529114 
L 339.453296 47.20589 
L 340.222052 38.676448 
L 340.60643 37.369452 
L 340.990808 33.466992 
L 341.375186 35.55641 
L 342.143942 42.895814 
L 342.528319 38.069656 
L 342.912697 45.988446 
L 343.297075 42.236526 
L 343.681453 41.461438 
L 344.065831 37.774752 
L 344.450209 38.280412 
L 344.834587 42.66267 
L 345.218965 36.182888 
L 345.603343 50.168054 
L 345.987721 42.484724 
L 346.372099 40.127808 
L 346.756476 42.594734 
L 347.140854 58.558536 
L 347.525232 43.325818 
L 347.90961 43.779368 
L 348.293988 42.069388 
L 348.678366 41.227522 
L 349.062744 42.999648 
L 349.447122 39.419498 
L 349.8315 39.778092 
L 350.215878 43.192648 
L 350.600256 38.037232 
L 350.984634 39.551124 
L 351.369011 42.85181 
L 351.753389 38.265744 
L 352.137767 38.905732 
L 352.522145 41.167692 
L 352.906523 46.427714 
L 353.290901 38.85864 
L 353.675279 42.339588 
L 354.059657 33.328804 
L 354.444035 37.240142 
L 354.828413 38.352208 
L 355.212791 36.538394 
L 355.981546 40.474436 
L 356.365924 45.571952 
L 356.750302 40.13051 
L 357.13468 45.261994 
L 357.519058 46.40301 
L 357.903436 45.585076 
L 358.287814 38.450638 
L 358.672192 42.796998 
L 359.05657 37.794824 
L 359.440948 41.423996 
L 359.825326 38.59809 
L 360.209703 40.602974 
L 360.594081 39.187512 
L 360.978459 44.915366 
L 361.362837 34.42157 
L 361.747215 36.360834 
L 362.131593 42.316814 
L 362.515971 39.938668 
L 362.900349 44.080062 
L 363.284727 39.750686 
L 363.669105 41.286966 
L 364.053483 45.20062 
L 364.43786 40.04173 
L 364.822238 45.85875 
L 365.206616 40.75969 
L 365.590994 42.66267 
L 365.975372 45.86647 
L 366.35975 44.981372 
L 366.744128 47.444824 
L 367.128506 43.589842 
L 367.512884 45.310244 
L 367.897262 41.376132 
L 368.28164 44.607724 
L 368.666017 43.872008 
L 369.050395 51.627134 
L 369.434773 38.681466 
L 369.819151 43.960016 
L 370.203529 42.028858 
L 370.587907 39.320296 
L 370.972285 40.552022 
L 371.356663 43.68557 
L 371.741041 38.144926 
L 372.125419 40.206938 
L 372.509797 37.9747 
L 372.894175 38.98023 
L 373.278552 38.535558 
L 373.66293 45.796218 
L 374.047308 38.776808 
L 374.431686 44.936982 
L 374.816064 47.583012 
L 375.200442 48.737152 
L 375.58482 43.602966 
L 375.969198 41.471474 
L 376.353576 40.178374 
L 376.737954 39.369704 
L 377.122332 40.536196 
L 377.506709 40.380638 
L 377.891087 40.523844 
L 378.275465 40.007762 
L 378.659843 39.89312 
L 379.044221 38.77951 
L 379.428599 41.669878 
L 379.812977 38.2449 
L 380.197355 41.51239 
L 380.581733 37.421562 
L 380.966111 36.900076 
L 381.350489 37.481392 
L 381.734867 38.306274 
L 382.119244 43.391824 
L 382.503622 38.082394 
L 382.888 41.199344 
L 383.656756 36.922078 
L 384.425512 41.569904 
L 384.80989 38.566438 
L 385.194268 40.535424 
L 385.578646 41.71504 
L 385.963024 41.704618 
L 386.347401 38.652516 
L 386.731779 38.532856 
L 387.116157 40.983184 
L 387.884913 39.700506 
L 388.269291 38.813864 
L 388.653669 39.87382 
L 389.038047 36.39596 
L 389.422425 40.145178 
L 389.806803 35.75713 
L 390.191181 38.513556 
L 390.575558 40.183392 
L 390.959936 40.781692 
L 391.344314 43.94612 
L 391.728692 39.29096 
L 392.497448 46.313458 
L 392.881826 44.555614 
L 393.266204 39.08252 
L 393.650582 40.091138 
L 394.03496 40.267926 
L 394.419338 37.923748 
L 394.803716 41.63205 
L 395.188093 39.790444 
L 395.572471 40.45475 
L 395.956849 44.55214 
L 396.341227 38.120608 
L 396.725605 40.476752 
L 397.109983 34.735002 
L 397.494361 43.137064 
L 397.878739 42.121498 
L 398.263117 38.926962 
L 398.647495 40.164864 
L 399.031873 36.020768 
L 399.41625 38.516644 
L 399.800628 38.986792 
L 400.569384 41.982538 
L 400.953762 40.668208 
L 401.33814 40.293016 
L 401.722518 39.171686 
L 402.106896 35.007904 
L 402.491274 39.57081 
L 403.26003 35.605818 
L 403.644408 38.498116 
L 404.028785 45.845626 
L 404.413163 43.452426 
L 404.797541 39.84873 
L 405.181919 37.371768 
L 405.566297 36.51176 
L 405.950675 39.407532 
L 406.335053 37.66783 
L 406.719431 38.47264 
L 407.103809 45.16009 
L 407.488187 39.665766 
L 407.872565 43.181454 
L 408.256942 40.658172 
L 408.64132 40.932618 
L 409.025698 44.035286 
L 409.410076 39.89891 
L 409.794454 42.401348 
L 410.178832 39.710156 
L 410.56321 45.98613 
L 410.947588 61.975022 
L 411.331966 48.272408 
L 411.716344 39.584706 
L 412.100722 43.415756 
L 412.485099 45.471592 
L 413.253855 36.836772 
L 413.638233 39.250044 
L 414.022611 37.541608 
L 414.406989 35.000184 
L 414.791367 40.436608 
L 415.175745 42.40984 
L 415.560123 41.168464 
L 415.944501 41.77487 
L 416.328879 42.86146 
L 416.713257 45.71979 
L 417.482012 43.602966 
L 417.86639 45.207182 
L 418.250768 33.681608 
L 418.635146 38.593458 
L 419.019524 41.186992 
L 419.403902 37.13322 
L 419.78828 45.12728 
L 420.557036 39.90663 
L 420.941414 39.789672 
L 421.325791 42.20333 
L 421.710169 40.828784 
L 422.094547 42.150062 
L 422.478925 41.73434 
L 422.863303 40.796746 
L 423.632059 40.82917 
L 424.016437 42.148904 
L 424.400815 39.453466 
L 424.785193 37.615334 
L 425.169571 41.356446 
L 425.553949 41.8926 
L 426.322704 38.736664 
L 426.707082 43.364418 
L 427.475838 41.102458 
L 427.860216 39.61134 
L 428.244594 36.601698 
L 428.628972 40.212342 
L 429.01335 37.440862 
L 429.397728 37.390682 
L 429.782106 36.755712 
L 430.166483 35.77643 
L 430.550861 36.557694 
L 430.935239 39.610182 
L 431.319617 38.288518 
L 431.703995 35.951674 
L 432.088373 34.735388 
L 432.472751 38.02295 
L 432.857129 38.534786 
L 433.241507 36.65072 
L 433.625885 36.975732 
L 434.010263 37.48448 
L 434.39464 39.436482 
L 434.779018 36.199872 
L 435.163396 35.433276 
L 435.547774 39.284012 
L 435.932152 40.812186 
L 436.31653 40.260206 
L 436.700908 36.99426 
L 437.085286 39.74065 
L 437.469664 36.719814 
L 437.854042 48.009928 
L 438.23842 43.13938 
L 438.622798 40.547776 
L 439.007175 61.799778 
L 439.391553 43.819512 
L 439.775931 41.879476 
L 440.160309 41.198958 
L 440.544687 42.461564 
L 440.929065 40.58985 
L 441.313443 36.619068 
L 441.697821 38.21209 
L 442.082199 40.727652 
L 442.466577 37.65239 
L 442.850955 37.555118 
L 443.235332 36.207206 
L 443.61971 39.42027 
L 444.004088 39.55923 
L 444.388466 37.428896 
L 444.772844 39.200636 
L 445.157222 34.902526 
L 445.5416 38.068884 
L 445.925978 42.455774 
L 446.310356 42.552274 
L 446.694734 38.771404 
L 447.079112 38.43018 
L 447.463489 40.129352 
L 447.847867 40.924126 
L 448.232245 40.311158 
L 448.616623 36.337674 
L 449.001001 42.565012 
L 449.385379 43.912924 
L 449.769757 38.921944 
L 450.154135 39.89698 
L 450.538513 44.399284 
L 450.922891 43.123168 
L 451.307269 43.81102 
L 451.691647 37.151362 
L 452.076024 41.09551 
L 452.460402 39.052798 
L 452.84478 39.17902 
L 453.229158 46.72532 
L 453.613536 40.92953 
L 453.997914 40.83496 
L 454.382292 38.070042 
L 454.76667 39.187898 
L 455.151048 39.714788 
L 455.535426 40.966586 
L 455.919804 43.599878 
L 456.304181 38.577246 
L 456.688559 43.991282 
L 457.072937 35.782992 
L 457.457315 46.72725 
L 457.841693 38.050742 
L 458.226071 34.102734 
L 458.610449 36.240016 
L 458.994827 34.472136 
L 459.379205 33.75379 
L 459.763583 34.84424 
L 460.147961 38.650972 
L 460.532339 38.28929 
L 460.916716 37.736152 
L 461.301094 38.141452 
L 461.685472 33.843728 
L 462.454228 38.115976 
L 462.838606 37.360574 
L 463.222984 34.86161 
L 463.607362 37.030544 
L 463.99174 37.701412 
L 464.760496 36.776942 
L 465.144873 42.504024 
L 465.529251 38.618548 
L 465.913629 36.38438 
L 466.298007 42.177468 
L 466.682385 33.676204 
L 467.066763 35.427872 
L 467.451141 39.7889 
L 467.835519 45.920896 
L 468.219897 39.658818 
L 468.604275 45.686594 
L 468.988653 35.552936 
L 469.37303 34.899052 
L 469.757408 36.910112 
L 470.141786 34.675558 
L 470.526164 35.170796 
L 470.910542 37.889008 
L 471.29492 35.889914 
L 471.679298 35.848998 
L 472.063676 38.29894 
L 472.448054 34.811816 
L 472.832432 33.891206 
L 473.21681 34.526948 
L 473.601188 41.177342 
L 473.985565 37.360188 
L 474.369943 37.029386 
L 474.754321 36.155096 
L 475.138699 38.716592 
L 475.523077 35.041872 
L 475.907455 35.178902 
L 476.291833 36.038138 
L 476.676211 35.830084 
L 477.060589 37.348994 
L 477.444967 35.488474 
L 477.829345 35.609292 
L 478.213722 35.491176 
L 478.5981 40.256732 
L 479.366856 34.04522 
L 479.751234 34.478312 
L 480.135612 34.481014 
L 480.51999 36.887338 
L 481.288746 33.945246 
L 481.673124 34.984744 
L 482.057502 37.380646 
L 482.44188 34.13593 
L 482.826257 34.41771 
L 483.210635 34.324684 
L 483.595013 36.570432 
L 483.979391 35.530162 
L 484.363769 31.574048 
L 484.748147 31.909868 
L 485.132525 36.382041 
L 485.132525 36.382041 
" style="fill:none;stroke:#1f77b4;stroke-linecap:square;stroke-width:1.5;"/>
   </g>
   <g id="patch_6">
    <path d="M 542.2 65.4 
L 542.2 26.8 
" style="fill:none;stroke:#000000;stroke-linecap:square;stroke-linejoin:miter;stroke-width:0.8;"/>
   </g>
   <g id="patch_7">
    <path d="M 295.63421 75.4 
L 532.2 75.4 
" style="fill:none;stroke:#000000;stroke-linecap:square;stroke-linejoin:miter;stroke-width:0.8;"/>
   </g>
   <g id="text_31">
    <!-- 2L -->
    <defs>
     <path d="M 9.1875 72.90625 
L 27.984375 72.90625 
L 27.984375 14.203125 
L 60.984375 14.203125 
L 60.984375 0 
L 9.1875 0 
z
" id="DejaVuSans-Bold-76"/>
    </defs>
    <g transform="translate(405.919293 20.8)scale(0.12 -0.12)">
     <use xlink:href="#DejaVuSans-Bold-50"/>
     <use x="69.580078" xlink:href="#DejaVuSans-Bold-76"/>
    </g>
   </g>
  </g>
  <g id="axes_3">
   <g id="patch_8">
    <path d="M 43.8 157.8 
L 280.36579 157.8 
L 280.36579 119.2 
L 43.8 119.2 
z
" style="fill:#ffffff;"/>
   </g>
   <g id="matplotlib.axis_5">
    <g id="xtick_24">
     <g id="line2d_36">
      <g>
       <use style="stroke:#000000;stroke-width:0.8;" x="75.874115" xlink:href="#m57d30ec1c2" y="167.8"/>
      </g>
     </g>
     <g id="text_32">
      <!-- 0 -->
      <g transform="translate(72.692865 182.398438)scale(0.1 -0.1)">
       <use xlink:href="#DejaVuSans-48"/>
      </g>
     </g>
    </g>
    <g id="xtick_25">
     <g id="line2d_37">
      <g>
       <use style="stroke:#000000;stroke-width:0.8;" x="95.093011" xlink:href="#m57d30ec1c2" y="167.8"/>
      </g>
     </g>
     <g id="text_33">
      <!-- 5 -->
      <g transform="translate(91.911761 182.398438)scale(0.1 -0.1)">
       <use xlink:href="#DejaVuSans-53"/>
      </g>
     </g>
    </g>
    <g id="xtick_26">
     <g id="line2d_38">
      <g>
       <use style="stroke:#000000;stroke-width:0.8;" x="114.311906" xlink:href="#m57d30ec1c2" y="167.8"/>
      </g>
     </g>
     <g id="text_34">
      <!-- 10 -->
      <g transform="translate(107.949406 182.398438)scale(0.1 -0.1)">
       <use xlink:href="#DejaVuSans-49"/>
       <use x="63.623047" xlink:href="#DejaVuSans-48"/>
      </g>
     </g>
    </g>
    <g id="xtick_27">
     <g id="line2d_39">
      <g>
       <use style="stroke:#000000;stroke-width:0.8;" x="133.530802" xlink:href="#m57d30ec1c2" y="167.8"/>
      </g>
     </g>
     <g id="text_35">
      <!-- 15 -->
      <g transform="translate(127.168302 182.398438)scale(0.1 -0.1)">
       <use xlink:href="#DejaVuSans-49"/>
       <use x="63.623047" xlink:href="#DejaVuSans-53"/>
      </g>
     </g>
    </g>
    <g id="xtick_28">
     <g id="line2d_40">
      <g>
       <use style="stroke:#000000;stroke-width:0.8;" x="152.749698" xlink:href="#m57d30ec1c2" y="167.8"/>
      </g>
     </g>
     <g id="text_36">
      <!-- 20 -->
      <g transform="translate(146.387198 182.398438)scale(0.1 -0.1)">
       <use xlink:href="#DejaVuSans-50"/>
       <use x="63.623047" xlink:href="#DejaVuSans-48"/>
      </g>
     </g>
    </g>
    <g id="xtick_29">
     <g id="line2d_41">
      <g>
       <use style="stroke:#000000;stroke-width:0.8;" x="171.968593" xlink:href="#m57d30ec1c2" y="167.8"/>
      </g>
     </g>
     <g id="text_37">
      <!-- 25 -->
      <g transform="translate(165.606093 182.398438)scale(0.1 -0.1)">
       <use xlink:href="#DejaVuSans-50"/>
       <use x="63.623047" xlink:href="#DejaVuSans-53"/>
      </g>
     </g>
    </g>
    <g id="xtick_30">
     <g id="line2d_42">
      <g>
       <use style="stroke:#000000;stroke-width:0.8;" x="191.187489" xlink:href="#m57d30ec1c2" y="167.8"/>
      </g>
     </g>
     <g id="text_38">
      <!-- 30 -->
      <g transform="translate(184.824989 182.398438)scale(0.1 -0.1)">
       <use xlink:href="#DejaVuSans-51"/>
       <use x="63.623047" xlink:href="#DejaVuSans-48"/>
      </g>
     </g>
    </g>
    <g id="xtick_31">
     <g id="line2d_43">
      <g>
       <use style="stroke:#000000;stroke-width:0.8;" x="210.406384" xlink:href="#m57d30ec1c2" y="167.8"/>
      </g>
     </g>
     <g id="text_39">
      <!-- 35 -->
      <g transform="translate(204.043884 182.398438)scale(0.1 -0.1)">
       <use xlink:href="#DejaVuSans-51"/>
       <use x="63.623047" xlink:href="#DejaVuSans-53"/>
      </g>
     </g>
    </g>
    <g id="xtick_32">
     <g id="line2d_44">
      <g>
       <use style="stroke:#000000;stroke-width:0.8;" x="229.62528" xlink:href="#m57d30ec1c2" y="167.8"/>
      </g>
     </g>
     <g id="text_40">
      <!-- 40 -->
      <g transform="translate(223.26278 182.398438)scale(0.1 -0.1)">
       <use xlink:href="#DejaVuSans-52"/>
       <use x="63.623047" xlink:href="#DejaVuSans-48"/>
      </g>
     </g>
    </g>
    <g id="xtick_33">
     <g id="line2d_45">
      <g>
       <use style="stroke:#000000;stroke-width:0.8;" x="248.844176" xlink:href="#m57d30ec1c2" y="167.8"/>
      </g>
     </g>
     <g id="text_41">
      <!-- 45 -->
      <g transform="translate(242.481676 182.398438)scale(0.1 -0.1)">
       <use xlink:href="#DejaVuSans-52"/>
       <use x="63.623047" xlink:href="#DejaVuSans-53"/>
      </g>
     </g>
    </g>
    <g id="xtick_34">
     <g id="line2d_46">
      <g>
       <use style="stroke:#000000;stroke-width:0.8;" x="268.063071" xlink:href="#m57d30ec1c2" y="167.8"/>
      </g>
     </g>
     <g id="text_42">
      <!-- 50 -->
      <g transform="translate(261.700571 182.398438)scale(0.1 -0.1)">
       <use xlink:href="#DejaVuSans-53"/>
       <use x="63.623047" xlink:href="#DejaVuSans-48"/>
      </g>
     </g>
    </g>
   </g>
   <g id="matplotlib.axis_6">
    <g id="ytick_11">
     <g id="line2d_47">
      <g>
       <use style="stroke:#000000;stroke-width:0.8;" x="33.8" xlink:href="#m0f3d645ab4" y="157.8"/>
      </g>
     </g>
     <g id="text_43">
      <!-- 0.0 -->
      <g transform="translate(10.896875 161.599219)scale(0.1 -0.1)">
       <use xlink:href="#DejaVuSans-48"/>
       <use x="63.623047" xlink:href="#DejaVuSans-46"/>
       <use x="95.410156" xlink:href="#DejaVuSans-48"/>
      </g>
     </g>
    </g>
    <g id="ytick_12">
     <g id="line2d_48">
      <g>
       <use style="stroke:#000000;stroke-width:0.8;" x="33.8" xlink:href="#m0f3d645ab4" y="138.5"/>
      </g>
     </g>
     <g id="text_44">
      <!-- 0.5 -->
      <g transform="translate(10.896875 142.299219)scale(0.1 -0.1)">
       <use xlink:href="#DejaVuSans-48"/>
       <use x="63.623047" xlink:href="#DejaVuSans-46"/>
       <use x="95.410156" xlink:href="#DejaVuSans-53"/>
      </g>
     </g>
    </g>
    <g id="ytick_13">
     <g id="line2d_49">
      <g>
       <use style="stroke:#000000;stroke-width:0.8;" x="33.8" xlink:href="#m0f3d645ab4" y="119.2"/>
      </g>
     </g>
     <g id="text_45">
      <!-- 1.0 -->
      <g transform="translate(10.896875 122.999219)scale(0.1 -0.1)">
       <use xlink:href="#DejaVuSans-49"/>
       <use x="63.623047" xlink:href="#DejaVuSans-46"/>
       <use x="95.410156" xlink:href="#DejaVuSans-48"/>
      </g>
     </g>
    </g>
    <g id="ytick_14">
     <g id="line2d_50">
      <g>
       <use style="stroke:#000000;stroke-width:0.6;" x="33.8" xlink:href="#m0ca40c8257" y="148.15"/>
      </g>
     </g>
    </g>
    <g id="ytick_15">
     <g id="line2d_51">
      <g>
       <use style="stroke:#000000;stroke-width:0.6;" x="33.8" xlink:href="#m0ca40c8257" y="128.85"/>
      </g>
     </g>
    </g>
   </g>
   <g id="line2d_52">
    <path clip-path="url(#p3a2832a7b8)" d="M 75.874119 131.92642 
L 76.642875 124.601684 
L 77.027253 126.986392 
L 77.411631 126.03027 
L 77.796008 124.532204 
L 78.180386 126.898384 
L 78.564764 124.993088 
L 78.949142 124.475848 
L 79.33352 127.984974 
L 79.717898 125.056392 
L 80.102276 128.26328 
L 80.871032 128.269456 
L 81.25541 128.063332 
L 81.639788 125.61532 
L 82.024166 125.596792 
L 82.408543 127.258136 
L 82.792921 129.452932 
L 83.177299 124.509816 
L 83.561677 125.535804 
L 83.946055 134.212698 
L 84.330433 136.17821 
L 85.099189 127.650312 
L 85.483567 127.776534 
L 85.867945 127.711686 
L 86.252323 128.191098 
L 86.6367 127.881526 
L 87.021078 127.39864 
L 87.405456 136.36735 
L 87.789834 127.853734 
L 88.174212 128.878564 
L 88.55859 128.387572 
L 88.942968 134.25786 
L 89.327346 125.132048 
L 89.711724 125.961176 
L 90.096102 125.592546 
L 90.48048 125.803688 
L 90.864857 126.706156 
L 91.249235 125.2023 
L 91.633613 125.821058 
L 92.017991 129.344466 
L 92.402369 127.626766 
L 92.786747 128.62226 
L 93.171125 125.623812 
L 93.555503 125.98588 
L 93.939881 127.813204 
L 94.324259 126.937756 
L 94.708637 129.130622 
L 95.093015 127.350776 
L 95.477392 128.098458 
L 95.86177 127.566936 
L 96.246148 126.589198 
L 96.630526 125.95114 
L 97.014904 126.136034 
L 97.399282 127.996168 
L 97.78366 124.636038 
L 98.168038 133.818206 
L 98.552416 133.595484 
L 98.936794 130.42681 
L 99.321172 132.209358 
L 99.705549 128.258262 
L 100.089927 131.081466 
L 100.474305 135.297744 
L 100.858683 130.716696 
L 101.243061 127.708598 
L 101.627439 126.195864 
L 102.011817 127.031554 
L 102.780573 137.444676 
L 103.164951 127.741794 
L 103.549329 126.132174 
L 103.933707 125.430426 
L 104.318084 131.410724 
L 104.702462 129.894902 
L 105.08684 127.424116 
L 105.471218 134.34664 
L 105.855596 152.05246 
L 106.239974 137.733018 
L 106.624352 132.913808 
L 107.00873 126.215164 
L 107.393108 124.666918 
L 107.777486 127.976482 
L 108.161864 129.13178 
L 108.546241 126.473012 
L 109.314997 130.839444 
L 109.699375 126.48575 
L 110.083753 129.067318 
L 110.468131 132.710772 
L 110.852509 134.136656 
L 111.236887 128.658544 
L 111.621265 125.81604 
L 112.005643 126.791848 
L 112.390021 127.404816 
L 112.774398 130.917802 
L 113.543154 144.687194 
L 113.927532 130.64297 
L 114.31191 128.178746 
L 114.696288 128.09537 
L 115.080666 127.511352 
L 115.465044 128.437366 
L 115.849422 130.165102 
L 116.2338 127.293648 
L 116.618178 132.2275 
L 117.002556 135.083514 
L 117.386933 134.551992 
L 117.771311 133.617486 
L 118.155689 151.351484 
L 118.540067 131.060236 
L 118.924445 127.1516 
L 119.308823 131.383318 
L 119.693201 138.404658 
L 120.077579 132.431308 
L 120.846335 137.717964 
L 121.230713 140.3914 
L 121.61509 137.79555 
L 121.999468 137.228516 
L 122.383846 142.789618 
L 122.768224 144.198904 
L 123.152602 136.61439 
L 123.53698 148.50898 
L 123.921358 135.674094 
L 124.305736 131.804058 
L 124.690114 132.963988 
L 125.074492 132.903 
L 125.45887 131.425778 
L 125.843248 132.762882 
L 126.227625 135.665602 
L 126.612003 136.819742 
L 126.996381 132.651714 
L 127.380759 134.335446 
L 127.765137 132.927318 
L 128.149515 132.014814 
L 128.533893 133.27163 
L 128.918271 135.002068 
L 129.302649 134.06872 
L 129.687027 138.105894 
L 130.071405 136.117608 
L 130.455782 140.045158 
L 130.84016 139.452648 
L 131.224538 137.601778 
L 131.608916 138.726196 
L 131.993294 137.00425 
L 132.377672 137.778952 
L 132.76205 135.899904 
L 133.146428 137.39411 
L 133.530806 136.951368 
L 133.915184 133.591238 
L 134.299562 141.12673 
L 135.068317 133.932076 
L 135.452695 136.495116 
L 135.837073 131.618778 
L 136.605829 135.82309 
L 136.990207 138.92653 
L 137.374585 132.641292 
L 138.143341 136.390124 
L 138.527719 133.585834 
L 138.912097 138.693 
L 139.680852 131.409566 
L 140.06523 132.127526 
L 140.449608 142.634446 
L 140.833986 143.924072 
L 141.218364 138.024062 
L 141.602742 135.178856 
L 141.98712 136.903504 
L 142.371498 136.507468 
L 142.755876 133.581202 
L 143.140254 132.88177 
L 143.524631 134.619542 
L 143.909009 131.199196 
L 144.293387 133.093684 
L 144.677765 132.29119 
L 145.446521 131.827604 
L 145.830899 130.178226 
L 146.215277 132.741266 
L 146.599655 127.100262 
L 146.984033 129.130622 
L 147.368411 139.622874 
L 147.752788 155.341566 
L 148.137166 154.794218 
L 148.521544 138.353706 
L 148.905922 131.40339 
L 149.2903 128.839578 
L 149.674678 141.316256 
L 150.059056 131.03669 
L 150.443434 135.12636 
L 150.827812 142.020706 
L 151.21219 136.267376 
L 151.596568 133.622118 
L 151.980946 136.69159 
L 152.365323 131.00774 
L 152.749701 139.018784 
L 153.134079 132.360284 
L 153.518457 135.559066 
L 153.902835 136.337242 
L 154.287213 138.066522 
L 154.671591 134.324252 
L 155.055969 136.017634 
L 155.440347 136.801986 
L 155.824725 130.3747 
L 156.209103 133.505932 
L 156.59348 140.082986 
L 156.977858 133.888844 
L 157.362236 135.83274 
L 157.746614 138.56369 
L 158.899748 126.92772 
L 159.284126 129.219402 
L 159.668504 139.09444 
L 160.052882 131.787846 
L 160.43726 131.214636 
L 160.821638 132.884086 
L 161.206015 129.644388 
L 161.590393 131.775108 
L 161.974771 131.722226 
L 162.359149 129.912658 
L 162.743527 131.899014 
L 163.127905 132.895666 
L 163.512283 128.391818 
L 163.896661 134.260176 
L 164.281039 130.288622 
L 164.665417 132.15223 
L 165.049795 135.42744 
L 165.434172 133.232258 
L 165.81855 134.891286 
L 166.202928 135.142572 
L 166.587306 151.372714 
L 167.356062 129.98098 
L 167.74044 142.310592 
L 168.509196 132.957426 
L 168.893574 136.480062 
L 169.277952 137.458186 
L 169.662329 130.727504 
L 170.046707 131.533858 
L 170.431085 130.199842 
L 170.815463 131.286818 
L 171.199841 144.767868 
L 171.968597 129.944696 
L 172.352975 134.505672 
L 172.737353 149.735302 
L 173.121731 134.69983 
L 173.506109 128.567062 
L 173.890487 128.531164 
L 174.659242 132.570654 
L 175.04362 128.340866 
L 175.427998 130.01958 
L 175.812376 130.093692 
L 176.196754 130.827478 
L 176.581132 129.545958 
L 176.96551 129.59691 
L 177.349888 132.08275 
L 177.734266 131.493328 
L 178.118644 135.112464 
L 178.503021 132.324386 
L 178.887399 134.908656 
L 179.271777 133.483544 
L 179.656155 135.10899 
L 180.040533 132.058432 
L 180.809289 134.835316 
L 181.578045 129.37303 
L 181.962423 127.932092 
L 182.346801 130.660726 
L 182.731179 125.234338 
L 183.115556 128.841122 
L 183.499934 127.43145 
L 183.884312 135.795298 
L 184.26869 137.616446 
L 184.653068 132.324 
L 185.037446 133.280894 
L 185.421824 133.41831 
L 185.806202 132.80843 
L 186.19058 129.12985 
L 186.574958 136.649516 
L 186.959336 131.171018 
L 187.343713 130.32259 
L 187.728091 141.14796 
L 188.112469 132.061906 
L 188.496847 134.797874 
L 188.881225 148.672258 
L 189.265603 155.950674 
L 189.649981 155.590922 
L 190.034359 154.71779 
L 190.418737 156.247122 
L 190.803115 145.883022 
L 191.187493 131.42848 
L 191.57187 131.665098 
L 191.956248 130.078638 
L 192.340626 130.140784 
L 192.725004 128.896706 
L 193.109382 128.916006 
L 193.49376 127.337266 
L 193.878138 127.35425 
L 194.262516 132.239852 
L 194.646894 129.202032 
L 195.41565 141.321274 
L 195.800028 136.644498 
L 196.184405 140.440422 
L 196.568783 132.774848 
L 196.953161 132.176548 
L 197.337539 135.430528 
L 197.721917 142.665712 
L 198.106295 147.384948 
L 198.875051 128.333918 
L 199.259429 150.148708 
L 199.643807 134.233156 
L 200.028185 143.639204 
L 200.412562 156.911042 
L 200.79694 156.901006 
L 201.181318 157.027614 
L 201.565696 146.008472 
L 201.950074 127.146196 
L 202.334452 127.746426 
L 202.71883 139.60396 
L 203.103208 134.5435 
L 203.487586 135.280374 
L 203.871964 140.780488 
L 204.256342 134.68825 
L 204.64072 130.42295 
L 205.025097 128.748868 
L 205.409475 128.503758 
L 205.793853 142.499346 
L 206.178231 136.032688 
L 206.562609 135.916888 
L 206.946987 140.879304 
L 207.331365 136.786932 
L 207.715743 134.924096 
L 208.100121 130.955244 
L 208.484499 130.358102 
L 208.868877 142.057762 
L 209.253254 132.259924 
L 209.637632 130.532574 
L 210.02201 134.983926 
L 210.406388 130.692378 
L 210.790766 130.667674 
L 211.175144 131.486766 
L 211.559522 134.158658 
L 211.9439 133.221836 
L 212.328278 126.804586 
L 212.712656 137.349334 
L 213.097034 140.176398 
L 213.481411 137.823728 
L 213.865789 138.848944 
L 214.250167 130.614406 
L 214.634545 132.284242 
L 215.018923 136.889608 
L 215.403301 128.76508 
L 215.787679 137.880084 
L 216.556435 149.358952 
L 216.940813 138.097016 
L 217.325191 133.676158 
L 217.709569 132.824642 
L 218.093946 133.942498 
L 218.478324 135.848952 
L 218.862702 138.975552 
L 219.24708 135.242932 
L 219.631458 138.952778 
L 220.015836 136.481992 
L 220.400214 132.985604 
L 220.784592 136.092904 
L 221.16897 129.681444 
L 221.553348 134.885882 
L 221.937726 143.702122 
L 222.322103 141.70187 
L 222.706481 129.583014 
L 223.090859 130.29557 
L 223.475237 135.144502 
L 223.859615 129.168064 
L 224.243993 135.105902 
L 224.628371 133.78308 
L 225.012749 127.318352 
L 225.781505 133.51481 
L 226.934638 153.701838 
L 227.319016 151.906552 
L 227.703394 156.251754 
L 228.087772 156.371414 
L 228.47215 155.988116 
L 228.856528 156.09967 
L 229.240906 155.661174 
L 229.625284 154.844784 
L 230.009662 153.628498 
L 230.39404 155.229626 
L 230.778418 155.688194 
L 231.547173 155.330758 
L 231.931551 154.757162 
L 232.315929 154.568794 
L 232.700307 152.832952 
L 233.084685 152.03316 
L 233.469063 151.597366 
L 233.853441 151.775698 
L 234.237819 141.388052 
L 234.622197 134.542342 
L 235.006575 131.389108 
L 235.390952 129.742046 
L 235.77533 125.95307 
L 236.159708 128.392976 
L 236.544086 133.393606 
L 236.928464 125.636936 
L 237.312842 126.58225 
L 237.69722 131.06371 
L 238.081598 124.890026 
L 238.465976 129.775242 
L 238.850354 129.058054 
L 239.61911 132.434782 
L 240.003487 131.90905 
L 240.387865 133.523688 
L 240.772243 127.666138 
L 241.540999 151.886094 
L 241.925377 139.529462 
L 242.694133 133.371218 
L 243.078511 130.448426 
L 243.462889 134.396434 
L 243.847267 132.399656 
L 244.616022 141.183472 
L 245.0004 130.719398 
L 245.384778 126.755564 
L 245.769156 125.29494 
L 246.153534 128.35399 
L 246.537912 128.070666 
L 246.92229 132.96862 
L 247.306668 142.981074 
L 247.691046 142.519804 
L 248.075424 143.221166 
L 248.459801 137.147842 
L 248.844179 125.228548 
L 249.228557 136.7244 
L 249.612935 135.409684 
L 249.997313 131.453956 
L 250.381691 139.358078 
L 250.766069 127.40636 
L 251.150447 130.408668 
L 251.534825 142.071658 
L 251.919203 136.774966 
L 252.303581 144.612696 
L 252.687959 141.582596 
L 253.072336 135.596122 
L 253.456714 134.772398 
L 253.841092 142.63213 
L 254.22547 128.374062 
L 254.609848 137.346632 
L 254.994226 135.075022 
L 255.378604 143.152844 
L 255.762982 141.054934 
L 256.14736 144.22052 
L 256.531738 133.873404 
L 256.916116 129.610034 
L 257.300493 137.39797 
L 257.684871 130.834426 
L 258.069249 137.914052 
L 258.453627 135.186576 
L 258.838005 148.727842 
L 259.222383 133.80045 
L 259.606761 130.871482 
L 259.991139 143.926774 
L 260.375517 136.956386 
L 260.759895 136.344576 
L 261.144273 142.175878 
L 261.528651 133.761078 
L 261.913028 133.520214 
L 262.297406 141.724258 
L 262.681784 137.824114 
L 263.066162 150.818032 
L 263.45054 131.115434 
L 263.834918 134.678214 
L 264.603674 145.605488 
L 264.988052 143.84224 
L 265.37243 139.08093 
L 265.756808 132.93774 
L 266.141185 144.836962 
L 266.525563 133.907758 
L 266.909941 141.66906 
L 268.063075 124.866094 
L 268.447453 131.79711 
L 268.831831 129.715412 
L 269.216209 139.544902 
L 269.600587 129.89027 
L 269.984965 138.31858 
L 270.369342 127.08405 
L 270.75372 139.666492 
L 271.138098 135.810738 
L 271.906854 139.588134 
L 272.291232 137.869662 
L 272.67561 137.634202 
L 273.059988 135.613492 
L 273.444366 139.1369 
L 273.828744 134.38331 
L 274.213122 135.146432 
L 274.5975 136.651446 
L 274.981877 135.678726 
L 275.366255 137.310734 
L 275.750633 147.876712 
L 276.135011 147.90296 
L 276.519389 144.551322 
L 276.903767 151.563012 
L 277.288145 146.297972 
L 277.672523 156.101986 
L 278.056901 153.152174 
L 278.441279 151.918518 
L 278.825657 149.762708 
L 279.210034 154.94553 
L 279.594412 153.250218 
L 280.363168 157.574269 
L 280.363168 157.574269 
" style="fill:none;stroke:#1f77b4;stroke-linecap:square;stroke-width:1.5;"/>
   </g>
   <g id="patch_9">
    <path d="M 33.8 157.8 
L 33.8 119.2 
" style="fill:none;stroke:#000000;stroke-linecap:square;stroke-linejoin:miter;stroke-width:0.8;"/>
   </g>
   <g id="patch_10">
    <path d="M 43.8 167.8 
L 280.36579 167.8 
" style="fill:none;stroke:#000000;stroke-linecap:square;stroke-linejoin:miter;stroke-width:0.8;"/>
   </g>
   <g id="text_46">
    <!-- 3R -->
    <defs>
     <path d="M 46.578125 39.3125 
Q 53.953125 37.40625 57.78125 32.6875 
Q 61.625 27.984375 61.625 20.703125 
Q 61.625 9.859375 53.3125 4.21875 
Q 45.015625 -1.421875 29.109375 -1.421875 
Q 23.484375 -1.421875 17.84375 -0.515625 
Q 12.203125 0.390625 6.6875 2.203125 
L 6.6875 16.703125 
Q 11.96875 14.0625 17.15625 12.71875 
Q 22.359375 11.375 27.390625 11.375 
Q 34.859375 11.375 38.84375 13.953125 
Q 42.828125 16.546875 42.828125 21.390625 
Q 42.828125 26.375 38.75 28.9375 
Q 34.671875 31.5 26.703125 31.5 
L 19.1875 31.5 
L 19.1875 43.609375 
L 27.09375 43.609375 
Q 34.1875 43.609375 37.640625 45.828125 
Q 41.109375 48.046875 41.109375 52.59375 
Q 41.109375 56.78125 37.734375 59.078125 
Q 34.375 61.375 28.21875 61.375 
Q 23.6875 61.375 19.046875 60.34375 
Q 14.40625 59.328125 9.8125 57.328125 
L 9.8125 71.09375 
Q 15.375 72.65625 20.84375 73.4375 
Q 26.3125 74.21875 31.59375 74.21875 
Q 45.796875 74.21875 52.84375 69.546875 
Q 59.90625 64.890625 59.90625 55.515625 
Q 59.90625 49.125 56.53125 45.046875 
Q 53.171875 40.96875 46.578125 39.3125 
z
" id="DejaVuSans-Bold-51"/>
    </defs>
    <g transform="translate(153.288207 113.2)scale(0.12 -0.12)">
     <use xlink:href="#DejaVuSans-Bold-51"/>
     <use x="69.580078" xlink:href="#DejaVuSans-Bold-82"/>
    </g>
   </g>
  </g>
  <g id="axes_4">
   <g id="patch_11">
    <path d="M 295.63421 157.8 
L 532.2 157.8 
L 532.2 119.2 
L 295.63421 119.2 
z
" style="fill:#ffffff;"/>
   </g>
   <g id="matplotlib.axis_7">
    <g id="xtick_35">
     <g id="line2d_53">
      <g>
       <use style="stroke:#000000;stroke-width:0.8;" x="295.63421" xlink:href="#m57d30ec1c2" y="167.8"/>
      </g>
     </g>
     <g id="text_47">
      <!-- 0 -->
      <g transform="translate(292.45296 182.398438)scale(0.1 -0.1)">
       <use xlink:href="#DejaVuSans-48"/>
      </g>
     </g>
    </g>
    <g id="xtick_36">
     <g id="line2d_54">
      <g>
       <use style="stroke:#000000;stroke-width:0.8;" x="314.853106" xlink:href="#m57d30ec1c2" y="167.8"/>
      </g>
     </g>
     <g id="text_48">
      <!-- 5 -->
      <g transform="translate(311.671856 182.398438)scale(0.1 -0.1)">
       <use xlink:href="#DejaVuSans-53"/>
      </g>
     </g>
    </g>
    <g id="xtick_37">
     <g id="line2d_55">
      <g>
       <use style="stroke:#000000;stroke-width:0.8;" x="334.072002" xlink:href="#m57d30ec1c2" y="167.8"/>
      </g>
     </g>
     <g id="text_49">
      <!-- 10 -->
      <g transform="translate(327.709502 182.398438)scale(0.1 -0.1)">
       <use xlink:href="#DejaVuSans-49"/>
       <use x="63.623047" xlink:href="#DejaVuSans-48"/>
      </g>
     </g>
    </g>
    <g id="xtick_38">
     <g id="line2d_56">
      <g>
       <use style="stroke:#000000;stroke-width:0.8;" x="353.290897" xlink:href="#m57d30ec1c2" y="167.8"/>
      </g>
     </g>
     <g id="text_50">
      <!-- 15 -->
      <g transform="translate(346.928397 182.398438)scale(0.1 -0.1)">
       <use xlink:href="#DejaVuSans-49"/>
       <use x="63.623047" xlink:href="#DejaVuSans-53"/>
      </g>
     </g>
    </g>
    <g id="xtick_39">
     <g id="line2d_57">
      <g>
       <use style="stroke:#000000;stroke-width:0.8;" x="372.509793" xlink:href="#m57d30ec1c2" y="167.8"/>
      </g>
     </g>
     <g id="text_51">
      <!-- 20 -->
      <g transform="translate(366.147293 182.398438)scale(0.1 -0.1)">
       <use xlink:href="#DejaVuSans-50"/>
       <use x="63.623047" xlink:href="#DejaVuSans-48"/>
      </g>
     </g>
    </g>
    <g id="xtick_40">
     <g id="line2d_58">
      <g>
       <use style="stroke:#000000;stroke-width:0.8;" x="391.728688" xlink:href="#m57d30ec1c2" y="167.8"/>
      </g>
     </g>
     <g id="text_52">
      <!-- 25 -->
      <g transform="translate(385.366188 182.398438)scale(0.1 -0.1)">
       <use xlink:href="#DejaVuSans-50"/>
       <use x="63.623047" xlink:href="#DejaVuSans-53"/>
      </g>
     </g>
    </g>
    <g id="xtick_41">
     <g id="line2d_59">
      <g>
       <use style="stroke:#000000;stroke-width:0.8;" x="410.947584" xlink:href="#m57d30ec1c2" y="167.8"/>
      </g>
     </g>
     <g id="text_53">
      <!-- 30 -->
      <g transform="translate(404.585084 182.398438)scale(0.1 -0.1)">
       <use xlink:href="#DejaVuSans-51"/>
       <use x="63.623047" xlink:href="#DejaVuSans-48"/>
      </g>
     </g>
    </g>
    <g id="xtick_42">
     <g id="line2d_60">
      <g>
       <use style="stroke:#000000;stroke-width:0.8;" x="430.16648" xlink:href="#m57d30ec1c2" y="167.8"/>
      </g>
     </g>
     <g id="text_54">
      <!-- 35 -->
      <g transform="translate(423.80398 182.398438)scale(0.1 -0.1)">
       <use xlink:href="#DejaVuSans-51"/>
       <use x="63.623047" xlink:href="#DejaVuSans-53"/>
      </g>
     </g>
    </g>
    <g id="xtick_43">
     <g id="line2d_61">
      <g>
       <use style="stroke:#000000;stroke-width:0.8;" x="449.385375" xlink:href="#m57d30ec1c2" y="167.8"/>
      </g>
     </g>
     <g id="text_55">
      <!-- 40 -->
      <g transform="translate(443.022875 182.398438)scale(0.1 -0.1)">
       <use xlink:href="#DejaVuSans-52"/>
       <use x="63.623047" xlink:href="#DejaVuSans-48"/>
      </g>
     </g>
    </g>
   </g>
   <g id="matplotlib.axis_8">
    <g id="ytick_16">
     <g id="line2d_62">
      <g>
       <use style="stroke:#000000;stroke-width:0.8;" x="542.2" xlink:href="#ma18501f333" y="157.8"/>
      </g>
     </g>
     <g id="text_56">
      <!-- 0.0 -->
      <g transform="translate(549.2 161.599219)scale(0.1 -0.1)">
       <use xlink:href="#DejaVuSans-48"/>
       <use x="63.623047" xlink:href="#DejaVuSans-46"/>
       <use x="95.410156" xlink:href="#DejaVuSans-48"/>
      </g>
     </g>
    </g>
    <g id="ytick_17">
     <g id="line2d_63">
      <g>
       <use style="stroke:#000000;stroke-width:0.8;" x="542.2" xlink:href="#ma18501f333" y="138.5"/>
      </g>
     </g>
     <g id="text_57">
      <!-- 0.5 -->
      <g transform="translate(549.2 142.299219)scale(0.1 -0.1)">
       <use xlink:href="#DejaVuSans-48"/>
       <use x="63.623047" xlink:href="#DejaVuSans-46"/>
       <use x="95.410156" xlink:href="#DejaVuSans-53"/>
      </g>
     </g>
    </g>
    <g id="ytick_18">
     <g id="line2d_64">
      <g>
       <use style="stroke:#000000;stroke-width:0.8;" x="542.2" xlink:href="#ma18501f333" y="119.2"/>
      </g>
     </g>
     <g id="text_58">
      <!-- 1.0 -->
      <g transform="translate(549.2 122.999219)scale(0.1 -0.1)">
       <use xlink:href="#DejaVuSans-49"/>
       <use x="63.623047" xlink:href="#DejaVuSans-46"/>
       <use x="95.410156" xlink:href="#DejaVuSans-48"/>
      </g>
     </g>
    </g>
    <g id="ytick_19">
     <g id="line2d_65">
      <g>
       <use style="stroke:#000000;stroke-width:0.6;" x="542.2" xlink:href="#m33dfedbdd8" y="148.15"/>
      </g>
     </g>
    </g>
    <g id="ytick_20">
     <g id="line2d_66">
      <g>
       <use style="stroke:#000000;stroke-width:0.6;" x="542.2" xlink:href="#m33dfedbdd8" y="128.85"/>
      </g>
     </g>
    </g>
   </g>
   <g id="line2d_67">
    <path clip-path="url(#p6d60458978)" d="M 295.634214 152.910152 
L 296.018592 150.23054 
L 296.40297 154.33758 
L 296.787348 148.598532 
L 297.171726 154.762952 
L 297.556104 155.83912 
L 297.940482 152.827934 
L 298.32486 151.436404 
L 298.709237 145.42677 
L 299.093615 155.012308 
L 299.477993 153.909506 
L 299.862371 154.738248 
L 300.246749 144.593396 
L 300.631127 152.89394 
L 301.015505 154.462258 
L 301.399883 149.866928 
L 301.784261 142.773406 
L 302.168639 143.15323 
L 302.553017 140.628404 
L 302.937395 132.125982 
L 303.321772 127.595886 
L 303.70615 131.677064 
L 304.090528 130.892326 
L 304.474906 141.999862 
L 304.859284 133.983414 
L 305.243662 141.274954 
L 305.62804 136.468482 
L 306.012418 139.95329 
L 306.396796 134.884338 
L 306.781174 133.688124 
L 307.165552 137.188758 
L 307.549929 135.037966 
L 307.934307 137.134718 
L 308.318685 129.914588 
L 308.703063 125.596792 
L 309.087441 125.126258 
L 309.471819 130.491272 
L 309.856197 133.5013 
L 310.240575 134.281406 
L 310.624953 133.502072 
L 311.009331 136.552244 
L 311.393709 137.790918 
L 312.162464 154.732072 
L 312.546842 156.91027 
L 312.93122 156.610734 
L 313.315598 156.047174 
L 313.699976 154.864084 
L 314.084354 136.343418 
L 314.468732 149.426502 
L 314.85311 132.996412 
L 315.237488 129.69341 
L 315.621866 135.545556 
L 316.006244 126.264958 
L 316.390621 129.259546 
L 316.774999 137.28024 
L 317.159377 125.452428 
L 317.543755 129.570662 
L 317.928133 135.623528 
L 318.312511 132.092014 
L 318.696889 135.590718 
L 319.081267 142.226444 
L 319.465645 132.982516 
L 319.850023 137.01583 
L 320.234401 132.049168 
L 320.618778 130.646444 
L 321.003156 128.189168 
L 321.387534 127.07633 
L 321.771912 139.5808 
L 322.15629 135.24216 
L 322.540668 136.208704 
L 322.925046 147.207774 
L 323.309424 154.947074 
L 323.693802 145.18166 
L 324.07818 153.607654 
L 324.462558 150.581028 
L 324.846936 136.974142 
L 325.231313 155.156672 
L 325.615691 133.107966 
L 326.000069 139.634454 
L 326.384447 136.233794 
L 326.768825 147.113204 
L 327.153203 134.394504 
L 327.537581 133.910846 
L 327.921959 137.242412 
L 328.306337 135.23058 
L 328.690715 134.491776 
L 329.45947 137.494084 
L 329.843848 139.615154 
L 330.228226 137.289504 
L 330.996982 148.241868 
L 331.38136 132.46296 
L 331.765738 144.850086 
L 332.150116 148.509752 
L 332.534494 138.363742 
L 332.918872 136.563052 
L 333.30325 141.59186 
L 333.687627 156.636982 
L 334.072005 134.958064 
L 334.456383 146.396402 
L 334.840761 134.454334 
L 335.225139 138.483788 
L 335.609517 128.797504 
L 335.993895 135.87906 
L 336.378273 136.450726 
L 336.762651 137.659678 
L 337.147029 144.952762 
L 337.531407 143.7496 
L 337.915785 138.579516 
L 338.300162 145.889584 
L 338.68454 142.90426 
L 339.068918 130.39979 
L 339.837674 146.211122 
L 340.222052 141.144486 
L 340.60643 132.274206 
L 340.990808 130.394772 
L 341.375186 131.99783 
L 341.759564 135.96977 
L 342.143942 132.18504 
L 342.528319 137.382144 
L 342.912697 138.339424 
L 343.297075 129.474548 
L 343.681453 127.661892 
L 344.065831 137.160194 
L 344.450209 133.125336 
L 345.218965 139.29902 
L 345.603343 131.879328 
L 345.987721 135.249108 
L 346.372099 133.521758 
L 346.756476 133.253874 
L 347.140854 130.31101 
L 347.525232 137.943002 
L 347.90961 133.711284 
L 348.293988 150.088878 
L 348.678366 146.712536 
L 349.062744 144.38457 
L 349.447122 130.944822 
L 349.8315 128.250542 
L 350.600256 133.076314 
L 350.984634 137.83222 
L 351.369011 135.956646 
L 351.753389 137.739966 
L 352.137767 131.605654 
L 352.522145 136.516346 
L 352.906523 132.718492 
L 353.290901 131.621094 
L 353.675279 131.755808 
L 354.059657 135.67834 
L 354.444035 130.12573 
L 354.828413 133.378166 
L 355.212791 144.88058 
L 355.597168 142.316382 
L 356.365924 134.707936 
L 356.750302 151.298602 
L 357.13468 144.628136 
L 357.519058 154.070082 
L 357.903436 143.428834 
L 358.287814 127.466962 
L 358.672192 131.466308 
L 359.05657 132.708456 
L 359.440948 128.509934 
L 359.825326 128.54892 
L 360.209703 128.277562 
L 360.594081 125.833796 
L 360.978459 130.527556 
L 361.362837 130.362734 
L 361.747215 125.77358 
L 362.515971 134.811384 
L 362.900349 131.712576 
L 363.284727 133.823996 
L 363.669105 135.01442 
L 364.053483 138.010166 
L 364.43786 146.944908 
L 364.822238 128.616084 
L 365.206616 135.046072 
L 365.590994 134.587504 
L 365.975372 129.396962 
L 366.35975 127.949076 
L 366.744128 127.768428 
L 367.128506 132.02292 
L 367.512884 131.958458 
L 367.897262 131.203442 
L 368.28164 135.180014 
L 368.666017 129.99063 
L 369.050395 134.444298 
L 369.434773 131.650044 
L 369.819151 131.254394 
L 370.203529 132.34909 
L 370.587907 130.993072 
L 370.972285 132.28733 
L 371.356663 128.790942 
L 371.741041 134.92178 
L 372.125419 137.73958 
L 372.509797 135.7015 
L 372.894175 129.975576 
L 373.278552 137.686312 
L 373.66293 156.253298 
L 374.047308 133.772272 
L 374.431686 132.768286 
L 374.816064 133.514038 
L 375.200442 133.351146 
L 375.58482 139.228768 
L 375.969198 135.675638 
L 376.353576 136.234952 
L 376.737954 131.990882 
L 377.122332 132.357196 
L 377.506709 133.465788 
L 377.891087 136.843674 
L 378.275465 134.97968 
L 378.659843 137.82064 
L 379.044221 131.060236 
L 379.428599 147.832708 
L 379.812977 135.42937 
L 380.197355 131.57902 
L 380.581733 133.915092 
L 380.966111 134.559712 
L 381.350489 131.701768 
L 381.734867 137.472082 
L 382.119244 128.659316 
L 382.503622 131.081852 
L 382.888 137.13163 
L 383.272378 128.860036 
L 383.656756 130.915486 
L 384.041134 136.339944 
L 384.425512 133.376236 
L 384.80989 137.857696 
L 385.194268 156.733096 
L 385.578646 140.778558 
L 385.963024 139.917006 
L 386.347401 128.993206 
L 386.731779 132.707684 
L 387.116157 145.082072 
L 387.500535 140.04786 
L 387.884913 132.992552 
L 388.269291 134.56087 
L 388.653669 131.006582 
L 389.038047 133.704336 
L 389.806803 147.734278 
L 390.191181 149.538056 
L 390.575558 135.463338 
L 390.959936 129.702288 
L 391.344314 134.99126 
L 391.728692 130.245004 
L 392.11307 133.913548 
L 392.497448 133.12109 
L 392.881826 136.252708 
L 393.266204 140.400278 
L 393.650582 139.45535 
L 394.03496 137.050956 
L 394.419338 137.544264 
L 394.803716 133.627136 
L 395.188093 131.223128 
L 395.572471 131.018162 
L 395.956849 131.34163 
L 396.341227 136.634462 
L 396.725605 130.92475 
L 397.109983 137.25322 
L 397.494361 139.82591 
L 397.878739 136.085956 
L 398.263117 134.005802 
L 398.647495 138.248328 
L 399.031873 144.494194 
L 399.41625 133.793502 
L 399.800628 130.204474 
L 400.185006 133.920882 
L 400.569384 126.84666 
L 400.953762 128.257104 
L 401.33814 126.940072 
L 401.722518 133.44726 
L 402.106896 133.104106 
L 402.491274 131.558562 
L 402.875652 131.20267 
L 403.26003 131.151718 
L 403.644408 134.341236 
L 404.028785 131.83764 
L 404.413163 133.882282 
L 404.797541 139.42254 
L 405.181919 133.988046 
L 405.566297 137.578618 
L 405.950675 134.269826 
L 406.335053 132.395024 
L 406.719431 131.327734 
L 407.103809 141.126344 
L 407.488187 134.372116 
L 407.872565 135.779858 
L 408.256942 131.792478 
L 408.64132 130.208334 
L 409.025698 127.643364 
L 409.410076 131.59639 
L 409.794454 126.852064 
L 410.178832 129.480338 
L 410.56321 133.849086 
L 410.947588 135.496534 
L 411.331966 134.305338 
L 411.716344 129.83816 
L 412.100722 129.6992 
L 412.485099 131.38602 
L 412.869477 132.332106 
L 413.253855 131.314996 
L 413.638233 131.858098 
L 414.022611 131.373282 
L 414.406989 131.820656 
L 415.175745 142.15542 
L 415.560123 137.819096 
L 415.944501 128.614154 
L 416.328879 131.017004 
L 416.713257 130.4905 
L 417.097634 130.225704 
L 417.482012 132.8451 
L 417.86639 132.795692 
L 418.250768 130.31487 
L 418.635146 136.16663 
L 419.019524 136.065498 
L 419.78828 130.610546 
L 420.172658 132.456398 
L 420.557036 131.340472 
L 420.941414 131.485994 
L 421.325791 127.93711 
L 421.710169 137.142438 
L 422.478925 132.59034 
L 422.863303 136.87108 
L 423.247681 135.390384 
L 423.632059 137.221182 
L 424.016437 130.281288 
L 424.400815 133.76185 
L 424.785193 131.736122 
L 425.169571 132.587638 
L 425.553949 134.384082 
L 425.938326 131.931824 
L 426.322704 131.958844 
L 426.707082 133.270086 
L 427.09146 130.916644 
L 427.475838 130.80702 
L 427.860216 128.9079 
L 428.244594 128.577484 
L 428.628972 134.187222 
L 429.01335 129.229052 
L 429.397728 134.01082 
L 429.782106 132.910334 
L 430.166483 130.902362 
L 430.550861 134.026646 
L 430.935239 134.609892 
L 431.319617 131.231234 
L 431.703995 131.713734 
L 432.088373 129.767136 
L 432.472751 137.135876 
L 432.857129 128.210398 
L 433.241507 136.248462 
L 433.625885 126.498874 
L 434.010263 131.453956 
L 434.39464 130.976474 
L 434.779018 141.490342 
L 435.163396 145.417506 
L 435.547774 153.591828 
L 435.932152 143.100734 
L 436.31653 137.399128 
L 436.700908 128.426558 
L 437.085286 134.21733 
L 437.469664 129.028332 
L 437.854042 128.1745 
L 438.23842 131.455114 
L 439.007175 145.211382 
L 439.391553 134.240876 
L 439.775931 138.415466 
L 440.160309 131.426164 
L 440.544687 131.450482 
L 440.929065 133.896178 
L 441.313443 134.316918 
L 441.697821 132.792218 
L 442.082199 133.220678 
L 442.466577 130.904678 
L 442.850955 131.124312 
L 443.235332 132.655188 
L 443.61971 127.998484 
L 444.004088 148.58618 
L 444.388466 132.557916 
L 444.772844 128.237032 
L 445.157222 130.726346 
L 445.5416 134.536166 
L 445.925978 133.766096 
L 446.310356 127.699334 
L 447.079112 125.970054 
L 447.847867 133.686966 
L 448.232245 131.529998 
L 448.616623 131.121996 
L 449.001001 128.320794 
L 449.385379 126.682224 
L 449.769757 128.327356 
L 450.154135 126.344474 
L 450.538513 130.939804 
L 450.922891 125.6848 
L 451.691647 125.469798 
L 452.460402 132.291576 
L 452.84478 126.090486 
L 453.229158 143.826028 
L 453.997914 124.323378 
L 454.382292 124.510974 
L 454.76667 123.31476 
L 455.151048 125.079166 
L 455.535426 124.866866 
L 455.919804 129.609262 
L 456.304181 137.804814 
L 456.688559 139.135575 
L 456.688559 139.135575 
" style="fill:none;stroke:#1f77b4;stroke-linecap:square;stroke-width:1.5;"/>
   </g>
   <g id="patch_12">
    <path d="M 542.2 157.8 
L 542.2 119.2 
" style="fill:none;stroke:#000000;stroke-linecap:square;stroke-linejoin:miter;stroke-width:0.8;"/>
   </g>
   <g id="patch_13">
    <path d="M 295.63421 167.8 
L 532.2 167.8 
" style="fill:none;stroke:#000000;stroke-linecap:square;stroke-linejoin:miter;stroke-width:0.8;"/>
   </g>
   <g id="text_59">
    <!-- 3L -->
    <g transform="translate(405.919293 113.2)scale(0.12 -0.12)">
     <use xlink:href="#DejaVuSans-Bold-51"/>
     <use x="69.580078" xlink:href="#DejaVuSans-Bold-76"/>
    </g>
   </g>
  </g>
  <g id="axes_5">
   <g id="patch_14">
    <path d="M 43.8 250.2 
L 280.36579 250.2 
L 280.36579 211.6 
L 43.8 211.6 
z
" style="fill:#ffffff;"/>
   </g>
   <g id="matplotlib.axis_9">
    <g id="xtick_44">
     <g id="line2d_68">
      <g>
       <use style="stroke:#000000;stroke-width:0.8;" x="186.604074" xlink:href="#m57d30ec1c2" y="260.2"/>
      </g>
     </g>
     <g id="text_60">
      <!-- 0 -->
      <g transform="translate(183.422824 274.798437)scale(0.1 -0.1)">
       <use xlink:href="#DejaVuSans-48"/>
      </g>
     </g>
    </g>
    <g id="xtick_45">
     <g id="line2d_69">
      <g>
       <use style="stroke:#000000;stroke-width:0.8;" x="205.82297" xlink:href="#m57d30ec1c2" y="260.2"/>
      </g>
     </g>
     <g id="text_61">
      <!-- 5 -->
      <g transform="translate(202.64172 274.798437)scale(0.1 -0.1)">
       <use xlink:href="#DejaVuSans-53"/>
      </g>
     </g>
    </g>
    <g id="xtick_46">
     <g id="line2d_70">
      <g>
       <use style="stroke:#000000;stroke-width:0.8;" x="225.041865" xlink:href="#m57d30ec1c2" y="260.2"/>
      </g>
     </g>
     <g id="text_62">
      <!-- 10 -->
      <g transform="translate(218.679365 274.798437)scale(0.1 -0.1)">
       <use xlink:href="#DejaVuSans-49"/>
       <use x="63.623047" xlink:href="#DejaVuSans-48"/>
      </g>
     </g>
    </g>
    <g id="xtick_47">
     <g id="line2d_71">
      <g>
       <use style="stroke:#000000;stroke-width:0.8;" x="244.260761" xlink:href="#m57d30ec1c2" y="260.2"/>
      </g>
     </g>
     <g id="text_63">
      <!-- 15 -->
      <g transform="translate(237.898261 274.798437)scale(0.1 -0.1)">
       <use xlink:href="#DejaVuSans-49"/>
       <use x="63.623047" xlink:href="#DejaVuSans-53"/>
      </g>
     </g>
    </g>
    <g id="xtick_48">
     <g id="line2d_72">
      <g>
       <use style="stroke:#000000;stroke-width:0.8;" x="263.479657" xlink:href="#m57d30ec1c2" y="260.2"/>
      </g>
     </g>
     <g id="text_64">
      <!-- 20 -->
      <g transform="translate(257.117157 274.798437)scale(0.1 -0.1)">
       <use xlink:href="#DejaVuSans-50"/>
       <use x="63.623047" xlink:href="#DejaVuSans-48"/>
      </g>
     </g>
    </g>
   </g>
   <g id="matplotlib.axis_10">
    <g id="ytick_21">
     <g id="line2d_73">
      <g>
       <use style="stroke:#000000;stroke-width:0.8;" x="33.8" xlink:href="#m0f3d645ab4" y="250.2"/>
      </g>
     </g>
     <g id="text_65">
      <!-- 0.0 -->
      <g transform="translate(10.896875 253.999219)scale(0.1 -0.1)">
       <use xlink:href="#DejaVuSans-48"/>
       <use x="63.623047" xlink:href="#DejaVuSans-46"/>
       <use x="95.410156" xlink:href="#DejaVuSans-48"/>
      </g>
     </g>
    </g>
    <g id="ytick_22">
     <g id="line2d_74">
      <g>
       <use style="stroke:#000000;stroke-width:0.8;" x="33.8" xlink:href="#m0f3d645ab4" y="230.9"/>
      </g>
     </g>
     <g id="text_66">
      <!-- 0.5 -->
      <g transform="translate(10.896875 234.699219)scale(0.1 -0.1)">
       <use xlink:href="#DejaVuSans-48"/>
       <use x="63.623047" xlink:href="#DejaVuSans-46"/>
       <use x="95.410156" xlink:href="#DejaVuSans-53"/>
      </g>
     </g>
    </g>
    <g id="ytick_23">
     <g id="line2d_75">
      <g>
       <use style="stroke:#000000;stroke-width:0.8;" x="33.8" xlink:href="#m0f3d645ab4" y="211.6"/>
      </g>
     </g>
     <g id="text_67">
      <!-- 1.0 -->
      <g transform="translate(10.896875 215.399219)scale(0.1 -0.1)">
       <use xlink:href="#DejaVuSans-49"/>
       <use x="63.623047" xlink:href="#DejaVuSans-46"/>
       <use x="95.410156" xlink:href="#DejaVuSans-48"/>
      </g>
     </g>
    </g>
    <g id="ytick_24">
     <g id="line2d_76">
      <g>
       <use style="stroke:#000000;stroke-width:0.6;" x="33.8" xlink:href="#m0ca40c8257" y="240.55"/>
      </g>
     </g>
    </g>
    <g id="ytick_25">
     <g id="line2d_77">
      <g>
       <use style="stroke:#000000;stroke-width:0.6;" x="33.8" xlink:href="#m0ca40c8257" y="221.25"/>
      </g>
     </g>
    </g>
   </g>
   <g id="line2d_78">
    <path clip-path="url(#p76ac072999)" d="M 186.604078 235.372968 
L 186.988456 227.712798 
L 187.372834 225.771604 
L 187.757212 230.097892 
L 188.14159 228.247022 
L 188.525968 234.208792 
L 188.910346 234.96265 
L 189.294723 231.308388 
L 189.679101 229.678696 
L 190.063479 232.580258 
L 190.447857 234.180228 
L 191.216613 232.64858 
L 191.600991 234.838744 
L 191.985369 229.496118 
L 192.369747 233.732854 
L 192.754125 230.293208 
L 193.138503 230.012972 
L 193.522881 237.746096 
L 193.907258 229.293082 
L 194.291636 231.876966 
L 194.676014 228.877746 
L 195.060392 233.364996 
L 195.44477 228.907082 
L 196.213526 226.432822 
L 196.597904 226.52662 
L 196.982282 226.770572 
L 197.36666 228.929856 
L 197.751038 232.332446 
L 198.135415 231.294492 
L 198.519793 225.06947 
L 198.904171 231.025836 
L 199.288549 239.77993 
L 199.672927 229.360632 
L 200.057305 229.84043 
L 200.441683 235.711104 
L 200.826061 232.909902 
L 201.210439 234.483238 
L 201.594817 233.668778 
L 201.979195 234.52068 
L 202.363573 229.333226 
L 202.74795 226.176132 
L 203.132328 228.22502 
L 203.516706 233.784964 
L 203.901084 231.049382 
L 204.285462 236.63596 
L 204.66984 233.967542 
L 205.054218 232.959696 
L 205.822974 229.451342 
L 206.207352 231.773518 
L 206.59173 232.329744 
L 206.976107 230.469996 
L 207.360485 234.208792 
L 207.744863 231.81868 
L 208.129241 230.485822 
L 208.513619 231.64691 
L 208.897997 235.1267 
L 209.282375 229.635464 
L 209.666753 231.802468 
L 210.051131 234.641112 
L 210.435509 233.071636 
L 210.819887 235.15565 
L 211.204264 232.89562 
L 211.588642 236.99301 
L 211.97302 233.141502 
L 212.357398 235.986708 
L 212.741776 236.798466 
L 213.126154 233.1967 
L 213.510532 230.725142 
L 213.89491 230.19941 
L 214.279288 234.697468 
L 214.663666 234.270938 
L 215.048044 230.38662 
L 215.432422 234.196054 
L 215.816799 232.86281 
L 216.201177 233.48041 
L 216.585555 231.961886 
L 216.969933 234.555034 
L 217.354311 232.630438 
L 217.738689 234.418776 
L 218.123067 231.481316 
L 218.507445 233.508202 
L 218.891823 232.400382 
L 219.276201 229.999462 
L 219.660579 233.586946 
L 220.044956 230.543336 
L 220.429334 230.567268 
L 220.813712 236.195148 
L 221.19809 231.765412 
L 221.582468 231.493668 
L 221.966846 233.454548 
L 222.351224 233.716642 
L 222.735602 231.105352 
L 223.11998 231.524934 
L 223.504358 232.940396 
L 223.888736 228.381736 
L 224.273114 237.12811 
L 224.657491 230.782656 
L 225.041869 233.783806 
L 225.426247 229.808392 
L 225.810625 231.18757 
L 226.195003 235.077678 
L 226.579381 231.829102 
L 226.963759 231.157848 
L 227.348137 231.763868 
L 227.732515 231.916338 
L 228.116893 232.841966 
L 228.501271 231.541918 
L 228.885648 235.11898 
L 229.270026 233.689236 
L 229.654404 234.744946 
L 230.038782 236.425976 
L 230.42316 229.014776 
L 231.191916 234.627988 
L 231.576294 228.542312 
L 231.960672 231.709828 
L 232.34505 227.986472 
L 233.113805 234.104186 
L 233.498183 229.871696 
L 233.882561 233.187436 
L 234.266939 227.111024 
L 234.651317 227.571522 
L 235.035695 237.257034 
L 235.420073 238.474092 
L 235.804451 234.863448 
L 236.188829 233.28355 
L 236.573207 230.60664 
L 236.957585 231.06598 
L 237.341963 231.751902 
L 237.72634 227.506674 
L 238.110718 239.274656 
L 238.495096 229.667502 
L 238.879474 228.56277 
L 239.263852 230.258082 
L 239.64823 229.77288 
L 240.032608 230.80736 
L 240.416986 230.839012 
L 240.801364 228.16326 
L 241.185742 233.714712 
L 241.57012 230.345318 
L 241.954497 231.937568 
L 242.338875 229.462536 
L 242.723253 232.794102 
L 243.107631 231.869632 
L 243.876387 239.091692 
L 244.260765 248.2121 
L 244.645143 241.98592 
L 245.029521 231.352392 
L 245.413899 232.542816 
L 245.798277 230.901158 
L 246.567032 224.031516 
L 246.95141 229.777126 
L 247.720166 225.783956 
L 248.488922 230.83824 
L 248.8733 227.32564 
L 249.257678 221.438754 
L 249.642056 222.24974 
L 250.026434 223.439778 
L 250.410812 221.278178 
L 250.795189 232.44014 
L 251.179567 223.655938 
L 251.563945 229.81727 
L 251.948323 229.158368 
L 252.332701 233.525958 
L 252.717079 233.234528 
L 253.101457 236.690386 
L 253.485835 233.871042 
L 254.254591 226.997926 
L 254.638969 231.325372 
L 255.023346 228.042828 
L 255.407724 230.462662 
L 255.792102 231.254348 
L 256.17648 227.387014 
L 256.560858 228.429986 
L 256.945236 230.88263 
L 257.329614 225.289104 
L 257.713992 223.769422 
L 258.09837 226.314706 
L 258.482748 226.72541 
L 258.867126 226.344428 
L 259.251504 229.724244 
L 259.635881 229.237498 
L 260.020259 221.707024 
L 260.404637 222.846882 
L 260.789015 220.907232 
L 261.557771 228.214984 
L 261.942149 224.90349 
L 262.326527 230.362688 
L 262.710905 227.251142 
L 263.095283 236.268102 
L 263.479661 240.301802 
L 263.864038 235.583724 
L 264.248416 246.6488 
L 264.632794 243.885426 
L 265.017172 244.29999 
L 265.40155 245.807706 
L 265.785928 245.05076 
L 266.170306 245.639024 
L 266.554684 245.186632 
L 266.939062 245.728576 
L 267.32344 246.82057 
L 267.707818 246.35158 
L 268.092195 246.752634 
L 268.476573 243.80398 
L 268.860951 245.51203 
L 269.245329 244.316202 
L 269.629707 244.901764 
L 270.398463 245.483852 
L 270.782841 246.934826 
L 271.167219 247.636574 
L 271.551597 240.721384 
L 271.935975 244.423124 
L 272.320353 245.072762 
L 272.70473 244.227036 
L 273.089108 243.98347 
L 273.473486 246.72021 
L 273.857864 242.551024 
L 274.62662 245.338716 
L 275.010998 246.551914 
L 275.395376 248.22561 
L 275.779754 245.253796 
L 276.164132 244.982438 
L 276.54851 244.455162 
L 276.932887 245.498134 
L 277.317265 246.96918 
L 277.701643 245.260744 
L 278.086021 242.689598 
L 278.470399 243.270142 
L 278.854777 246.360844 
L 279.239155 243.940238 
L 279.623533 240.43227 
L 280.007911 246.869741 
L 280.007911 246.869741 
" style="fill:none;stroke:#1f77b4;stroke-linecap:square;stroke-width:1.5;"/>
   </g>
   <g id="patch_15">
    <path d="M 33.8 250.2 
L 33.8 211.6 
" style="fill:none;stroke:#000000;stroke-linecap:square;stroke-linejoin:miter;stroke-width:0.8;"/>
   </g>
   <g id="patch_16">
    <path d="M 43.8 260.2 
L 280.36579 260.2 
" style="fill:none;stroke:#000000;stroke-linecap:square;stroke-linejoin:miter;stroke-width:0.8;"/>
   </g>
   <g id="text_68">
    <!-- X -->
    <defs>
     <path d="M 49.8125 37.203125 
L 75.09375 0 
L 55.515625 0 
L 38.484375 24.90625 
L 21.578125 0 
L 1.90625 0 
L 27.203125 37.203125 
L 2.875 72.90625 
L 22.515625 72.90625 
L 38.484375 49.421875 
L 54.390625 72.90625 
L 74.125 72.90625 
z
" id="DejaVuSans-Bold-88"/>
    </defs>
    <g transform="translate(157.45727 205.6)scale(0.12 -0.12)">
     <use xlink:href="#DejaVuSans-Bold-88"/>
    </g>
   </g>
  </g>
  <g id="axes_6"/>
 </g>
 <defs>
  <clipPath id="p96d50ef8d1">
   <rect height="38.6" width="236.56579" x="43.8" y="26.8"/>
  </clipPath>
  <clipPath id="pbdde41bb71">
   <rect height="38.6" width="236.56579" x="295.63421" y="26.8"/>
  </clipPath>
  <clipPath id="p3a2832a7b8">
   <rect height="38.6" width="236.56579" x="43.8" y="119.2"/>
  </clipPath>
  <clipPath id="p6d60458978">
   <rect height="38.6" width="236.56579" x="295.63421" y="119.2"/>
  </clipPath>
  <clipPath id="p76ac072999">
   <rect height="38.6" width="236.56579" x="43.8" y="211.6"/>
  </clipPath>
 </defs>
</svg>
