<?xml version="1.0" encoding="utf-8" standalone="no"?>
<!DOCTYPE svg PUBLIC "-//W3C//DTD SVG 1.1//EN"
  "http://www.w3.org/Graphics/SVG/1.1/DTD/svg11.dtd">
<!-- Created with matplotlib (https://matplotlib.org/) -->
<svg height="288pt" version="1.1" viewBox="0 0 576 288" width="576pt" xmlns="http://www.w3.org/2000/svg" xmlns:xlink="http://www.w3.org/1999/xlink">
 <defs>
  <style type="text/css">
*{stroke-linecap:butt;stroke-linejoin:round;}
  </style>
 </defs>
 <g id="figure_1">
  <g id="patch_1">
   <path d="M 0 288 
L 576 288 
L 576 0 
L 0 0 
z
" style="fill:#ffffff;"/>
  </g>
  <g id="axes_1">
   <g id="patch_2">
    <path d="M 43.8 65.4 
L 280.36579 65.4 
L 280.36579 26.8 
L 43.8 26.8 
z
" style="fill:#ffffff;"/>
   </g>
   <g id="matplotlib.axis_1">
    <g id="xtick_1">
     <g id="line2d_1">
      <defs>
       <path d="M 0 0 
L 0 3.5 
" id="mcbae296bdd" style="stroke:#000000;stroke-width:0.8;"/>
      </defs>
      <g>
       <use style="stroke:#000000;stroke-width:0.8;" x="43.800004" xlink:href="#mcbae296bdd" y="75.4"/>
      </g>
     </g>
     <g id="text_1">
      <!-- 0 -->
      <defs>
       <path d="M 31.78125 66.40625 
Q 24.171875 66.40625 20.328125 58.90625 
Q 16.5 51.421875 16.5 36.375 
Q 16.5 21.390625 20.328125 13.890625 
Q 24.171875 6.390625 31.78125 6.390625 
Q 39.453125 6.390625 43.28125 13.890625 
Q 47.125 21.390625 47.125 36.375 
Q 47.125 51.421875 43.28125 58.90625 
Q 39.453125 66.40625 31.78125 66.40625 
z
M 31.78125 74.21875 
Q 44.046875 74.21875 50.515625 64.515625 
Q 56.984375 54.828125 56.984375 36.375 
Q 56.984375 17.96875 50.515625 8.265625 
Q 44.046875 -1.421875 31.78125 -1.421875 
Q 19.53125 -1.421875 13.0625 8.265625 
Q 6.59375 17.96875 6.59375 36.375 
Q 6.59375 54.828125 13.0625 64.515625 
Q 19.53125 74.21875 31.78125 74.21875 
z
" id="DejaVuSans-48"/>
      </defs>
      <g transform="translate(40.618754 89.998437)scale(0.1 -0.1)">
       <use xlink:href="#DejaVuSans-48"/>
      </g>
     </g>
    </g>
    <g id="xtick_2">
     <g id="line2d_2">
      <g>
       <use style="stroke:#000000;stroke-width:0.8;" x="63.018899" xlink:href="#mcbae296bdd" y="75.4"/>
      </g>
     </g>
     <g id="text_2">
      <!-- 5 -->
      <defs>
       <path d="M 10.796875 72.90625 
L 49.515625 72.90625 
L 49.515625 64.59375 
L 19.828125 64.59375 
L 19.828125 46.734375 
Q 21.96875 47.46875 24.109375 47.828125 
Q 26.265625 48.1875 28.421875 48.1875 
Q 40.625 48.1875 47.75 41.5 
Q 54.890625 34.8125 54.890625 23.390625 
Q 54.890625 11.625 47.5625 5.09375 
Q 40.234375 -1.421875 26.90625 -1.421875 
Q 22.3125 -1.421875 17.546875 -0.640625 
Q 12.796875 0.140625 7.71875 1.703125 
L 7.71875 11.625 
Q 12.109375 9.234375 16.796875 8.0625 
Q 21.484375 6.890625 26.703125 6.890625 
Q 35.15625 6.890625 40.078125 11.328125 
Q 45.015625 15.765625 45.015625 23.390625 
Q 45.015625 31 40.078125 35.4375 
Q 35.15625 39.890625 26.703125 39.890625 
Q 22.75 39.890625 18.8125 39.015625 
Q 14.890625 38.140625 10.796875 36.28125 
z
" id="DejaVuSans-53"/>
      </defs>
      <g transform="translate(59.837649 89.998437)scale(0.1 -0.1)">
       <use xlink:href="#DejaVuSans-53"/>
      </g>
     </g>
    </g>
    <g id="xtick_3">
     <g id="line2d_3">
      <g>
       <use style="stroke:#000000;stroke-width:0.8;" x="82.237795" xlink:href="#mcbae296bdd" y="75.4"/>
      </g>
     </g>
     <g id="text_3">
      <!-- 10 -->
      <defs>
       <path d="M 12.40625 8.296875 
L 28.515625 8.296875 
L 28.515625 63.921875 
L 10.984375 60.40625 
L 10.984375 69.390625 
L 28.421875 72.90625 
L 38.28125 72.90625 
L 38.28125 8.296875 
L 54.390625 8.296875 
L 54.390625 0 
L 12.40625 0 
z
" id="DejaVuSans-49"/>
      </defs>
      <g transform="translate(75.875295 89.998437)scale(0.1 -0.1)">
       <use xlink:href="#DejaVuSans-49"/>
       <use x="63.623047" xlink:href="#DejaVuSans-48"/>
      </g>
     </g>
    </g>
    <g id="xtick_4">
     <g id="line2d_4">
      <g>
       <use style="stroke:#000000;stroke-width:0.8;" x="101.456691" xlink:href="#mcbae296bdd" y="75.4"/>
      </g>
     </g>
     <g id="text_4">
      <!-- 15 -->
      <g transform="translate(95.094191 89.998437)scale(0.1 -0.1)">
       <use xlink:href="#DejaVuSans-49"/>
       <use x="63.623047" xlink:href="#DejaVuSans-53"/>
      </g>
     </g>
    </g>
    <g id="xtick_5">
     <g id="line2d_5">
      <g>
       <use style="stroke:#000000;stroke-width:0.8;" x="120.675586" xlink:href="#mcbae296bdd" y="75.4"/>
      </g>
     </g>
     <g id="text_5">
      <!-- 20 -->
      <defs>
       <path d="M 19.1875 8.296875 
L 53.609375 8.296875 
L 53.609375 0 
L 7.328125 0 
L 7.328125 8.296875 
Q 12.9375 14.109375 22.625 23.890625 
Q 32.328125 33.6875 34.8125 36.53125 
Q 39.546875 41.84375 41.421875 45.53125 
Q 43.3125 49.21875 43.3125 52.78125 
Q 43.3125 58.59375 39.234375 62.25 
Q 35.15625 65.921875 28.609375 65.921875 
Q 23.96875 65.921875 18.8125 64.3125 
Q 13.671875 62.703125 7.8125 59.421875 
L 7.8125 69.390625 
Q 13.765625 71.78125 18.9375 73 
Q 24.125 74.21875 28.421875 74.21875 
Q 39.75 74.21875 46.484375 68.546875 
Q 53.21875 62.890625 53.21875 53.421875 
Q 53.21875 48.921875 51.53125 44.890625 
Q 49.859375 40.875 45.40625 35.40625 
Q 44.1875 33.984375 37.640625 27.21875 
Q 31.109375 20.453125 19.1875 8.296875 
z
" id="DejaVuSans-50"/>
      </defs>
      <g transform="translate(114.313086 89.998437)scale(0.1 -0.1)">
       <use xlink:href="#DejaVuSans-50"/>
       <use x="63.623047" xlink:href="#DejaVuSans-48"/>
      </g>
     </g>
    </g>
    <g id="xtick_6">
     <g id="line2d_6">
      <g>
       <use style="stroke:#000000;stroke-width:0.8;" x="139.894482" xlink:href="#mcbae296bdd" y="75.4"/>
      </g>
     </g>
     <g id="text_6">
      <!-- 25 -->
      <g transform="translate(133.531982 89.998437)scale(0.1 -0.1)">
       <use xlink:href="#DejaVuSans-50"/>
       <use x="63.623047" xlink:href="#DejaVuSans-53"/>
      </g>
     </g>
    </g>
    <g id="xtick_7">
     <g id="line2d_7">
      <g>
       <use style="stroke:#000000;stroke-width:0.8;" x="159.113378" xlink:href="#mcbae296bdd" y="75.4"/>
      </g>
     </g>
     <g id="text_7">
      <!-- 30 -->
      <defs>
       <path d="M 40.578125 39.3125 
Q 47.65625 37.796875 51.625 33 
Q 55.609375 28.21875 55.609375 21.1875 
Q 55.609375 10.40625 48.1875 4.484375 
Q 40.765625 -1.421875 27.09375 -1.421875 
Q 22.515625 -1.421875 17.65625 -0.515625 
Q 12.796875 0.390625 7.625 2.203125 
L 7.625 11.71875 
Q 11.71875 9.328125 16.59375 8.109375 
Q 21.484375 6.890625 26.8125 6.890625 
Q 36.078125 6.890625 40.9375 10.546875 
Q 45.796875 14.203125 45.796875 21.1875 
Q 45.796875 27.640625 41.28125 31.265625 
Q 36.765625 34.90625 28.71875 34.90625 
L 20.21875 34.90625 
L 20.21875 43.015625 
L 29.109375 43.015625 
Q 36.375 43.015625 40.234375 45.921875 
Q 44.09375 48.828125 44.09375 54.296875 
Q 44.09375 59.90625 40.109375 62.90625 
Q 36.140625 65.921875 28.71875 65.921875 
Q 24.65625 65.921875 20.015625 65.03125 
Q 15.375 64.15625 9.8125 62.3125 
L 9.8125 71.09375 
Q 15.4375 72.65625 20.34375 73.4375 
Q 25.25 74.21875 29.59375 74.21875 
Q 40.828125 74.21875 47.359375 69.109375 
Q 53.90625 64.015625 53.90625 55.328125 
Q 53.90625 49.265625 50.4375 45.09375 
Q 46.96875 40.921875 40.578125 39.3125 
z
" id="DejaVuSans-51"/>
      </defs>
      <g transform="translate(152.750878 89.998437)scale(0.1 -0.1)">
       <use xlink:href="#DejaVuSans-51"/>
       <use x="63.623047" xlink:href="#DejaVuSans-48"/>
      </g>
     </g>
    </g>
    <g id="xtick_8">
     <g id="line2d_8">
      <g>
       <use style="stroke:#000000;stroke-width:0.8;" x="178.332273" xlink:href="#mcbae296bdd" y="75.4"/>
      </g>
     </g>
     <g id="text_8">
      <!-- 35 -->
      <g transform="translate(171.969773 89.998437)scale(0.1 -0.1)">
       <use xlink:href="#DejaVuSans-51"/>
       <use x="63.623047" xlink:href="#DejaVuSans-53"/>
      </g>
     </g>
    </g>
    <g id="xtick_9">
     <g id="line2d_9">
      <g>
       <use style="stroke:#000000;stroke-width:0.8;" x="197.551169" xlink:href="#mcbae296bdd" y="75.4"/>
      </g>
     </g>
     <g id="text_9">
      <!-- 40 -->
      <defs>
       <path d="M 37.796875 64.3125 
L 12.890625 25.390625 
L 37.796875 25.390625 
z
M 35.203125 72.90625 
L 47.609375 72.90625 
L 47.609375 25.390625 
L 58.015625 25.390625 
L 58.015625 17.1875 
L 47.609375 17.1875 
L 47.609375 0 
L 37.796875 0 
L 37.796875 17.1875 
L 4.890625 17.1875 
L 4.890625 26.703125 
z
" id="DejaVuSans-52"/>
      </defs>
      <g transform="translate(191.188669 89.998437)scale(0.1 -0.1)">
       <use xlink:href="#DejaVuSans-52"/>
       <use x="63.623047" xlink:href="#DejaVuSans-48"/>
      </g>
     </g>
    </g>
    <g id="xtick_10">
     <g id="line2d_10">
      <g>
       <use style="stroke:#000000;stroke-width:0.8;" x="216.770064" xlink:href="#mcbae296bdd" y="75.4"/>
      </g>
     </g>
     <g id="text_10">
      <!-- 45 -->
      <g transform="translate(210.407564 89.998437)scale(0.1 -0.1)">
       <use xlink:href="#DejaVuSans-52"/>
       <use x="63.623047" xlink:href="#DejaVuSans-53"/>
      </g>
     </g>
    </g>
    <g id="xtick_11">
     <g id="line2d_11">
      <g>
       <use style="stroke:#000000;stroke-width:0.8;" x="235.98896" xlink:href="#mcbae296bdd" y="75.4"/>
      </g>
     </g>
     <g id="text_11">
      <!-- 50 -->
      <g transform="translate(229.62646 89.998437)scale(0.1 -0.1)">
       <use xlink:href="#DejaVuSans-53"/>
       <use x="63.623047" xlink:href="#DejaVuSans-48"/>
      </g>
     </g>
    </g>
    <g id="xtick_12">
     <g id="line2d_12">
      <g>
       <use style="stroke:#000000;stroke-width:0.8;" x="255.207856" xlink:href="#mcbae296bdd" y="75.4"/>
      </g>
     </g>
     <g id="text_12">
      <!-- 55 -->
      <g transform="translate(248.845356 89.998437)scale(0.1 -0.1)">
       <use xlink:href="#DejaVuSans-53"/>
       <use x="63.623047" xlink:href="#DejaVuSans-53"/>
      </g>
     </g>
    </g>
    <g id="xtick_13">
     <g id="line2d_13">
      <g>
       <use style="stroke:#000000;stroke-width:0.8;" x="274.426751" xlink:href="#mcbae296bdd" y="75.4"/>
      </g>
     </g>
     <g id="text_13">
      <!-- 60 -->
      <defs>
       <path d="M 33.015625 40.375 
Q 26.375 40.375 22.484375 35.828125 
Q 18.609375 31.296875 18.609375 23.390625 
Q 18.609375 15.53125 22.484375 10.953125 
Q 26.375 6.390625 33.015625 6.390625 
Q 39.65625 6.390625 43.53125 10.953125 
Q 47.40625 15.53125 47.40625 23.390625 
Q 47.40625 31.296875 43.53125 35.828125 
Q 39.65625 40.375 33.015625 40.375 
z
M 52.59375 71.296875 
L 52.59375 62.3125 
Q 48.875 64.0625 45.09375 64.984375 
Q 41.3125 65.921875 37.59375 65.921875 
Q 27.828125 65.921875 22.671875 59.328125 
Q 17.53125 52.734375 16.796875 39.40625 
Q 19.671875 43.65625 24.015625 45.921875 
Q 28.375 48.1875 33.59375 48.1875 
Q 44.578125 48.1875 50.953125 41.515625 
Q 57.328125 34.859375 57.328125 23.390625 
Q 57.328125 12.15625 50.6875 5.359375 
Q 44.046875 -1.421875 33.015625 -1.421875 
Q 20.359375 -1.421875 13.671875 8.265625 
Q 6.984375 17.96875 6.984375 36.375 
Q 6.984375 53.65625 15.1875 63.9375 
Q 23.390625 74.21875 37.203125 74.21875 
Q 40.921875 74.21875 44.703125 73.484375 
Q 48.484375 72.75 52.59375 71.296875 
z
" id="DejaVuSans-54"/>
      </defs>
      <g transform="translate(268.064251 89.998437)scale(0.1 -0.1)">
       <use xlink:href="#DejaVuSans-54"/>
       <use x="63.623047" xlink:href="#DejaVuSans-48"/>
      </g>
     </g>
    </g>
   </g>
   <g id="matplotlib.axis_2">
    <g id="ytick_1">
     <g id="line2d_14">
      <defs>
       <path d="M 0 0 
L -3.5 0 
" id="m690b3b7eca" style="stroke:#000000;stroke-width:0.8;"/>
      </defs>
      <g>
       <use style="stroke:#000000;stroke-width:0.8;" x="33.8" xlink:href="#m690b3b7eca" y="65.4"/>
      </g>
     </g>
     <g id="text_14">
      <!-- 0.0 -->
      <defs>
       <path d="M 10.6875 12.40625 
L 21 12.40625 
L 21 0 
L 10.6875 0 
z
" id="DejaVuSans-46"/>
      </defs>
      <g transform="translate(10.896875 69.199219)scale(0.1 -0.1)">
       <use xlink:href="#DejaVuSans-48"/>
       <use x="63.623047" xlink:href="#DejaVuSans-46"/>
       <use x="95.410156" xlink:href="#DejaVuSans-48"/>
      </g>
     </g>
    </g>
    <g id="ytick_2">
     <g id="line2d_15">
      <g>
       <use style="stroke:#000000;stroke-width:0.8;" x="33.8" xlink:href="#m690b3b7eca" y="46.1"/>
      </g>
     </g>
     <g id="text_15">
      <!-- 0.5 -->
      <g transform="translate(10.896875 49.899219)scale(0.1 -0.1)">
       <use xlink:href="#DejaVuSans-48"/>
       <use x="63.623047" xlink:href="#DejaVuSans-46"/>
       <use x="95.410156" xlink:href="#DejaVuSans-53"/>
      </g>
     </g>
    </g>
    <g id="ytick_3">
     <g id="line2d_16">
      <g>
       <use style="stroke:#000000;stroke-width:0.8;" x="33.8" xlink:href="#m690b3b7eca" y="26.8"/>
      </g>
     </g>
     <g id="text_16">
      <!-- 1.0 -->
      <g transform="translate(10.896875 30.599219)scale(0.1 -0.1)">
       <use xlink:href="#DejaVuSans-49"/>
       <use x="63.623047" xlink:href="#DejaVuSans-46"/>
       <use x="95.410156" xlink:href="#DejaVuSans-48"/>
      </g>
     </g>
    </g>
    <g id="ytick_4">
     <g id="line2d_17">
      <defs>
       <path d="M 0 0 
L -2 0 
" id="m66c1ee7dd5" style="stroke:#000000;stroke-width:0.6;"/>
      </defs>
      <g>
       <use style="stroke:#000000;stroke-width:0.6;" x="33.8" xlink:href="#m66c1ee7dd5" y="55.75"/>
      </g>
     </g>
    </g>
    <g id="ytick_5">
     <g id="line2d_18">
      <g>
       <use style="stroke:#000000;stroke-width:0.6;" x="33.8" xlink:href="#m66c1ee7dd5" y="36.45"/>
      </g>
     </g>
    </g>
   </g>
   <g id="line2d_19">
    <path clip-path="url(#p445d055e9b)" d="M 43.800008 38.315538 
L 44.184386 32.005596 
L 44.568764 30.742218 
L 44.953141 36.610576 
L 45.337519 29.655628 
L 45.721897 30.11767 
L 46.106275 32.109816 
L 46.490653 35.754428 
L 46.875031 35.65098 
L 47.259409 30.953746 
L 47.643787 31.817614 
L 48.412543 34.69563 
L 48.796921 33.018074 
L 49.181298 30.441524 
L 49.565676 31.81607 
L 49.950054 35.864824 
L 50.334432 34.692156 
L 50.71881 32.537504 
L 51.103188 37.452828 
L 51.487566 32.682254 
L 51.871944 34.798692 
L 52.256322 32.132204 
L 52.6407 30.917848 
L 53.025078 31.03635 
L 53.409455 30.516794 
L 53.793833 33.204898 
L 54.178211 33.627954 
L 54.562589 34.92144 
L 54.946967 32.649058 
L 55.331345 34.768198 
L 55.715723 32.657164 
L 56.100101 49.143224 
L 56.484479 33.380142 
L 57.253235 33.063236 
L 57.637613 32.612388 
L 58.02199 31.071862 
L 58.406368 32.848234 
L 58.790746 30.407942 
L 59.175124 34.457468 
L 59.559502 34.56053 
L 59.94388 32.759068 
L 60.328258 32.580736 
L 60.712636 34.982428 
L 61.097014 32.740154 
L 61.481392 34.584848 
L 61.86577 32.655234 
L 62.250147 35.662946 
L 63.018903 49.673588 
L 63.403281 35.298562 
L 63.787659 34.75353 
L 64.172037 32.791878 
L 64.556415 34.451292 
L 64.940793 35.522442 
L 65.325171 32.421704 
L 65.709549 34.816062 
L 66.093927 35.495422 
L 66.478305 32.98951 
L 66.862682 32.029914 
L 67.24706 35.00829 
L 67.631438 34.676716 
L 68.015816 34.654328 
L 68.400194 37.430054 
L 68.784572 38.304344 
L 69.16895 39.925158 
L 69.553328 37.084198 
L 69.937706 33.136576 
L 70.322084 39.888488 
L 70.706462 35.78608 
L 71.090839 36.23963 
L 71.475217 34.397252 
L 71.859595 38.80653 
L 72.243973 31.909868 
L 72.628351 36.129234 
L 73.012729 35.511634 
L 73.397107 34.255976 
L 73.781485 32.267304 
L 74.165863 33.72484 
L 74.550241 33.45464 
L 74.934619 31.356344 
L 75.318996 33.179422 
L 75.703374 33.124996 
L 76.087752 32.47227 
L 76.47213 31.454002 
L 76.856508 37.430054 
L 77.240886 32.806932 
L 77.625264 35.856332 
L 78.009642 35.437908 
L 78.39402 36.576608 
L 78.778398 38.431724 
L 79.162776 36.630648 
L 79.547154 35.596168 
L 79.931531 37.280672 
L 80.315909 39.922456 
L 80.700287 39.492452 
L 81.084665 59.44595 
L 81.469043 65.169172 
L 81.853421 64.786646 
L 82.237799 65.256408 
L 82.622177 57.92318 
L 83.006555 44.234076 
L 83.390933 45.699332 
L 83.775311 41.80382 
L 84.159688 35.003658 
L 84.544066 33.815164 
L 84.928444 33.173246 
L 85.312822 41.47379 
L 86.081578 34.150598 
L 86.465956 38.613916 
L 86.850334 40.73074 
L 87.234712 39.079046 
L 87.61909 39.245798 
L 88.003468 36.3342 
L 88.387846 34.766268 
L 88.772223 35.273086 
L 89.156601 38.297782 
L 89.540979 35.986028 
L 89.925357 37.612632 
L 90.309735 37.49606 
L 90.694113 37.875884 
L 91.078491 35.68958 
L 91.462869 36.640684 
L 91.847247 39.304856 
L 92.231625 38.19665 
L 92.616003 38.452568 
L 93.00038 41.71504 
L 93.384758 36.246578 
L 93.769136 36.001082 
L 94.153514 35.087034 
L 94.537892 36.107232 
L 94.92227 34.282224 
L 95.306648 35.408958 
L 95.691026 35.441382 
L 96.075404 38.061936 
L 96.459782 41.785678 
L 96.84416 38.994512 
L 97.228537 43.68171 
L 97.612915 39.827114 
L 97.997293 39.529122 
L 98.381671 36.189064 
L 98.766049 39.443816 
L 99.150427 39.930948 
L 99.919183 33.46622 
L 100.303561 34.301138 
L 100.687939 37.850022 
L 101.072317 38.49001 
L 101.456695 37.745416 
L 101.841072 35.883352 
L 102.609828 39.224182 
L 103.378584 35.175428 
L 103.762962 41.317846 
L 104.14734 34.756232 
L 104.531718 35.199746 
L 104.916096 39.12498 
L 105.300474 35.347584 
L 105.684852 35.183534 
L 106.069229 37.447038 
L 106.453607 35.727022 
L 106.837985 34.640818 
L 107.222363 37.367522 
L 107.606741 38.10787 
L 107.991119 41.542498 
L 109.144253 33.182896 
L 109.528631 35.561042 
L 109.913009 35.794186 
L 110.297387 33.1111 
L 110.681764 41.3908 
L 111.066142 43.624582 
L 111.45052 34.285698 
L 111.834898 33.357754 
L 112.219276 39.697804 
L 112.603654 34.076872 
L 112.988032 33.373966 
L 113.37241 37.014332 
L 113.756788 37.023982 
L 114.141166 37.594104 
L 114.525544 41.187764 
L 114.909921 36.310654 
L 115.294299 35.32095 
L 115.678677 35.964026 
L 116.063055 38.110958 
L 116.447433 38.302028 
L 116.831811 45.717474 
L 117.216189 33.37358 
L 117.600567 33.233848 
L 117.984945 35.616626 
L 118.753701 42.864934 
L 119.138078 42.184802 
L 119.522456 40.931074 
L 119.906834 38.279254 
L 120.291212 38.990266 
L 120.67559 36.951414 
L 121.059968 34.131298 
L 121.444346 38.940086 
L 122.213102 37.601052 
L 122.59748 34.917966 
L 122.981858 36.547658 
L 123.366236 39.417568 
L 124.134991 32.846304 
L 124.519369 34.164108 
L 124.903747 32.44139 
L 125.288125 35.592694 
L 125.672503 35.825066 
L 126.056881 37.587542 
L 126.441259 37.54045 
L 126.825637 37.065284 
L 127.210015 34.440098 
L 127.594393 32.976386 
L 127.97877 32.762542 
L 128.747526 38.88566 
L 129.131904 35.999924 
L 129.516282 41.067718 
L 129.90066 35.573008 
L 130.285038 35.254172 
L 130.669416 34.675172 
L 131.053794 34.525018 
L 131.438172 34.192286 
L 131.82255 34.650854 
L 132.206927 33.585108 
L 132.591305 33.054358 
L 132.975683 37.804088 
L 133.360061 37.913712 
L 133.744439 34.470206 
L 134.128817 33.505592 
L 134.513195 35.828154 
L 134.897573 36.856844 
L 135.666329 33.868818 
L 136.050707 34.29998 
L 136.435085 35.399308 
L 136.819462 37.674778 
L 137.20384 35.01601 
L 137.588218 35.400466 
L 137.972596 34.12821 
L 138.356974 35.249926 
L 138.741352 35.17427 
L 139.12573 38.520504 
L 139.510108 37.306534 
L 139.894486 34.438168 
L 140.278864 36.319146 
L 140.663242 34.10119 
L 141.047619 38.213248 
L 141.431997 37.487182 
L 141.816375 36.497092 
L 142.200753 32.825846 
L 143.353887 37.010086 
L 143.738265 40.511492 
L 144.122643 39.454238 
L 144.507021 35.104018 
L 144.891399 39.456554 
L 145.275777 35.617784 
L 145.660154 34.69949 
L 146.044532 36.040068 
L 146.42891 42.271652 
L 146.813288 34.24787 
L 147.197666 32.502378 
L 147.582044 32.647514 
L 147.966422 32.019878 
L 148.3508 33.617532 
L 148.735178 46.083402 
L 149.119556 48.656478 
L 149.503934 47.330568 
L 149.888311 38.15805 
L 150.272689 35.32481 
L 150.657067 33.714804 
L 151.425823 33.358526 
L 151.810201 39.532982 
L 152.194579 34.054484 
L 152.963335 33.62448 
L 153.347713 37.31657 
L 153.732091 33.47008 
L 154.116468 35.029134 
L 154.500846 32.674534 
L 154.885224 34.617658 
L 155.269602 33.201424 
L 155.65398 33.743368 
L 156.038358 35.652138 
L 156.422736 34.867014 
L 156.807114 32.957858 
L 157.191492 34.034026 
L 157.57587 35.522056 
L 157.960248 33.19988 
L 158.344626 36.499408 
L 158.729003 34.857364 
L 159.113381 35.97908 
L 159.497759 37.730748 
L 159.882137 37.45746 
L 160.266515 41.388484 
L 160.650893 35.230626 
L 161.035271 38.313994 
L 161.419649 35.25726 
L 161.804027 42.864548 
L 162.188405 47.023698 
L 162.572783 39.01111 
L 162.95716 52.206134 
L 163.341538 33.403302 
L 163.725916 33.662694 
L 164.110294 38.854008 
L 164.87905 53.627 
L 165.647806 36.568502 
L 166.032184 42.810894 
L 166.416562 41.878318 
L 166.80094 37.35517 
L 167.185318 47.549044 
L 167.569695 39.4608 
L 167.954073 43.542364 
L 168.338451 39.19639 
L 168.722829 49.499502 
L 169.107207 54.08634 
L 169.491585 51.514422 
L 169.875963 45.372776 
L 170.260341 44.948948 
L 170.644719 44.185054 
L 171.029097 44.81076 
L 171.413475 48.05702 
L 171.797852 38.874466 
L 172.566608 42.37703 
L 172.950986 39.647624 
L 173.335364 50.557528 
L 173.719742 41.728936 
L 174.10412 36.912042 
L 174.488498 37.724572 
L 174.872876 37.355942 
L 175.257254 43.07569 
L 175.641632 41.953974 
L 176.026009 38.525522 
L 176.410387 49.011598 
L 176.794765 48.730976 
L 177.179143 43.001578 
L 177.563521 51.80894 
L 177.947899 38.811548 
L 178.332277 44.117504 
L 178.716655 34.543932 
L 179.101033 37.242844 
L 179.485411 42.057036 
L 179.869789 37.139396 
L 180.638544 43.90945 
L 181.022922 39.935194 
L 181.4073 40.376778 
L 181.791678 38.136048 
L 182.176056 46.184534 
L 182.560434 44.446376 
L 182.944812 48.930152 
L 183.713568 35.855174 
L 184.097946 41.41589 
L 184.482324 38.752876 
L 184.866701 42.876128 
L 185.635457 34.045992 
L 186.019835 46.38178 
L 186.404213 47.98368 
L 186.788591 51.457294 
L 187.172969 40.820292 
L 187.557347 47.035664 
L 187.941725 45.575812 
L 188.326103 48.060494 
L 188.710481 42.11648 
L 189.094859 48.693534 
L 189.479236 51.898878 
L 189.863614 53.130218 
L 190.247992 45.794288 
L 190.63237 44.471466 
L 191.016748 41.903022 
L 191.401126 46.301106 
L 191.785504 40.904826 
L 192.169882 48.222614 
L 192.55426 43.631916 
L 192.938638 44.78567 
L 193.323016 38.963246 
L 193.707393 42.634492 
L 194.476149 33.720594 
L 194.860527 34.801008 
L 195.244905 33.805514 
L 195.629283 34.0568 
L 196.013661 36.927482 
L 196.398039 37.823388 
L 196.782417 34.172986 
L 197.166795 38.84706 
L 197.93555 35.887212 
L 198.319928 36.379748 
L 198.704306 34.16488 
L 199.088684 35.644418 
L 199.473062 36.477792 
L 199.85744 35.76871 
L 200.241818 39.523332 
L 200.626196 41.08972 
L 201.010574 45.415236 
L 201.394952 46.826838 
L 201.77933 43.522678 
L 202.163708 47.580696 
L 202.548085 48.752978 
L 202.932463 43.868534 
L 203.316841 58.568572 
L 203.701219 57.121844 
L 204.085597 43.316554 
L 204.469975 50.829272 
L 204.854353 41.809996 
L 205.238731 50.279608 
L 205.623109 52.229294 
L 206.007487 33.866116 
L 206.391865 51.913546 
L 206.776242 42.773838 
L 207.16062 43.301886 
L 207.544998 40.92374 
L 207.929376 34.939582 
L 208.313754 33.087168 
L 208.698132 32.098622 
L 209.08251 39.044306 
L 209.466888 34.250572 
L 210.235644 47.05921 
L 210.620022 43.169102 
L 211.0044 49.389878 
L 211.388777 49.993582 
L 211.773155 40.106964 
L 212.157533 37.53852 
L 212.541911 45.12728 
L 212.926289 45.91472 
L 213.310667 51.066276 
L 214.079423 38.71003 
L 214.463801 37.248634 
L 214.848179 43.853866 
L 215.232557 40.667822 
L 215.616934 39.822868 
L 216.001312 37.480234 
L 216.38569 38.705784 
L 216.770068 34.134772 
L 217.154446 51.495122 
L 217.538824 51.305596 
L 217.923202 44.312434 
L 218.30758 42.77075 
L 218.691958 50.958968 
L 219.076336 41.190466 
L 219.460714 38.95707 
L 219.845091 64.927922 
L 220.229469 64.53536 
L 220.613847 62.776744 
L 220.998225 32.322888 
L 221.382603 37.113148 
L 221.766981 36.964924 
L 222.151359 38.40702 
L 222.535737 37.614562 
L 222.920115 36.310654 
L 223.304493 32.200912 
L 224.457626 41.918462 
L 224.842004 36.838316 
L 225.226382 38.762526 
L 225.61076 39.56695 
L 225.995138 37.442406 
L 226.379516 45.245782 
L 226.763894 43.624196 
L 227.148272 34.538914 
L 227.53265 40.256346 
L 227.917028 41.506986 
L 228.301406 39.919368 
L 228.685783 43.817196 
L 229.070161 43.234722 
L 229.454539 36.504812 
L 229.838917 40.531564 
L 230.223295 35.28428 
L 230.607673 39.380512 
L 230.992051 36.316444 
L 231.376429 35.935076 
L 232.145185 43.574402 
L 232.529563 30.481668 
L 232.91394 33.612514 
L 233.298318 33.135032 
L 233.682696 42.265862 
L 234.067074 47.505426 
L 234.451452 47.39696 
L 234.83583 39.013812 
L 235.220208 38.131416 
L 235.604586 46.878176 
L 235.988964 39.26008 
L 236.373342 40.766252 
L 236.75772 43.02744 
L 237.142098 52.11002 
L 237.910853 42.84216 
L 238.295231 43.786316 
L 239.063987 31.09811 
L 239.448365 37.849636 
L 239.832743 40.266768 
L 240.217121 36.7781 
L 240.601499 44.297766 
L 240.985877 41.708864 
L 241.370255 54.725556 
L 241.754632 42.307936 
L 242.13901 54.70394 
L 242.523388 42.754152 
L 242.907766 35.647892 
L 243.292144 42.74566 
L 243.676522 37.927608 
L 244.0609 36.864178 
L 244.445278 35.389272 
L 244.829656 40.848084 
L 245.214034 53.539378 
L 245.598412 38.840112 
L 245.98279 38.417056 
L 246.367167 51.966042 
L 246.751545 58.006556 
L 247.135923 35.766008 
L 247.520301 42.338816 
L 247.904679 36.958362 
L 248.289057 37.470584 
L 248.673435 44.163052 
L 249.057813 38.5923 
L 249.442191 44.959756 
L 249.826569 47.69418 
L 250.210947 34.420798 
L 250.595324 56.46024 
L 250.979702 47.627016 
L 251.36408 46.377534 
L 251.748458 54.79658 
L 252.132836 41.191624 
L 252.517214 48.611702 
L 252.901592 45.411762 
L 253.28597 63.910812 
L 254.054726 37.643126 
L 254.439104 35.051522 
L 254.823481 37.570172 
L 255.207859 45.014954 
L 255.592237 36.791224 
L 255.976615 39.14235 
L 256.360993 37.530414 
L 256.745371 47.374958 
L 257.129749 49.692502 
L 257.514127 47.428226 
L 257.898505 35.095526 
L 258.282883 39.886944 
L 258.667261 55.416882 
L 259.051639 40.927214 
L 259.436016 43.311922 
L 259.820394 33.128084 
L 260.204772 43.518432 
L 260.58915 44.267272 
L 260.973528 39.906244 
L 261.357906 45.245396 
L 261.742284 39.713244 
L 262.126662 41.241804 
L 262.51104 33.75958 
L 263.279796 43.085726 
L 263.664173 49.909048 
L 264.048551 50.86324 
L 264.432929 37.580594 
L 264.817307 35.058856 
L 265.201685 33.908576 
L 265.586063 50.488434 
L 265.970441 47.882548 
L 266.354819 55.37944 
L 266.739197 56.149896 
L 267.123575 44.347946 
L 267.507953 41.297002 
L 267.892331 42.80549 
L 268.276708 41.771782 
L 268.661086 35.75134 
L 269.045464 41.79031 
L 269.429842 43.607598 
L 269.81422 49.383702 
L 270.198598 50.44443 
L 270.582976 55.18451 
L 270.967354 57.368498 
L 271.351732 53.494216 
L 271.73611 45.952934 
L 272.120488 53.074634 
L 272.504865 57.383938 
L 272.889243 63.950184 
L 273.273621 42.214138 
L 273.657999 39.086766 
L 274.042377 42.936344 
L 274.426755 58.955344 
L 274.811133 39.114558 
L 275.195511 40.576726 
L 275.579889 42.714394 
L 275.964267 49.844586 
L 276.348645 63.858702 
L 276.733022 62.35639 
L 277.1174 56.585304 
L 277.501778 53.437088 
L 277.886156 61.638044 
L 278.270534 53.408524 
L 278.654912 56.367986 
L 279.03929 56.96204 
L 279.423668 58.86309 
L 280.192424 63.946028 
L 280.192424 63.946028 
" style="fill:none;stroke:#1f77b4;stroke-linecap:square;stroke-width:1.5;"/>
   </g>
   <g id="patch_3">
    <path d="M 33.8 65.4 
L 33.8 26.8 
" style="fill:none;stroke:#000000;stroke-linecap:square;stroke-linejoin:miter;stroke-width:0.8;"/>
   </g>
   <g id="patch_4">
    <path d="M 43.8 75.4 
L 280.36579 75.4 
" style="fill:none;stroke:#000000;stroke-linecap:square;stroke-linejoin:miter;stroke-width:0.8;"/>
   </g>
   <g id="text_17">
    <!-- 2R -->
    <defs>
     <path d="M 28.8125 13.8125 
L 60.890625 13.8125 
L 60.890625 0 
L 7.90625 0 
L 7.90625 13.8125 
L 34.515625 37.3125 
Q 38.09375 40.53125 39.796875 43.609375 
Q 41.5 46.6875 41.5 50 
Q 41.5 55.125 38.0625 58.25 
Q 34.625 61.375 28.90625 61.375 
Q 24.515625 61.375 19.28125 59.5 
Q 14.0625 57.625 8.109375 53.90625 
L 8.109375 69.921875 
Q 14.453125 72.015625 20.65625 73.109375 
Q 26.859375 74.21875 32.8125 74.21875 
Q 45.90625 74.21875 53.15625 68.453125 
Q 60.40625 62.703125 60.40625 52.390625 
Q 60.40625 46.4375 57.328125 41.28125 
Q 54.25 36.140625 44.390625 27.484375 
z
" id="DejaVuSans-Bold-50"/>
     <path d="M 35.890625 40.578125 
Q 41.796875 40.578125 44.359375 42.765625 
Q 46.921875 44.96875 46.921875 50 
Q 46.921875 54.984375 44.359375 57.125 
Q 41.796875 59.28125 35.890625 59.28125 
L 27.984375 59.28125 
L 27.984375 40.578125 
z
M 27.984375 27.59375 
L 27.984375 0 
L 9.1875 0 
L 9.1875 72.90625 
L 37.890625 72.90625 
Q 52.296875 72.90625 59 68.0625 
Q 65.71875 63.234375 65.71875 52.78125 
Q 65.71875 45.5625 62.21875 40.921875 
Q 58.734375 36.28125 51.703125 34.078125 
Q 55.5625 33.203125 58.609375 30.09375 
Q 61.671875 27 64.796875 20.703125 
L 75 0 
L 54.984375 0 
L 46.09375 18.109375 
Q 43.40625 23.578125 40.640625 25.578125 
Q 37.890625 27.59375 33.296875 27.59375 
z
" id="DejaVuSans-Bold-82"/>
    </defs>
    <g transform="translate(153.288207 20.8)scale(0.12 -0.12)">
     <use xlink:href="#DejaVuSans-Bold-50"/>
     <use x="69.580078" xlink:href="#DejaVuSans-Bold-82"/>
    </g>
   </g>
  </g>
  <g id="axes_2">
   <g id="patch_5">
    <path d="M 295.63421 65.4 
L 532.2 65.4 
L 532.2 26.8 
L 295.63421 26.8 
z
" style="fill:#ffffff;"/>
   </g>
   <g id="matplotlib.axis_3">
    <g id="xtick_14">
     <g id="line2d_20">
      <g>
       <use style="stroke:#000000;stroke-width:0.8;" x="295.63421" xlink:href="#mcbae296bdd" y="75.4"/>
      </g>
     </g>
     <g id="text_18">
      <!-- 0 -->
      <g transform="translate(292.45296 89.998437)scale(0.1 -0.1)">
       <use xlink:href="#DejaVuSans-48"/>
      </g>
     </g>
    </g>
    <g id="xtick_15">
     <g id="line2d_21">
      <g>
       <use style="stroke:#000000;stroke-width:0.8;" x="314.853106" xlink:href="#mcbae296bdd" y="75.4"/>
      </g>
     </g>
     <g id="text_19">
      <!-- 5 -->
      <g transform="translate(311.671856 89.998437)scale(0.1 -0.1)">
       <use xlink:href="#DejaVuSans-53"/>
      </g>
     </g>
    </g>
    <g id="xtick_16">
     <g id="line2d_22">
      <g>
       <use style="stroke:#000000;stroke-width:0.8;" x="334.072002" xlink:href="#mcbae296bdd" y="75.4"/>
      </g>
     </g>
     <g id="text_20">
      <!-- 10 -->
      <g transform="translate(327.709502 89.998437)scale(0.1 -0.1)">
       <use xlink:href="#DejaVuSans-49"/>
       <use x="63.623047" xlink:href="#DejaVuSans-48"/>
      </g>
     </g>
    </g>
    <g id="xtick_17">
     <g id="line2d_23">
      <g>
       <use style="stroke:#000000;stroke-width:0.8;" x="353.290897" xlink:href="#mcbae296bdd" y="75.4"/>
      </g>
     </g>
     <g id="text_21">
      <!-- 15 -->
      <g transform="translate(346.928397 89.998437)scale(0.1 -0.1)">
       <use xlink:href="#DejaVuSans-49"/>
       <use x="63.623047" xlink:href="#DejaVuSans-53"/>
      </g>
     </g>
    </g>
    <g id="xtick_18">
     <g id="line2d_24">
      <g>
       <use style="stroke:#000000;stroke-width:0.8;" x="372.509793" xlink:href="#mcbae296bdd" y="75.4"/>
      </g>
     </g>
     <g id="text_22">
      <!-- 20 -->
      <g transform="translate(366.147293 89.998437)scale(0.1 -0.1)">
       <use xlink:href="#DejaVuSans-50"/>
       <use x="63.623047" xlink:href="#DejaVuSans-48"/>
      </g>
     </g>
    </g>
    <g id="xtick_19">
     <g id="line2d_25">
      <g>
       <use style="stroke:#000000;stroke-width:0.8;" x="391.728688" xlink:href="#mcbae296bdd" y="75.4"/>
      </g>
     </g>
     <g id="text_23">
      <!-- 25 -->
      <g transform="translate(385.366188 89.998437)scale(0.1 -0.1)">
       <use xlink:href="#DejaVuSans-50"/>
       <use x="63.623047" xlink:href="#DejaVuSans-53"/>
      </g>
     </g>
    </g>
    <g id="xtick_20">
     <g id="line2d_26">
      <g>
       <use style="stroke:#000000;stroke-width:0.8;" x="410.947584" xlink:href="#mcbae296bdd" y="75.4"/>
      </g>
     </g>
     <g id="text_24">
      <!-- 30 -->
      <g transform="translate(404.585084 89.998437)scale(0.1 -0.1)">
       <use xlink:href="#DejaVuSans-51"/>
       <use x="63.623047" xlink:href="#DejaVuSans-48"/>
      </g>
     </g>
    </g>
    <g id="xtick_21">
     <g id="line2d_27">
      <g>
       <use style="stroke:#000000;stroke-width:0.8;" x="430.16648" xlink:href="#mcbae296bdd" y="75.4"/>
      </g>
     </g>
     <g id="text_25">
      <!-- 35 -->
      <g transform="translate(423.80398 89.998437)scale(0.1 -0.1)">
       <use xlink:href="#DejaVuSans-51"/>
       <use x="63.623047" xlink:href="#DejaVuSans-53"/>
      </g>
     </g>
    </g>
    <g id="xtick_22">
     <g id="line2d_28">
      <g>
       <use style="stroke:#000000;stroke-width:0.8;" x="449.385375" xlink:href="#mcbae296bdd" y="75.4"/>
      </g>
     </g>
     <g id="text_26">
      <!-- 40 -->
      <g transform="translate(443.022875 89.998437)scale(0.1 -0.1)">
       <use xlink:href="#DejaVuSans-52"/>
       <use x="63.623047" xlink:href="#DejaVuSans-48"/>
      </g>
     </g>
    </g>
    <g id="xtick_23">
     <g id="line2d_29">
      <g>
       <use style="stroke:#000000;stroke-width:0.8;" x="468.604271" xlink:href="#mcbae296bdd" y="75.4"/>
      </g>
     </g>
     <g id="text_27">
      <!-- 45 -->
      <g transform="translate(462.241771 89.998437)scale(0.1 -0.1)">
       <use xlink:href="#DejaVuSans-52"/>
       <use x="63.623047" xlink:href="#DejaVuSans-53"/>
      </g>
     </g>
    </g>
   </g>
   <g id="matplotlib.axis_4">
    <g id="ytick_6">
     <g id="line2d_30">
      <defs>
       <path d="M 0 0 
L 3.5 0 
" id="mf36e1249f7" style="stroke:#000000;stroke-width:0.8;"/>
      </defs>
      <g>
       <use style="stroke:#000000;stroke-width:0.8;" x="542.2" xlink:href="#mf36e1249f7" y="65.4"/>
      </g>
     </g>
     <g id="text_28">
      <!-- 0.0 -->
      <g transform="translate(549.2 69.199219)scale(0.1 -0.1)">
       <use xlink:href="#DejaVuSans-48"/>
       <use x="63.623047" xlink:href="#DejaVuSans-46"/>
       <use x="95.410156" xlink:href="#DejaVuSans-48"/>
      </g>
     </g>
    </g>
    <g id="ytick_7">
     <g id="line2d_31">
      <g>
       <use style="stroke:#000000;stroke-width:0.8;" x="542.2" xlink:href="#mf36e1249f7" y="46.1"/>
      </g>
     </g>
     <g id="text_29">
      <!-- 0.5 -->
      <g transform="translate(549.2 49.899219)scale(0.1 -0.1)">
       <use xlink:href="#DejaVuSans-48"/>
       <use x="63.623047" xlink:href="#DejaVuSans-46"/>
       <use x="95.410156" xlink:href="#DejaVuSans-53"/>
      </g>
     </g>
    </g>
    <g id="ytick_8">
     <g id="line2d_32">
      <g>
       <use style="stroke:#000000;stroke-width:0.8;" x="542.2" xlink:href="#mf36e1249f7" y="26.8"/>
      </g>
     </g>
     <g id="text_30">
      <!-- 1.0 -->
      <g transform="translate(549.2 30.599219)scale(0.1 -0.1)">
       <use xlink:href="#DejaVuSans-49"/>
       <use x="63.623047" xlink:href="#DejaVuSans-46"/>
       <use x="95.410156" xlink:href="#DejaVuSans-48"/>
      </g>
     </g>
    </g>
    <g id="ytick_9">
     <g id="line2d_33">
      <defs>
       <path d="M 0 0 
L 2 0 
" id="mbcd27b49e8" style="stroke:#000000;stroke-width:0.6;"/>
      </defs>
      <g>
       <use style="stroke:#000000;stroke-width:0.6;" x="542.2" xlink:href="#mbcd27b49e8" y="55.75"/>
      </g>
     </g>
    </g>
    <g id="ytick_10">
     <g id="line2d_34">
      <g>
       <use style="stroke:#000000;stroke-width:0.6;" x="542.2" xlink:href="#mbcd27b49e8" y="36.45"/>
      </g>
     </g>
    </g>
   </g>
   <g id="line2d_35">
    <path clip-path="url(#p7aa85f9441)" d="M 295.634214 64.385978 
L 296.40297 60.491624 
L 296.787348 61.490592 
L 297.171726 57.508616 
L 297.556104 60.831304 
L 297.940482 63.020696 
L 298.32486 54.121466 
L 298.709237 61.529964 
L 299.093615 53.335184 
L 299.477993 59.479532 
L 299.862371 60.153874 
L 300.246749 57.018396 
L 300.631127 57.576552 
L 301.015505 60.317152 
L 301.399883 45.346528 
L 301.784261 57.660314 
L 302.168639 59.518518 
L 302.553017 60.3241 
L 302.937395 53.321288 
L 303.321772 49.738822 
L 303.70615 55.753474 
L 304.090528 59.012472 
L 304.474906 55.583248 
L 304.859284 50.398496 
L 305.243662 48.902746 
L 305.62804 48.82516 
L 306.012418 52.755026 
L 307.165552 39.611726 
L 307.549929 43.70101 
L 307.934307 38.996056 
L 308.318685 46.311142 
L 308.703063 37.544696 
L 309.087441 45.090224 
L 309.471819 39.556142 
L 309.856197 39.065536 
L 310.240575 43.410352 
L 310.624953 42.07209 
L 311.009331 64.177538 
L 311.393709 41.506986 
L 311.778086 40.638872 
L 312.162464 39.204882 
L 312.546842 32.832408 
L 313.315598 50.590724 
L 313.699976 40.647364 
L 314.084354 39.191758 
L 314.468732 41.8154 
L 314.85311 55.834534 
L 315.237488 65.351364 
L 315.621866 64.40026 
L 316.006244 64.711376 
L 316.390621 61.116558 
L 316.774999 53.93387 
L 317.543755 34.541616 
L 317.928133 44.176562 
L 318.312511 44.794162 
L 318.696889 46.872386 
L 319.081267 38.432882 
L 319.465645 41.81926 
L 319.850023 51.619028 
L 320.234401 37.689446 
L 320.618778 45.71207 
L 321.003156 35.138372 
L 321.387534 36.385152 
L 321.771912 33.146612 
L 322.15629 34.18611 
L 322.540668 39.208742 
L 322.925046 46.298018 
L 323.309424 44.698434 
L 324.07818 57.52174 
L 324.462558 46.167164 
L 324.846936 30.229224 
L 325.231313 42.458476 
L 325.615691 35.293544 
L 326.000069 31.596822 
L 326.384447 35.213642 
L 326.768825 36.325708 
L 327.153203 42.169362 
L 327.537581 50.75516 
L 327.921959 64.980804 
L 328.306337 58.162114 
L 328.690715 40.241292 
L 329.075093 45.184408 
L 329.843848 39.321454 
L 330.228226 40.609922 
L 330.612604 51.550706 
L 330.996982 50.3653 
L 331.38136 37.77205 
L 331.765738 40.323124 
L 332.150116 39.226498 
L 332.534494 37.31464 
L 332.918872 43.165628 
L 333.30325 33.590126 
L 333.687627 36.404838 
L 334.072005 35.68572 
L 334.456383 44.302398 
L 334.840761 34.12821 
L 335.225139 38.4765 
L 335.609517 39.82171 
L 335.993895 40.179532 
L 336.378273 35.916934 
L 336.762651 36.905094 
L 337.147029 34.76897 
L 337.531407 40.529634 
L 337.915785 40.103104 
L 338.300162 35.529004 
L 338.68454 38.325574 
L 339.068918 40.127422 
L 339.453296 45.61943 
L 339.837674 42.110304 
L 340.222052 36.937132 
L 340.60643 35.662946 
L 340.990808 31.97047 
L 341.375186 33.874608 
L 341.759564 38.295466 
L 342.143942 39.954108 
L 342.528319 36.28595 
L 342.912697 42.573118 
L 343.681453 39.181336 
L 344.065831 36.11032 
L 344.450209 36.15085 
L 344.834587 40.278348 
L 345.218965 34.035184 
L 345.603343 47.332112 
L 345.987721 40.619572 
L 346.372099 39.189828 
L 346.756476 41.654438 
L 347.140854 58.151692 
L 347.525232 41.341778 
L 347.90961 40.12086 
L 348.293988 39.293662 
L 348.678366 39.454624 
L 349.062744 41.36957 
L 349.447122 36.732938 
L 349.8315 37.676708 
L 350.215878 41.359534 
L 350.600256 36.477406 
L 350.984634 37.381418 
L 351.369011 41.396204 
L 351.753389 35.8131 
L 352.522145 39.243482 
L 352.906523 44.202424 
L 353.290901 36.959134 
L 353.675279 40.653926 
L 354.059657 31.780172 
L 354.444035 35.373446 
L 354.828413 36.443052 
L 355.212791 34.615728 
L 355.597168 36.923236 
L 355.981546 38.23139 
L 356.365924 44.517786 
L 356.750302 37.77977 
L 357.13468 40.650452 
L 357.519058 45.37046 
L 357.903436 43.907134 
L 358.287814 36.816314 
L 358.672192 40.982026 
L 359.05657 36.093336 
L 359.440948 36.460036 
L 359.825326 37.073004 
L 360.209703 38.083552 
L 360.594081 37.00005 
L 360.978459 44.205512 
L 361.362837 33.179808 
L 361.747215 34.51421 
L 362.131593 38.027196 
L 362.515971 38.372666 
L 362.900349 42.412928 
L 363.284727 37.663584 
L 363.669105 39.77925 
L 364.053483 42.987682 
L 364.43786 37.953856 
L 364.822238 43.447408 
L 365.206616 39.417182 
L 365.590994 40.216588 
L 365.975372 43.485622 
L 366.35975 42.305234 
L 366.744128 45.020358 
L 367.128506 41.821576 
L 367.512884 43.29764 
L 367.897262 39.772688 
L 368.28164 43.328134 
L 368.666017 42.3751 
L 369.050395 49.738436 
L 369.434773 36.202574 
L 369.819151 42.485496 
L 370.587907 37.230106 
L 370.972285 38.859412 
L 371.356663 41.798416 
L 371.741041 36.28402 
L 372.125419 38.097062 
L 372.509797 36.28402 
L 373.278552 36.83407 
L 373.66293 42.532974 
L 374.047308 37.19884 
L 374.431686 43.60837 
L 374.816064 46.292614 
L 375.200442 47.904164 
L 375.58482 42.53143 
L 375.969198 39.583548 
L 376.353576 38.071586 
L 376.737954 38.846288 
L 377.122332 38.492712 
L 377.506709 38.94356 
L 378.275465 38.321714 
L 378.659843 37.919502 
L 379.044221 36.91706 
L 379.428599 39.823254 
L 379.812977 36.872284 
L 380.197355 39.838308 
L 380.581733 36.215698 
L 380.966111 34.947302 
L 381.350489 35.944726 
L 381.734867 36.45965 
L 382.119244 42.297128 
L 382.503622 35.10865 
L 382.888 39.684294 
L 383.656756 35.974448 
L 384.425512 38.761368 
L 384.80989 36.839088 
L 385.194268 38.686098 
L 385.578646 39.302926 
L 385.963024 40.444328 
L 386.347401 35.267296 
L 387.116157 38.471096 
L 387.500535 38.573772 
L 387.884913 36.388626 
L 388.269291 36.571976 
L 388.653669 38.014844 
L 389.038047 34.831116 
L 389.422425 37.274882 
L 389.806803 33.833692 
L 390.191181 36.791996 
L 390.575558 38.13875 
L 390.959936 38.698836 
L 391.344314 41.631278 
L 391.728692 37.169504 
L 392.497448 44.62355 
L 392.881826 43.77821 
L 393.266204 36.731394 
L 393.650582 36.951414 
L 394.03496 36.736798 
L 394.419338 36.059368 
L 394.803716 39.59976 
L 395.188093 37.442792 
L 395.572471 38.555244 
L 395.956849 43.890536 
L 396.341227 36.56966 
L 396.725605 38.188158 
L 397.109983 33.119592 
L 397.494361 40.449346 
L 397.878739 39.35079 
L 398.263117 36.406382 
L 398.647495 38.225986 
L 399.031873 34.708368 
L 399.41625 36.311426 
L 399.800628 36.64686 
L 400.569384 40.73846 
L 400.953762 38.335224 
L 401.722518 37.466724 
L 402.106896 33.495556 
L 402.491274 38.41474 
L 402.875652 35.964798 
L 403.26003 34.380654 
L 403.644408 36.97689 
L 404.028785 44.81462 
L 404.413163 42.108374 
L 405.181919 34.609552 
L 405.566297 34.196532 
L 405.950675 37.93224 
L 406.335053 35.91153 
L 406.719431 36.888882 
L 407.103809 43.744242 
L 407.488187 37.657408 
L 407.872565 41.597696 
L 408.256942 38.818882 
L 408.64132 38.815022 
L 409.025698 41.833928 
L 409.410076 38.647112 
L 409.794454 40.194586 
L 410.178832 38.027582 
L 410.56321 44.465676 
L 410.947588 65.4 
L 411.331966 48.011472 
L 411.716344 37.97663 
L 412.100722 42.092162 
L 412.485099 43.141696 
L 413.253855 35.11058 
L 413.638233 37.044826 
L 414.022611 35.61624 
L 414.406989 33.256236 
L 415.175745 40.818748 
L 415.560123 38.612372 
L 416.713257 43.498746 
L 417.097634 42.933642 
L 417.482012 41.866738 
L 417.86639 42.285934 
L 418.250768 32.785316 
L 418.635146 37.161012 
L 419.019524 39.666538 
L 419.403902 35.601572 
L 419.78828 41.743218 
L 420.557036 38.707714 
L 420.941414 36.89776 
L 421.325791 39.953336 
L 421.710169 39.243482 
L 422.094547 40.470576 
L 422.478925 40.21157 
L 422.863303 38.745542 
L 423.247681 39.619446 
L 423.632059 39.64222 
L 424.016437 40.444328 
L 424.400815 37.570944 
L 424.785193 35.914618 
L 425.169571 39.530666 
L 425.553949 39.590496 
L 425.938326 37.08883 
L 426.322704 36.761502 
L 426.707082 41.654824 
L 427.09146 40.688666 
L 428.244594 35.109422 
L 428.628972 37.458232 
L 429.01335 34.532738 
L 429.397728 35.478052 
L 429.782106 35.14146 
L 430.166483 34.003918 
L 430.550861 34.999412 
L 430.935239 37.927608 
L 431.319617 37.056406 
L 431.703995 34.121648 
L 432.088373 33.139664 
L 432.472751 35.75906 
L 432.857129 36.331498 
L 433.241507 35.094754 
L 433.625885 36.522568 
L 434.010263 35.656384 
L 434.39464 37.697938 
L 434.779018 34.503402 
L 435.163396 34.042132 
L 435.547774 36.420278 
L 435.932152 37.797912 
L 436.31653 36.190222 
L 436.700908 35.074682 
L 437.085286 37.527712 
L 437.469664 34.904456 
L 437.854042 46.306124 
L 438.23842 40.6381 
L 438.622798 37.788262 
L 439.007175 62.175356 
L 439.391553 41.739358 
L 439.775931 39.77925 
L 440.160309 38.901486 
L 440.544687 39.458098 
L 440.929065 37.8203 
L 441.313443 34.511122 
L 441.697821 36.262018 
L 442.082199 36.302934 
L 442.466577 36.519866 
L 442.850955 36.076352 
L 443.235332 34.522702 
L 443.61971 38.014458 
L 444.004088 37.132834 
L 444.388466 35.534794 
L 444.772844 36.620226 
L 445.157222 33.505592 
L 445.5416 36.879618 
L 445.925978 41.859404 
L 446.310356 39.816306 
L 446.694734 35.689966 
L 447.079112 36.53878 
L 447.463489 38.043408 
L 447.847867 39.077888 
L 448.232245 37.856198 
L 448.616623 34.920668 
L 449.001001 41.407012 
L 449.385379 41.962852 
L 449.769757 36.10453 
L 450.154135 37.200384 
L 450.538513 42.90971 
L 450.922891 39.977268 
L 451.307269 40.182234 
L 451.691647 35.339478 
L 452.076024 38.600406 
L 452.460402 37.250178 
L 452.84478 37.230106 
L 453.229158 44.429392 
L 453.613536 39.615972 
L 453.997914 38.637848 
L 454.382292 36.140042 
L 454.76667 38.239496 
L 455.151048 37.975086 
L 455.535426 39.15007 
L 455.919804 41.711566 
L 456.304181 37.168732 
L 456.688559 42.616736 
L 457.072937 34.571724 
L 457.457315 44.589968 
L 457.841693 36.0061 
L 458.226071 32.649444 
L 458.610449 34.735002 
L 458.994827 32.992598 
L 459.379205 32.70966 
L 459.763583 33.111872 
L 460.147961 36.304864 
L 460.532339 36.09681 
L 460.916716 35.073524 
L 461.301094 35.822364 
L 461.685472 32.533258 
L 462.06985 34.013568 
L 462.454228 36.868038 
L 463.222984 33.311048 
L 463.607362 34.771286 
L 463.99174 35.346812 
L 464.376118 34.991306 
L 464.760496 34.425816 
L 465.144873 40.9083 
L 465.529251 36.584714 
L 465.913629 34.42929 
L 466.298007 41.371114 
L 466.682385 31.963136 
L 467.066763 33.586266 
L 467.451141 36.788908 
L 467.835519 44.495012 
L 468.219897 37.369066 
L 468.604275 44.176948 
L 468.988653 34.069538 
L 469.37303 33.185598 
L 469.757408 35.129494 
L 470.141786 33.073658 
L 470.526164 33.324172 
L 470.910542 36.450386 
L 471.29492 33.987706 
L 471.679298 33.78467 
L 472.063676 36.808594 
L 472.448054 33.279782 
L 472.832432 32.382718 
L 473.21681 32.018334 
L 473.601188 39.48975 
L 474.369943 34.485646 
L 474.754321 34.027078 
L 475.138699 36.240788 
L 475.523077 33.207986 
L 475.907455 33.294064 
L 476.291833 34.584848 
L 476.676211 32.699238 
L 477.060589 34.293418 
L 477.444967 33.613672 
L 477.829345 33.433796 
L 478.213722 33.568124 
L 478.5981 36.858774 
L 478.982478 33.990408 
L 479.366856 32.533644 
L 479.751234 32.965578 
L 480.135612 32.621652 
L 480.51999 34.783252 
L 481.288746 32.20979 
L 481.673124 32.70001 
L 482.057502 34.112384 
L 482.44188 32.229476 
L 482.826257 32.509326 
L 483.210635 32.53017 
L 483.595013 34.13207 
L 483.979391 33.615988 
L 484.363769 30.088334 
L 484.748147 30.442296 
L 485.132525 34.506798 
L 485.132525 34.506798 
" style="fill:none;stroke:#1f77b4;stroke-linecap:square;stroke-width:1.5;"/>
   </g>
   <g id="patch_6">
    <path d="M 542.2 65.4 
L 542.2 26.8 
" style="fill:none;stroke:#000000;stroke-linecap:square;stroke-linejoin:miter;stroke-width:0.8;"/>
   </g>
   <g id="patch_7">
    <path d="M 295.63421 75.4 
L 532.2 75.4 
" style="fill:none;stroke:#000000;stroke-linecap:square;stroke-linejoin:miter;stroke-width:0.8;"/>
   </g>
   <g id="text_31">
    <!-- 2L -->
    <defs>
     <path d="M 9.1875 72.90625 
L 27.984375 72.90625 
L 27.984375 14.203125 
L 60.984375 14.203125 
L 60.984375 0 
L 9.1875 0 
z
" id="DejaVuSans-Bold-76"/>
    </defs>
    <g transform="translate(405.919293 20.8)scale(0.12 -0.12)">
     <use xlink:href="#DejaVuSans-Bold-50"/>
     <use x="69.580078" xlink:href="#DejaVuSans-Bold-76"/>
    </g>
   </g>
  </g>
  <g id="axes_3">
   <g id="patch_8">
    <path d="M 43.8 157.8 
L 280.36579 157.8 
L 280.36579 119.2 
L 43.8 119.2 
z
" style="fill:#ffffff;"/>
   </g>
   <g id="matplotlib.axis_5">
    <g id="xtick_24">
     <g id="line2d_36">
      <g>
       <use style="stroke:#000000;stroke-width:0.8;" x="75.874115" xlink:href="#mcbae296bdd" y="167.8"/>
      </g>
     </g>
     <g id="text_32">
      <!-- 0 -->
      <g transform="translate(72.692865 182.398438)scale(0.1 -0.1)">
       <use xlink:href="#DejaVuSans-48"/>
      </g>
     </g>
    </g>
    <g id="xtick_25">
     <g id="line2d_37">
      <g>
       <use style="stroke:#000000;stroke-width:0.8;" x="95.093011" xlink:href="#mcbae296bdd" y="167.8"/>
      </g>
     </g>
     <g id="text_33">
      <!-- 5 -->
      <g transform="translate(91.911761 182.398438)scale(0.1 -0.1)">
       <use xlink:href="#DejaVuSans-53"/>
      </g>
     </g>
    </g>
    <g id="xtick_26">
     <g id="line2d_38">
      <g>
       <use style="stroke:#000000;stroke-width:0.8;" x="114.311906" xlink:href="#mcbae296bdd" y="167.8"/>
      </g>
     </g>
     <g id="text_34">
      <!-- 10 -->
      <g transform="translate(107.949406 182.398438)scale(0.1 -0.1)">
       <use xlink:href="#DejaVuSans-49"/>
       <use x="63.623047" xlink:href="#DejaVuSans-48"/>
      </g>
     </g>
    </g>
    <g id="xtick_27">
     <g id="line2d_39">
      <g>
       <use style="stroke:#000000;stroke-width:0.8;" x="133.530802" xlink:href="#mcbae296bdd" y="167.8"/>
      </g>
     </g>
     <g id="text_35">
      <!-- 15 -->
      <g transform="translate(127.168302 182.398438)scale(0.1 -0.1)">
       <use xlink:href="#DejaVuSans-49"/>
       <use x="63.623047" xlink:href="#DejaVuSans-53"/>
      </g>
     </g>
    </g>
    <g id="xtick_28">
     <g id="line2d_40">
      <g>
       <use style="stroke:#000000;stroke-width:0.8;" x="152.749698" xlink:href="#mcbae296bdd" y="167.8"/>
      </g>
     </g>
     <g id="text_36">
      <!-- 20 -->
      <g transform="translate(146.387198 182.398438)scale(0.1 -0.1)">
       <use xlink:href="#DejaVuSans-50"/>
       <use x="63.623047" xlink:href="#DejaVuSans-48"/>
      </g>
     </g>
    </g>
    <g id="xtick_29">
     <g id="line2d_41">
      <g>
       <use style="stroke:#000000;stroke-width:0.8;" x="171.968593" xlink:href="#mcbae296bdd" y="167.8"/>
      </g>
     </g>
     <g id="text_37">
      <!-- 25 -->
      <g transform="translate(165.606093 182.398438)scale(0.1 -0.1)">
       <use xlink:href="#DejaVuSans-50"/>
       <use x="63.623047" xlink:href="#DejaVuSans-53"/>
      </g>
     </g>
    </g>
    <g id="xtick_30">
     <g id="line2d_42">
      <g>
       <use style="stroke:#000000;stroke-width:0.8;" x="191.187489" xlink:href="#mcbae296bdd" y="167.8"/>
      </g>
     </g>
     <g id="text_38">
      <!-- 30 -->
      <g transform="translate(184.824989 182.398438)scale(0.1 -0.1)">
       <use xlink:href="#DejaVuSans-51"/>
       <use x="63.623047" xlink:href="#DejaVuSans-48"/>
      </g>
     </g>
    </g>
    <g id="xtick_31">
     <g id="line2d_43">
      <g>
       <use style="stroke:#000000;stroke-width:0.8;" x="210.406384" xlink:href="#mcbae296bdd" y="167.8"/>
      </g>
     </g>
     <g id="text_39">
      <!-- 35 -->
      <g transform="translate(204.043884 182.398438)scale(0.1 -0.1)">
       <use xlink:href="#DejaVuSans-51"/>
       <use x="63.623047" xlink:href="#DejaVuSans-53"/>
      </g>
     </g>
    </g>
    <g id="xtick_32">
     <g id="line2d_44">
      <g>
       <use style="stroke:#000000;stroke-width:0.8;" x="229.62528" xlink:href="#mcbae296bdd" y="167.8"/>
      </g>
     </g>
     <g id="text_40">
      <!-- 40 -->
      <g transform="translate(223.26278 182.398438)scale(0.1 -0.1)">
       <use xlink:href="#DejaVuSans-52"/>
       <use x="63.623047" xlink:href="#DejaVuSans-48"/>
      </g>
     </g>
    </g>
    <g id="xtick_33">
     <g id="line2d_45">
      <g>
       <use style="stroke:#000000;stroke-width:0.8;" x="248.844176" xlink:href="#mcbae296bdd" y="167.8"/>
      </g>
     </g>
     <g id="text_41">
      <!-- 45 -->
      <g transform="translate(242.481676 182.398438)scale(0.1 -0.1)">
       <use xlink:href="#DejaVuSans-52"/>
       <use x="63.623047" xlink:href="#DejaVuSans-53"/>
      </g>
     </g>
    </g>
    <g id="xtick_34">
     <g id="line2d_46">
      <g>
       <use style="stroke:#000000;stroke-width:0.8;" x="268.063071" xlink:href="#mcbae296bdd" y="167.8"/>
      </g>
     </g>
     <g id="text_42">
      <!-- 50 -->
      <g transform="translate(261.700571 182.398438)scale(0.1 -0.1)">
       <use xlink:href="#DejaVuSans-53"/>
       <use x="63.623047" xlink:href="#DejaVuSans-48"/>
      </g>
     </g>
    </g>
   </g>
   <g id="matplotlib.axis_6">
    <g id="ytick_11">
     <g id="line2d_47">
      <g>
       <use style="stroke:#000000;stroke-width:0.8;" x="33.8" xlink:href="#m690b3b7eca" y="157.8"/>
      </g>
     </g>
     <g id="text_43">
      <!-- 0.0 -->
      <g transform="translate(10.896875 161.599219)scale(0.1 -0.1)">
       <use xlink:href="#DejaVuSans-48"/>
       <use x="63.623047" xlink:href="#DejaVuSans-46"/>
       <use x="95.410156" xlink:href="#DejaVuSans-48"/>
      </g>
     </g>
    </g>
    <g id="ytick_12">
     <g id="line2d_48">
      <g>
       <use style="stroke:#000000;stroke-width:0.8;" x="33.8" xlink:href="#m690b3b7eca" y="138.5"/>
      </g>
     </g>
     <g id="text_44">
      <!-- 0.5 -->
      <g transform="translate(10.896875 142.299219)scale(0.1 -0.1)">
       <use xlink:href="#DejaVuSans-48"/>
       <use x="63.623047" xlink:href="#DejaVuSans-46"/>
       <use x="95.410156" xlink:href="#DejaVuSans-53"/>
      </g>
     </g>
    </g>
    <g id="ytick_13">
     <g id="line2d_49">
      <g>
       <use style="stroke:#000000;stroke-width:0.8;" x="33.8" xlink:href="#m690b3b7eca" y="119.2"/>
      </g>
     </g>
     <g id="text_45">
      <!-- 1.0 -->
      <g transform="translate(10.896875 122.999219)scale(0.1 -0.1)">
       <use xlink:href="#DejaVuSans-49"/>
       <use x="63.623047" xlink:href="#DejaVuSans-46"/>
       <use x="95.410156" xlink:href="#DejaVuSans-48"/>
      </g>
     </g>
    </g>
    <g id="ytick_14">
     <g id="line2d_50">
      <g>
       <use style="stroke:#000000;stroke-width:0.6;" x="33.8" xlink:href="#m66c1ee7dd5" y="148.15"/>
      </g>
     </g>
    </g>
    <g id="ytick_15">
     <g id="line2d_51">
      <g>
       <use style="stroke:#000000;stroke-width:0.6;" x="33.8" xlink:href="#m66c1ee7dd5" y="128.85"/>
      </g>
     </g>
    </g>
   </g>
   <g id="line2d_52">
    <path clip-path="url(#pc7b2211e21)" d="M 75.874119 130.061268 
L 76.642875 123.290056 
L 77.027253 125.823374 
L 77.411631 124.878832 
L 77.796008 122.971606 
L 78.180386 125.131662 
L 78.564764 123.599628 
L 78.949142 123.45758 
L 79.33352 127.476612 
L 79.717898 123.984856 
L 80.102276 126.14607 
L 80.486654 126.644396 
L 80.871032 126.351422 
L 81.25541 127.395938 
L 81.639788 124.494376 
L 82.024166 124.567716 
L 82.408543 125.796354 
L 82.792921 127.88114 
L 83.177299 123.576082 
L 83.561677 124.18712 
L 83.946055 132.2082 
L 84.330433 133.797748 
L 85.099189 125.464394 
L 85.483567 124.91666 
L 85.867945 124.945224 
L 86.252323 126.437114 
L 86.6367 125.40302 
L 87.021078 125.61725 
L 87.405456 134.691338 
L 87.789834 126.656362 
L 88.174212 126.791848 
L 88.55859 125.885906 
L 88.942968 132.982902 
L 89.327346 123.9671 
L 89.711724 124.477006 
L 90.096102 124.08869 
L 90.48048 124.36661 
L 90.864857 124.79507 
L 91.249235 123.83007 
L 91.633613 124.512132 
L 92.017991 126.835466 
L 92.402369 126.4375 
L 92.786747 127.855278 
L 93.171125 124.388612 
L 93.555503 124.805878 
L 93.939881 126.730474 
L 94.324259 124.990772 
L 94.708637 127.739478 
L 95.093015 125.72726 
L 95.477392 126.453712 
L 95.86177 125.837656 
L 96.246148 124.939434 
L 96.630526 124.590104 
L 97.014904 124.56347 
L 97.399282 126.092416 
L 97.78366 123.6583 
L 98.168038 132.545564 
L 98.552416 132.431694 
L 98.936794 128.108494 
L 99.321172 129.512376 
L 99.705549 126.771776 
L 100.474305 132.219394 
L 100.858683 128.744236 
L 101.243061 126.490382 
L 101.627439 124.988456 
L 102.011817 125.889766 
L 102.780573 136.126486 
L 103.164951 126.340228 
L 103.549329 124.908554 
L 103.933707 124.175926 
L 104.318084 130.493202 
L 105.08684 126.444834 
L 105.471218 133.341496 
L 105.855596 151.141114 
L 106.239974 136.578106 
L 107.00873 124.639512 
L 107.393108 123.650966 
L 107.777486 126.662924 
L 108.161864 127.586236 
L 108.546241 124.90894 
L 108.930619 126.521262 
L 109.314997 129.176942 
L 109.699375 125.277956 
L 110.083753 127.900826 
L 110.468131 131.359 
L 110.852509 132.866716 
L 111.236887 127.465418 
L 111.621265 124.65997 
L 112.390021 126.118278 
L 112.774398 129.49269 
L 113.158776 135.422036 
L 113.543154 143.506034 
L 113.927532 129.67604 
L 114.31191 126.078134 
L 114.696288 126.379986 
L 115.080666 125.69638 
L 115.465044 126.74051 
L 115.849422 128.79596 
L 116.2338 124.804334 
L 116.618178 130.587772 
L 117.002556 133.10951 
L 117.386933 133.294018 
L 117.771311 131.153648 
L 118.155689 149.996238 
L 118.540067 128.77859 
L 118.924445 125.318486 
L 119.308823 128.623804 
L 119.693201 136.63562 
L 120.077579 131.03283 
L 120.461957 132.633958 
L 121.230713 138.488806 
L 121.61509 135.110148 
L 121.999468 135.83853 
L 122.383846 140.79477 
L 122.768224 142.491626 
L 123.152602 134.731096 
L 123.53698 146.689762 
L 123.921358 133.99538 
L 124.305736 129.76289 
L 125.074492 132.004392 
L 125.45887 129.833914 
L 125.843248 131.271764 
L 126.227625 133.693914 
L 126.612003 134.476336 
L 126.996381 131.087642 
L 127.380759 132.215148 
L 127.765137 131.02125 
L 128.533893 129.52936 
L 128.918271 133.201378 
L 129.302649 131.661238 
L 129.687027 136.538348 
L 130.071405 134.480968 
L 130.455782 137.891278 
L 130.84016 137.624552 
L 131.224538 135.68799 
L 131.608916 136.715522 
L 131.993294 133.8487 
L 132.377672 135.22093 
L 132.76205 133.256576 
L 133.146428 135.142572 
L 133.530806 134.70176 
L 133.915184 131.748088 
L 134.299562 139.332602 
L 135.068317 130.94405 
L 135.452695 135.28462 
L 135.837073 129.696498 
L 136.221451 131.795566 
L 136.605829 133.044662 
L 136.990207 136.620952 
L 137.374585 130.249636 
L 138.143341 134.851914 
L 138.527719 131.619936 
L 138.912097 137.350106 
L 139.680852 129.852828 
L 140.06523 130.327222 
L 140.449608 140.492918 
L 140.833986 142.659536 
L 141.218364 136.312924 
L 141.602742 133.170112 
L 141.98712 135.22479 
L 142.755876 131.869292 
L 143.140254 131.336612 
L 143.524631 132.7293 
L 143.909009 129.530132 
L 144.293387 131.32812 
L 144.677765 129.933116 
L 145.062143 129.36917 
L 145.446521 129.919992 
L 145.830899 128.818348 
L 146.215277 131.475958 
L 146.599655 125.783616 
L 146.984033 127.338424 
L 147.368411 138.00013 
L 147.752788 157.8 
L 148.137166 157.508184 
L 148.521544 137.192232 
L 148.905922 129.304708 
L 149.2903 127.160864 
L 149.674678 139.863352 
L 150.059056 128.844596 
L 150.443434 132.547108 
L 150.827812 139.412504 
L 151.21219 133.237276 
L 151.596568 131.686328 
L 151.980946 133.8487 
L 152.365323 129.317446 
L 152.749701 137.256694 
L 153.134079 130.912398 
L 153.518457 133.967202 
L 153.902835 134.774714 
L 154.287213 136.07399 
L 154.671591 131.948808 
L 155.055969 133.347286 
L 155.440347 134.16522 
L 155.824725 128.864668 
L 156.209103 131.868906 
L 156.59348 137.731474 
L 156.977858 131.699066 
L 157.746614 136.412512 
L 158.51537 129.669092 
L 158.899748 125.649288 
L 159.284126 127.24038 
L 159.668504 136.92705 
L 160.052882 129.688392 
L 160.43726 129.554064 
L 160.821638 131.184914 
L 161.206015 127.900054 
L 161.590393 129.789524 
L 161.974771 130.085972 
L 162.359149 128.508004 
L 162.743527 129.476092 
L 163.127905 131.7064 
L 163.512283 126.881786 
L 163.896661 132.49577 
L 164.281039 128.907128 
L 164.665417 129.889498 
L 165.049795 133.565376 
L 165.434172 131.639236 
L 165.81855 133.194044 
L 166.202928 133.212958 
L 166.587306 151.1801 
L 167.356062 128.254402 
L 167.74044 139.606276 
L 168.509196 131.797882 
L 168.893574 134.405312 
L 169.277952 134.601014 
L 169.662329 128.72841 
L 170.046707 129.67025 
L 170.431085 127.521774 
L 170.815463 129.557152 
L 171.199841 142.970266 
L 171.584219 133.463086 
L 171.968597 126.872136 
L 172.352975 132.050326 
L 172.737353 146.349696 
L 173.121731 132.417026 
L 173.506109 125.562438 
L 173.890487 126.488066 
L 174.274864 129.562942 
L 174.659242 131.217338 
L 175.04362 126.333666 
L 175.427998 128.177588 
L 175.812376 128.360938 
L 176.196754 129.088934 
L 176.581132 128.766624 
L 176.96551 127.918582 
L 177.349888 129.80921 
L 177.734266 129.559854 
L 178.118644 134.406084 
L 178.503021 129.57375 
L 178.887399 133.869158 
L 179.271777 131.332752 
L 179.656155 132.239466 
L 180.040533 130.014948 
L 180.809289 133.190184 
L 181.193667 129.462582 
L 181.578045 128.859264 
L 181.962423 126.440588 
L 182.346801 128.281808 
L 182.731179 124.049318 
L 183.115556 127.397868 
L 183.499934 125.464008 
L 183.884312 132.632028 
L 184.26869 136.321802 
L 184.653068 130.327222 
L 185.421824 132.33365 
L 186.19058 126.952424 
L 186.574958 133.73676 
L 186.959336 129.149536 
L 187.343713 128.204222 
L 187.728091 139.315618 
L 188.112469 130.124186 
L 188.496847 131.915998 
L 188.881225 147.345962 
L 189.265603 156.110092 
L 189.649981 154.7892 
L 190.034359 155.307212 
L 190.418737 156.487986 
L 190.803115 145.25886 
L 191.187493 128.970818 
L 191.57187 129.78219 
L 192.725004 127.259294 
L 193.109382 127.353478 
L 193.49376 126.219024 
L 193.878138 125.696766 
L 194.262516 130.29557 
L 194.646894 127.25582 
L 195.41565 140.699428 
L 195.800028 134.995892 
L 196.184405 139.476966 
L 196.568783 130.769964 
L 196.953161 129.474162 
L 197.337539 133.30058 
L 197.721917 141.185788 
L 198.106295 146.363978 
L 198.875051 126.5726 
L 199.259429 149.943742 
L 199.643807 132.796078 
L 200.028185 142.448394 
L 200.412562 157.77491 
L 201.181318 157.786876 
L 201.565696 145.76066 
L 201.950074 126.03027 
L 202.334452 126.449852 
L 202.71883 137.40762 
L 203.103208 132.342914 
L 203.487586 133.529478 
L 203.871964 139.813944 
L 204.256342 132.501946 
L 204.64072 128.119688 
L 205.409475 127.01264 
L 205.793853 141.156066 
L 206.178231 134.819104 
L 206.562609 134.118128 
L 206.946987 139.86451 
L 207.331365 134.71334 
L 207.715743 133.190956 
L 208.100121 129.297374 
L 208.484499 128.729182 
L 208.868877 142.598162 
L 209.253254 129.91536 
L 209.637632 129.095882 
L 210.02201 132.132544 
L 210.406388 128.23626 
L 210.790766 129.462196 
L 211.175144 129.07388 
L 211.559522 131.103468 
L 211.9439 132.170372 
L 212.328278 125.645814 
L 212.712656 136.175122 
L 213.097034 138.93232 
L 213.481411 136.310222 
L 213.865789 138.132142 
L 214.250167 128.875476 
L 214.634545 130.289008 
L 215.018923 133.919338 
L 215.403301 126.835852 
L 215.787679 136.325276 
L 216.556435 148.808516 
L 216.940813 136.902346 
L 217.325191 131.838026 
L 217.709569 130.350768 
L 218.478324 133.853718 
L 218.862702 136.40209 
L 219.24708 132.07503 
L 219.631458 136.936314 
L 220.015836 134.794786 
L 220.400214 130.868394 
L 220.784592 134.56087 
L 221.16897 127.597044 
L 221.553348 133.881896 
L 221.937726 142.720524 
L 222.322103 141.49343 
L 222.706481 127.835592 
L 223.090859 128.204608 
L 223.475237 133.906214 
L 223.859615 127.569252 
L 224.243993 134.0803 
L 224.628371 132.687226 
L 225.012749 126.197408 
L 225.397127 128.93878 
L 225.781505 130.624828 
L 226.934638 153.55979 
L 227.319016 152.405264 
L 227.703394 157.400104 
L 228.856528 156.17687 
L 229.240906 151.34994 
L 229.625284 152.955314 
L 230.009662 152.798598 
L 230.39404 149.585148 
L 230.778418 151.891498 
L 231.162795 152.591316 
L 231.547173 148.471152 
L 231.931551 149.601746 
L 232.315929 147.742384 
L 232.700307 147.376842 
L 233.084685 144.655156 
L 233.469063 144.63161 
L 233.853441 148.14807 
L 234.237819 136.344576 
L 234.622197 131.443534 
L 235.390952 128.023188 
L 235.77533 124.80086 
L 236.159708 127.378182 
L 236.544086 131.963476 
L 236.928464 124.505956 
L 237.312842 125.139382 
L 237.69722 130.03502 
L 238.081598 123.992962 
L 238.465976 127.854892 
L 238.850354 127.484332 
L 239.234732 129.488444 
L 239.61911 130.497062 
L 240.003487 130.064742 
L 240.387865 131.691346 
L 240.772243 126.337912 
L 241.540999 154.254976 
L 241.925377 136.03346 
L 243.078511 129.22635 
L 243.462889 132.238694 
L 243.847267 131.095362 
L 244.231644 136.007984 
L 244.616022 139.495108 
L 245.0004 129.228666 
L 245.384778 124.891956 
L 245.769156 123.953976 
L 246.153534 126.451396 
L 246.537912 126.193934 
L 246.92229 131.018162 
L 247.306668 142.674976 
L 247.691046 140.640756 
L 248.075424 142.598934 
L 248.459801 135.926924 
L 248.844179 123.790312 
L 249.228557 135.198156 
L 249.612935 133.897336 
L 249.997313 130.128432 
L 250.381691 139.021872 
L 250.766069 126.622008 
L 251.150447 129.809982 
L 251.534825 141.675622 
L 251.919203 135.50271 
L 252.303581 144.904898 
L 252.687959 140.526114 
L 253.072336 134.692496 
L 253.456714 133.851788 
L 253.841092 141.604984 
L 254.22547 126.996814 
L 254.609848 136.341102 
L 254.994226 133.508634 
L 255.378604 142.725156 
L 255.762982 140.072178 
L 256.14736 143.370548 
L 256.531738 132.645538 
L 256.916116 128.435822 
L 257.300493 134.985856 
L 257.684871 129.626246 
L 258.069249 137.081064 
L 258.453627 134.899778 
L 258.838005 148.620534 
L 259.222383 132.081978 
L 259.606761 129.108234 
L 259.991139 142.27508 
L 260.375517 135.3927 
L 260.759895 135.380734 
L 261.144273 142.200968 
L 261.528651 132.615044 
L 261.913028 131.89747 
L 262.297406 140.987384 
L 262.681784 137.306874 
L 263.066162 151.053106 
L 263.45054 129.690708 
L 263.834918 133.737918 
L 264.219296 141.037178 
L 264.603674 143.637274 
L 264.988052 142.64371 
L 265.756808 132.266872 
L 266.141185 144.477596 
L 266.525563 133.191342 
L 266.909941 140.69055 
L 267.678697 131.861958 
L 268.063075 123.964784 
L 268.447453 130.773052 
L 268.831831 129.010576 
L 269.216209 139.055454 
L 269.600587 128.496038 
L 269.984965 137.509138 
L 270.369342 125.431584 
L 270.75372 138.66405 
L 271.138098 136.189404 
L 271.522476 135.566014 
L 271.906854 139.276632 
L 272.291232 136.50438 
L 272.67561 136.614004 
L 273.059988 134.257474 
L 273.444366 137.971566 
L 273.828744 132.371478 
L 274.213122 133.090596 
L 274.5975 135.647074 
L 274.981877 133.971448 
L 275.366255 136.260428 
L 275.750633 146.397174 
L 276.135011 148.067782 
L 276.519389 143.902456 
L 276.903767 151.815842 
L 277.288145 146.724502 
L 277.672523 157.136466 
L 278.441279 151.112164 
L 278.825657 149.889316 
L 279.210034 155.008448 
L 279.594412 153.52312 
L 279.97879 156.551676 
L 280.363168 157.8 
L 280.363168 157.8 
" style="fill:none;stroke:#1f77b4;stroke-linecap:square;stroke-width:1.5;"/>
   </g>
   <g id="patch_9">
    <path d="M 33.8 157.8 
L 33.8 119.2 
" style="fill:none;stroke:#000000;stroke-linecap:square;stroke-linejoin:miter;stroke-width:0.8;"/>
   </g>
   <g id="patch_10">
    <path d="M 43.8 167.8 
L 280.36579 167.8 
" style="fill:none;stroke:#000000;stroke-linecap:square;stroke-linejoin:miter;stroke-width:0.8;"/>
   </g>
   <g id="text_46">
    <!-- 3R -->
    <defs>
     <path d="M 46.578125 39.3125 
Q 53.953125 37.40625 57.78125 32.6875 
Q 61.625 27.984375 61.625 20.703125 
Q 61.625 9.859375 53.3125 4.21875 
Q 45.015625 -1.421875 29.109375 -1.421875 
Q 23.484375 -1.421875 17.84375 -0.515625 
Q 12.203125 0.390625 6.6875 2.203125 
L 6.6875 16.703125 
Q 11.96875 14.0625 17.15625 12.71875 
Q 22.359375 11.375 27.390625 11.375 
Q 34.859375 11.375 38.84375 13.953125 
Q 42.828125 16.546875 42.828125 21.390625 
Q 42.828125 26.375 38.75 28.9375 
Q 34.671875 31.5 26.703125 31.5 
L 19.1875 31.5 
L 19.1875 43.609375 
L 27.09375 43.609375 
Q 34.1875 43.609375 37.640625 45.828125 
Q 41.109375 48.046875 41.109375 52.59375 
Q 41.109375 56.78125 37.734375 59.078125 
Q 34.375 61.375 28.21875 61.375 
Q 23.6875 61.375 19.046875 60.34375 
Q 14.40625 59.328125 9.8125 57.328125 
L 9.8125 71.09375 
Q 15.375 72.65625 20.84375 73.4375 
Q 26.3125 74.21875 31.59375 74.21875 
Q 45.796875 74.21875 52.84375 69.546875 
Q 59.90625 64.890625 59.90625 55.515625 
Q 59.90625 49.125 56.53125 45.046875 
Q 53.171875 40.96875 46.578125 39.3125 
z
" id="DejaVuSans-Bold-51"/>
    </defs>
    <g transform="translate(153.288207 113.2)scale(0.12 -0.12)">
     <use xlink:href="#DejaVuSans-Bold-51"/>
     <use x="69.580078" xlink:href="#DejaVuSans-Bold-82"/>
    </g>
   </g>
  </g>
  <g id="axes_4">
   <g id="patch_11">
    <path d="M 295.63421 157.8 
L 532.2 157.8 
L 532.2 119.2 
L 295.63421 119.2 
z
" style="fill:#ffffff;"/>
   </g>
   <g id="matplotlib.axis_7">
    <g id="xtick_35">
     <g id="line2d_53">
      <g>
       <use style="stroke:#000000;stroke-width:0.8;" x="295.63421" xlink:href="#mcbae296bdd" y="167.8"/>
      </g>
     </g>
     <g id="text_47">
      <!-- 0 -->
      <g transform="translate(292.45296 182.398438)scale(0.1 -0.1)">
       <use xlink:href="#DejaVuSans-48"/>
      </g>
     </g>
    </g>
    <g id="xtick_36">
     <g id="line2d_54">
      <g>
       <use style="stroke:#000000;stroke-width:0.8;" x="314.853106" xlink:href="#mcbae296bdd" y="167.8"/>
      </g>
     </g>
     <g id="text_48">
      <!-- 5 -->
      <g transform="translate(311.671856 182.398438)scale(0.1 -0.1)">
       <use xlink:href="#DejaVuSans-53"/>
      </g>
     </g>
    </g>
    <g id="xtick_37">
     <g id="line2d_55">
      <g>
       <use style="stroke:#000000;stroke-width:0.8;" x="334.072002" xlink:href="#mcbae296bdd" y="167.8"/>
      </g>
     </g>
     <g id="text_49">
      <!-- 10 -->
      <g transform="translate(327.709502 182.398438)scale(0.1 -0.1)">
       <use xlink:href="#DejaVuSans-49"/>
       <use x="63.623047" xlink:href="#DejaVuSans-48"/>
      </g>
     </g>
    </g>
    <g id="xtick_38">
     <g id="line2d_56">
      <g>
       <use style="stroke:#000000;stroke-width:0.8;" x="353.290897" xlink:href="#mcbae296bdd" y="167.8"/>
      </g>
     </g>
     <g id="text_50">
      <!-- 15 -->
      <g transform="translate(346.928397 182.398438)scale(0.1 -0.1)">
       <use xlink:href="#DejaVuSans-49"/>
       <use x="63.623047" xlink:href="#DejaVuSans-53"/>
      </g>
     </g>
    </g>
    <g id="xtick_39">
     <g id="line2d_57">
      <g>
       <use style="stroke:#000000;stroke-width:0.8;" x="372.509793" xlink:href="#mcbae296bdd" y="167.8"/>
      </g>
     </g>
     <g id="text_51">
      <!-- 20 -->
      <g transform="translate(366.147293 182.398438)scale(0.1 -0.1)">
       <use xlink:href="#DejaVuSans-50"/>
       <use x="63.623047" xlink:href="#DejaVuSans-48"/>
      </g>
     </g>
    </g>
    <g id="xtick_40">
     <g id="line2d_58">
      <g>
       <use style="stroke:#000000;stroke-width:0.8;" x="391.728688" xlink:href="#mcbae296bdd" y="167.8"/>
      </g>
     </g>
     <g id="text_52">
      <!-- 25 -->
      <g transform="translate(385.366188 182.398438)scale(0.1 -0.1)">
       <use xlink:href="#DejaVuSans-50"/>
       <use x="63.623047" xlink:href="#DejaVuSans-53"/>
      </g>
     </g>
    </g>
    <g id="xtick_41">
     <g id="line2d_59">
      <g>
       <use style="stroke:#000000;stroke-width:0.8;" x="410.947584" xlink:href="#mcbae296bdd" y="167.8"/>
      </g>
     </g>
     <g id="text_53">
      <!-- 30 -->
      <g transform="translate(404.585084 182.398438)scale(0.1 -0.1)">
       <use xlink:href="#DejaVuSans-51"/>
       <use x="63.623047" xlink:href="#DejaVuSans-48"/>
      </g>
     </g>
    </g>
    <g id="xtick_42">
     <g id="line2d_60">
      <g>
       <use style="stroke:#000000;stroke-width:0.8;" x="430.16648" xlink:href="#mcbae296bdd" y="167.8"/>
      </g>
     </g>
     <g id="text_54">
      <!-- 35 -->
      <g transform="translate(423.80398 182.398438)scale(0.1 -0.1)">
       <use xlink:href="#DejaVuSans-51"/>
       <use x="63.623047" xlink:href="#DejaVuSans-53"/>
      </g>
     </g>
    </g>
    <g id="xtick_43">
     <g id="line2d_61">
      <g>
       <use style="stroke:#000000;stroke-width:0.8;" x="449.385375" xlink:href="#mcbae296bdd" y="167.8"/>
      </g>
     </g>
     <g id="text_55">
      <!-- 40 -->
      <g transform="translate(443.022875 182.398438)scale(0.1 -0.1)">
       <use xlink:href="#DejaVuSans-52"/>
       <use x="63.623047" xlink:href="#DejaVuSans-48"/>
      </g>
     </g>
    </g>
   </g>
   <g id="matplotlib.axis_8">
    <g id="ytick_16">
     <g id="line2d_62">
      <g>
       <use style="stroke:#000000;stroke-width:0.8;" x="542.2" xlink:href="#mf36e1249f7" y="157.8"/>
      </g>
     </g>
     <g id="text_56">
      <!-- 0.0 -->
      <g transform="translate(549.2 161.599219)scale(0.1 -0.1)">
       <use xlink:href="#DejaVuSans-48"/>
       <use x="63.623047" xlink:href="#DejaVuSans-46"/>
       <use x="95.410156" xlink:href="#DejaVuSans-48"/>
      </g>
     </g>
    </g>
    <g id="ytick_17">
     <g id="line2d_63">
      <g>
       <use style="stroke:#000000;stroke-width:0.8;" x="542.2" xlink:href="#mf36e1249f7" y="138.5"/>
      </g>
     </g>
     <g id="text_57">
      <!-- 0.5 -->
      <g transform="translate(549.2 142.299219)scale(0.1 -0.1)">
       <use xlink:href="#DejaVuSans-48"/>
       <use x="63.623047" xlink:href="#DejaVuSans-46"/>
       <use x="95.410156" xlink:href="#DejaVuSans-53"/>
      </g>
     </g>
    </g>
    <g id="ytick_18">
     <g id="line2d_64">
      <g>
       <use style="stroke:#000000;stroke-width:0.8;" x="542.2" xlink:href="#mf36e1249f7" y="119.2"/>
      </g>
     </g>
     <g id="text_58">
      <!-- 1.0 -->
      <g transform="translate(549.2 122.999219)scale(0.1 -0.1)">
       <use xlink:href="#DejaVuSans-49"/>
       <use x="63.623047" xlink:href="#DejaVuSans-46"/>
       <use x="95.410156" xlink:href="#DejaVuSans-48"/>
      </g>
     </g>
    </g>
    <g id="ytick_19">
     <g id="line2d_65">
      <g>
       <use style="stroke:#000000;stroke-width:0.6;" x="542.2" xlink:href="#mbcd27b49e8" y="148.15"/>
      </g>
     </g>
    </g>
    <g id="ytick_20">
     <g id="line2d_66">
      <g>
       <use style="stroke:#000000;stroke-width:0.6;" x="542.2" xlink:href="#mbcd27b49e8" y="128.85"/>
      </g>
     </g>
    </g>
   </g>
   <g id="line2d_67">
    <path clip-path="url(#p8b1567e7e7)" d="M 295.634214 153.354824 
L 296.018592 149.575884 
L 296.40297 155.023502 
L 296.787348 149.192972 
L 297.171726 156.169922 
L 297.556104 155.527232 
L 298.32486 150.773256 
L 298.709237 143.993938 
L 299.093615 155.971518 
L 299.477993 154.221008 
L 299.862371 155.167094 
L 300.246749 144.215502 
L 300.631127 153.02325 
L 301.015505 154.821238 
L 301.784261 141.228248 
L 302.168639 141.402334 
L 302.553017 138.2298 
L 302.937395 130.458848 
L 303.321772 126.025638 
L 303.70615 129.599226 
L 304.090528 129.28232 
L 304.474906 140.49755 
L 304.859284 131.747316 
L 305.243662 139.938622 
L 305.62804 135.325922 
L 306.012418 138.730056 
L 306.396796 133.546462 
L 306.781174 132.313578 
L 307.165552 135.565242 
L 307.549929 133.468104 
L 307.934307 135.812668 
L 308.318685 128.297248 
L 308.703063 124.314886 
L 309.087441 123.929658 
L 309.471819 129.379978 
L 309.856197 132.389234 
L 310.624953 132.485348 
L 311.393709 136.216038 
L 312.162464 154.936266 
L 312.546842 156.243648 
L 312.93122 156.86395 
L 313.315598 156.698356 
L 313.699976 155.18099 
L 314.084354 134.912902 
L 314.468732 147.92805 
L 314.85311 131.925648 
L 315.237488 128.163306 
L 315.621866 134.432718 
L 316.006244 124.95912 
L 316.390621 128.434664 
L 316.774999 135.532432 
L 317.159377 124.251582 
L 317.543755 128.405328 
L 317.928133 134.300706 
L 318.312511 130.559594 
L 318.696889 134.097284 
L 319.081267 141.237898 
L 319.465645 131.006582 
L 319.850023 135.820388 
L 320.234401 130.427196 
L 320.618778 128.780906 
L 321.003156 126.635518 
L 321.387534 126.33907 
L 321.771912 137.889348 
L 322.15629 134.166764 
L 322.540668 135.358732 
L 322.925046 147.127872 
L 323.309424 155.395606 
L 323.693802 144.799134 
L 324.07818 151.970628 
L 324.462558 149.304526 
L 324.846936 136.628672 
L 325.231313 156.975118 
L 325.615691 132.37225 
L 326.000069 138.363742 
L 326.384447 135.089304 
L 326.768825 145.696584 
L 327.153203 133.886528 
L 327.537581 131.942632 
L 327.921959 135.57605 
L 328.306337 133.580816 
L 328.690715 133.201378 
L 329.075093 133.938638 
L 329.843848 138.755918 
L 330.228226 136.372368 
L 330.612604 141.554032 
L 330.996982 149.943742 
L 331.38136 131.044796 
L 331.765738 144.661332 
L 332.150116 148.488908 
L 332.534494 136.580808 
L 332.918872 135.643214 
L 333.30325 140.143974 
L 333.687627 157.034176 
L 334.072005 133.126108 
L 334.456383 146.37826 
L 334.840761 133.294018 
L 335.225139 137.258624 
L 335.609517 127.595114 
L 335.993895 134.300706 
L 336.762651 136.0875 
L 337.147029 144.192342 
L 337.531407 142.681924 
L 337.915785 137.044008 
L 338.300162 144.73776 
L 338.68454 141.730048 
L 339.068918 128.698688 
L 339.837674 146.07139 
L 340.222052 139.7352 
L 340.60643 129.68569 
L 340.990808 128.227382 
L 341.375186 130.171664 
L 341.759564 134.797102 
L 342.143942 130.177068 
L 342.528319 136.048514 
L 342.912697 136.951754 
L 343.297075 127.702422 
L 343.681453 126.266116 
L 344.065831 135.010946 
L 344.450209 130.267778 
L 344.834587 133.44919 
L 345.218965 137.55816 
L 345.603343 130.160856 
L 345.987721 134.17873 
L 346.372099 131.603724 
L 347.140854 128.863124 
L 347.525232 135.75361 
L 347.90961 132.303156 
L 348.293988 149.751514 
L 348.678366 145.856388 
L 349.062744 143.95418 
L 349.447122 130.24925 
L 349.8315 126.756722 
L 350.215878 128.663562 
L 350.984634 134.76738 
L 351.369011 134.903252 
L 351.753389 135.836986 
L 352.137767 130.284762 
L 352.522145 135.219 
L 352.906523 131.147858 
L 353.290901 130.572332 
L 353.675279 130.656866 
L 354.059657 134.609506 
L 354.444035 128.25942 
L 354.828413 132.142966 
L 355.212791 144.161076 
L 355.597168 141.380718 
L 356.365924 132.957812 
L 356.750302 150.91955 
L 357.13468 143.698262 
L 357.519058 153.516944 
L 357.903436 142.367334 
L 358.287814 125.384492 
L 358.672192 129.103988 
L 359.05657 131.658922 
L 359.440948 127.07247 
L 359.825326 127.337266 
L 360.209703 126.811534 
L 360.594081 124.752996 
L 360.978459 128.017784 
L 361.362837 128.381396 
L 361.747215 124.426054 
L 362.515971 131.131646 
L 362.900349 129.873672 
L 363.284727 132.02871 
L 364.053483 135.162258 
L 364.43786 145.825508 
L 364.822238 126.48382 
L 365.206616 131.71412 
L 365.590994 130.5677 
L 365.975372 127.760708 
L 366.35975 126.93737 
L 366.744128 126.389636 
L 367.128506 131.083782 
L 367.897262 129.412402 
L 368.28164 132.258766 
L 368.666017 128.389888 
L 369.050395 132.651714 
L 369.434773 129.48111 
L 369.819151 128.340094 
L 370.972285 130.358874 
L 371.356663 126.795322 
L 371.741041 132.68491 
L 372.125419 134.4084 
L 372.509797 134.044016 
L 372.894175 128.081088 
L 373.278552 137.038218 
L 373.66293 157.196296 
L 374.047308 131.058692 
L 374.431686 130.188648 
L 374.816064 130.593948 
L 375.200442 131.288748 
L 375.58482 137.132788 
L 375.969198 133.80817 
L 376.353576 133.61324 
L 376.737954 129.763276 
L 377.122332 130.39207 
L 377.506709 130.561138 
L 377.891087 133.42024 
L 378.275465 133.215274 
L 378.659843 134.39682 
L 379.044221 128.91176 
L 379.428599 146.840302 
L 379.812977 133.057014 
L 380.197355 129.798016 
L 380.581733 131.9573 
L 380.966111 132.805342 
L 381.350489 130.171664 
L 381.734867 135.436704 
L 382.119244 127.196762 
L 382.503622 129.998736 
L 382.888 134.797874 
L 383.272378 127.371234 
L 383.656756 129.466828 
L 384.041134 134.627648 
L 384.425512 131.72184 
L 384.80989 135.407754 
L 385.194268 157.776454 
L 385.578646 139.062402 
L 385.963024 138.606536 
L 386.347401 126.33907 
L 386.731779 132.134474 
L 387.116157 143.089926 
L 387.500535 138.39385 
L 387.884913 131.52691 
L 388.269291 132.78527 
L 388.653669 129.3904 
L 389.038047 132.31049 
L 389.806803 147.169174 
L 390.191181 149.018114 
L 390.575558 132.326316 
L 390.959936 128.360552 
L 391.344314 131.008898 
L 391.728692 128.431962 
L 392.11307 132.290032 
L 392.497448 131.187616 
L 393.266204 138.881368 
L 393.650582 138.329002 
L 394.03496 135.404666 
L 394.419338 135.734696 
L 394.803716 132.085066 
L 395.188093 130.101412 
L 395.572471 129.086618 
L 395.956849 129.66639 
L 396.341227 134.949186 
L 396.725605 129.166906 
L 397.109983 134.931816 
L 397.494361 138.217062 
L 397.878739 134.33699 
L 398.263117 132.4012 
L 398.647495 136.343032 
L 399.031873 143.319596 
L 399.41625 131.069886 
L 399.800628 128.407258 
L 400.185006 131.59446 
L 400.569384 125.457832 
L 400.953762 126.855152 
L 401.33814 125.994758 
L 401.722518 132.610798 
L 402.106896 131.272922 
L 402.491274 128.74771 
L 402.875652 128.570922 
L 403.26003 128.842666 
L 403.644408 133.275104 
L 404.028785 130.02923 
L 404.413163 131.296854 
L 404.797541 137.246658 
L 405.181919 132.26417 
L 405.566297 135.24023 
L 405.950675 131.57516 
L 406.719431 129.184276 
L 407.103809 139.468088 
L 407.488187 132.087768 
L 407.872565 133.70781 
L 408.256942 129.837774 
L 408.64132 128.749254 
L 409.025698 126.499646 
L 409.410076 129.783348 
L 409.794454 125.69445 
L 410.178832 128.106564 
L 410.56321 132.38962 
L 411.331966 132.089312 
L 411.716344 128.33662 
L 412.100722 127.852962 
L 412.869477 129.565258 
L 413.253855 129.119428 
L 413.638233 129.556766 
L 414.022611 129.610806 
L 414.406989 130.29171 
L 415.175745 139.702004 
L 415.560123 133.998082 
L 415.944501 126.546738 
L 416.328879 128.718374 
L 416.713257 128.540042 
L 417.097634 128.22082 
L 417.482012 130.819372 
L 417.86639 130.340346 
L 418.250768 128.570922 
L 418.635146 133.669982 
L 419.019524 133.27935 
L 419.403902 131.661624 
L 419.78828 128.333146 
L 420.172658 130.197912 
L 420.557036 128.909058 
L 420.941414 129.770224 
L 421.325791 126.406234 
L 421.710169 134.396434 
L 422.478925 129.673724 
L 422.863303 134.194556 
L 423.247681 131.48831 
L 423.632059 133.075928 
L 424.016437 128.559728 
L 424.400815 131.744228 
L 424.785193 129.757486 
L 425.553949 130.076322 
L 425.938326 129.605016 
L 426.322704 130.020352 
L 426.707082 131.514944 
L 427.09146 128.87123 
L 427.475838 129.001698 
L 427.860216 127.250802 
L 428.244594 126.660222 
L 428.628972 130.172436 
L 429.01335 127.405588 
L 429.397728 132.287716 
L 430.166483 129.3518 
L 430.550861 131.962318 
L 430.935239 131.19495 
L 431.319617 128.855404 
L 431.703995 128.540814 
L 432.088373 127.69972 
L 432.472751 134.08995 
L 432.857129 126.082766 
L 433.241507 135.361048 
L 433.625885 125.398774 
L 434.010263 129.42707 
L 434.39464 129.566416 
L 434.779018 139.326812 
L 435.163396 143.328474 
L 435.547774 153.85701 
L 435.932152 142.197494 
L 436.31653 135.729292 
L 436.700908 126.951652 
L 437.085286 132.865944 
L 437.469664 127.238064 
L 437.854042 126.936984 
L 438.23842 129.267652 
L 438.622798 138.190042 
L 439.007175 144.288842 
L 439.391553 133.221064 
L 439.775931 137.411094 
L 440.160309 129.06616 
L 440.544687 129.62779 
L 440.929065 132.242554 
L 441.313443 131.859642 
L 441.697821 129.713868 
L 442.082199 131.466308 
L 442.466577 128.943026 
L 442.850955 128.622646 
L 443.235332 131.245516 
L 443.61971 126.052658 
L 444.004088 148.148842 
L 444.388466 130.815126 
L 444.772844 126.038762 
L 445.157222 127.843312 
L 445.5416 131.912138 
L 445.925978 130.712836 
L 446.310356 125.287606 
L 446.694734 125.108888 
L 447.079112 124.332256 
L 447.463489 128.71876 
L 447.847867 131.819112 
L 448.232245 129.78798 
L 449.001001 127.206026 
L 449.385379 124.948698 
L 449.769757 126.510454 
L 450.154135 125.174508 
L 450.538513 129.902622 
L 450.922891 124.623686 
L 451.307269 124.640284 
L 451.691647 124.34345 
L 452.460402 130.2396 
L 452.84478 124.766892 
L 453.229158 142.306732 
L 453.613536 128.816418 
L 453.997914 122.892476 
L 454.382292 123.147622 
L 454.76667 122.354778 
L 455.151048 124.008016 
L 455.535426 123.162676 
L 455.919804 127.785798 
L 456.304181 135.582226 
L 456.688559 136.181931 
L 456.688559 136.181931 
" style="fill:none;stroke:#1f77b4;stroke-linecap:square;stroke-width:1.5;"/>
   </g>
   <g id="patch_12">
    <path d="M 542.2 157.8 
L 542.2 119.2 
" style="fill:none;stroke:#000000;stroke-linecap:square;stroke-linejoin:miter;stroke-width:0.8;"/>
   </g>
   <g id="patch_13">
    <path d="M 295.63421 167.8 
L 532.2 167.8 
" style="fill:none;stroke:#000000;stroke-linecap:square;stroke-linejoin:miter;stroke-width:0.8;"/>
   </g>
   <g id="text_59">
    <!-- 3L -->
    <g transform="translate(405.919293 113.2)scale(0.12 -0.12)">
     <use xlink:href="#DejaVuSans-Bold-51"/>
     <use x="69.580078" xlink:href="#DejaVuSans-Bold-76"/>
    </g>
   </g>
  </g>
  <g id="axes_5">
   <g id="patch_14">
    <path d="M 43.8 250.2 
L 280.36579 250.2 
L 280.36579 211.6 
L 43.8 211.6 
z
" style="fill:#ffffff;"/>
   </g>
   <g id="matplotlib.axis_9">
    <g id="xtick_44">
     <g id="line2d_68">
      <g>
       <use style="stroke:#000000;stroke-width:0.8;" x="186.604074" xlink:href="#mcbae296bdd" y="260.2"/>
      </g>
     </g>
     <g id="text_60">
      <!-- 0 -->
      <g transform="translate(183.422824 274.798437)scale(0.1 -0.1)">
       <use xlink:href="#DejaVuSans-48"/>
      </g>
     </g>
    </g>
    <g id="xtick_45">
     <g id="line2d_69">
      <g>
       <use style="stroke:#000000;stroke-width:0.8;" x="205.82297" xlink:href="#mcbae296bdd" y="260.2"/>
      </g>
     </g>
     <g id="text_61">
      <!-- 5 -->
      <g transform="translate(202.64172 274.798437)scale(0.1 -0.1)">
       <use xlink:href="#DejaVuSans-53"/>
      </g>
     </g>
    </g>
    <g id="xtick_46">
     <g id="line2d_70">
      <g>
       <use style="stroke:#000000;stroke-width:0.8;" x="225.041865" xlink:href="#mcbae296bdd" y="260.2"/>
      </g>
     </g>
     <g id="text_62">
      <!-- 10 -->
      <g transform="translate(218.679365 274.798437)scale(0.1 -0.1)">
       <use xlink:href="#DejaVuSans-49"/>
       <use x="63.623047" xlink:href="#DejaVuSans-48"/>
      </g>
     </g>
    </g>
    <g id="xtick_47">
     <g id="line2d_71">
      <g>
       <use style="stroke:#000000;stroke-width:0.8;" x="244.260761" xlink:href="#mcbae296bdd" y="260.2"/>
      </g>
     </g>
     <g id="text_63">
      <!-- 15 -->
      <g transform="translate(237.898261 274.798437)scale(0.1 -0.1)">
       <use xlink:href="#DejaVuSans-49"/>
       <use x="63.623047" xlink:href="#DejaVuSans-53"/>
      </g>
     </g>
    </g>
    <g id="xtick_48">
     <g id="line2d_72">
      <g>
       <use style="stroke:#000000;stroke-width:0.8;" x="263.479657" xlink:href="#mcbae296bdd" y="260.2"/>
      </g>
     </g>
     <g id="text_64">
      <!-- 20 -->
      <g transform="translate(257.117157 274.798437)scale(0.1 -0.1)">
       <use xlink:href="#DejaVuSans-50"/>
       <use x="63.623047" xlink:href="#DejaVuSans-48"/>
      </g>
     </g>
    </g>
   </g>
   <g id="matplotlib.axis_10">
    <g id="ytick_21">
     <g id="line2d_73">
      <g>
       <use style="stroke:#000000;stroke-width:0.8;" x="33.8" xlink:href="#m690b3b7eca" y="250.2"/>
      </g>
     </g>
     <g id="text_65">
      <!-- 0.0 -->
      <g transform="translate(10.896875 253.999219)scale(0.1 -0.1)">
       <use xlink:href="#DejaVuSans-48"/>
       <use x="63.623047" xlink:href="#DejaVuSans-46"/>
       <use x="95.410156" xlink:href="#DejaVuSans-48"/>
      </g>
     </g>
    </g>
    <g id="ytick_22">
     <g id="line2d_74">
      <g>
       <use style="stroke:#000000;stroke-width:0.8;" x="33.8" xlink:href="#m690b3b7eca" y="230.9"/>
      </g>
     </g>
     <g id="text_66">
      <!-- 0.5 -->
      <g transform="translate(10.896875 234.699219)scale(0.1 -0.1)">
       <use xlink:href="#DejaVuSans-48"/>
       <use x="63.623047" xlink:href="#DejaVuSans-46"/>
       <use x="95.410156" xlink:href="#DejaVuSans-53"/>
      </g>
     </g>
    </g>
    <g id="ytick_23">
     <g id="line2d_75">
      <g>
       <use style="stroke:#000000;stroke-width:0.8;" x="33.8" xlink:href="#m690b3b7eca" y="211.6"/>
      </g>
     </g>
     <g id="text_67">
      <!-- 1.0 -->
      <g transform="translate(10.896875 215.399219)scale(0.1 -0.1)">
       <use xlink:href="#DejaVuSans-49"/>
       <use x="63.623047" xlink:href="#DejaVuSans-46"/>
       <use x="95.410156" xlink:href="#DejaVuSans-48"/>
      </g>
     </g>
    </g>
    <g id="ytick_24">
     <g id="line2d_76">
      <g>
       <use style="stroke:#000000;stroke-width:0.6;" x="33.8" xlink:href="#m66c1ee7dd5" y="240.55"/>
      </g>
     </g>
    </g>
    <g id="ytick_25">
     <g id="line2d_77">
      <g>
       <use style="stroke:#000000;stroke-width:0.6;" x="33.8" xlink:href="#m66c1ee7dd5" y="221.25"/>
      </g>
     </g>
    </g>
   </g>
   <g id="line2d_78">
    <path clip-path="url(#p540586caee)" d="M 186.604078 233.807352 
L 186.988456 225.243556 
L 187.372834 222.765822 
L 187.757212 227.322552 
L 188.14159 224.682698 
L 188.525968 230.799254 
L 188.910346 232.43049 
L 189.294723 228.32345 
L 189.679101 226.525076 
L 190.447857 231.360112 
L 190.832235 231.070612 
L 191.216613 229.442464 
L 191.600991 232.854704 
L 191.985369 226.88367 
L 192.369747 230.542178 
L 192.754125 228.459322 
L 193.138503 227.603946 
L 193.522881 234.787792 
L 193.907258 227.250756 
L 194.291636 228.191824 
L 194.676014 224.763758 
L 195.060392 231.439628 
L 195.44477 227.085934 
L 195.829148 224.836326 
L 196.213526 225.362058 
L 196.597904 224.641396 
L 196.982282 224.568056 
L 197.36666 225.62724 
L 197.751038 229.183844 
L 198.135415 228.815214 
L 198.519793 223.042198 
L 198.904171 228.756156 
L 199.288549 239.503554 
L 199.672927 226.822682 
L 200.057305 227.73866 
L 200.441683 234.479764 
L 200.826061 230.51207 
L 201.210439 232.85123 
L 201.594817 232.413892 
L 201.979195 232.636228 
L 202.363573 225.93797 
L 202.74795 224.564582 
L 203.132328 226.161464 
L 203.516706 230.985306 
L 203.901084 227.722448 
L 204.285462 234.69052 
L 204.66984 231.649998 
L 205.054218 231.348918 
L 205.438596 228.026616 
L 205.822974 226.486862 
L 206.59173 230.207516 
L 206.976107 227.649494 
L 207.360485 231.68165 
L 207.744863 229.261044 
L 208.513619 228.254356 
L 208.897997 230.698894 
L 209.282375 227.592752 
L 209.666753 229.564826 
L 210.051131 233.00949 
L 210.435509 231.1895 
L 210.819887 233.927398 
L 211.204264 230.99264 
L 211.588642 234.57279 
L 211.97302 231.007308 
L 212.357398 233.34145 
L 212.741776 233.960594 
L 213.510532 228.565472 
L 213.89491 227.415192 
L 214.279288 231.93641 
L 214.663666 231.25512 
L 215.048044 228.737628 
L 215.432422 232.020944 
L 215.816799 230.094418 
L 216.201177 231.127354 
L 216.585555 228.781632 
L 216.969933 232.33978 
L 217.354311 231.275192 
L 217.738689 231.45005 
L 218.123067 229.991356 
L 218.507445 231.738778 
L 219.276201 228.54347 
L 219.660579 232.392276 
L 220.044956 228.463568 
L 220.429334 228.367454 
L 220.813712 234.443094 
L 221.19809 228.895116 
L 222.351224 234.117696 
L 222.735602 228.477464 
L 223.11998 228.99702 
L 223.504358 231.382886 
L 223.888736 226.0364 
L 224.273114 232.435894 
L 224.657491 228.176384 
L 225.041869 231.588238 
L 225.426247 227.629422 
L 225.810625 229.537034 
L 226.195003 233.377734 
L 226.579381 229.563282 
L 226.963759 230.005638 
L 227.348137 230.15116 
L 227.732515 230.710474 
L 228.116893 232.443614 
L 228.501271 230.31135 
L 228.885648 233.699658 
L 229.270026 232.876706 
L 229.654404 232.460984 
L 230.038782 234.38944 
L 230.42316 227.7348 
L 230.807538 229.738526 
L 231.191916 236.320212 
L 231.576294 227.519798 
L 231.960672 229.96202 
L 232.34505 226.464474 
L 232.729428 229.721928 
L 233.113805 231.607924 
L 233.498183 230.462662 
L 233.882561 233.759874 
L 234.266939 226.211644 
L 234.651317 226.923428 
L 235.035695 237.501758 
L 235.420073 237.499828 
L 235.804451 235.287662 
L 236.188829 232.255632 
L 236.573207 230.346862 
L 236.957585 229.986338 
L 237.341963 232.60998 
L 237.72634 227.509762 
L 238.110718 238.669022 
L 238.495096 229.222444 
L 238.879474 227.41249 
L 239.263852 229.772108 
L 239.64823 228.90631 
L 240.032608 230.208674 
L 240.416986 230.85947 
L 240.801364 228.265164 
L 241.185742 233.04423 
L 241.57012 229.427796 
L 241.954497 231.672772 
L 242.338875 229.093906 
L 242.723253 233.654496 
L 243.107631 232.151412 
L 243.492009 234.128118 
L 243.876387 238.796016 
L 244.260765 248.686108 
L 244.645143 247.230116 
L 245.029521 230.941302 
L 245.413899 230.978744 
L 245.798277 229.245604 
L 246.567032 222.157486 
L 246.95141 229.132506 
L 247.335788 225.567024 
L 247.720166 224.405936 
L 248.104544 227.062002 
L 248.488922 228.292956 
L 248.8733 224.875312 
L 249.257678 220.112072 
L 249.642056 221.285126 
L 250.026434 221.800436 
L 250.410812 219.535002 
L 250.795189 228.669692 
L 251.179567 221.487004 
L 251.563945 227.460354 
L 251.948323 225.865788 
L 252.332701 231.941814 
L 252.717079 232.633526 
L 253.101457 235.980532 
L 253.485835 232.327814 
L 253.870213 227.15387 
L 254.254591 225.293736 
L 254.638969 231.215362 
L 255.023346 227.225666 
L 255.792102 230.827432 
L 256.17648 226.481072 
L 256.560858 226.47644 
L 256.945236 228.76156 
L 257.329614 223.397704 
L 257.713992 222.893588 
L 258.09837 223.846622 
L 258.482748 225.897826 
L 258.867126 224.304032 
L 259.251504 228.217686 
L 259.635881 227.466916 
L 260.020259 220.178464 
L 260.404637 221.1921 
L 260.789015 219.713334 
L 261.173393 224.061624 
L 261.557771 226.027522 
L 261.942149 223.830024 
L 262.326527 229.233252 
L 262.710905 226.433208 
L 263.479661 241.875138 
L 263.864038 234.866536 
L 264.248416 248.732428 
L 264.632794 245.860202 
L 265.017172 245.695766 
L 265.40155 248.044576 
L 265.785928 246.146614 
L 266.170306 246.476644 
L 266.554684 249.471618 
L 266.939062 246.035832 
L 267.32344 247.284928 
L 267.707818 246.641852 
L 268.092195 248.697302 
L 268.476573 244.352486 
L 268.860951 246.722526 
L 269.245329 243.558484 
L 269.629707 247.11972 
L 270.014085 245.883362 
L 270.398463 246.143912 
L 270.782841 248.763308 
L 271.167219 249.336518 
L 271.551597 242.278122 
L 271.935975 246.02155 
L 272.70473 244.725748 
L 273.089108 243.753414 
L 273.473486 249.529132 
L 273.857864 243.445386 
L 274.242242 245.799986 
L 274.62662 244.901378 
L 275.010998 248.207854 
L 275.395376 249.82558 
L 275.779754 244.114324 
L 276.164132 247.232046 
L 276.54851 245.043812 
L 276.932887 247.621906 
L 277.317265 248.421312 
L 277.701643 247.917968 
L 278.086021 242.905758 
L 278.470399 243.422226 
L 278.854777 248.010608 
L 279.623533 241.463662 
L 280.007911 246.886738 
L 280.007911 246.886738 
" style="fill:none;stroke:#1f77b4;stroke-linecap:square;stroke-width:1.5;"/>
   </g>
   <g id="patch_15">
    <path d="M 33.8 250.2 
L 33.8 211.6 
" style="fill:none;stroke:#000000;stroke-linecap:square;stroke-linejoin:miter;stroke-width:0.8;"/>
   </g>
   <g id="patch_16">
    <path d="M 43.8 260.2 
L 280.36579 260.2 
" style="fill:none;stroke:#000000;stroke-linecap:square;stroke-linejoin:miter;stroke-width:0.8;"/>
   </g>
   <g id="text_68">
    <!-- X -->
    <defs>
     <path d="M 49.8125 37.203125 
L 75.09375 0 
L 55.515625 0 
L 38.484375 24.90625 
L 21.578125 0 
L 1.90625 0 
L 27.203125 37.203125 
L 2.875 72.90625 
L 22.515625 72.90625 
L 38.484375 49.421875 
L 54.390625 72.90625 
L 74.125 72.90625 
z
" id="DejaVuSans-Bold-88"/>
    </defs>
    <g transform="translate(157.45727 205.6)scale(0.12 -0.12)">
     <use xlink:href="#DejaVuSans-Bold-88"/>
    </g>
   </g>
  </g>
  <g id="axes_6"/>
 </g>
 <defs>
  <clipPath id="p445d055e9b">
   <rect height="38.6" width="236.56579" x="43.8" y="26.8"/>
  </clipPath>
  <clipPath id="p7aa85f9441">
   <rect height="38.6" width="236.56579" x="295.63421" y="26.8"/>
  </clipPath>
  <clipPath id="pc7b2211e21">
   <rect height="38.6" width="236.56579" x="43.8" y="119.2"/>
  </clipPath>
  <clipPath id="p8b1567e7e7">
   <rect height="38.6" width="236.56579" x="295.63421" y="119.2"/>
  </clipPath>
  <clipPath id="p540586caee">
   <rect height="38.6" width="236.56579" x="43.8" y="211.6"/>
  </clipPath>
 </defs>
</svg>
