<?xml version="1.0" encoding="utf-8" standalone="no"?>
<!DOCTYPE svg PUBLIC "-//W3C//DTD SVG 1.1//EN"
  "http://www.w3.org/Graphics/SVG/1.1/DTD/svg11.dtd">
<!-- Created with matplotlib (https://matplotlib.org/) -->
<svg height="288pt" version="1.1" viewBox="0 0 576 288" width="576pt" xmlns="http://www.w3.org/2000/svg" xmlns:xlink="http://www.w3.org/1999/xlink">
 <defs>
  <style type="text/css">
*{stroke-linecap:butt;stroke-linejoin:round;}
  </style>
 </defs>
 <g id="figure_1">
  <g id="patch_1">
   <path d="M 0 288 
L 576 288 
L 576 0 
L 0 0 
z
" style="fill:#ffffff;"/>
  </g>
  <g id="axes_1">
   <g id="patch_2">
    <path d="M 43.8 65.4 
L 280.36579 65.4 
L 280.36579 26.8 
L 43.8 26.8 
z
" style="fill:#ffffff;"/>
   </g>
   <g id="matplotlib.axis_1">
    <g id="xtick_1">
     <g id="line2d_1">
      <defs>
       <path d="M 0 0 
L 0 3.5 
" id="m6b1102fbdb" style="stroke:#000000;stroke-width:0.8;"/>
      </defs>
      <g>
       <use style="stroke:#000000;stroke-width:0.8;" x="43.800004" xlink:href="#m6b1102fbdb" y="75.4"/>
      </g>
     </g>
     <g id="text_1">
      <!-- 0 -->
      <defs>
       <path d="M 31.78125 66.40625 
Q 24.171875 66.40625 20.328125 58.90625 
Q 16.5 51.421875 16.5 36.375 
Q 16.5 21.390625 20.328125 13.890625 
Q 24.171875 6.390625 31.78125 6.390625 
Q 39.453125 6.390625 43.28125 13.890625 
Q 47.125 21.390625 47.125 36.375 
Q 47.125 51.421875 43.28125 58.90625 
Q 39.453125 66.40625 31.78125 66.40625 
z
M 31.78125 74.21875 
Q 44.046875 74.21875 50.515625 64.515625 
Q 56.984375 54.828125 56.984375 36.375 
Q 56.984375 17.96875 50.515625 8.265625 
Q 44.046875 -1.421875 31.78125 -1.421875 
Q 19.53125 -1.421875 13.0625 8.265625 
Q 6.59375 17.96875 6.59375 36.375 
Q 6.59375 54.828125 13.0625 64.515625 
Q 19.53125 74.21875 31.78125 74.21875 
z
" id="DejaVuSans-48"/>
      </defs>
      <g transform="translate(40.618754 89.998437)scale(0.1 -0.1)">
       <use xlink:href="#DejaVuSans-48"/>
      </g>
     </g>
    </g>
    <g id="xtick_2">
     <g id="line2d_2">
      <g>
       <use style="stroke:#000000;stroke-width:0.8;" x="63.018899" xlink:href="#m6b1102fbdb" y="75.4"/>
      </g>
     </g>
     <g id="text_2">
      <!-- 5 -->
      <defs>
       <path d="M 10.796875 72.90625 
L 49.515625 72.90625 
L 49.515625 64.59375 
L 19.828125 64.59375 
L 19.828125 46.734375 
Q 21.96875 47.46875 24.109375 47.828125 
Q 26.265625 48.1875 28.421875 48.1875 
Q 40.625 48.1875 47.75 41.5 
Q 54.890625 34.8125 54.890625 23.390625 
Q 54.890625 11.625 47.5625 5.09375 
Q 40.234375 -1.421875 26.90625 -1.421875 
Q 22.3125 -1.421875 17.546875 -0.640625 
Q 12.796875 0.140625 7.71875 1.703125 
L 7.71875 11.625 
Q 12.109375 9.234375 16.796875 8.0625 
Q 21.484375 6.890625 26.703125 6.890625 
Q 35.15625 6.890625 40.078125 11.328125 
Q 45.015625 15.765625 45.015625 23.390625 
Q 45.015625 31 40.078125 35.4375 
Q 35.15625 39.890625 26.703125 39.890625 
Q 22.75 39.890625 18.8125 39.015625 
Q 14.890625 38.140625 10.796875 36.28125 
z
" id="DejaVuSans-53"/>
      </defs>
      <g transform="translate(59.837649 89.998437)scale(0.1 -0.1)">
       <use xlink:href="#DejaVuSans-53"/>
      </g>
     </g>
    </g>
    <g id="xtick_3">
     <g id="line2d_3">
      <g>
       <use style="stroke:#000000;stroke-width:0.8;" x="82.237795" xlink:href="#m6b1102fbdb" y="75.4"/>
      </g>
     </g>
     <g id="text_3">
      <!-- 10 -->
      <defs>
       <path d="M 12.40625 8.296875 
L 28.515625 8.296875 
L 28.515625 63.921875 
L 10.984375 60.40625 
L 10.984375 69.390625 
L 28.421875 72.90625 
L 38.28125 72.90625 
L 38.28125 8.296875 
L 54.390625 8.296875 
L 54.390625 0 
L 12.40625 0 
z
" id="DejaVuSans-49"/>
      </defs>
      <g transform="translate(75.875295 89.998437)scale(0.1 -0.1)">
       <use xlink:href="#DejaVuSans-49"/>
       <use x="63.623047" xlink:href="#DejaVuSans-48"/>
      </g>
     </g>
    </g>
    <g id="xtick_4">
     <g id="line2d_4">
      <g>
       <use style="stroke:#000000;stroke-width:0.8;" x="101.456691" xlink:href="#m6b1102fbdb" y="75.4"/>
      </g>
     </g>
     <g id="text_4">
      <!-- 15 -->
      <g transform="translate(95.094191 89.998437)scale(0.1 -0.1)">
       <use xlink:href="#DejaVuSans-49"/>
       <use x="63.623047" xlink:href="#DejaVuSans-53"/>
      </g>
     </g>
    </g>
    <g id="xtick_5">
     <g id="line2d_5">
      <g>
       <use style="stroke:#000000;stroke-width:0.8;" x="120.675586" xlink:href="#m6b1102fbdb" y="75.4"/>
      </g>
     </g>
     <g id="text_5">
      <!-- 20 -->
      <defs>
       <path d="M 19.1875 8.296875 
L 53.609375 8.296875 
L 53.609375 0 
L 7.328125 0 
L 7.328125 8.296875 
Q 12.9375 14.109375 22.625 23.890625 
Q 32.328125 33.6875 34.8125 36.53125 
Q 39.546875 41.84375 41.421875 45.53125 
Q 43.3125 49.21875 43.3125 52.78125 
Q 43.3125 58.59375 39.234375 62.25 
Q 35.15625 65.921875 28.609375 65.921875 
Q 23.96875 65.921875 18.8125 64.3125 
Q 13.671875 62.703125 7.8125 59.421875 
L 7.8125 69.390625 
Q 13.765625 71.78125 18.9375 73 
Q 24.125 74.21875 28.421875 74.21875 
Q 39.75 74.21875 46.484375 68.546875 
Q 53.21875 62.890625 53.21875 53.421875 
Q 53.21875 48.921875 51.53125 44.890625 
Q 49.859375 40.875 45.40625 35.40625 
Q 44.1875 33.984375 37.640625 27.21875 
Q 31.109375 20.453125 19.1875 8.296875 
z
" id="DejaVuSans-50"/>
      </defs>
      <g transform="translate(114.313086 89.998437)scale(0.1 -0.1)">
       <use xlink:href="#DejaVuSans-50"/>
       <use x="63.623047" xlink:href="#DejaVuSans-48"/>
      </g>
     </g>
    </g>
    <g id="xtick_6">
     <g id="line2d_6">
      <g>
       <use style="stroke:#000000;stroke-width:0.8;" x="139.894482" xlink:href="#m6b1102fbdb" y="75.4"/>
      </g>
     </g>
     <g id="text_6">
      <!-- 25 -->
      <g transform="translate(133.531982 89.998437)scale(0.1 -0.1)">
       <use xlink:href="#DejaVuSans-50"/>
       <use x="63.623047" xlink:href="#DejaVuSans-53"/>
      </g>
     </g>
    </g>
    <g id="xtick_7">
     <g id="line2d_7">
      <g>
       <use style="stroke:#000000;stroke-width:0.8;" x="159.113378" xlink:href="#m6b1102fbdb" y="75.4"/>
      </g>
     </g>
     <g id="text_7">
      <!-- 30 -->
      <defs>
       <path d="M 40.578125 39.3125 
Q 47.65625 37.796875 51.625 33 
Q 55.609375 28.21875 55.609375 21.1875 
Q 55.609375 10.40625 48.1875 4.484375 
Q 40.765625 -1.421875 27.09375 -1.421875 
Q 22.515625 -1.421875 17.65625 -0.515625 
Q 12.796875 0.390625 7.625 2.203125 
L 7.625 11.71875 
Q 11.71875 9.328125 16.59375 8.109375 
Q 21.484375 6.890625 26.8125 6.890625 
Q 36.078125 6.890625 40.9375 10.546875 
Q 45.796875 14.203125 45.796875 21.1875 
Q 45.796875 27.640625 41.28125 31.265625 
Q 36.765625 34.90625 28.71875 34.90625 
L 20.21875 34.90625 
L 20.21875 43.015625 
L 29.109375 43.015625 
Q 36.375 43.015625 40.234375 45.921875 
Q 44.09375 48.828125 44.09375 54.296875 
Q 44.09375 59.90625 40.109375 62.90625 
Q 36.140625 65.921875 28.71875 65.921875 
Q 24.65625 65.921875 20.015625 65.03125 
Q 15.375 64.15625 9.8125 62.3125 
L 9.8125 71.09375 
Q 15.4375 72.65625 20.34375 73.4375 
Q 25.25 74.21875 29.59375 74.21875 
Q 40.828125 74.21875 47.359375 69.109375 
Q 53.90625 64.015625 53.90625 55.328125 
Q 53.90625 49.265625 50.4375 45.09375 
Q 46.96875 40.921875 40.578125 39.3125 
z
" id="DejaVuSans-51"/>
      </defs>
      <g transform="translate(152.750878 89.998437)scale(0.1 -0.1)">
       <use xlink:href="#DejaVuSans-51"/>
       <use x="63.623047" xlink:href="#DejaVuSans-48"/>
      </g>
     </g>
    </g>
    <g id="xtick_8">
     <g id="line2d_8">
      <g>
       <use style="stroke:#000000;stroke-width:0.8;" x="178.332273" xlink:href="#m6b1102fbdb" y="75.4"/>
      </g>
     </g>
     <g id="text_8">
      <!-- 35 -->
      <g transform="translate(171.969773 89.998437)scale(0.1 -0.1)">
       <use xlink:href="#DejaVuSans-51"/>
       <use x="63.623047" xlink:href="#DejaVuSans-53"/>
      </g>
     </g>
    </g>
    <g id="xtick_9">
     <g id="line2d_9">
      <g>
       <use style="stroke:#000000;stroke-width:0.8;" x="197.551169" xlink:href="#m6b1102fbdb" y="75.4"/>
      </g>
     </g>
     <g id="text_9">
      <!-- 40 -->
      <defs>
       <path d="M 37.796875 64.3125 
L 12.890625 25.390625 
L 37.796875 25.390625 
z
M 35.203125 72.90625 
L 47.609375 72.90625 
L 47.609375 25.390625 
L 58.015625 25.390625 
L 58.015625 17.1875 
L 47.609375 17.1875 
L 47.609375 0 
L 37.796875 0 
L 37.796875 17.1875 
L 4.890625 17.1875 
L 4.890625 26.703125 
z
" id="DejaVuSans-52"/>
      </defs>
      <g transform="translate(191.188669 89.998437)scale(0.1 -0.1)">
       <use xlink:href="#DejaVuSans-52"/>
       <use x="63.623047" xlink:href="#DejaVuSans-48"/>
      </g>
     </g>
    </g>
    <g id="xtick_10">
     <g id="line2d_10">
      <g>
       <use style="stroke:#000000;stroke-width:0.8;" x="216.770064" xlink:href="#m6b1102fbdb" y="75.4"/>
      </g>
     </g>
     <g id="text_10">
      <!-- 45 -->
      <g transform="translate(210.407564 89.998437)scale(0.1 -0.1)">
       <use xlink:href="#DejaVuSans-52"/>
       <use x="63.623047" xlink:href="#DejaVuSans-53"/>
      </g>
     </g>
    </g>
    <g id="xtick_11">
     <g id="line2d_11">
      <g>
       <use style="stroke:#000000;stroke-width:0.8;" x="235.98896" xlink:href="#m6b1102fbdb" y="75.4"/>
      </g>
     </g>
     <g id="text_11">
      <!-- 50 -->
      <g transform="translate(229.62646 89.998437)scale(0.1 -0.1)">
       <use xlink:href="#DejaVuSans-53"/>
       <use x="63.623047" xlink:href="#DejaVuSans-48"/>
      </g>
     </g>
    </g>
    <g id="xtick_12">
     <g id="line2d_12">
      <g>
       <use style="stroke:#000000;stroke-width:0.8;" x="255.207856" xlink:href="#m6b1102fbdb" y="75.4"/>
      </g>
     </g>
     <g id="text_12">
      <!-- 55 -->
      <g transform="translate(248.845356 89.998437)scale(0.1 -0.1)">
       <use xlink:href="#DejaVuSans-53"/>
       <use x="63.623047" xlink:href="#DejaVuSans-53"/>
      </g>
     </g>
    </g>
    <g id="xtick_13">
     <g id="line2d_13">
      <g>
       <use style="stroke:#000000;stroke-width:0.8;" x="274.426751" xlink:href="#m6b1102fbdb" y="75.4"/>
      </g>
     </g>
     <g id="text_13">
      <!-- 60 -->
      <defs>
       <path d="M 33.015625 40.375 
Q 26.375 40.375 22.484375 35.828125 
Q 18.609375 31.296875 18.609375 23.390625 
Q 18.609375 15.53125 22.484375 10.953125 
Q 26.375 6.390625 33.015625 6.390625 
Q 39.65625 6.390625 43.53125 10.953125 
Q 47.40625 15.53125 47.40625 23.390625 
Q 47.40625 31.296875 43.53125 35.828125 
Q 39.65625 40.375 33.015625 40.375 
z
M 52.59375 71.296875 
L 52.59375 62.3125 
Q 48.875 64.0625 45.09375 64.984375 
Q 41.3125 65.921875 37.59375 65.921875 
Q 27.828125 65.921875 22.671875 59.328125 
Q 17.53125 52.734375 16.796875 39.40625 
Q 19.671875 43.65625 24.015625 45.921875 
Q 28.375 48.1875 33.59375 48.1875 
Q 44.578125 48.1875 50.953125 41.515625 
Q 57.328125 34.859375 57.328125 23.390625 
Q 57.328125 12.15625 50.6875 5.359375 
Q 44.046875 -1.421875 33.015625 -1.421875 
Q 20.359375 -1.421875 13.671875 8.265625 
Q 6.984375 17.96875 6.984375 36.375 
Q 6.984375 53.65625 15.1875 63.9375 
Q 23.390625 74.21875 37.203125 74.21875 
Q 40.921875 74.21875 44.703125 73.484375 
Q 48.484375 72.75 52.59375 71.296875 
z
" id="DejaVuSans-54"/>
      </defs>
      <g transform="translate(268.064251 89.998437)scale(0.1 -0.1)">
       <use xlink:href="#DejaVuSans-54"/>
       <use x="63.623047" xlink:href="#DejaVuSans-48"/>
      </g>
     </g>
    </g>
   </g>
   <g id="matplotlib.axis_2">
    <g id="ytick_1">
     <g id="line2d_14">
      <defs>
       <path d="M 0 0 
L -3.5 0 
" id="m0560efd0bc" style="stroke:#000000;stroke-width:0.8;"/>
      </defs>
      <g>
       <use style="stroke:#000000;stroke-width:0.8;" x="33.8" xlink:href="#m0560efd0bc" y="65.4"/>
      </g>
     </g>
     <g id="text_14">
      <!-- 0.0 -->
      <defs>
       <path d="M 10.6875 12.40625 
L 21 12.40625 
L 21 0 
L 10.6875 0 
z
" id="DejaVuSans-46"/>
      </defs>
      <g transform="translate(10.896875 69.199219)scale(0.1 -0.1)">
       <use xlink:href="#DejaVuSans-48"/>
       <use x="63.623047" xlink:href="#DejaVuSans-46"/>
       <use x="95.410156" xlink:href="#DejaVuSans-48"/>
      </g>
     </g>
    </g>
    <g id="ytick_2">
     <g id="line2d_15">
      <g>
       <use style="stroke:#000000;stroke-width:0.8;" x="33.8" xlink:href="#m0560efd0bc" y="46.1"/>
      </g>
     </g>
     <g id="text_15">
      <!-- 0.5 -->
      <g transform="translate(10.896875 49.899219)scale(0.1 -0.1)">
       <use xlink:href="#DejaVuSans-48"/>
       <use x="63.623047" xlink:href="#DejaVuSans-46"/>
       <use x="95.410156" xlink:href="#DejaVuSans-53"/>
      </g>
     </g>
    </g>
    <g id="ytick_3">
     <g id="line2d_16">
      <g>
       <use style="stroke:#000000;stroke-width:0.8;" x="33.8" xlink:href="#m0560efd0bc" y="26.8"/>
      </g>
     </g>
     <g id="text_16">
      <!-- 1.0 -->
      <g transform="translate(10.896875 30.599219)scale(0.1 -0.1)">
       <use xlink:href="#DejaVuSans-49"/>
       <use x="63.623047" xlink:href="#DejaVuSans-46"/>
       <use x="95.410156" xlink:href="#DejaVuSans-48"/>
      </g>
     </g>
    </g>
    <g id="ytick_4">
     <g id="line2d_17">
      <defs>
       <path d="M 0 0 
L -2 0 
" id="mf203be7423" style="stroke:#000000;stroke-width:0.6;"/>
      </defs>
      <g>
       <use style="stroke:#000000;stroke-width:0.6;" x="33.8" xlink:href="#mf203be7423" y="55.75"/>
      </g>
     </g>
    </g>
    <g id="ytick_5">
     <g id="line2d_18">
      <g>
       <use style="stroke:#000000;stroke-width:0.6;" x="33.8" xlink:href="#mf203be7423" y="36.45"/>
      </g>
     </g>
    </g>
   </g>
   <g id="line2d_19">
    <path clip-path="url(#p3366cdd010)" d="M 43.800008 34.779778 
L 44.184386 29.043046 
L 44.568764 28.350176 
L 44.953141 34.801008 
L 45.337519 27.697064 
L 45.721897 28.277608 
L 46.106275 30.341164 
L 46.490653 33.78274 
L 46.875031 33.692416 
L 47.259409 28.917596 
L 47.643787 29.747882 
L 48.412543 32.95863 
L 48.796921 31.108918 
L 49.181298 28.427376 
L 49.565676 29.60043 
L 49.950054 34.086908 
L 50.71881 30.319162 
L 51.103188 34.965444 
L 51.487566 30.48244 
L 51.871944 32.68843 
L 52.256322 30.096054 
L 52.6407 29.000586 
L 53.025078 29.25882 
L 53.409455 28.582548 
L 53.793833 31.014734 
L 54.178211 31.380276 
L 54.562589 32.986422 
L 54.946967 30.71211 
L 55.331345 32.121396 
L 55.715723 30.612908 
L 56.100101 47.903778 
L 56.484479 31.205418 
L 56.868857 30.878862 
L 57.253235 30.758044 
L 57.637613 30.504442 
L 58.02199 28.975496 
L 58.406368 30.64842 
L 58.790746 28.43664 
L 59.175124 32.334468 
L 59.559502 32.320186 
L 59.94388 30.473562 
L 60.328258 30.248524 
L 60.712636 32.626284 
L 61.097014 30.289826 
L 61.481392 31.87011 
L 61.86577 30.1389 
L 62.250147 32.97407 
L 63.018903 48.245388 
L 63.403281 32.851322 
L 63.787659 32.303588 
L 64.172037 30.526444 
L 64.556415 31.774382 
L 64.940793 32.606212 
L 65.325171 29.993378 
L 65.709549 32.61509 
L 66.093927 33.12075 
L 66.478305 30.51911 
L 66.862682 29.522072 
L 67.24706 32.124098 
L 67.631438 32.092832 
L 68.015816 31.798314 
L 68.400194 34.82301 
L 69.16895 37.53852 
L 69.937706 30.75843 
L 70.322084 37.965436 
L 70.706462 33.561948 
L 71.090839 34.312332 
L 71.475217 32.272708 
L 71.859595 36.817858 
L 72.243973 29.457996 
L 72.628351 33.773476 
L 73.012729 33.118434 
L 73.397107 31.948468 
L 73.781485 29.856734 
L 74.165863 31.066844 
L 74.550241 30.966484 
L 74.934619 29.376936 
L 75.318996 30.64456 
L 75.703374 30.89739 
L 76.087752 30.077526 
L 76.47213 28.76088 
L 76.856508 35.355304 
L 77.240886 30.467386 
L 77.625264 33.735648 
L 78.009642 33.113416 
L 78.39402 34.116244 
L 78.778398 36.366238 
L 79.162776 34.405744 
L 79.547154 33.406004 
L 79.931531 34.72265 
L 80.315909 37.62344 
L 80.700287 36.301776 
L 81.084665 58.411856 
L 81.469043 64.878128 
L 81.853421 64.511814 
L 82.237799 65.053372 
L 82.622177 57.124546 
L 83.006555 42.162414 
L 83.390933 43.0892 
L 83.775311 39.129226 
L 84.159688 32.485394 
L 84.544066 31.244018 
L 84.928444 30.701688 
L 85.312822 39.038902 
L 85.6972 33.79818 
L 86.081578 31.223946 
L 86.465956 35.489246 
L 86.850334 36.711708 
L 87.234712 35.661402 
L 87.61909 35.681088 
L 88.387846 31.923378 
L 88.772223 32.633232 
L 89.156601 35.821978 
L 89.540979 33.835622 
L 89.925357 35.344882 
L 90.309735 35.1183 
L 90.694113 35.52167 
L 91.078491 32.803458 
L 91.462869 33.73256 
L 91.847247 36.560782 
L 92.231625 35.070822 
L 92.616003 35.969044 
L 93.00038 39.585092 
L 93.384758 33.863028 
L 93.769136 33.60325 
L 94.153514 32.280042 
L 94.537892 33.536472 
L 94.92227 32.006754 
L 95.306648 33.324172 
L 95.691026 33.432252 
L 96.075404 35.734742 
L 96.459782 39.631798 
L 96.84416 36.969556 
L 97.228537 41.464526 
L 97.612915 36.746448 
L 97.997293 36.695882 
L 98.381671 33.440744 
L 98.766049 36.295214 
L 99.150427 37.073776 
L 99.919183 31.019366 
L 100.303561 31.656266 
L 100.687939 35.58922 
L 101.072317 35.936234 
L 101.456695 35.767938 
L 101.841072 33.27708 
L 102.22545 34.916808 
L 102.609828 35.742848 
L 102.994206 34.586006 
L 103.378584 32.499676 
L 103.762962 38.820812 
L 104.14734 32.211334 
L 104.531718 32.447566 
L 104.916096 36.49825 
L 105.300474 32.884904 
L 105.684852 32.602738 
L 106.069229 34.90407 
L 106.453607 32.859428 
L 106.837985 32.004052 
L 107.222363 34.254432 
L 107.606741 34.84617 
L 107.991119 37.908308 
L 108.375497 35.547532 
L 108.759875 32.140696 
L 109.144253 30.597854 
L 109.528631 32.738224 
L 109.913009 33.18444 
L 110.297387 30.315688 
L 110.681764 39.45887 
L 111.066142 40.75969 
L 111.45052 31.64044 
L 111.834898 30.284422 
L 112.219276 36.200644 
L 112.603654 31.156782 
L 112.988032 30.798188 
L 113.37241 33.947176 
L 114.141166 34.711456 
L 114.525544 39.187512 
L 114.909921 33.948334 
L 115.294299 32.38156 
L 115.678677 33.014214 
L 116.063055 34.68598 
L 116.447433 35.266524 
L 116.831811 44.117118 
L 117.216189 30.991188 
L 117.600567 30.817102 
L 117.984945 33.297152 
L 118.753701 40.529634 
L 119.138078 39.475468 
L 119.522456 37.8975 
L 119.906834 35.718916 
L 120.291212 35.794958 
L 120.67559 34.019744 
L 121.059968 31.420806 
L 121.444346 36.311426 
L 121.828724 35.200904 
L 122.213102 34.628852 
L 122.59748 31.812596 
L 122.981858 33.597846 
L 123.366236 37.190734 
L 124.134991 30.4091 
L 124.519369 31.719956 
L 124.903747 30.09065 
L 125.288125 32.660252 
L 125.672503 32.996072 
L 126.056881 34.863154 
L 126.441259 35.19164 
L 126.825637 34.19576 
L 127.210015 32.038406 
L 127.594393 30.60403 
L 127.97877 30.31453 
L 128.747526 36.088704 
L 129.131904 33.37937 
L 129.516282 38.771404 
L 129.90066 32.603124 
L 130.669416 32.256496 
L 131.053794 31.365994 
L 131.438172 31.46674 
L 131.82255 31.951556 
L 132.206927 30.714426 
L 132.591305 30.187922 
L 132.975683 35.177358 
L 133.360061 35.61624 
L 133.744439 31.670162 
L 134.128817 30.628348 
L 134.513195 33.02039 
L 134.897573 34.04329 
L 135.666329 30.957992 
L 136.050707 31.350554 
L 136.435085 32.43753 
L 136.819462 34.653942 
L 137.20384 32.353382 
L 137.588218 33.02425 
L 137.972596 31.701428 
L 138.356974 32.64597 
L 138.741352 32.427494 
L 139.12573 35.833558 
L 139.510108 34.540458 
L 139.894486 31.68483 
L 140.278864 33.922472 
L 140.663242 31.745432 
L 141.047619 35.417064 
L 141.431997 33.988092 
L 141.816375 33.585108 
L 142.200753 30.501354 
L 142.585131 31.193452 
L 142.969509 32.534802 
L 143.738265 37.523466 
L 144.122643 36.634894 
L 144.507021 32.160382 
L 144.891399 37.093848 
L 145.275777 32.702712 
L 145.660154 31.867022 
L 146.044532 32.776052 
L 146.42891 39.667696 
L 146.813288 31.831124 
L 147.197666 30.07328 
L 147.582044 30.216486 
L 147.966422 29.770656 
L 148.3508 30.837174 
L 148.735178 41.671422 
L 149.119556 45.499384 
L 149.503934 44.234848 
L 149.888311 35.13567 
L 150.657067 30.966484 
L 151.041445 30.84914 
L 151.425823 30.531076 
L 151.810201 37.258284 
L 152.194579 31.270266 
L 152.578957 31.178398 
L 152.963335 31.527728 
L 153.347713 34.78055 
L 153.732091 30.77387 
L 154.116468 32.394298 
L 154.500846 29.808098 
L 154.885224 31.952328 
L 155.269602 30.66965 
L 155.65398 30.8916 
L 156.038358 32.210562 
L 156.422736 31.628474 
L 156.807114 30.06363 
L 157.191492 30.987714 
L 157.57587 32.47227 
L 157.960248 30.338076 
L 158.344626 34.045992 
L 158.729003 32.403562 
L 159.113381 33.263184 
L 159.497759 34.657802 
L 159.882137 34.101962 
L 160.266515 38.290448 
L 160.650893 31.977418 
L 161.035271 35.754814 
L 161.419649 32.73668 
L 161.804027 40.546618 
L 162.188405 44.64864 
L 162.572783 37.131676 
L 162.95716 50.981742 
L 163.341538 30.685862 
L 163.725916 31.221244 
L 164.110294 36.607874 
L 164.87905 52.498722 
L 165.647806 33.681608 
L 166.032184 40.553566 
L 166.416562 39.469292 
L 166.80094 34.330088 
L 167.185318 44.495398 
L 167.569695 37.094234 
L 167.954073 41.73627 
L 168.338451 36.824034 
L 168.722829 47.428612 
L 169.107207 52.521882 
L 169.491585 49.633058 
L 169.875963 42.246176 
L 170.260341 42.040824 
L 170.644719 41.405854 
L 171.029097 42.547642 
L 171.413475 45.55767 
L 171.797852 35.999152 
L 172.566608 39.756862 
L 172.950986 37.033246 
L 173.335364 48.043896 
L 173.719742 39.499014 
L 174.10412 34.804868 
L 174.488498 35.401238 
L 174.872876 35.222906 
L 175.257254 41.17271 
L 175.641632 39.54572 
L 176.026009 36.500566 
L 176.410387 45.98227 
L 176.794765 44.842412 
L 177.179143 40.765866 
L 177.563521 50.522788 
L 177.947899 36.559238 
L 178.332277 42.119182 
L 178.716655 32.413984 
L 179.101033 35.231398 
L 179.485411 40.148652 
L 179.869789 34.568636 
L 180.638544 40.82338 
L 181.022922 36.357746 
L 181.4073 38.005966 
L 181.791678 35.730882 
L 182.176056 44.545192 
L 182.560434 42.188662 
L 182.944812 47.417804 
L 183.32919 41.370342 
L 183.713568 33.373966 
L 184.097946 38.66178 
L 184.482324 36.039296 
L 184.866701 40.806396 
L 185.635457 31.3934 
L 186.019835 44.43441 
L 186.404213 46.515336 
L 186.788591 50.366458 
L 187.172969 38.400844 
L 187.557347 45.620974 
L 187.941725 44.011354 
L 188.326103 46.564744 
L 188.710481 40.536196 
L 189.094859 47.201258 
L 189.479236 50.831588 
L 189.863614 51.893474 
L 190.247992 42.534132 
L 190.63237 42.581224 
L 191.016748 40.009692 
L 191.401126 44.238322 
L 191.785504 38.435584 
L 192.169882 46.732654 
L 192.55426 41.913444 
L 192.938638 43.111974 
L 193.323016 37.133992 
L 193.707393 41.00287 
L 194.476149 31.201944 
L 194.860527 32.561436 
L 195.244905 31.33743 
L 195.629283 31.782874 
L 196.013661 34.363284 
L 196.398039 34.953092 
L 196.782417 31.65009 
L 197.166795 36.396346 
L 197.551173 34.59913 
L 197.93555 33.536086 
L 198.319928 34.37139 
L 198.704306 31.767048 
L 199.088684 33.2269 
L 199.473062 34.08768 
L 199.85744 33.295608 
L 200.241818 36.983066 
L 200.626196 39.396338 
L 201.010574 43.89594 
L 201.394952 45.183636 
L 201.77933 41.923094 
L 202.163708 46.12702 
L 202.548085 46.968114 
L 202.932463 41.755956 
L 203.316841 57.862192 
L 203.701219 56.204708 
L 204.085597 41.35606 
L 204.469975 49.330048 
L 204.854353 40.083418 
L 205.238731 49.110028 
L 205.623109 50.668696 
L 206.007487 31.213138 
L 206.391865 50.581846 
L 206.776242 40.972376 
L 207.16062 40.87935 
L 207.544998 38.842814 
L 207.929376 32.71738 
L 208.313754 31.019752 
L 208.698132 29.84168 
L 209.08251 35.799204 
L 209.466888 31.75624 
L 210.235644 45.51907 
L 210.620022 41.380378 
L 211.0044 47.475318 
L 211.388777 48.683112 
L 211.773155 38.427864 
L 212.157533 35.498896 
L 212.541911 43.389122 
L 212.926289 44.368404 
L 213.310667 49.730716 
L 214.079423 36.717112 
L 214.463801 35.339864 
L 214.848179 42.146588 
L 215.232557 39.133086 
L 215.616934 38.396598 
L 216.001312 35.295474 
L 216.38569 36.98847 
L 216.770068 32.116378 
L 217.154446 48.30792 
L 217.538824 48.5318 
L 217.923202 39.448448 
L 218.30758 39.70784 
L 218.691958 49.65506 
L 219.076336 38.816566 
L 219.460714 36.836772 
L 219.845091 64.40605 
L 220.229469 61.81213 
L 220.613847 60.49394 
L 220.998225 29.655242 
L 221.382603 34.447818 
L 221.766981 35.058084 
L 222.151359 36.015364 
L 222.535737 35.129494 
L 222.920115 33.714418 
L 223.304493 29.699632 
L 224.073249 34.912176 
L 224.457626 40.048292 
L 224.842004 34.604534 
L 225.226382 36.568502 
L 225.61076 36.602856 
L 225.995138 35.190096 
L 226.379516 43.420388 
L 226.763894 41.126004 
L 227.148272 31.990156 
L 227.53265 37.894026 
L 227.917028 39.822482 
L 228.301406 37.69678 
L 228.685783 41.554464 
L 229.070161 41.582256 
L 229.454539 34.25366 
L 229.838917 37.828406 
L 230.223295 32.97214 
L 230.607673 36.752238 
L 230.992051 34.27682 
L 231.376429 34.111612 
L 231.760807 36.864178 
L 232.145185 41.468772 
L 232.529563 28.274134 
L 232.91394 31.488356 
L 233.298318 31.013962 
L 233.682696 40.420396 
L 234.067074 46.302264 
L 234.451452 45.738704 
L 234.83583 36.639912 
L 235.220208 36.279388 
L 235.604586 45.521386 
L 235.988964 36.366624 
L 236.75772 40.204622 
L 237.142098 50.438254 
L 237.910853 41.034522 
L 238.295231 42.072862 
L 239.063987 29.132598 
L 239.448365 35.304738 
L 239.832743 38.54598 
L 240.217121 34.789428 
L 240.601499 42.632948 
L 240.985877 39.986532 
L 241.370255 53.81228 
L 241.754632 40.024746 
L 242.13901 53.247562 
L 242.523388 41.106318 
L 242.907766 33.779652 
L 243.292144 40.52809 
L 243.676522 35.412046 
L 244.445278 33.399442 
L 244.829656 39.142736 
L 245.214034 52.443524 
L 245.598412 36.827894 
L 245.98279 35.951674 
L 246.367167 50.171914 
L 246.751545 55.876994 
L 247.135923 33.629884 
L 247.520301 40.915634 
L 247.904679 34.859294 
L 248.289057 35.009448 
L 248.673435 41.946254 
L 249.057813 35.904582 
L 249.442191 43.072988 
L 249.826569 45.51328 
L 250.210947 31.41077 
L 250.595324 55.214618 
L 250.979702 44.889504 
L 251.36408 44.342542 
L 251.748458 53.909938 
L 252.132836 39.361598 
L 252.517214 47.327094 
L 252.901592 43.36905 
L 253.28597 63.231452 
L 254.054726 35.594624 
L 254.439104 32.583438 
L 254.823481 35.519354 
L 255.207859 42.38861 
L 255.592237 34.571338 
L 255.976615 36.880004 
L 256.360993 35.065032 
L 256.745371 46.143618 
L 257.129749 48.245388 
L 257.514127 46.006202 
L 257.898505 32.69808 
L 258.282883 38.095518 
L 258.667261 54.335696 
L 259.051639 39.126138 
L 259.436016 41.735112 
L 259.820394 29.794588 
L 260.204772 41.465298 
L 260.58915 42.307936 
L 260.973528 37.09462 
L 261.357906 42.97726 
L 261.742284 37.922976 
L 262.126662 39.454238 
L 262.51104 31.546256 
L 263.279796 41.167692 
L 263.664173 48.18633 
L 264.048551 49.330048 
L 264.432929 35.520898 
L 264.817307 32.789948 
L 265.201685 32.004438 
L 265.586063 48.574646 
L 265.970441 46.2158 
L 266.354819 53.591488 
L 266.739197 52.459736 
L 267.123575 42.246948 
L 267.507953 39.025778 
L 267.892331 41.155726 
L 268.276708 39.583162 
L 268.661086 33.470466 
L 269.045464 39.583548 
L 269.429842 41.04533 
L 270.582976 49.870448 
L 270.967354 55.35049 
L 271.351732 51.910844 
L 271.73611 40.934162 
L 272.120488 45.33958 
L 272.889243 63.474246 
L 273.273621 39.08638 
L 273.657999 36.197942 
L 274.042377 38.994898 
L 274.426755 56.801078 
L 274.811133 36.223418 
L 275.579889 39.770758 
L 275.964267 46.023958 
L 276.348645 58.246648 
L 276.733022 57.679614 
L 277.1174 50.325928 
L 277.501778 45.381654 
L 277.886156 58.682442 
L 278.270534 45.295576 
L 278.654912 47.779486 
L 279.03929 54.86992 
L 279.423668 49.881642 
L 279.808046 54.647584 
L 280.192424 53.553424 
L 280.192424 53.553424 
" style="fill:none;stroke:#1f77b4;stroke-linecap:square;stroke-width:1.5;"/>
   </g>
   <g id="patch_3">
    <path d="M 33.8 65.4 
L 33.8 26.8 
" style="fill:none;stroke:#000000;stroke-linecap:square;stroke-linejoin:miter;stroke-width:0.8;"/>
   </g>
   <g id="patch_4">
    <path d="M 43.8 75.4 
L 280.36579 75.4 
" style="fill:none;stroke:#000000;stroke-linecap:square;stroke-linejoin:miter;stroke-width:0.8;"/>
   </g>
   <g id="text_17">
    <!-- 2R -->
    <defs>
     <path d="M 28.8125 13.8125 
L 60.890625 13.8125 
L 60.890625 0 
L 7.90625 0 
L 7.90625 13.8125 
L 34.515625 37.3125 
Q 38.09375 40.53125 39.796875 43.609375 
Q 41.5 46.6875 41.5 50 
Q 41.5 55.125 38.0625 58.25 
Q 34.625 61.375 28.90625 61.375 
Q 24.515625 61.375 19.28125 59.5 
Q 14.0625 57.625 8.109375 53.90625 
L 8.109375 69.921875 
Q 14.453125 72.015625 20.65625 73.109375 
Q 26.859375 74.21875 32.8125 74.21875 
Q 45.90625 74.21875 53.15625 68.453125 
Q 60.40625 62.703125 60.40625 52.390625 
Q 60.40625 46.4375 57.328125 41.28125 
Q 54.25 36.140625 44.390625 27.484375 
z
" id="DejaVuSans-Bold-50"/>
     <path d="M 35.890625 40.578125 
Q 41.796875 40.578125 44.359375 42.765625 
Q 46.921875 44.96875 46.921875 50 
Q 46.921875 54.984375 44.359375 57.125 
Q 41.796875 59.28125 35.890625 59.28125 
L 27.984375 59.28125 
L 27.984375 40.578125 
z
M 27.984375 27.59375 
L 27.984375 0 
L 9.1875 0 
L 9.1875 72.90625 
L 37.890625 72.90625 
Q 52.296875 72.90625 59 68.0625 
Q 65.71875 63.234375 65.71875 52.78125 
Q 65.71875 45.5625 62.21875 40.921875 
Q 58.734375 36.28125 51.703125 34.078125 
Q 55.5625 33.203125 58.609375 30.09375 
Q 61.671875 27 64.796875 20.703125 
L 75 0 
L 54.984375 0 
L 46.09375 18.109375 
Q 43.40625 23.578125 40.640625 25.578125 
Q 37.890625 27.59375 33.296875 27.59375 
z
" id="DejaVuSans-Bold-82"/>
    </defs>
    <g transform="translate(153.288207 20.8)scale(0.12 -0.12)">
     <use xlink:href="#DejaVuSans-Bold-50"/>
     <use x="69.580078" xlink:href="#DejaVuSans-Bold-82"/>
    </g>
   </g>
  </g>
  <g id="axes_2">
   <g id="patch_5">
    <path d="M 295.63421 65.4 
L 532.2 65.4 
L 532.2 26.8 
L 295.63421 26.8 
z
" style="fill:#ffffff;"/>
   </g>
   <g id="matplotlib.axis_3">
    <g id="xtick_14">
     <g id="line2d_20">
      <g>
       <use style="stroke:#000000;stroke-width:0.8;" x="295.63421" xlink:href="#m6b1102fbdb" y="75.4"/>
      </g>
     </g>
     <g id="text_18">
      <!-- 0 -->
      <g transform="translate(292.45296 89.998437)scale(0.1 -0.1)">
       <use xlink:href="#DejaVuSans-48"/>
      </g>
     </g>
    </g>
    <g id="xtick_15">
     <g id="line2d_21">
      <g>
       <use style="stroke:#000000;stroke-width:0.8;" x="314.853106" xlink:href="#m6b1102fbdb" y="75.4"/>
      </g>
     </g>
     <g id="text_19">
      <!-- 5 -->
      <g transform="translate(311.671856 89.998437)scale(0.1 -0.1)">
       <use xlink:href="#DejaVuSans-53"/>
      </g>
     </g>
    </g>
    <g id="xtick_16">
     <g id="line2d_22">
      <g>
       <use style="stroke:#000000;stroke-width:0.8;" x="334.072002" xlink:href="#m6b1102fbdb" y="75.4"/>
      </g>
     </g>
     <g id="text_20">
      <!-- 10 -->
      <g transform="translate(327.709502 89.998437)scale(0.1 -0.1)">
       <use xlink:href="#DejaVuSans-49"/>
       <use x="63.623047" xlink:href="#DejaVuSans-48"/>
      </g>
     </g>
    </g>
    <g id="xtick_17">
     <g id="line2d_23">
      <g>
       <use style="stroke:#000000;stroke-width:0.8;" x="353.290897" xlink:href="#m6b1102fbdb" y="75.4"/>
      </g>
     </g>
     <g id="text_21">
      <!-- 15 -->
      <g transform="translate(346.928397 89.998437)scale(0.1 -0.1)">
       <use xlink:href="#DejaVuSans-49"/>
       <use x="63.623047" xlink:href="#DejaVuSans-53"/>
      </g>
     </g>
    </g>
    <g id="xtick_18">
     <g id="line2d_24">
      <g>
       <use style="stroke:#000000;stroke-width:0.8;" x="372.509793" xlink:href="#m6b1102fbdb" y="75.4"/>
      </g>
     </g>
     <g id="text_22">
      <!-- 20 -->
      <g transform="translate(366.147293 89.998437)scale(0.1 -0.1)">
       <use xlink:href="#DejaVuSans-50"/>
       <use x="63.623047" xlink:href="#DejaVuSans-48"/>
      </g>
     </g>
    </g>
    <g id="xtick_19">
     <g id="line2d_25">
      <g>
       <use style="stroke:#000000;stroke-width:0.8;" x="391.728688" xlink:href="#m6b1102fbdb" y="75.4"/>
      </g>
     </g>
     <g id="text_23">
      <!-- 25 -->
      <g transform="translate(385.366188 89.998437)scale(0.1 -0.1)">
       <use xlink:href="#DejaVuSans-50"/>
       <use x="63.623047" xlink:href="#DejaVuSans-53"/>
      </g>
     </g>
    </g>
    <g id="xtick_20">
     <g id="line2d_26">
      <g>
       <use style="stroke:#000000;stroke-width:0.8;" x="410.947584" xlink:href="#m6b1102fbdb" y="75.4"/>
      </g>
     </g>
     <g id="text_24">
      <!-- 30 -->
      <g transform="translate(404.585084 89.998437)scale(0.1 -0.1)">
       <use xlink:href="#DejaVuSans-51"/>
       <use x="63.623047" xlink:href="#DejaVuSans-48"/>
      </g>
     </g>
    </g>
    <g id="xtick_21">
     <g id="line2d_27">
      <g>
       <use style="stroke:#000000;stroke-width:0.8;" x="430.16648" xlink:href="#m6b1102fbdb" y="75.4"/>
      </g>
     </g>
     <g id="text_25">
      <!-- 35 -->
      <g transform="translate(423.80398 89.998437)scale(0.1 -0.1)">
       <use xlink:href="#DejaVuSans-51"/>
       <use x="63.623047" xlink:href="#DejaVuSans-53"/>
      </g>
     </g>
    </g>
    <g id="xtick_22">
     <g id="line2d_28">
      <g>
       <use style="stroke:#000000;stroke-width:0.8;" x="449.385375" xlink:href="#m6b1102fbdb" y="75.4"/>
      </g>
     </g>
     <g id="text_26">
      <!-- 40 -->
      <g transform="translate(443.022875 89.998437)scale(0.1 -0.1)">
       <use xlink:href="#DejaVuSans-52"/>
       <use x="63.623047" xlink:href="#DejaVuSans-48"/>
      </g>
     </g>
    </g>
    <g id="xtick_23">
     <g id="line2d_29">
      <g>
       <use style="stroke:#000000;stroke-width:0.8;" x="468.604271" xlink:href="#m6b1102fbdb" y="75.4"/>
      </g>
     </g>
     <g id="text_27">
      <!-- 45 -->
      <g transform="translate(462.241771 89.998437)scale(0.1 -0.1)">
       <use xlink:href="#DejaVuSans-52"/>
       <use x="63.623047" xlink:href="#DejaVuSans-53"/>
      </g>
     </g>
    </g>
   </g>
   <g id="matplotlib.axis_4">
    <g id="ytick_6">
     <g id="line2d_30">
      <defs>
       <path d="M 0 0 
L 3.5 0 
" id="m52b9682773" style="stroke:#000000;stroke-width:0.8;"/>
      </defs>
      <g>
       <use style="stroke:#000000;stroke-width:0.8;" x="542.2" xlink:href="#m52b9682773" y="65.4"/>
      </g>
     </g>
     <g id="text_28">
      <!-- 0.0 -->
      <g transform="translate(549.2 69.199219)scale(0.1 -0.1)">
       <use xlink:href="#DejaVuSans-48"/>
       <use x="63.623047" xlink:href="#DejaVuSans-46"/>
       <use x="95.410156" xlink:href="#DejaVuSans-48"/>
      </g>
     </g>
    </g>
    <g id="ytick_7">
     <g id="line2d_31">
      <g>
       <use style="stroke:#000000;stroke-width:0.8;" x="542.2" xlink:href="#m52b9682773" y="46.1"/>
      </g>
     </g>
     <g id="text_29">
      <!-- 0.5 -->
      <g transform="translate(549.2 49.899219)scale(0.1 -0.1)">
       <use xlink:href="#DejaVuSans-48"/>
       <use x="63.623047" xlink:href="#DejaVuSans-46"/>
       <use x="95.410156" xlink:href="#DejaVuSans-53"/>
      </g>
     </g>
    </g>
    <g id="ytick_8">
     <g id="line2d_32">
      <g>
       <use style="stroke:#000000;stroke-width:0.8;" x="542.2" xlink:href="#m52b9682773" y="26.8"/>
      </g>
     </g>
     <g id="text_30">
      <!-- 1.0 -->
      <g transform="translate(549.2 30.599219)scale(0.1 -0.1)">
       <use xlink:href="#DejaVuSans-49"/>
       <use x="63.623047" xlink:href="#DejaVuSans-46"/>
       <use x="95.410156" xlink:href="#DejaVuSans-48"/>
      </g>
     </g>
    </g>
    <g id="ytick_9">
     <g id="line2d_33">
      <defs>
       <path d="M 0 0 
L 2 0 
" id="mf559198444" style="stroke:#000000;stroke-width:0.6;"/>
      </defs>
      <g>
       <use style="stroke:#000000;stroke-width:0.6;" x="542.2" xlink:href="#mf559198444" y="55.75"/>
      </g>
     </g>
    </g>
    <g id="ytick_10">
     <g id="line2d_34">
      <g>
       <use style="stroke:#000000;stroke-width:0.6;" x="542.2" xlink:href="#mf559198444" y="36.45"/>
      </g>
     </g>
    </g>
   </g>
   <g id="line2d_35">
    <path clip-path="url(#p895fb0d390)" d="M 295.634214 61.859994 
L 296.40297 55.189142 
L 296.787348 54.080164 
L 297.171726 50.765968 
L 297.556104 55.136646 
L 297.940482 48.658022 
L 298.32486 45.410604 
L 298.709237 53.750906 
L 299.093615 47.486512 
L 299.477993 56.276504 
L 299.862371 56.155686 
L 300.246749 51.400166 
L 300.631127 52.445068 
L 301.015505 56.45252 
L 301.399883 41.420522 
L 301.784261 53.471442 
L 302.168639 57.100614 
L 302.937395 47.312426 
L 303.321772 46.43582 
L 303.70615 53.014804 
L 304.090528 56.983656 
L 304.859284 47.315514 
L 305.243662 45.282452 
L 305.62804 44.639376 
L 306.012418 48.659566 
L 306.396796 45.23729 
L 307.165552 36.884636 
L 307.549929 41.693424 
L 307.934307 36.943308 
L 308.318685 44.607338 
L 308.703063 34.430448 
L 309.087441 42.6646 
L 309.471819 37.28569 
L 309.856197 36.900076 
L 310.240575 41.425154 
L 310.624953 39.447676 
L 311.009331 63.490072 
L 311.393709 36.820946 
L 311.778086 38.347576 
L 312.162464 36.688934 
L 312.546842 30.519882 
L 313.315598 49.292992 
L 313.699976 38.51124 
L 314.084354 37.436616 
L 314.468732 39.654572 
L 314.85311 55.005792 
L 315.237488 64.04128 
L 315.621866 61.230814 
L 316.006244 62.846224 
L 316.390621 58.38831 
L 317.159377 40.171812 
L 317.543755 31.92608 
L 317.928133 41.530918 
L 318.312511 42.756468 
L 318.696889 44.501574 
L 319.081267 36.182888 
L 319.465645 39.710156 
L 319.850023 50.100504 
L 320.234401 35.279648 
L 320.618778 43.33431 
L 321.003156 31.956574 
L 321.387534 34.08768 
L 321.771912 30.676598 
L 322.15629 32.051144 
L 322.540668 36.277458 
L 322.925046 44.425532 
L 323.309424 42.538378 
L 323.693802 50.420498 
L 324.07818 55.99511 
L 324.462558 44.722752 
L 324.846936 28.142508 
L 325.231313 39.243868 
L 325.615691 32.849006 
L 326.000069 29.637872 
L 326.384447 33.29252 
L 326.768825 34.549336 
L 327.153203 40.347828 
L 327.537581 49.400686 
L 327.921959 64.913254 
L 328.306337 57.177428 
L 328.690715 38.062708 
L 329.075093 43.244372 
L 329.45947 40.938022 
L 329.843848 37.413842 
L 330.228226 37.892868 
L 330.612604 49.483676 
L 330.996982 48.967594 
L 331.38136 35.351058 
L 331.765738 37.22586 
L 332.150116 36.558852 
L 332.534494 34.16681 
L 332.918872 41.014064 
L 333.30325 30.086404 
L 333.687627 33.627182 
L 334.072005 32.517432 
L 334.456383 41.042628 
L 334.840761 31.817614 
L 335.225139 35.82082 
L 335.609517 36.470072 
L 335.993895 37.679796 
L 336.378273 32.670288 
L 336.762651 33.945632 
L 337.147029 32.112132 
L 337.531407 38.078148 
L 337.915785 36.871898 
L 338.300162 32.543294 
L 338.68454 34.237448 
L 339.068918 36.505198 
L 339.453296 42.09139 
L 339.837674 39.292504 
L 340.222052 32.178138 
L 340.60643 31.315042 
L 340.990808 29.121018 
L 341.375186 31.018594 
L 342.143942 37.728432 
L 342.528319 33.20181 
L 342.912697 39.657274 
L 343.297075 38.200896 
L 343.681453 35.180446 
L 344.065831 33.279782 
L 344.450209 32.910766 
L 344.834587 36.69318 
L 345.218965 30.771168 
L 345.603343 42.81514 
L 345.987721 36.3921 
L 346.372099 36.10646 
L 346.756476 39.23306 
L 347.140854 54.474656 
L 347.525232 38.501976 
L 347.90961 35.813486 
L 348.293988 35.360708 
L 349.062744 38.791862 
L 349.447122 33.941 
L 349.8315 34.689068 
L 350.215878 38.12331 
L 350.600256 32.911924 
L 350.984634 33.673502 
L 351.369011 37.28183 
L 351.753389 32.72703 
L 352.137767 34.54702 
L 352.522145 35.804608 
L 352.906523 41.542884 
L 353.290901 33.639534 
L 353.675279 37.636564 
L 354.059657 29.288928 
L 354.444035 33.20567 
L 354.828413 33.69396 
L 355.212791 31.217384 
L 355.597168 33.633358 
L 355.981546 35.204378 
L 356.365924 40.492578 
L 356.750302 34.045992 
L 357.519058 43.193034 
L 357.903436 41.06077 
L 358.287814 32.806932 
L 358.672192 37.736152 
L 359.05657 33.474712 
L 359.440948 33.971108 
L 359.825326 34.007006 
L 360.209703 35.112124 
L 360.594081 33.409864 
L 360.978459 42.570802 
L 361.362837 31.032876 
L 361.747215 31.864706 
L 362.131593 34.804482 
L 362.515971 35.15304 
L 362.900349 38.556016 
L 363.284727 33.796636 
L 364.053483 40.106578 
L 364.43786 35.341022 
L 364.822238 41.430944 
L 365.206616 36.786592 
L 365.590994 37.452828 
L 365.975372 40.864296 
L 366.35975 38.865974 
L 366.744128 40.767024 
L 367.128506 38.861342 
L 367.512884 39.38167 
L 367.897262 36.091792 
L 368.28164 40.751584 
L 368.666017 38.936226 
L 369.050395 47.908796 
L 369.434773 32.948208 
L 369.819151 38.91847 
L 370.203529 35.882966 
L 370.587907 34.207726 
L 371.356663 38.162682 
L 371.741041 33.475484 
L 372.125419 35.225222 
L 372.509797 33.795478 
L 372.894175 34.092312 
L 373.278552 34.179548 
L 373.66293 39.865714 
L 374.047308 34.746582 
L 374.431686 41.401608 
L 374.816064 44.177334 
L 375.200442 45.95718 
L 375.58482 40.074154 
L 375.969198 36.790838 
L 376.353576 35.291228 
L 376.737954 36.960678 
L 377.122332 36.06979 
L 377.506709 36.250824 
L 378.659843 35.399694 
L 379.044221 34.335492 
L 379.428599 37.594104 
L 379.812977 34.63194 
L 380.197355 37.509184 
L 380.581733 33.977284 
L 380.966111 32.3198 
L 381.350489 33.426848 
L 381.734867 33.981916 
L 382.119244 40.240906 
L 382.503622 33.201424 
L 382.888 37.213894 
L 383.656756 33.716348 
L 384.425512 36.678126 
L 384.80989 34.146352 
L 385.194268 36.526814 
L 385.578646 36.854914 
L 385.963024 38.113274 
L 386.347401 32.91038 
L 387.116157 36.19717 
L 387.500535 36.37666 
L 387.884913 34.148282 
L 388.269291 33.931736 
L 388.653669 35.767552 
L 389.038047 32.43946 
L 389.422425 34.679804 
L 389.806803 31.622684 
L 390.191181 34.52 
L 390.575558 35.415906 
L 390.959936 35.849384 
L 391.344314 38.975212 
L 391.728692 34.806798 
L 392.11307 38.165384 
L 392.497448 42.573118 
L 392.881826 41.44291 
L 393.266204 33.961844 
L 393.650582 34.616886 
L 394.03496 34.35595 
L 394.419338 33.63413 
L 394.803716 36.72599 
L 395.188093 35.00443 
L 395.572471 36.135024 
L 395.956849 42.30176 
L 396.341227 34.118174 
L 396.725605 35.489246 
L 397.109983 30.62526 
L 397.494361 37.758154 
L 397.878739 36.831754 
L 398.263117 34.003918 
L 398.647495 35.889142 
L 399.031873 32.637478 
L 399.41625 34.416552 
L 399.800628 33.796636 
L 400.569384 38.373052 
L 400.953762 36.031962 
L 401.722518 35.014466 
L 402.106896 31.128604 
L 402.491274 36.033506 
L 402.875652 33.655746 
L 403.26003 32.095148 
L 403.644408 34.64738 
L 404.028785 43.14903 
L 405.181919 32.457216 
L 405.566297 31.953872 
L 405.950675 35.637084 
L 406.335053 33.355052 
L 406.719431 34.519228 
L 407.103809 41.443296 
L 407.488187 34.6744 
L 407.872565 39.091784 
L 408.256942 36.163974 
L 408.64132 35.972518 
L 409.025698 39.44536 
L 409.410076 36.025014 
L 409.794454 37.24516 
L 410.178832 35.688036 
L 410.56321 42.042754 
L 410.947588 65.388806 
L 411.331966 45.933248 
L 411.716344 35.640558 
L 412.100722 39.996568 
L 412.485099 41.220188 
L 413.253855 32.646742 
L 413.638233 34.57404 
L 414.022611 33.019232 
L 414.406989 30.883108 
L 415.175745 38.145698 
L 415.560123 35.806924 
L 415.944501 37.479462 
L 416.328879 39.710542 
L 416.713257 40.84654 
L 417.097634 40.443556 
L 417.482012 39.20025 
L 417.86639 39.554984 
L 418.250768 30.705162 
L 418.635146 34.700262 
L 419.019524 37.299586 
L 419.403902 33.185598 
L 419.78828 38.932366 
L 420.941414 34.243238 
L 421.325791 37.03865 
L 421.710169 36.960292 
L 422.094547 37.643512 
L 422.478925 37.795982 
L 422.863303 35.681088 
L 423.247681 37.154836 
L 423.632059 37.238212 
L 424.016437 37.89943 
L 424.400815 34.617658 
L 424.785193 33.267044 
L 425.169571 37.00198 
L 425.553949 36.964924 
L 425.938326 34.396094 
L 426.322704 34.291102 
L 426.707082 39.491294 
L 427.09146 38.080078 
L 427.475838 36.192924 
L 427.860216 35.247224 
L 428.244594 32.852866 
L 428.628972 34.82301 
L 429.01335 32.208632 
L 429.397728 33.04355 
L 429.782106 32.57649 
L 430.166483 31.303076 
L 430.550861 32.102482 
L 430.935239 35.159988 
L 431.319617 34.768584 
L 431.703995 31.470986 
L 432.088373 30.93599 
L 432.472751 33.221882 
L 432.857129 33.575072 
L 433.241507 32.431354 
L 433.625885 34.337808 
L 434.010263 32.775666 
L 434.39464 34.860838 
L 434.779018 32.119466 
L 435.163396 31.343992 
L 435.547774 33.784284 
L 435.932152 34.833432 
L 436.31653 33.494398 
L 436.700908 32.754436 
L 437.085286 35.096298 
L 437.469664 32.494658 
L 437.854042 44.796092 
L 438.23842 38.523592 
L 438.622798 35.412046 
L 439.007175 61.780864 
L 439.391553 39.199478 
L 439.775931 37.022438 
L 440.160309 36.132322 
L 440.544687 36.43263 
L 440.929065 35.037626 
L 441.313443 31.641984 
L 441.697821 33.652658 
L 442.082199 33.739894 
L 442.466577 34.09926 
L 442.850955 33.648026 
L 443.235332 31.912184 
L 443.61971 35.920794 
L 444.388466 33.351964 
L 444.772844 34.050624 
L 445.157222 30.866896 
L 445.5416 34.677874 
L 445.925978 40.12086 
L 446.694734 33.235778 
L 447.079112 33.890434 
L 447.847867 36.644158 
L 448.232245 35.210554 
L 448.616623 32.388508 
L 449.001001 38.583036 
L 449.385379 37.871252 
L 449.769757 33.907032 
L 450.154135 35.126792 
L 450.538513 40.494508 
L 450.922891 37.60607 
L 451.307269 37.803316 
L 451.691647 32.872552 
L 452.076024 35.63747 
L 452.460402 34.327772 
L 452.84478 34.60106 
L 453.229158 42.156624 
L 453.613536 36.566958 
L 453.997914 35.899178 
L 454.382292 33.389792 
L 454.76667 35.882966 
L 455.151048 35.385026 
L 455.535426 36.405996 
L 455.919804 38.960158 
L 456.304181 34.5972 
L 456.688559 40.361338 
L 457.072937 32.461462 
L 457.457315 42.407524 
L 457.841693 33.37744 
L 458.226071 30.021942 
L 458.610449 31.681356 
L 458.994827 30.377834 
L 459.379205 30.554622 
L 459.763583 30.487458 
L 460.147961 33.229988 
L 460.532339 33.23076 
L 460.916716 31.933028 
L 461.301094 32.915398 
L 461.685472 29.593868 
L 462.06985 30.55578 
L 462.454228 33.530682 
L 463.222984 30.78159 
L 463.607362 30.814786 
L 463.99174 32.47999 
L 464.376118 32.453356 
L 464.760496 31.697182 
L 465.144873 38.456814 
L 465.529251 34.43315 
L 465.913629 32.087042 
L 466.298007 39.519472 
L 466.682385 29.6178 
L 467.066763 31.072248 
L 467.451141 34.05487 
L 467.835519 42.144658 
L 468.219897 34.403814 
L 468.604275 42.234982 
L 468.988653 31.538536 
L 469.37303 30.649964 
L 469.757408 32.366506 
L 470.141786 30.575466 
L 470.526164 30.647262 
L 470.910542 33.768844 
L 471.29492 31.181486 
L 471.679298 30.868054 
L 472.063676 34.216604 
L 472.448054 31.11548 
L 472.832432 29.711984 
L 473.21681 29.690368 
L 473.601188 37.3957 
L 474.369943 31.641598 
L 474.754321 31.733852 
L 475.138699 33.68238 
L 475.523077 31.03442 
L 475.907455 31.091934 
L 476.291833 32.080094 
L 476.676211 30.634138 
L 477.060589 31.73501 
L 477.444967 31.205804 
L 477.829345 31.034034 
L 478.213722 31.366766 
L 478.5981 35.005974 
L 478.982478 31.976646 
L 479.366856 30.277474 
L 479.751234 30.570448 
L 480.135612 30.404082 
L 480.51999 31.931484 
L 480.904368 31.093092 
L 481.288746 29.982956 
L 481.673124 30.61561 
L 482.057502 31.946924 
L 482.44188 30.11188 
L 482.826257 30.487072 
L 483.210635 30.573536 
L 483.595013 32.29278 
L 483.979391 31.677496 
L 484.363769 27.757666 
L 484.748147 28.026322 
L 485.132525 32.486937 
L 485.132525 32.486937 
" style="fill:none;stroke:#1f77b4;stroke-linecap:square;stroke-width:1.5;"/>
   </g>
   <g id="patch_6">
    <path d="M 542.2 65.4 
L 542.2 26.8 
" style="fill:none;stroke:#000000;stroke-linecap:square;stroke-linejoin:miter;stroke-width:0.8;"/>
   </g>
   <g id="patch_7">
    <path d="M 295.63421 75.4 
L 532.2 75.4 
" style="fill:none;stroke:#000000;stroke-linecap:square;stroke-linejoin:miter;stroke-width:0.8;"/>
   </g>
   <g id="text_31">
    <!-- 2L -->
    <defs>
     <path d="M 9.1875 72.90625 
L 27.984375 72.90625 
L 27.984375 14.203125 
L 60.984375 14.203125 
L 60.984375 0 
L 9.1875 0 
z
" id="DejaVuSans-Bold-76"/>
    </defs>
    <g transform="translate(405.919293 20.8)scale(0.12 -0.12)">
     <use xlink:href="#DejaVuSans-Bold-50"/>
     <use x="69.580078" xlink:href="#DejaVuSans-Bold-76"/>
    </g>
   </g>
  </g>
  <g id="axes_3">
   <g id="patch_8">
    <path d="M 43.8 157.8 
L 280.36579 157.8 
L 280.36579 119.2 
L 43.8 119.2 
z
" style="fill:#ffffff;"/>
   </g>
   <g id="matplotlib.axis_5">
    <g id="xtick_24">
     <g id="line2d_36">
      <g>
       <use style="stroke:#000000;stroke-width:0.8;" x="75.874115" xlink:href="#m6b1102fbdb" y="167.8"/>
      </g>
     </g>
     <g id="text_32">
      <!-- 0 -->
      <g transform="translate(72.692865 182.398438)scale(0.1 -0.1)">
       <use xlink:href="#DejaVuSans-48"/>
      </g>
     </g>
    </g>
    <g id="xtick_25">
     <g id="line2d_37">
      <g>
       <use style="stroke:#000000;stroke-width:0.8;" x="95.093011" xlink:href="#m6b1102fbdb" y="167.8"/>
      </g>
     </g>
     <g id="text_33">
      <!-- 5 -->
      <g transform="translate(91.911761 182.398438)scale(0.1 -0.1)">
       <use xlink:href="#DejaVuSans-53"/>
      </g>
     </g>
    </g>
    <g id="xtick_26">
     <g id="line2d_38">
      <g>
       <use style="stroke:#000000;stroke-width:0.8;" x="114.311906" xlink:href="#m6b1102fbdb" y="167.8"/>
      </g>
     </g>
     <g id="text_34">
      <!-- 10 -->
      <g transform="translate(107.949406 182.398438)scale(0.1 -0.1)">
       <use xlink:href="#DejaVuSans-49"/>
       <use x="63.623047" xlink:href="#DejaVuSans-48"/>
      </g>
     </g>
    </g>
    <g id="xtick_27">
     <g id="line2d_39">
      <g>
       <use style="stroke:#000000;stroke-width:0.8;" x="133.530802" xlink:href="#m6b1102fbdb" y="167.8"/>
      </g>
     </g>
     <g id="text_35">
      <!-- 15 -->
      <g transform="translate(127.168302 182.398438)scale(0.1 -0.1)">
       <use xlink:href="#DejaVuSans-49"/>
       <use x="63.623047" xlink:href="#DejaVuSans-53"/>
      </g>
     </g>
    </g>
    <g id="xtick_28">
     <g id="line2d_40">
      <g>
       <use style="stroke:#000000;stroke-width:0.8;" x="152.749698" xlink:href="#m6b1102fbdb" y="167.8"/>
      </g>
     </g>
     <g id="text_36">
      <!-- 20 -->
      <g transform="translate(146.387198 182.398438)scale(0.1 -0.1)">
       <use xlink:href="#DejaVuSans-50"/>
       <use x="63.623047" xlink:href="#DejaVuSans-48"/>
      </g>
     </g>
    </g>
    <g id="xtick_29">
     <g id="line2d_41">
      <g>
       <use style="stroke:#000000;stroke-width:0.8;" x="171.968593" xlink:href="#m6b1102fbdb" y="167.8"/>
      </g>
     </g>
     <g id="text_37">
      <!-- 25 -->
      <g transform="translate(165.606093 182.398438)scale(0.1 -0.1)">
       <use xlink:href="#DejaVuSans-50"/>
       <use x="63.623047" xlink:href="#DejaVuSans-53"/>
      </g>
     </g>
    </g>
    <g id="xtick_30">
     <g id="line2d_42">
      <g>
       <use style="stroke:#000000;stroke-width:0.8;" x="191.187489" xlink:href="#m6b1102fbdb" y="167.8"/>
      </g>
     </g>
     <g id="text_38">
      <!-- 30 -->
      <g transform="translate(184.824989 182.398438)scale(0.1 -0.1)">
       <use xlink:href="#DejaVuSans-51"/>
       <use x="63.623047" xlink:href="#DejaVuSans-48"/>
      </g>
     </g>
    </g>
    <g id="xtick_31">
     <g id="line2d_43">
      <g>
       <use style="stroke:#000000;stroke-width:0.8;" x="210.406384" xlink:href="#m6b1102fbdb" y="167.8"/>
      </g>
     </g>
     <g id="text_39">
      <!-- 35 -->
      <g transform="translate(204.043884 182.398438)scale(0.1 -0.1)">
       <use xlink:href="#DejaVuSans-51"/>
       <use x="63.623047" xlink:href="#DejaVuSans-53"/>
      </g>
     </g>
    </g>
    <g id="xtick_32">
     <g id="line2d_44">
      <g>
       <use style="stroke:#000000;stroke-width:0.8;" x="229.62528" xlink:href="#m6b1102fbdb" y="167.8"/>
      </g>
     </g>
     <g id="text_40">
      <!-- 40 -->
      <g transform="translate(223.26278 182.398438)scale(0.1 -0.1)">
       <use xlink:href="#DejaVuSans-52"/>
       <use x="63.623047" xlink:href="#DejaVuSans-48"/>
      </g>
     </g>
    </g>
    <g id="xtick_33">
     <g id="line2d_45">
      <g>
       <use style="stroke:#000000;stroke-width:0.8;" x="248.844176" xlink:href="#m6b1102fbdb" y="167.8"/>
      </g>
     </g>
     <g id="text_41">
      <!-- 45 -->
      <g transform="translate(242.481676 182.398438)scale(0.1 -0.1)">
       <use xlink:href="#DejaVuSans-52"/>
       <use x="63.623047" xlink:href="#DejaVuSans-53"/>
      </g>
     </g>
    </g>
    <g id="xtick_34">
     <g id="line2d_46">
      <g>
       <use style="stroke:#000000;stroke-width:0.8;" x="268.063071" xlink:href="#m6b1102fbdb" y="167.8"/>
      </g>
     </g>
     <g id="text_42">
      <!-- 50 -->
      <g transform="translate(261.700571 182.398438)scale(0.1 -0.1)">
       <use xlink:href="#DejaVuSans-53"/>
       <use x="63.623047" xlink:href="#DejaVuSans-48"/>
      </g>
     </g>
    </g>
   </g>
   <g id="matplotlib.axis_6">
    <g id="ytick_11">
     <g id="line2d_47">
      <g>
       <use style="stroke:#000000;stroke-width:0.8;" x="33.8" xlink:href="#m0560efd0bc" y="157.8"/>
      </g>
     </g>
     <g id="text_43">
      <!-- 0.0 -->
      <g transform="translate(10.896875 161.599219)scale(0.1 -0.1)">
       <use xlink:href="#DejaVuSans-48"/>
       <use x="63.623047" xlink:href="#DejaVuSans-46"/>
       <use x="95.410156" xlink:href="#DejaVuSans-48"/>
      </g>
     </g>
    </g>
    <g id="ytick_12">
     <g id="line2d_48">
      <g>
       <use style="stroke:#000000;stroke-width:0.8;" x="33.8" xlink:href="#m0560efd0bc" y="138.5"/>
      </g>
     </g>
     <g id="text_44">
      <!-- 0.5 -->
      <g transform="translate(10.896875 142.299219)scale(0.1 -0.1)">
       <use xlink:href="#DejaVuSans-48"/>
       <use x="63.623047" xlink:href="#DejaVuSans-46"/>
       <use x="95.410156" xlink:href="#DejaVuSans-53"/>
      </g>
     </g>
    </g>
    <g id="ytick_13">
     <g id="line2d_49">
      <g>
       <use style="stroke:#000000;stroke-width:0.8;" x="33.8" xlink:href="#m0560efd0bc" y="119.2"/>
      </g>
     </g>
     <g id="text_45">
      <!-- 1.0 -->
      <g transform="translate(10.896875 122.999219)scale(0.1 -0.1)">
       <use xlink:href="#DejaVuSans-49"/>
       <use x="63.623047" xlink:href="#DejaVuSans-46"/>
       <use x="95.410156" xlink:href="#DejaVuSans-48"/>
      </g>
     </g>
    </g>
    <g id="ytick_14">
     <g id="line2d_50">
      <g>
       <use style="stroke:#000000;stroke-width:0.6;" x="33.8" xlink:href="#mf203be7423" y="148.15"/>
      </g>
     </g>
    </g>
    <g id="ytick_15">
     <g id="line2d_51">
      <g>
       <use style="stroke:#000000;stroke-width:0.6;" x="33.8" xlink:href="#mf203be7423" y="128.85"/>
      </g>
     </g>
    </g>
   </g>
   <g id="line2d_52">
    <path clip-path="url(#p64a3cdc421)" d="M 75.874119 126.393496 
L 76.258497 124.247722 
L 76.642875 121.021534 
L 77.027253 123.399294 
L 77.796008 120.858642 
L 78.180386 122.875492 
L 78.564764 121.236536 
L 78.949142 121.31142 
L 79.33352 125.431584 
L 79.717898 121.698578 
L 80.102276 123.620086 
L 80.486654 124.284392 
L 80.871032 124.322606 
L 81.25541 125.265218 
L 81.639788 122.308458 
L 82.024166 122.173358 
L 82.408543 123.271142 
L 82.792921 125.387194 
L 83.177299 121.368934 
L 83.561677 122.190728 
L 83.946055 129.489988 
L 84.330433 131.356684 
L 84.714811 126.663696 
L 85.099189 123.514322 
L 85.483567 122.67207 
L 85.867945 122.819522 
L 86.252323 124.260846 
L 86.6367 123.454106 
L 87.021078 123.516252 
L 87.405456 132.315122 
L 87.789834 124.467356 
L 88.174212 124.322992 
L 88.55859 123.845124 
L 88.942968 131.004266 
L 89.327346 121.783112 
L 89.711724 122.186096 
L 90.096102 121.915124 
L 90.864857 122.213116 
L 91.249235 121.437256 
L 91.633613 122.005448 
L 92.017991 124.020368 
L 92.402369 124.170908 
L 92.786747 125.728032 
L 93.171125 121.834064 
L 93.555503 122.447804 
L 93.939881 124.703202 
L 94.324259 122.892862 
L 94.708637 125.446252 
L 95.093015 123.58689 
L 95.477392 124.026158 
L 95.86177 123.2337 
L 97.014904 122.167568 
L 97.399282 123.554852 
L 97.78366 121.226114 
L 98.168038 130.251566 
L 98.552416 130.16047 
L 98.936794 125.767404 
L 99.321172 127.016886 
L 99.705549 124.497464 
L 100.474305 129.88255 
L 100.858683 126.14607 
L 101.627439 122.481386 
L 102.011817 123.26651 
L 102.780573 134.482512 
L 103.164951 123.917306 
L 103.549329 122.679018 
L 103.933707 121.93867 
L 104.318084 128.67244 
L 104.702462 126.101294 
L 105.08684 124.317202 
L 105.471218 131.821042 
L 105.855596 150.266438 
L 106.239974 134.760432 
L 107.00873 122.277964 
L 107.393108 121.453082 
L 107.777486 124.527186 
L 108.161864 125.322732 
L 108.546241 122.551252 
L 108.930619 124.178242 
L 109.314997 126.845888 
L 109.699375 122.750042 
L 110.083753 125.536962 
L 110.468131 129.212454 
L 110.852509 130.768806 
L 111.236887 125.43776 
L 111.621265 122.480228 
L 112.005643 122.939182 
L 112.390021 123.581872 
L 112.774398 127.101034 
L 113.158776 133.312932 
L 113.543154 142.106398 
L 113.927532 127.582762 
L 114.31191 124.045844 
L 114.696288 124.106446 
L 115.080666 123.255316 
L 115.465044 124.464654 
L 115.849422 126.598076 
L 116.2338 122.366744 
L 116.618178 128.413048 
L 117.002556 130.921276 
L 117.386933 131.491398 
L 117.771311 128.887828 
L 118.155689 148.939756 
L 118.540067 126.247974 
L 118.924445 122.886686 
L 119.308823 125.976616 
L 119.693201 134.63421 
L 120.077579 128.582502 
L 120.461957 129.916904 
L 121.230713 135.827336 
L 121.61509 131.983934 
L 121.999468 133.377394 
L 122.383846 138.429748 
L 122.768224 140.376732 
L 123.152602 132.344072 
L 123.53698 145.204048 
L 123.921358 131.288362 
L 124.305736 127.065908 
L 124.690114 128.106178 
L 125.074492 129.640914 
L 125.45887 126.94316 
L 126.227625 131.056376 
L 126.612003 132.098576 
L 126.996381 127.976482 
L 127.380759 129.495006 
L 127.765137 128.109266 
L 128.149515 127.721722 
L 128.533893 126.589584 
L 128.918271 130.51366 
L 129.302649 128.564746 
L 129.687027 133.72711 
L 130.071405 131.410724 
L 130.455782 134.79054 
L 130.84016 134.321164 
L 131.224538 132.60964 
L 131.608916 133.47621 
L 131.993294 131.203442 
L 132.377672 130.7607 
L 132.76205 129.981366 
L 133.146428 131.787074 
L 133.530806 131.102696 
L 133.915184 128.268298 
L 134.299562 136.51596 
L 135.068317 127.086752 
L 135.452695 132.273434 
L 135.837073 126.579934 
L 136.221451 128.656228 
L 136.605829 129.63165 
L 136.990207 133.559972 
L 137.374585 127.376252 
L 138.143341 131.768546 
L 138.527719 128.574782 
L 138.912097 134.437736 
L 139.680852 126.82736 
L 140.06523 127.005692 
L 140.449608 138.353706 
L 140.833986 140.270968 
L 141.218364 134.045174 
L 141.602742 130.50594 
L 141.98712 132.732388 
L 142.371498 131.637692 
L 142.755876 128.57787 
L 143.140254 127.969148 
L 143.524631 129.080056 
L 143.909009 126.208602 
L 144.293387 128.431576 
L 144.677765 126.574144 
L 145.062143 127.024992 
L 145.446521 127.136932 
L 145.830899 125.560894 
L 146.215277 129.200488 
L 146.599655 123.417822 
L 146.984033 124.830582 
L 147.368411 136.531014 
L 147.752788 157.793438 
L 148.137166 157.361504 
L 148.521544 135.451372 
L 148.905922 127.018816 
L 149.2903 124.68699 
L 149.674678 137.655818 
L 150.059056 126.124454 
L 150.443434 129.533606 
L 150.827812 136.839814 
L 151.21219 130.285534 
L 151.596568 128.55278 
L 151.980946 130.487798 
L 152.365323 126.483048 
L 152.749701 134.152482 
L 153.134079 128.13011 
L 153.518457 131.732262 
L 153.902835 131.570528 
L 154.287213 133.164708 
L 154.671591 128.862352 
L 155.055969 130.798528 
L 155.440347 131.222742 
L 155.824725 125.722628 
L 156.209103 128.592538 
L 156.59348 135.746276 
L 156.977858 128.497582 
L 157.746614 133.147724 
L 158.899748 123.067334 
L 159.284126 124.697798 
L 159.668504 133.764938 
L 160.052882 126.598848 
L 160.43726 126.523578 
L 160.821638 128.028978 
L 161.206015 125.075306 
L 161.590393 126.427464 
L 161.974771 127.137318 
L 162.359149 125.745016 
L 162.743527 126.728158 
L 163.127905 129.300076 
L 163.512283 124.215298 
L 163.896661 129.81114 
L 164.281039 126.29082 
L 164.665417 127.14195 
L 165.049795 130.35733 
L 165.434172 128.706022 
L 165.81855 129.285794 
L 166.202928 130.17977 
L 166.587306 150.377992 
L 167.356062 125.304976 
L 167.74044 136.125714 
L 168.509196 129.090092 
L 168.893574 131.65622 
L 169.277952 131.342788 
L 169.662329 125.872396 
L 170.046707 127.252732 
L 170.431085 125.330838 
L 170.815463 126.537474 
L 171.199841 140.190294 
L 171.968597 123.116356 
L 172.352975 128.84421 
L 172.737353 143.717948 
L 173.121731 129.204734 
L 173.506109 123.193556 
L 173.890487 123.865968 
L 174.274864 126.370722 
L 174.659242 128.142076 
L 175.04362 123.198188 
L 175.427998 124.885394 
L 175.812376 124.964524 
L 176.196754 126.124068 
L 176.581132 126.206672 
L 176.96551 124.456162 
L 177.349888 126.760582 
L 177.734266 126.224042 
L 178.118644 131.440446 
L 178.503021 125.396844 
L 178.887399 131.022794 
L 179.271777 127.851804 
L 179.656155 128.165236 
L 180.040533 126.179652 
L 180.424911 128.423856 
L 180.809289 129.845494 
L 181.193667 126.225972 
L 181.578045 126.3217 
L 181.962423 123.806524 
L 182.346801 125.448182 
L 182.731179 121.387848 
L 183.115556 124.84525 
L 183.499934 122.551638 
L 183.884312 130.13152 
L 184.26869 133.312546 
L 184.653068 126.762126 
L 185.037446 126.794936 
L 185.421824 128.800592 
L 186.19058 123.876004 
L 186.574958 130.31294 
L 186.959336 125.083026 
L 187.343713 124.616738 
L 187.728091 136.341102 
L 188.112469 126.866346 
L 188.496847 127.595886 
L 188.881225 143.901298 
L 189.265603 153.884802 
L 189.649981 152.05246 
L 190.418737 154.695788 
L 190.803115 142.964476 
L 191.187493 125.196896 
L 191.57187 126.275766 
L 192.340626 124.66769 
L 192.725004 124.49978 
L 193.109382 124.743732 
L 193.49376 123.626648 
L 193.878138 122.976624 
L 194.262516 127.143108 
L 194.646894 124.195612 
L 195.41565 139.14848 
L 195.800028 132.467592 
L 196.184405 137.978128 
L 196.568783 127.84833 
L 196.953161 127.129212 
L 197.337539 130.559594 
L 198.106295 145.313672 
L 198.875051 123.939694 
L 199.259429 148.94516 
L 199.643807 130.22802 
L 200.028185 140.774312 
L 200.412562 157.71894 
L 201.181318 157.748276 
L 201.565696 144.608064 
L 201.950074 123.428244 
L 202.334452 124.012648 
L 202.71883 134.292214 
L 203.103208 128.889372 
L 203.487586 129.608104 
L 203.871964 137.64115 
L 204.256342 129.865566 
L 204.64072 124.88771 
L 205.025097 125.07106 
L 205.409475 124.374716 
L 205.793853 139.003344 
L 206.178231 132.686454 
L 206.562609 131.479818 
L 206.946987 138.01171 
L 207.331365 131.77009 
L 207.715743 130.3361 
L 208.100121 126.464134 
L 208.484499 126.34486 
L 208.868877 141.50887 
L 209.253254 127.612484 
L 209.637632 126.56102 
L 210.02201 129.342536 
L 210.406388 125.201528 
L 210.790766 126.577232 
L 211.175144 125.62883 
L 211.9439 129.674496 
L 212.328278 122.93455 
L 212.712656 133.258506 
L 213.097034 136.586212 
L 213.481411 133.591624 
L 213.865789 135.461408 
L 214.250167 126.806516 
L 214.634545 127.84061 
L 215.018923 130.394386 
L 215.403301 123.839334 
L 215.787679 134.009276 
L 216.556435 147.405406 
L 216.940813 134.644632 
L 217.325191 127.362742 
L 217.709569 126.653274 
L 218.093946 128.534252 
L 218.862702 131.33198 
L 219.24708 129.128692 
L 219.631458 135.026386 
L 220.400214 128.186852 
L 220.784592 130.231108 
L 221.16897 123.424384 
L 221.937726 139.350744 
L 222.322103 139.709724 
L 222.706481 124.027316 
L 223.090859 124.883078 
L 223.475237 130.356558 
L 223.859615 124.22572 
L 224.243993 129.384996 
L 224.628371 127.791588 
L 225.012749 123.089722 
L 225.781505 126.997972 
L 226.165883 134.98547 
L 226.550261 138.757462 
L 226.934638 151.490444 
L 227.319016 149.270944 
L 227.703394 156.509216 
L 228.087772 154.437168 
L 228.47215 154.055028 
L 228.856528 150.933446 
L 229.240906 146.21228 
L 229.625284 149.032396 
L 230.009662 148.53214 
L 230.39404 142.7267 
L 230.778418 147.228232 
L 231.162795 147.538576 
L 231.547173 140.2949 
L 231.931551 141.710748 
L 232.315929 140.447756 
L 232.700307 141.653234 
L 233.084685 139.004116 
L 233.469063 135.02407 
L 233.853441 139.771484 
L 234.237819 128.71297 
L 234.622197 125.384878 
L 235.006575 125.563596 
L 235.390952 125.137066 
L 235.77533 121.420658 
L 236.159708 124.62523 
L 236.544086 129.139114 
L 236.928464 121.837538 
L 237.312842 122.425416 
L 237.69722 127.594342 
L 238.081598 121.457328 
L 238.465976 124.601298 
L 238.850354 124.766892 
L 239.234732 125.194966 
L 239.61911 126.979058 
L 240.003487 126.43943 
L 240.387865 126.92772 
L 240.772243 123.341008 
L 241.156621 136.22067 
L 241.540999 153.13519 
L 241.925377 133.774588 
L 242.309755 130.4326 
L 242.694133 128.944184 
L 243.078511 126.378828 
L 243.462889 127.815906 
L 243.847267 127.988834 
L 244.231644 133.219134 
L 244.616022 136.142698 
L 245.0004 126.307418 
L 245.384778 121.431466 
L 245.769156 121.596674 
L 246.153534 123.462212 
L 246.537912 122.914092 
L 246.92229 128.585204 
L 247.306668 140.870426 
L 247.691046 138.926144 
L 248.075424 139.717444 
L 248.459801 134.162518 
L 248.844179 121.512526 
L 249.228557 132.986376 
L 249.612935 131.828762 
L 249.997313 127.700492 
L 250.381691 136.356928 
L 250.766069 124.17747 
L 251.150447 127.363514 
L 251.534825 140.1598 
L 251.919203 132.00362 
L 252.303581 143.629554 
L 253.072336 131.620708 
L 253.456714 131.38216 
L 253.841092 139.768396 
L 254.22547 124.151608 
L 254.609848 133.86028 
L 254.994226 130.757998 
L 255.378604 140.355502 
L 255.762982 137.774706 
L 256.14736 141.745874 
L 256.531738 130.448812 
L 256.916116 126.189688 
L 257.300493 131.927192 
L 257.684871 126.74823 
L 258.069249 134.38524 
L 258.453627 132.963216 
L 258.838005 147.380702 
L 259.222383 129.843564 
L 259.606761 127.459242 
L 259.991139 140.80828 
L 260.375517 133.40094 
L 260.759895 133.664192 
L 261.144273 140.215384 
L 261.528651 130.214124 
L 261.913028 129.523184 
L 262.297406 139.593152 
L 262.681784 135.623914 
L 263.066162 150.227838 
L 263.45054 127.263154 
L 263.834918 131.597934 
L 264.219296 139.373904 
L 264.603674 140.876988 
L 264.988052 139.788854 
L 265.37243 136.320644 
L 265.756808 129.994876 
L 266.141185 143.208042 
L 266.525563 131.467852 
L 266.909941 138.212816 
L 267.678697 130.40944 
L 268.063075 121.725598 
L 268.447453 128.777432 
L 268.831831 126.870206 
L 269.216209 137.576302 
L 269.600587 126.3603 
L 269.984965 136.006054 
L 270.369342 122.9635 
L 270.75372 137.313436 
L 271.138098 134.511462 
L 271.522476 132.94353 
L 271.906854 137.507594 
L 272.291232 134.299934 
L 272.67561 134.944168 
L 273.059988 132.340984 
L 273.444366 134.181046 
L 273.828744 129.735098 
L 274.213122 129.49269 
L 274.5975 133.710126 
L 274.981877 131.199582 
L 275.366255 133.594326 
L 275.750633 141.708432 
L 276.135011 142.804286 
L 276.519389 140.566258 
L 276.903767 149.10535 
L 277.288145 143.030096 
L 277.672523 156.452474 
L 278.441279 144.642418 
L 278.825657 143.4601 
L 279.210034 152.907064 
L 279.594412 147.46485 
L 280.363168 157.8 
L 280.363168 157.8 
" style="fill:none;stroke:#1f77b4;stroke-linecap:square;stroke-width:1.5;"/>
   </g>
   <g id="patch_9">
    <path d="M 33.8 157.8 
L 33.8 119.2 
" style="fill:none;stroke:#000000;stroke-linecap:square;stroke-linejoin:miter;stroke-width:0.8;"/>
   </g>
   <g id="patch_10">
    <path d="M 43.8 167.8 
L 280.36579 167.8 
" style="fill:none;stroke:#000000;stroke-linecap:square;stroke-linejoin:miter;stroke-width:0.8;"/>
   </g>
   <g id="text_46">
    <!-- 3R -->
    <defs>
     <path d="M 46.578125 39.3125 
Q 53.953125 37.40625 57.78125 32.6875 
Q 61.625 27.984375 61.625 20.703125 
Q 61.625 9.859375 53.3125 4.21875 
Q 45.015625 -1.421875 29.109375 -1.421875 
Q 23.484375 -1.421875 17.84375 -0.515625 
Q 12.203125 0.390625 6.6875 2.203125 
L 6.6875 16.703125 
Q 11.96875 14.0625 17.15625 12.71875 
Q 22.359375 11.375 27.390625 11.375 
Q 34.859375 11.375 38.84375 13.953125 
Q 42.828125 16.546875 42.828125 21.390625 
Q 42.828125 26.375 38.75 28.9375 
Q 34.671875 31.5 26.703125 31.5 
L 19.1875 31.5 
L 19.1875 43.609375 
L 27.09375 43.609375 
Q 34.1875 43.609375 37.640625 45.828125 
Q 41.109375 48.046875 41.109375 52.59375 
Q 41.109375 56.78125 37.734375 59.078125 
Q 34.375 61.375 28.21875 61.375 
Q 23.6875 61.375 19.046875 60.34375 
Q 14.40625 59.328125 9.8125 57.328125 
L 9.8125 71.09375 
Q 15.375 72.65625 20.84375 73.4375 
Q 26.3125 74.21875 31.59375 74.21875 
Q 45.796875 74.21875 52.84375 69.546875 
Q 59.90625 64.890625 59.90625 55.515625 
Q 59.90625 49.125 56.53125 45.046875 
Q 53.171875 40.96875 46.578125 39.3125 
z
" id="DejaVuSans-Bold-51"/>
    </defs>
    <g transform="translate(153.288207 113.2)scale(0.12 -0.12)">
     <use xlink:href="#DejaVuSans-Bold-51"/>
     <use x="69.580078" xlink:href="#DejaVuSans-Bold-82"/>
    </g>
   </g>
  </g>
  <g id="axes_4">
   <g id="patch_11">
    <path d="M 295.63421 157.8 
L 532.2 157.8 
L 532.2 119.2 
L 295.63421 119.2 
z
" style="fill:#ffffff;"/>
   </g>
   <g id="matplotlib.axis_7">
    <g id="xtick_35">
     <g id="line2d_53">
      <g>
       <use style="stroke:#000000;stroke-width:0.8;" x="295.63421" xlink:href="#m6b1102fbdb" y="167.8"/>
      </g>
     </g>
     <g id="text_47">
      <!-- 0 -->
      <g transform="translate(292.45296 182.398438)scale(0.1 -0.1)">
       <use xlink:href="#DejaVuSans-48"/>
      </g>
     </g>
    </g>
    <g id="xtick_36">
     <g id="line2d_54">
      <g>
       <use style="stroke:#000000;stroke-width:0.8;" x="314.853106" xlink:href="#m6b1102fbdb" y="167.8"/>
      </g>
     </g>
     <g id="text_48">
      <!-- 5 -->
      <g transform="translate(311.671856 182.398438)scale(0.1 -0.1)">
       <use xlink:href="#DejaVuSans-53"/>
      </g>
     </g>
    </g>
    <g id="xtick_37">
     <g id="line2d_55">
      <g>
       <use style="stroke:#000000;stroke-width:0.8;" x="334.072002" xlink:href="#m6b1102fbdb" y="167.8"/>
      </g>
     </g>
     <g id="text_49">
      <!-- 10 -->
      <g transform="translate(327.709502 182.398438)scale(0.1 -0.1)">
       <use xlink:href="#DejaVuSans-49"/>
       <use x="63.623047" xlink:href="#DejaVuSans-48"/>
      </g>
     </g>
    </g>
    <g id="xtick_38">
     <g id="line2d_56">
      <g>
       <use style="stroke:#000000;stroke-width:0.8;" x="353.290897" xlink:href="#m6b1102fbdb" y="167.8"/>
      </g>
     </g>
     <g id="text_50">
      <!-- 15 -->
      <g transform="translate(346.928397 182.398438)scale(0.1 -0.1)">
       <use xlink:href="#DejaVuSans-49"/>
       <use x="63.623047" xlink:href="#DejaVuSans-53"/>
      </g>
     </g>
    </g>
    <g id="xtick_39">
     <g id="line2d_57">
      <g>
       <use style="stroke:#000000;stroke-width:0.8;" x="372.509793" xlink:href="#m6b1102fbdb" y="167.8"/>
      </g>
     </g>
     <g id="text_51">
      <!-- 20 -->
      <g transform="translate(366.147293 182.398438)scale(0.1 -0.1)">
       <use xlink:href="#DejaVuSans-50"/>
       <use x="63.623047" xlink:href="#DejaVuSans-48"/>
      </g>
     </g>
    </g>
    <g id="xtick_40">
     <g id="line2d_58">
      <g>
       <use style="stroke:#000000;stroke-width:0.8;" x="391.728688" xlink:href="#m6b1102fbdb" y="167.8"/>
      </g>
     </g>
     <g id="text_52">
      <!-- 25 -->
      <g transform="translate(385.366188 182.398438)scale(0.1 -0.1)">
       <use xlink:href="#DejaVuSans-50"/>
       <use x="63.623047" xlink:href="#DejaVuSans-53"/>
      </g>
     </g>
    </g>
    <g id="xtick_41">
     <g id="line2d_59">
      <g>
       <use style="stroke:#000000;stroke-width:0.8;" x="410.947584" xlink:href="#m6b1102fbdb" y="167.8"/>
      </g>
     </g>
     <g id="text_53">
      <!-- 30 -->
      <g transform="translate(404.585084 182.398438)scale(0.1 -0.1)">
       <use xlink:href="#DejaVuSans-51"/>
       <use x="63.623047" xlink:href="#DejaVuSans-48"/>
      </g>
     </g>
    </g>
    <g id="xtick_42">
     <g id="line2d_60">
      <g>
       <use style="stroke:#000000;stroke-width:0.8;" x="430.16648" xlink:href="#m6b1102fbdb" y="167.8"/>
      </g>
     </g>
     <g id="text_54">
      <!-- 35 -->
      <g transform="translate(423.80398 182.398438)scale(0.1 -0.1)">
       <use xlink:href="#DejaVuSans-51"/>
       <use x="63.623047" xlink:href="#DejaVuSans-53"/>
      </g>
     </g>
    </g>
    <g id="xtick_43">
     <g id="line2d_61">
      <g>
       <use style="stroke:#000000;stroke-width:0.8;" x="449.385375" xlink:href="#m6b1102fbdb" y="167.8"/>
      </g>
     </g>
     <g id="text_55">
      <!-- 40 -->
      <g transform="translate(443.022875 182.398438)scale(0.1 -0.1)">
       <use xlink:href="#DejaVuSans-52"/>
       <use x="63.623047" xlink:href="#DejaVuSans-48"/>
      </g>
     </g>
    </g>
   </g>
   <g id="matplotlib.axis_8">
    <g id="ytick_16">
     <g id="line2d_62">
      <g>
       <use style="stroke:#000000;stroke-width:0.8;" x="542.2" xlink:href="#m52b9682773" y="157.8"/>
      </g>
     </g>
     <g id="text_56">
      <!-- 0.0 -->
      <g transform="translate(549.2 161.599219)scale(0.1 -0.1)">
       <use xlink:href="#DejaVuSans-48"/>
       <use x="63.623047" xlink:href="#DejaVuSans-46"/>
       <use x="95.410156" xlink:href="#DejaVuSans-48"/>
      </g>
     </g>
    </g>
    <g id="ytick_17">
     <g id="line2d_63">
      <g>
       <use style="stroke:#000000;stroke-width:0.8;" x="542.2" xlink:href="#m52b9682773" y="138.5"/>
      </g>
     </g>
     <g id="text_57">
      <!-- 0.5 -->
      <g transform="translate(549.2 142.299219)scale(0.1 -0.1)">
       <use xlink:href="#DejaVuSans-48"/>
       <use x="63.623047" xlink:href="#DejaVuSans-46"/>
       <use x="95.410156" xlink:href="#DejaVuSans-53"/>
      </g>
     </g>
    </g>
    <g id="ytick_18">
     <g id="line2d_64">
      <g>
       <use style="stroke:#000000;stroke-width:0.8;" x="542.2" xlink:href="#m52b9682773" y="119.2"/>
      </g>
     </g>
     <g id="text_58">
      <!-- 1.0 -->
      <g transform="translate(549.2 122.999219)scale(0.1 -0.1)">
       <use xlink:href="#DejaVuSans-49"/>
       <use x="63.623047" xlink:href="#DejaVuSans-46"/>
       <use x="95.410156" xlink:href="#DejaVuSans-48"/>
      </g>
     </g>
    </g>
    <g id="ytick_19">
     <g id="line2d_65">
      <g>
       <use style="stroke:#000000;stroke-width:0.6;" x="542.2" xlink:href="#mf559198444" y="148.15"/>
      </g>
     </g>
    </g>
    <g id="ytick_20">
     <g id="line2d_66">
      <g>
       <use style="stroke:#000000;stroke-width:0.6;" x="542.2" xlink:href="#mf559198444" y="128.85"/>
      </g>
     </g>
    </g>
   </g>
   <g id="line2d_67">
    <path clip-path="url(#p2cae44c767)" d="M 295.634214 149.575112 
L 296.018592 142.815866 
L 296.40297 152.920188 
L 296.787348 141.78679 
L 297.171726 155.531478 
L 297.556104 152.562752 
L 298.32486 141.457146 
L 298.709237 136.581966 
L 299.093615 147.956614 
L 299.477993 149.494824 
L 299.862371 147.962018 
L 300.246749 139.770326 
L 300.631127 147.693362 
L 301.015505 149.889702 
L 301.399883 138.759778 
L 302.168639 135.585314 
L 302.553017 134.86002 
L 302.937395 127.531038 
L 303.321772 122.897494 
L 303.70615 126.382688 
L 304.090528 126.268432 
L 304.474906 137.387548 
L 304.859284 128.229312 
L 305.243662 135.108604 
L 305.62804 132.651328 
L 306.012418 136.455358 
L 306.396796 130.970298 
L 306.781174 129.416648 
L 307.165552 132.34137 
L 307.549929 131.36865 
L 307.934307 132.26996 
L 308.318685 125.407652 
L 308.703063 121.766128 
L 309.087441 121.508666 
L 309.856197 130.312168 
L 310.240575 129.732782 
L 310.624953 129.803034 
L 311.009331 130.286692 
L 311.393709 133.430662 
L 312.162464 146.276742 
L 312.93122 155.46277 
L 313.315598 154.243782 
L 313.699976 152.027756 
L 314.084354 131.691732 
L 314.468732 141.812266 
L 314.85311 129.3132 
L 315.237488 124.776928 
L 315.621866 131.219654 
L 316.006244 121.969936 
L 316.390621 124.559224 
L 316.774999 130.686588 
L 317.159377 121.233062 
L 317.928133 130.397474 
L 318.312511 127.548408 
L 318.696889 132.0731 
L 319.081267 138.77599 
L 319.465645 128.024732 
L 319.850023 133.258892 
L 320.234401 128.292616 
L 321.003156 124.14273 
L 321.387534 123.890286 
L 321.771912 135.330554 
L 322.15629 131.85887 
L 322.540668 131.590214 
L 323.309424 152.898572 
L 323.693802 143.515298 
L 324.07818 147.27378 
L 324.462558 142.321786 
L 324.846936 133.834032 
L 325.231313 156.162588 
L 325.615691 130.003368 
L 326.000069 135.56061 
L 326.384447 133.03424 
L 326.768825 142.986478 
L 327.153203 131.654676 
L 327.537581 128.913304 
L 327.921959 132.269574 
L 328.306337 130.19521 
L 328.690715 130.658024 
L 329.075093 132.012112 
L 329.843848 137.438886 
L 330.228226 133.220292 
L 330.612604 137.739194 
L 330.996982 148.770688 
L 331.38136 128.25363 
L 331.765738 142.872608 
L 332.150116 147.427408 
L 332.534494 133.593554 
L 332.918872 133.906214 
L 333.30325 138.632784 
L 333.687627 156.723446 
L 334.072005 130.337644 
L 334.456383 144.613082 
L 334.840761 130.911626 
L 335.225139 134.803278 
L 335.609517 125.26599 
L 335.993895 131.008126 
L 336.378273 133.282824 
L 336.762651 133.31795 
L 337.147029 141.295798 
L 337.531407 139.91083 
L 337.915785 133.847928 
L 338.300162 142.077062 
L 338.68454 138.91109 
L 339.068918 125.58637 
L 339.837674 144.816504 
L 340.222052 137.247044 
L 340.60643 126.525894 
L 340.990808 125.105414 
L 341.375186 126.911894 
L 341.759564 130.650304 
L 342.143942 127.597044 
L 342.528319 132.14065 
L 342.912697 134.567818 
L 343.297075 125.168718 
L 343.681453 123.135656 
L 344.065831 131.821814 
L 344.450209 126.340228 
L 344.834587 129.77061 
L 345.218965 134.79826 
L 345.603343 126.780268 
L 345.987721 131.487152 
L 346.372099 128.685178 
L 347.140854 125.579036 
L 347.525232 132.28733 
L 347.90961 129.581856 
L 348.293988 148.674574 
L 348.678366 144.352918 
L 349.062744 142.443762 
L 349.447122 127.137704 
L 349.8315 123.989488 
L 350.215878 125.859658 
L 350.984634 131.987794 
L 351.753389 133.39322 
L 352.137767 128.0201 
L 352.522145 133.145794 
L 352.906523 128.729182 
L 353.290901 128.405714 
L 353.675279 128.91562 
L 354.059657 132.78141 
L 354.444035 125.992056 
L 354.828413 129.699972 
L 355.212791 142.83671 
L 355.597168 139.922796 
L 356.365924 130.908924 
L 356.750302 150.170324 
L 357.13468 142.38316 
L 357.519058 152.923662 
L 357.903436 140.262476 
L 358.287814 123.173098 
L 359.05657 129.366082 
L 359.440948 124.393244 
L 359.825326 124.695868 
L 360.209703 124.604772 
L 360.594081 122.503388 
L 360.978459 125.840744 
L 361.362837 125.65006 
L 361.747215 122.267156 
L 362.515971 127.884228 
L 362.900349 127.33881 
L 363.669105 131.345876 
L 364.053483 132.54981 
L 364.43786 144.500756 
L 364.822238 124.120342 
L 365.206616 129.253756 
L 365.590994 128.596398 
L 365.975372 125.365578 
L 366.744128 123.836632 
L 367.128506 129.064616 
L 367.512884 127.3832 
L 367.897262 127.17669 
L 368.28164 129.977506 
L 368.666017 125.811022 
L 369.050395 129.94238 
L 369.434773 126.837396 
L 369.819151 125.7234 
L 370.203529 126.33328 
L 370.587907 127.203324 
L 370.972285 127.786184 
L 371.356663 123.941238 
L 371.741041 130.083656 
L 372.125419 131.873538 
L 372.509797 131.410338 
L 372.894175 125.425794 
L 373.278552 135.017894 
L 373.66293 156.393416 
L 374.047308 128.38873 
L 374.431686 127.551496 
L 374.816064 127.344214 
L 375.200442 128.859264 
L 375.58482 134.628806 
L 375.969198 131.166386 
L 376.353576 131.210776 
L 376.737954 127.318738 
L 377.122332 127.776534 
L 377.506709 128.035154 
L 377.891087 131.018934 
L 378.275465 131.047884 
L 378.659843 131.692504 
L 379.044221 126.409708 
L 379.428599 145.608962 
L 379.812977 130.288622 
L 380.197355 126.955126 
L 380.966111 130.474288 
L 381.350489 127.828644 
L 381.734867 132.62508 
L 382.119244 124.640284 
L 382.503622 127.598974 
L 382.888 132.319754 
L 383.272378 125.01702 
L 383.656756 127.436854 
L 384.041134 132.73509 
L 384.425512 129.411244 
L 384.80989 133.328372 
L 385.194268 157.754066 
L 385.578646 137.454712 
L 385.963024 137.062922 
L 386.347401 123.9671 
L 386.731779 129.882936 
L 387.116157 140.446984 
L 387.500535 135.770594 
L 387.884913 129.092408 
L 388.269291 130.498606 
L 388.653669 127.021132 
L 389.038047 130.143486 
L 389.806803 145.458036 
L 390.191181 148.166598 
L 390.575558 130.142328 
L 390.959936 125.939946 
L 391.344314 129.134096 
L 391.728692 126.095118 
L 392.11307 129.841634 
L 392.497448 128.618786 
L 393.266204 137.254764 
L 393.650582 136.760684 
L 394.03496 133.122248 
L 394.419338 133.21952 
L 394.803716 129.935818 
L 395.572471 126.21555 
L 395.956849 127.1709 
L 396.341227 132.887946 
L 396.725605 126.631272 
L 397.109983 132.61736 
L 397.494361 136.67422 
L 397.878739 132.123666 
L 398.263117 130.223774 
L 398.647495 134.717586 
L 399.031873 142.130716 
L 399.41625 128.221978 
L 399.800628 126.077748 
L 400.185006 128.755044 
L 400.569384 123.027962 
L 400.953762 124.350398 
L 401.33814 123.792628 
L 401.722518 130.09099 
L 402.106896 128.466702 
L 402.491274 125.837656 
L 402.875652 126.315524 
L 403.26003 126.33907 
L 403.644408 131.056376 
L 404.028785 127.28477 
L 404.413163 129.182732 
L 404.797541 135.169978 
L 405.181919 129.677584 
L 405.566297 131.80483 
L 405.950675 128.492178 
L 406.719431 126.23485 
L 407.103809 137.319612 
L 407.488187 129.569118 
L 407.872565 130.966824 
L 408.256942 127.288244 
L 408.64132 126.26766 
L 409.025698 124.024228 
L 409.410076 126.907648 
L 409.794454 123.24335 
L 410.178832 125.809864 
L 410.56321 129.893358 
L 410.947588 129.648634 
L 411.331966 129.834686 
L 411.716344 125.847306 
L 412.100722 125.29687 
L 412.869477 126.704226 
L 413.253855 126.405848 
L 413.638233 127.032326 
L 414.022611 127.191744 
L 414.406989 127.48742 
L 415.175745 137.02162 
L 415.944501 124.166276 
L 416.328879 126.172318 
L 416.713257 126.103224 
L 417.097634 125.917944 
L 417.482012 127.864928 
L 417.86639 127.777306 
L 418.250768 126.06887 
L 418.635146 130.978404 
L 419.019524 130.640654 
L 419.403902 129.453318 
L 419.78828 125.807162 
L 420.172658 127.78078 
L 420.557036 126.762512 
L 420.941414 127.62638 
L 421.325791 124.28941 
L 421.710169 131.333138 
L 422.094547 129.84009 
L 422.478925 127.207184 
L 422.863303 131.69482 
L 423.247681 129.175012 
L 423.632059 130.882676 
L 424.016437 126.0129 
L 424.400815 129.510446 
L 424.785193 127.299052 
L 425.169571 127.641434 
L 425.553949 128.168324 
L 425.938326 127.263926 
L 426.322704 127.81359 
L 426.707082 129.13757 
L 427.09146 126.357598 
L 427.475838 126.324402 
L 427.860216 124.75647 
L 428.244594 124.413316 
L 428.628972 128.418066 
L 429.01335 125.21388 
L 429.397728 129.972488 
L 430.166483 126.765214 
L 430.550861 129.500024 
L 430.935239 128.24591 
L 431.319617 126.227516 
L 431.703995 126.329806 
L 432.088373 125.143242 
L 432.472751 132.016744 
L 432.857129 123.589978 
L 433.241507 132.701894 
L 433.625885 123.136814 
L 434.010263 127.36197 
L 434.39464 127.320668 
L 434.779018 137.551984 
L 435.163396 141.807248 
L 435.547774 153.176492 
L 435.932152 140.957276 
L 436.31653 134.014294 
L 436.700908 124.982666 
L 437.085286 131.201126 
L 437.469664 125.19844 
L 437.854042 124.397876 
L 438.23842 126.64787 
L 438.622798 136.506696 
L 439.007175 143.16867 
L 439.391553 131.45936 
L 439.775931 135.810738 
L 440.160309 126.821956 
L 440.544687 127.69779 
L 440.929065 130.374314 
L 441.313443 129.901464 
L 441.697821 127.746812 
L 442.082199 129.096654 
L 442.466577 126.710402 
L 442.850955 126.361458 
L 443.235332 129.533992 
L 443.61971 123.611208 
L 444.004088 147.417758 
L 444.388466 129.015208 
L 444.772844 123.603102 
L 445.157222 125.410354 
L 445.5416 129.791454 
L 445.925978 128.738446 
L 446.310356 122.907916 
L 446.694734 122.913706 
L 447.079112 122.101562 
L 447.847867 129.995648 
L 448.232245 127.680034 
L 449.001001 125.328908 
L 449.385379 122.88823 
L 449.769757 124.146204 
L 450.154135 123.004802 
L 450.538513 128.113512 
L 450.922891 122.588308 
L 451.307269 122.657016 
L 451.691647 122.37292 
L 452.460402 127.955252 
L 452.84478 122.735374 
L 453.229158 140.749222 
L 453.613536 127.217992 
L 453.997914 120.934684 
L 454.382292 121.29405 
L 454.76667 120.390424 
L 455.151048 122.169884 
L 455.535426 121.169758 
L 456.304181 129.642844 
L 456.688559 131.500156 
L 456.688559 131.500156 
" style="fill:none;stroke:#1f77b4;stroke-linecap:square;stroke-width:1.5;"/>
   </g>
   <g id="patch_12">
    <path d="M 542.2 157.8 
L 542.2 119.2 
" style="fill:none;stroke:#000000;stroke-linecap:square;stroke-linejoin:miter;stroke-width:0.8;"/>
   </g>
   <g id="patch_13">
    <path d="M 295.63421 167.8 
L 532.2 167.8 
" style="fill:none;stroke:#000000;stroke-linecap:square;stroke-linejoin:miter;stroke-width:0.8;"/>
   </g>
   <g id="text_59">
    <!-- 3L -->
    <g transform="translate(405.919293 113.2)scale(0.12 -0.12)">
     <use xlink:href="#DejaVuSans-Bold-51"/>
     <use x="69.580078" xlink:href="#DejaVuSans-Bold-76"/>
    </g>
   </g>
  </g>
  <g id="axes_5">
   <g id="patch_14">
    <path d="M 43.8 250.2 
L 280.36579 250.2 
L 280.36579 211.6 
L 43.8 211.6 
z
" style="fill:#ffffff;"/>
   </g>
   <g id="matplotlib.axis_9">
    <g id="xtick_44">
     <g id="line2d_68">
      <g>
       <use style="stroke:#000000;stroke-width:0.8;" x="186.604074" xlink:href="#m6b1102fbdb" y="260.2"/>
      </g>
     </g>
     <g id="text_60">
      <!-- 0 -->
      <g transform="translate(183.422824 274.798437)scale(0.1 -0.1)">
       <use xlink:href="#DejaVuSans-48"/>
      </g>
     </g>
    </g>
    <g id="xtick_45">
     <g id="line2d_69">
      <g>
       <use style="stroke:#000000;stroke-width:0.8;" x="205.82297" xlink:href="#m6b1102fbdb" y="260.2"/>
      </g>
     </g>
     <g id="text_61">
      <!-- 5 -->
      <g transform="translate(202.64172 274.798437)scale(0.1 -0.1)">
       <use xlink:href="#DejaVuSans-53"/>
      </g>
     </g>
    </g>
    <g id="xtick_46">
     <g id="line2d_70">
      <g>
       <use style="stroke:#000000;stroke-width:0.8;" x="225.041865" xlink:href="#m6b1102fbdb" y="260.2"/>
      </g>
     </g>
     <g id="text_62">
      <!-- 10 -->
      <g transform="translate(218.679365 274.798437)scale(0.1 -0.1)">
       <use xlink:href="#DejaVuSans-49"/>
       <use x="63.623047" xlink:href="#DejaVuSans-48"/>
      </g>
     </g>
    </g>
    <g id="xtick_47">
     <g id="line2d_71">
      <g>
       <use style="stroke:#000000;stroke-width:0.8;" x="244.260761" xlink:href="#m6b1102fbdb" y="260.2"/>
      </g>
     </g>
     <g id="text_63">
      <!-- 15 -->
      <g transform="translate(237.898261 274.798437)scale(0.1 -0.1)">
       <use xlink:href="#DejaVuSans-49"/>
       <use x="63.623047" xlink:href="#DejaVuSans-53"/>
      </g>
     </g>
    </g>
    <g id="xtick_48">
     <g id="line2d_72">
      <g>
       <use style="stroke:#000000;stroke-width:0.8;" x="263.479657" xlink:href="#m6b1102fbdb" y="260.2"/>
      </g>
     </g>
     <g id="text_64">
      <!-- 20 -->
      <g transform="translate(257.117157 274.798437)scale(0.1 -0.1)">
       <use xlink:href="#DejaVuSans-50"/>
       <use x="63.623047" xlink:href="#DejaVuSans-48"/>
      </g>
     </g>
    </g>
   </g>
   <g id="matplotlib.axis_10">
    <g id="ytick_21">
     <g id="line2d_73">
      <g>
       <use style="stroke:#000000;stroke-width:0.8;" x="33.8" xlink:href="#m0560efd0bc" y="250.2"/>
      </g>
     </g>
     <g id="text_65">
      <!-- 0.0 -->
      <g transform="translate(10.896875 253.999219)scale(0.1 -0.1)">
       <use xlink:href="#DejaVuSans-48"/>
       <use x="63.623047" xlink:href="#DejaVuSans-46"/>
       <use x="95.410156" xlink:href="#DejaVuSans-48"/>
      </g>
     </g>
    </g>
    <g id="ytick_22">
     <g id="line2d_74">
      <g>
       <use style="stroke:#000000;stroke-width:0.8;" x="33.8" xlink:href="#m0560efd0bc" y="230.9"/>
      </g>
     </g>
     <g id="text_66">
      <!-- 0.5 -->
      <g transform="translate(10.896875 234.699219)scale(0.1 -0.1)">
       <use xlink:href="#DejaVuSans-48"/>
       <use x="63.623047" xlink:href="#DejaVuSans-46"/>
       <use x="95.410156" xlink:href="#DejaVuSans-53"/>
      </g>
     </g>
    </g>
    <g id="ytick_23">
     <g id="line2d_75">
      <g>
       <use style="stroke:#000000;stroke-width:0.8;" x="33.8" xlink:href="#m0560efd0bc" y="211.6"/>
      </g>
     </g>
     <g id="text_67">
      <!-- 1.0 -->
      <g transform="translate(10.896875 215.399219)scale(0.1 -0.1)">
       <use xlink:href="#DejaVuSans-49"/>
       <use x="63.623047" xlink:href="#DejaVuSans-46"/>
       <use x="95.410156" xlink:href="#DejaVuSans-48"/>
      </g>
     </g>
    </g>
    <g id="ytick_24">
     <g id="line2d_76">
      <g>
       <use style="stroke:#000000;stroke-width:0.6;" x="33.8" xlink:href="#mf203be7423" y="240.55"/>
      </g>
     </g>
    </g>
    <g id="ytick_25">
     <g id="line2d_77">
      <g>
       <use style="stroke:#000000;stroke-width:0.6;" x="33.8" xlink:href="#mf203be7423" y="221.25"/>
      </g>
     </g>
    </g>
   </g>
   <g id="line2d_78">
    <path clip-path="url(#p469e16a805)" d="M 186.604078 220.659034 
L 186.988456 215.300968 
L 187.372834 215.34227 
L 187.757212 219.227746 
L 188.14159 215.978012 
L 188.525968 220.440558 
L 188.910346 221.446088 
L 189.679101 217.968614 
L 190.063479 220.772518 
L 190.447857 222.59714 
L 190.832235 219.90865 
L 191.216613 218.786162 
L 191.600991 222.071408 
L 191.985369 217.6988 
L 192.369747 220.831576 
L 192.754125 220.422802 
L 193.138503 219.36825 
L 193.522881 227.399366 
L 193.907258 218.873012 
L 194.291636 221.803524 
L 194.676014 218.757212 
L 195.060392 222.570892 
L 195.44477 219.235852 
L 195.829148 218.855256 
L 196.597904 217.452532 
L 196.982282 217.611564 
L 197.36666 217.970158 
L 197.751038 223.92498 
L 198.135415 220.704968 
L 198.519793 216.325026 
L 198.904171 223.850096 
L 199.288549 233.57112 
L 199.672927 218.035778 
L 200.057305 218.715524 
L 200.441683 222.729538 
L 200.826061 219.275996 
L 201.594817 222.426914 
L 201.979195 221.208312 
L 202.363573 218.024198 
L 202.74795 217.757086 
L 203.132328 217.871342 
L 203.516706 220.959728 
L 203.901084 219.490998 
L 204.285462 225.322686 
L 204.66984 220.505792 
L 205.054218 220.627382 
L 205.438596 220.613486 
L 205.822974 218.66573 
L 206.207352 219.697894 
L 206.59173 219.45896 
L 206.976107 218.699698 
L 207.360485 222.725678 
L 207.744863 219.278312 
L 208.129241 218.747948 
L 208.513619 220.692616 
L 208.897997 224.320244 
L 209.282375 219.780498 
L 209.666753 219.546196 
L 210.051131 226.311618 
L 210.435509 222.696342 
L 210.819887 224.344948 
L 211.204264 221.507848 
L 211.588642 224.071274 
L 211.97302 221.580416 
L 212.357398 224.259642 
L 212.741776 225.87621 
L 213.126154 221.101776 
L 213.510532 218.8954 
L 213.89491 218.448798 
L 214.279288 224.531386 
L 214.663666 223.088518 
L 215.048044 218.596636 
L 215.432422 220.31202 
L 215.816799 223.491116 
L 216.201177 224.473486 
L 216.585555 221.383942 
L 216.969933 221.912376 
L 217.354311 220.01673 
L 217.738689 221.073984 
L 218.123067 220.77908 
L 218.507445 220.884458 
L 218.891823 221.870302 
L 219.276201 219.008112 
L 219.660579 222.54117 
L 220.044956 219.868506 
L 220.429334 219.245888 
L 220.813712 224.057378 
L 221.19809 219.479032 
L 221.582468 219.511842 
L 221.966846 221.144622 
L 222.351224 224.889208 
L 222.735602 219.822186 
L 223.11998 220.280754 
L 223.504358 224.047342 
L 223.888736 219.13858 
L 224.273114 227.087092 
L 224.657491 219.091488 
L 225.041869 220.75206 
L 225.426247 218.471958 
L 226.195003 221.047736 
L 226.579381 219.737652 
L 227.348137 222.771226 
L 228.116893 219.140896 
L 228.501271 219.156722 
L 228.885648 222.734942 
L 229.270026 221.969118 
L 229.654404 223.130206 
L 230.038782 228.438478 
L 230.42316 219.344704 
L 230.807538 221.721306 
L 231.191916 225.659664 
L 231.576294 219.044782 
L 231.960672 222.089164 
L 232.34505 218.143086 
L 232.729428 218.49975 
L 233.113805 223.167648 
L 233.498183 219.530756 
L 233.882561 220.749744 
L 234.266939 217.00207 
L 234.651317 217.298132 
L 235.035695 229.757826 
L 235.420073 227.988788 
L 235.804451 224.300944 
L 236.188829 223.441708 
L 236.957585 217.756314 
L 237.341963 221.0763 
L 237.72634 217.888712 
L 238.110718 228.85613 
L 238.495096 218.565756 
L 238.879474 217.656726 
L 239.263852 219.453556 
L 239.64823 218.581196 
L 240.032608 221.241894 
L 240.416986 218.352298 
L 240.801364 216.814474 
L 241.185742 221.71899 
L 241.57012 220.769816 
L 241.954497 218.492416 
L 242.338875 220.84084 
L 242.723253 217.414318 
L 243.107631 218.255798 
L 243.492009 222.41379 
L 243.876387 229.521208 
L 244.260765 243.47395 
L 244.645143 225.346232 
L 245.029521 219.836082 
L 245.413899 223.333242 
L 245.798277 222.294902 
L 246.567032 215.399784 
L 246.95141 222.941066 
L 247.335788 217.863622 
L 247.720166 217.005158 
L 248.104544 219.337756 
L 248.488922 220.912636 
L 248.8733 217.45176 
L 249.257678 215.21489 
L 249.642056 215.670756 
L 250.026434 215.435296 
L 250.410812 214.664454 
L 250.795189 223.00244 
L 251.179567 214.928092 
L 251.563945 221.446088 
L 251.948323 220.546322 
L 252.332701 226.124408 
L 252.717079 228.336574 
L 253.101457 231.78201 
L 253.485835 222.742276 
L 253.870213 220.13639 
L 254.254591 219.725686 
L 254.638969 220.149514 
L 255.023346 217.817688 
L 255.407724 217.727364 
L 255.792102 219.734564 
L 256.17648 218.015706 
L 256.945236 223.33826 
L 257.329614 215.65879 
L 257.713992 216.128552 
L 258.09837 217.91689 
L 258.482748 220.689914 
L 258.867126 219.681296 
L 259.251504 224.82436 
L 259.635881 222.551206 
L 260.020259 215.1512 
L 260.404637 216.041702 
L 260.789015 215.631384 
L 261.557771 220.684896 
L 261.942149 218.979548 
L 262.326527 224.894612 
L 262.710905 219.929494 
L 263.479661 236.54139 
L 263.864038 229.604584 
L 264.248416 246.22227 
L 265.017172 238.314674 
L 265.40155 243.678916 
L 266.170306 237.844912 
L 266.554684 248.310916 
L 266.939062 241.188058 
L 267.32344 237.287528 
L 267.707818 243.688952 
L 268.092195 243.841808 
L 268.476573 236.048468 
L 268.860951 242.246084 
L 269.245329 236.366146 
L 270.014085 240.477046 
L 270.398463 240.74879 
L 270.782841 244.899448 
L 271.167219 240.84722 
L 271.551597 231.787028 
L 272.320353 241.905632 
L 272.70473 235.36795 
L 273.089108 237.077158 
L 273.473486 246.84566 
L 273.857864 235.856626 
L 274.62662 241.64624 
L 275.010998 242.578044 
L 275.395376 248.537112 
L 275.779754 238.775558 
L 276.164132 240.668116 
L 276.54851 240.129646 
L 276.932887 237.520286 
L 277.317265 244.64739 
L 277.701643 237.318794 
L 278.086021 238.858548 
L 278.470399 238.532764 
L 278.854777 244.200788 
L 279.239155 239.086674 
L 279.623533 237.38094 
L 280.007911 244.499631 
L 280.007911 244.499631 
" style="fill:none;stroke:#1f77b4;stroke-linecap:square;stroke-width:1.5;"/>
   </g>
   <g id="patch_15">
    <path d="M 33.8 250.2 
L 33.8 211.6 
" style="fill:none;stroke:#000000;stroke-linecap:square;stroke-linejoin:miter;stroke-width:0.8;"/>
   </g>
   <g id="patch_16">
    <path d="M 43.8 260.2 
L 280.36579 260.2 
" style="fill:none;stroke:#000000;stroke-linecap:square;stroke-linejoin:miter;stroke-width:0.8;"/>
   </g>
   <g id="text_68">
    <!-- X -->
    <defs>
     <path d="M 49.8125 37.203125 
L 75.09375 0 
L 55.515625 0 
L 38.484375 24.90625 
L 21.578125 0 
L 1.90625 0 
L 27.203125 37.203125 
L 2.875 72.90625 
L 22.515625 72.90625 
L 38.484375 49.421875 
L 54.390625 72.90625 
L 74.125 72.90625 
z
" id="DejaVuSans-Bold-88"/>
    </defs>
    <g transform="translate(157.45727 205.6)scale(0.12 -0.12)">
     <use xlink:href="#DejaVuSans-Bold-88"/>
    </g>
   </g>
  </g>
  <g id="axes_6"/>
 </g>
 <defs>
  <clipPath id="p3366cdd010">
   <rect height="38.6" width="236.56579" x="43.8" y="26.8"/>
  </clipPath>
  <clipPath id="p895fb0d390">
   <rect height="38.6" width="236.56579" x="295.63421" y="26.8"/>
  </clipPath>
  <clipPath id="p64a3cdc421">
   <rect height="38.6" width="236.56579" x="43.8" y="119.2"/>
  </clipPath>
  <clipPath id="p2cae44c767">
   <rect height="38.6" width="236.56579" x="295.63421" y="119.2"/>
  </clipPath>
  <clipPath id="p469e16a805">
   <rect height="38.6" width="236.56579" x="43.8" y="211.6"/>
  </clipPath>
 </defs>
</svg>
